<?xml version="1.0" standalone="no"?>
<!DOCTYPE svg PUBLIC "-//W3C//DTD SVG 1.1//EN" "http://www.w3.org/Graphics/SVG/1.1/DTD/svg11.dtd" >
<svg xmlns="http://www.w3.org/2000/svg">
<metadata></metadata>
<defs>
<font id="rt_ralewaylight" horiz-adv-x="1253" >
<font-face units-per-em="2048" ascent="1638" descent="-410" />
<missing-glyph horiz-adv-x="526" />
<glyph unicode="&#xfb01;" horiz-adv-x="991" d="M57 981h150v-981h102v981h420v-981h102v1065h-522v37q0 59 15.5 115.5t46.5 101.5q33 49 84 76.5t116 27.5q74 0 136.5 -18.5t93.5 -46.5l51 72q-51 37 -96 53q-98 33 -189 33q-178 0 -276 -138q-41 -57 -62.5 -132t-21.5 -146v-35h-150v-84z" />
<glyph unicode="&#xfb02;" horiz-adv-x="1150" d="M57 981h150v-981h102v981h238v84h-238v33q0 139 60 225q66 100 186 100q121 0 184 -69q51 -59 52 -152v-1030q0 -78 51 -131t139 -53q20 0 61 4q63 10 97 18q16 4 16 6l-22 86l-41 -10q-45 -10 -82 -10q-55 0 -86 39t-31 88v1010q0 133 -86 213q-90 84 -252 84 q-174 0 -264 -117q-84 -109 -84 -293v-41h-150v-84z" />
<glyph unicode="&#xfb03;" horiz-adv-x="1445" d="M57 981h150v-981h102v981h353v-981h102v981h420v-981h102v1065h-522v37q0 59 15.5 115.5t45.5 101.5q70 104 207 104q66 0 130.5 -19.5t90.5 -45.5l54 72q-59 37 -103 53q-98 33 -182 33q-182 0 -281 -136q-37 23 -94 39.5t-123 16.5q-156 0 -241 -115 q-37 -49 -56.5 -111.5t-19.5 -128.5v-16h-150v-84zM309 1065v16q0 102 49 174q59 88 181 88q111 0 168 -43q-45 -88 -45 -235h-353z" />
<glyph unicode="&#xfb04;" horiz-adv-x="1613" d="M57 981h150v-981h102v981h361v-981h102v981h236v84h-236v29q0 141 57 227q66 102 195 102q111 0 174 -69q53 -59 53 -152v-1030q0 -78 52.5 -131t146.5 -53q16 0 57 4q63 10 95 18q16 4 16 6l-25 86l-14 -2l-29 -8q-41 -10 -77 -10q-57 0 -88 39t-31 88v1010 q0 133 -86 213q-90 84 -250 84q-188 0 -279 -134q-94 53 -202 54q-78 0 -140.5 -28t-105.5 -77q-84 -100 -84 -252v-14h-150v-84zM309 1065v16q0 109 58 179q66 84 186 83q96 0 152 -40q-35 -78 -35 -238h-361z" />
<glyph horiz-adv-x="0" />
<glyph unicode="&#xd;" horiz-adv-x="0" />
<glyph unicode=" "  horiz-adv-x="526" />
<glyph unicode="&#x09;" horiz-adv-x="526" />
<glyph unicode="&#xa0;" horiz-adv-x="526" />
<glyph unicode="!" horiz-adv-x="497" d="M197 0h104v209h-104v-209zM197 446h104v1022h-104v-1022z" />
<glyph unicode="&#x22;" horiz-adv-x="540" d="M143 1106h93v356h-93v-356zM305 1106h90v356h-90v-356z" />
<glyph unicode="#" horiz-adv-x="1370" d="M78 434h231l-108 -434h90l106 434h426l-108 -434h90l106 434h295v84h-274l104 436h256v80h-235l102 420h-90l-100 -420h-426l102 420h-90l-100 -420h-293v-80h272l-106 -436h-250v-84zM416 518l106 436h426l-104 -436h-428z" />
<glyph unicode="$" horiz-adv-x="1263" d="M86 205q215 -199 520 -215v-193h64v191q236 0 370 98q141 100 142 287q0 94 -35 160.5t-103 111.5q-63 41 -154 72t-220 57h-6v596q250 -4 387 -158l53 82q-86 82 -192.5 124t-241.5 46v205h-64v-207q-104 -4 -191 -33.5t-149 -80.5q-61 -51 -95 -126t-34 -165 q0 -88 30 -147.5t91 -102.5q55 -41 139 -68.5t213 -54.5v-604q-143 10 -263 64.5t-206 144.5zM244 1071q0 133 90 211t276 86v-582q-199 41 -280 101q-45 31 -65.5 75t-20.5 109zM664 80v594q115 -27 187.5 -52.5t119.5 -58.5q100 -76 100 -203q0 -139 -105.5 -209.5 t-299.5 -70.5h-2z" />
<glyph unicode="%" horiz-adv-x="1429" d="M88 1184q0 -59 23.5 -112.5t64.5 -92.5t95.5 -61.5t113.5 -22.5t114.5 22.5t96.5 61.5t63.5 92t22.5 113q0 121 -86 207q-41 41 -95.5 62.5t-115.5 21.5t-114.5 -21.5t-94.5 -62.5q-88 -88 -88 -207zM121 43l55 -49l563 713l572 706l-58 47l-561 -712zM170 1184 q0 45 16.5 86t46.5 71q63 68 152 68q86 0 152 -66t65 -159q0 -43 -17.5 -84t-45.5 -72q-31 -31 -71 -49t-83 -18t-83 17t-69 48q-63 68 -63 158zM748 270q0 -117 88 -204q41 -41 95 -63.5t113 -22.5q62 0 116 22.5t95 63.5q86 86 86 204q0 59 -22.5 112.5t-63.5 92.5 t-96 61.5t-115 22.5q-59 0 -113 -22.5t-95 -61.5t-64.5 -92t-23.5 -113zM829 270q0 43 16.5 84t47.5 72q63 68 151 68q86 0 152 -66q31 -31 48.5 -72t17.5 -86q0 -43 -17.5 -85t-46.5 -72q-31 -31 -71 -49.5t-83 -18.5q-90 0 -151 66q-63 63 -64 159z" />
<glyph unicode="&#x26;" horiz-adv-x="1341" d="M100 365q0 -174 138 -281q63 -51 146 -77.5t173 -26.5q133 0 245.5 56t201.5 159l186 -195h137l-264 274q121 195 123 439h-90q0 -205 -95 -373l-438 455q84 57 138.5 98t95.5 84q98 102 98 217q0 59 -24.5 110.5t-67.5 88.5q-96 80 -234 80q-74 0 -139 -25t-115 -68 q-49 -43 -75.5 -100t-26.5 -119q0 -74 47 -153q45 -78 162 -203q-152 -98 -225 -189q-96 -113 -97 -251zM201 360q0 115 82 213q59 72 198 168l463 -485q-72 -90 -167 -141.5t-208 -51.5q-67 0 -132.5 19.5t-117.5 56.5q-119 84 -118 221zM309 1163q0 45 19.5 86t54.5 72 q78 68 184 68q102 0 168 -56.5t66 -142.5t-72 -159t-227 -173q-111 117 -156 191q-37 61 -37 114z" />
<glyph unicode="'" horiz-adv-x="378" d="M143 1104h93v358h-93v-358z" />
<glyph unicode="(" horiz-adv-x="524" d="M94 707q0 -359 283 -775l78 45q-125 186 -195 375t-70 348q0 176 89 412q68 190 176 350l-80 41q-70 -119 -117 -210t-80 -181q-84 -215 -84 -405z" />
<glyph unicode=")" horiz-adv-x="522" d="M68 1462q102 -152 176 -350q88 -236 88 -412q0 -158 -69.5 -347t-192.5 -376l77 -45q281 412 281 775q0 196 -82 405q-57 147 -199 391z" />
<glyph unicode="*" horiz-adv-x="643" d="M131 1300l139 -45l-86 -122l52 -37l86 125l86 -125l53 37l-88 122l139 45l-18 60l-142 -49v147h-63v-147l-139 49z" />
<glyph unicode="+" horiz-adv-x="847" d="M109 684h268v-289h94v289h266v86h-266v289h-94v-289h-268v-86z" />
<glyph unicode="," horiz-adv-x="487" d="M193 -4h36l-30 -162h55l43 162v178h-104v-178z" />
<glyph unicode="-" horiz-adv-x="864" d="M137 510h590v94h-590v-94z" />
<glyph unicode="." horiz-adv-x="362" d="M137 0h90v174h-90v-174z" />
<glyph unicode="/" horiz-adv-x="1185" d="M55 0h117l956 1454h-118z" />
<glyph unicode="0" horiz-adv-x="1386" d="M100 717q0 -125 39 -254t111 -234q78 -113 189.5 -179t252.5 -70q131 2 243 65.5t191 171.5q76 104 117 234.5t41 265.5q0 121 -39 251t-110 236q-78 117 -189.5 183.5t-253.5 66.5q-131 0 -241.5 -63.5t-190.5 -171.5q-76 -104 -118 -237.5t-42 -264.5zM205 717 q0 104 30.5 218t90.5 204q66 100 157.5 159.5t208.5 59.5q111 0 202 -56.5t157 -152.5q61 -90 95 -204t34 -228q0 -106 -31 -218t-90 -204q-66 -102 -158 -160.5t-209 -58.5q-113 0 -203 56t-153 153q-59 90 -93 202.5t-38 229.5z" />
<glyph unicode="1" horiz-adv-x="835" d="M84 1176q78 0 186 65q100 59 136 111v-1258h-275v-94h637v94h-260v1379h-102l-31 -35q-25 -27 -78 -70q-125 -96 -213 -96v-96z" />
<glyph unicode="2" horiz-adv-x="1177" d="M100 0h963v94h-840q0 156 64 268q84 143 309 232q92 33 168 67.5t137 83.5q160 125 160 314q0 82 -27.5 156.5t-83.5 130.5q-57 59 -142 93t-192 34q-117 0 -208 -35q-164 -66 -250 -168l-41 -51l69 -64q68 90 148 141q123 80 272 80q164 0 260 -96q82 -88 82 -221 q0 -96 -43 -158q-74 -106 -252 -176q-96 -37 -151 -63q-199 -90 -291 -222q-111 -156 -111 -401v-39z" />
<glyph unicode="3" horiz-adv-x="1196" d="M102 336q8 -76 48 -141.5t106 -114.5q133 -98 336 -98q100 0 190 28.5t160 79.5t109 124t39 159q0 137 -91 239q-90 104 -237 131q289 72 289 326q0 84 -36 157.5t-100 131.5q-63 55 -151 85t-191 30q-147 0 -274 -66q-129 -68 -180 -180l76 -66q43 98 143 157.5 t235 59.5q160 0 265 -86q106 -92 106 -227t-114.5 -207t-325.5 -72h-72v-92h72q221 0 350 -82q61 -41 95 -99t34 -130q0 -131 -111 -219q-109 -86 -280 -86q-174 0 -295 94q-55 41 -88 96.5t-37 114.5z" />
<glyph unicode="4" horiz-adv-x="1153" d="M51 406h744v-406h102v406h180v94h-180v954h-72l-774 -958v-90zM168 500l635 790v-790h-635z" />
<glyph unicode="5" horiz-adv-x="1134" d="M86 266q63 -131 187 -208.5t278 -77.5q98 0 189 34.5t159 98.5q70 63 109 151t39 195q0 98 -36 184t-102 148q-66 61 -151.5 95t-184.5 34q-98 0 -184 -36t-145 -102l112 576h619v96h-696l-48 -233q-20 -94 -28 -140l-29 -141q-14 -66 -24 -131l-21 -102l-12 -58h100 q59 86 150.5 132t195.5 46q78 0 147.5 -27.5t120.5 -76.5q51 -51 81 -118.5t30 -147.5q0 -82 -29.5 -154t-83.5 -123q-53 -51 -124.5 -78.5t-153.5 -27.5q-123 0 -228.5 64.5t-160.5 170.5z" />
<glyph unicode="6" horiz-adv-x="1228" d="M111 571q0 -137 37.5 -246.5t109.5 -187.5q68 -76 164 -116.5t207 -40.5q104 0 198.5 37.5t163.5 107.5q70 70 109 160t39 192q0 101 -38 191t-108 159q-70 70 -160 108t-192 38q-145 0 -264 -82q-121 -82 -166 -213q0 324 119 514q55 88 134 134t175 46q121 0 219 -67.5 t139 -178.5l72 56q-55 131 -169 206.5t-261 75.5q-119 0 -216 -54t-165 -163q-147 -236 -147 -676zM221 477q0 82 32 156t89 131t132 89t157 32t156.5 -32t132.5 -89q57 -57 88.5 -131t31.5 -156t-31.5 -155.5t-88.5 -131.5q-55 -55 -130 -86.5t-159 -31.5t-159 31.5 t-130 86.5q-57 57 -89 131t-32 156z" />
<glyph unicode="7" horiz-adv-x="1050" d="M61 1358h820l-693 -1358h115l741 1454h-983v-96z" />
<glyph unicode="8" horiz-adv-x="1206" d="M104 403q0 -86 36 -161.5t102 -130.5q68 -59 157.5 -92t196.5 -33q100 0 193.5 28.5t160.5 83.5q70 55 110 132t40 167q0 134 -90 240q-78 92 -219 143q111 41 182 121q78 88 78 193q0 84 -38 151.5t-106 116.5q-61 45 -141 68.5t-162 23.5t-163 -23.5t-142 -68.5 q-66 -49 -104.5 -117.5t-38.5 -152.5q0 -111 77 -193q76 -84 181 -119q-129 -41 -211 -133q-98 -109 -99 -244zM209 403q0 72 33.5 134.5t91.5 107.5q55 43 124.5 66.5t141.5 23.5q70 0 141.5 -22.5t126.5 -63.5q129 -98 129 -243q0 -72 -33.5 -133.5t-91.5 -106.5 q-55 -43 -125.5 -66.5t-140.5 -23.5t-141.5 22.5t-126.5 65.5q-129 94 -129 239zM260 1087q1 121 105 201q96 72 235 72t240 -70q49 -35 77.5 -86t28.5 -112q0 -119 -112 -201q-49 -35 -109.5 -53.5t-122.5 -18.5q-61 0 -121.5 17.5t-107.5 52.5q-113 82 -113 198z" />
<glyph unicode="9" horiz-adv-x="1236" d="M106 971q0 -101 38 -191t108 -159q70 -70 161 -108t193 -38q145 0 266 82q119 82 164 213q0 -322 -116 -510q-117 -182 -312 -182q-121 0 -219 66.5t-139 177.5l-72 -56q55 -131 169 -206.5t261 -75.5q119 0 216.5 55t164.5 164q147 236 148 674q0 135 -39 246.5 t-109 187.5t-165 116.5t-206 40.5q-106 0 -199 -37.5t-163 -107.5q-72 -70 -111 -160t-39 -192zM188 969q0 80 32 153.5t89 130.5t131 89t156 32t158.5 -31.5t134.5 -89.5q55 -55 88 -130.5t33 -155.5q0 -82 -32 -156t-89 -131q-59 -57 -134 -89t-157 -32t-155.5 32 t-131.5 89q-57 57 -90 131t-33 158z" />
<glyph unicode=":" horiz-adv-x="362" d="M137 0h88v174h-88v-174zM137 885h88v174h-88v-174z" />
<glyph unicode=";" horiz-adv-x="391" d="M143 -4h37l-28 -162h55l41 162v178h-105v-178zM145 885h91v174h-91v-174z" />
<glyph unicode="&#x3c;" horiz-adv-x="1036" d="M70 498l856 -512v112l-709 432l709 433v110l-856 -514v-61z" />
<glyph unicode="=" horiz-adv-x="894" d="M141 426h613v78h-613v-78zM141 627h613v78h-613v-78z" />
<glyph unicode="&#x3e;" horiz-adv-x="1036" d="M111 -14l856 512v61l-856 514v-110l706 -433l-706 -432v-112z" />
<glyph unicode="?" horiz-adv-x="968" d="M72 1208l73 -45q49 100 143.5 160.5t209.5 60.5q125 0 209 -71q92 -82 92 -221q0 -80 -29 -134q-49 -92 -168 -149l-94 -51q-88 -53 -129 -125q-45 -84 -45 -238h90q0 147 45 221q20 33 50 54.5t77 44.5q66 31 115 59.5t88 65.5q92 92 92 245q0 184 -121 291 q-55 47 -126 72t-146 25q-139 0 -250 -68q-125 -74 -176 -197zM336 0h90v201h-90v-201z" />
<glyph unicode="@" horiz-adv-x="1708" d="M98 471q0 -162 57.5 -303t161.5 -246q102 -106 237.5 -163.5t287.5 -57.5q176 0 338 82l-25 55q-152 -78 -313 -78q-141 0 -266 54.5t-220 152.5q-94 98 -145 228.5t-51 275.5q0 150 54 280t153 226q96 94 221 146.5t262 52.5q139 0 264 -55.5t219 -153.5t145.5 -230.5 t51.5 -279.5q0 -152 -45 -271q-63 -156 -180 -155q-66 0 -88 53q-18 37 -19 143v283q0 188 -53 285q-76 133 -273 133q-168 0 -329 -107l32 -63q61 47 136 72.5t153 25.5q145 0 207 -96q53 -84 53 -254q-135 47 -266 47q-154 0 -254 -57q-57 -33 -90 -86.5t-33 -124.5 q0 -119 83 -194t222 -75q102 0 193.5 41t150.5 105q6 -51 13.5 -83t23.5 -54q37 -57 129 -58q125 0 197 101q55 74 82 208q16 82 16 179q0 168 -56 311t-161 250q-102 104 -237.5 161.5t-284.5 57.5q-147 0 -283.5 -55.5t-240.5 -155.5q-109 -102 -169.5 -243.5 t-60.5 -309.5zM557 289q0 106 92 155q78 43 203 43q51 0 96 -6q47 -8 137 -30q8 -2 37 -11v-86q0 -76 -22 -118q-33 -68 -117 -105q-41 -20 -92 -32.5t-100 -12.5q-100 0 -167 55.5t-67 147.5z" />
<glyph unicode="A" horiz-adv-x="1382" d="M29 0h112l203 479h694l203 -479h111l-615 1454h-90zM369 565l323 762l318 -762h-641z" />
<glyph unicode="B" horiz-adv-x="1355" d="M190 0h680q78 0 150 28.5t127 80.5q55 51 85 120.5t30 147.5q0 129 -74 230.5t-197 137.5q96 43 152.5 134.5t56.5 203.5q0 68 -23.5 135.5t-66.5 118.5q-45 55 -106.5 86t-135.5 31h-678v-1454zM295 94v596h590q55 0 106 -23.5t88 -66.5t57.5 -97t20.5 -112 q0 -55 -21.5 -108.5t-60.5 -96.5t-92 -67.5t-113 -24.5h-575zM295 778v582h545q55 0 103 -22.5t83 -63.5q72 -84 72 -205q0 -55 -20.5 -107.5t-55.5 -93.5q-84 -90 -195 -90h-532z" />
<glyph unicode="C" horiz-adv-x="1413" d="M90 737q0 -139 50 -273t141 -239q94 -111 219 -174t268 -63q180 0 336 86q170 94 242 252l-91 43q-70 -137 -211 -217q-121 -68 -268 -68q-119 0 -226.5 52t-187.5 145q-80 90 -123.5 206.5t-43.5 243.5q0 117 38.5 229.5t110.5 202.5q78 96 184.5 149.5t241.5 53.5 q137 0 256 -59q131 -70 203 -211l86 49q-70 145 -209 231t-328 86q-158 0 -287 -61.5t-221 -169.5q-86 -102 -133 -231.5t-47 -262.5z" />
<glyph unicode="D" horiz-adv-x="1460" d="M190 0h484q155 0 283 52t221 149q92 96 139 230t47 298q0 152 -44 284t-128 228q-88 102 -219 157.5t-299 55.5h-484v-1454zM295 94v1266h379q274 0 434 -178q74 -84 113 -200t39 -253q0 -135 -38 -251t-112 -202q-76 -88 -186.5 -135t-249.5 -47h-379z" />
<glyph unicode="E" d="M190 0h969v94h-864v604h739v90h-739v572h846v94h-951v-1454z" />
<glyph unicode="F" horiz-adv-x="1216" d="M190 0h105v692h715v90h-715v578h842v94h-947v-1454z" />
<glyph unicode="G" horiz-adv-x="1468" d="M90 729q0 -137 51.5 -270t141.5 -238q94 -109 220 -170t269 -61q276 0 490 237v-227h90v707h-420v-84h330v-281q-109 -131 -229 -193.5t-255 -62.5q-119 0 -226.5 51t-186.5 142q-80 88 -125 204.5t-45 243.5q0 123 38.5 236.5t112.5 203.5q76 94 181.5 147.5t230.5 53.5 q158 0 278.5 -66.5t192.5 -205.5l86 51q-76 150 -203 229q-147 88 -352 88q-143 0 -265 -58t-214 -165q-90 -104 -140.5 -237.5t-50.5 -274.5z" />
<glyph unicode="H" horiz-adv-x="1505" d="M190 0h105v696h917v-696h105v1454h-105v-663h-917v663h-105v-1454z" />
<glyph unicode="I" horiz-adv-x="485" d="M190 0h105v1454h-105v-1454z" />
<glyph unicode="J" horiz-adv-x="978" d="M33 68q133 -91 315 -91q150 0 241 51.5t142 151.5q45 90 60.5 219t15.5 316v739h-105v-739q0 -170 -12 -284t-47 -189q-39 -84 -109.5 -126t-185.5 -42q-86 0 -157.5 20.5t-124.5 57.5z" />
<glyph unicode="K" horiz-adv-x="1300" d="M190 0h105v449l297 305l584 -754h118l-635 817l605 637h-121l-848 -883v883h-105v-1454z" />
<glyph unicode="L" horiz-adv-x="1189" d="M190 0h973v94h-868v1360h-105v-1454z" />
<glyph unicode="M" horiz-adv-x="1802" d="M190 0h105v1257l573 -981h66l573 981v-1257h105v1454h-105l-606 -1040l-606 1040h-105v-1454z" />
<glyph unicode="N" horiz-adv-x="1583" d="M190 0h105v1257l1003 -1257h97v1454h-105v-1280l-1020 1280h-80v-1454z" />
<glyph unicode="O" horiz-adv-x="1542" d="M90 727q0 -139 49 -272t140 -236q94 -106 219 -167.5t272 -61.5q141 0 267 59.5t220 163.5q92 102 143.5 235.5t51.5 278.5q0 135 -49 267t-137 237q-92 109 -219 171t-275 62q-143 0 -268 -59t-217 -164q-94 -104 -145.5 -237.5t-51.5 -276.5zM195 727q0 119 40.5 233.5 t116.5 206.5q78 94 185.5 147.5t234.5 53.5q121 0 226.5 -51t185.5 -143q78 -90 120 -206t42 -241q0 -119 -41 -233.5t-115 -204.5q-78 -96 -184.5 -149.5t-233.5 -53.5q-123 0 -229.5 52t-186.5 145q-78 90 -119.5 205.5t-41.5 238.5z" />
<glyph unicode="P" horiz-adv-x="1271" d="M190 0h105v549h506q90 0 165.5 37t133.5 102q53 63 82.5 145t29.5 171q0 82 -31.5 162.5t-86.5 146.5q-59 66 -137 103.5t-169 37.5h-598v-1454zM295 645v715h489q66 0 124.5 -27.5t103.5 -79.5q45 -51 69.5 -115.5t24.5 -133.5q0 -70 -21.5 -134.5t-60.5 -113.5 q-41 -53 -99.5 -82t-127.5 -29h-502z" />
<glyph unicode="Q" horiz-adv-x="1540" d="M90 727q0 -139 49 -272t140 -236q94 -106 219 -167.5t272 -61.5q225 0 410 147l114 -137h109l-162 195q100 106 155.5 243t55.5 289q0 135 -49 267t-137 237q-92 109 -219 171t-275 62q-143 0 -268 -59t-217 -164q-94 -104 -145.5 -237.5t-51.5 -276.5zM195 727 q0 119 40.5 233.5t116.5 206.5q78 94 185.5 147.5t234.5 53.5q121 0 226.5 -51t185.5 -143q78 -90 120 -206t42 -241t-44.5 -243.5t-125.5 -211.5l-123 150h-109l172 -209q-147 -127 -344 -127q-123 0 -229.5 52t-186.5 145q-78 90 -119.5 205.5t-41.5 238.5z" />
<glyph unicode="R" horiz-adv-x="1329" d="M190 0h105v549h471l352 -549h121l-362 565q76 12 139 51t108 99q45 61 70 135t25 154q0 82 -32 162.5t-87 146.5q-59 66 -137 103.5t-168 37.5h-605v-1454zM295 645v715h496q66 0 124 -28.5t105 -80.5q43 -49 68.5 -114.5t25.5 -132.5q0 -70 -21.5 -133.5t-62.5 -112.5 q-43 -53 -100.5 -83t-124.5 -30h-510z" />
<glyph unicode="S" horiz-adv-x="1239" d="M72 205q236 -217 575 -217q238 0 377 98q143 100 143 287q0 94 -34.5 160.5t-102.5 111.5q-63 41 -154.5 72t-220.5 57q-127 29 -200.5 50.5t-122.5 52.5q-53 33 -78 80t-25 114q0 141 100.5 220t307.5 79q258 0 399 -158l54 82q-91 86 -201.5 128t-251.5 42 q-236 0 -371 -104q-143 -111 -143 -303q0 -88 29.5 -147.5t93.5 -102.5q55 -41 139 -68.5t215 -54.5q125 -27 208 -53.5t136 -61.5q57 -37 85 -88t28 -121q0 -139 -105.5 -209.5t-300.5 -70.5q-162 0 -296 55t-228 154z" />
<glyph unicode="T" horiz-adv-x="1241" d="M37 1360h532v-1360h105v1360h532v94h-1169v-94z" />
<glyph unicode="U" horiz-adv-x="1548" d="M168 723q0 -313 131 -504q156 -229 477 -229q311 0 469 221q135 190 135 512v731h-104v-731q0 -268 -102 -436q-125 -201 -400 -201q-264 0 -395 199q-106 162 -107 438v731h-104v-731z" />
<glyph unicode="V" horiz-adv-x="1390" d="M31 1454l616 -1454h96l615 1454h-111l-553 -1323l-553 1323h-110z" />
<glyph unicode="W" horiz-adv-x="2136" d="M49 1454l465 -1454h111l442 1284l457 -1284h110l465 1454h-117l-411 -1304l-449 1304h-114l-430 -1304l-414 1304h-115z" />
<glyph unicode="X" horiz-adv-x="1286" d="M14 1454l572 -737l-555 -717h121l493 641l492 -641h118l-555 717l572 737h-119l-508 -661l-510 661h-121z" />
<glyph unicode="Y" horiz-adv-x="1325" d="M39 1454l571 -901v-553h105v549l573 905h-117l-509 -805l-508 805h-115z" />
<glyph unicode="Z" horiz-adv-x="1284" d="M61 0h1153v94h-1021l1026 1274v86h-1143v-94h1020l-1035 -1274v-86z" />
<glyph unicode="[" horiz-adv-x="505" d="M186 -82h207v88h-108v1421h108v89h-207v-1598z" />
<glyph unicode="\" horiz-adv-x="1122" d="M55 1454l893 -1454h119l-891 1454h-121z" />
<glyph unicode="]" horiz-adv-x="505" d="M111 6v-88h206v1598h-206v-89h110v-1421h-110z" />
<glyph unicode="^" horiz-adv-x="1077" d="M90 621h90l361 729l352 -729h94l-403 833h-88z" />
<glyph unicode="_" horiz-adv-x="1062" d="M135 0v-94h791v94h-791z" />
<glyph unicode="`" horiz-adv-x="436" d="M100 1495l174 -207l70 33l-127 174h-117z" />
<glyph unicode="a" horiz-adv-x="1251" d="M86 530q0 -109 37 -208t104 -175q68 -78 162 -122.5t203 -44.5q131 0 236.5 66.5t168.5 178.5v-225h103v1059h-103v-228q-63 115 -169.5 183.5t-241.5 68.5q-102 0 -193.5 -43t-161.5 -120q-70 -76 -107.5 -177.5t-37.5 -212.5zM190 528q0 84 30 167t85 149 q57 70 135 108.5t168 38.5q127 0 238 -84q100 -78 151 -207v-344q-53 -130 -147 -200q-106 -84 -240 -84q-90 0 -166.5 35.5t-134.5 101.5q-55 63 -87 146t-32 173z" />
<glyph unicode="b" d="M160 0h94v213q63 -104 172 -168.5t231 -64.5q107 0 200 44t165 121q68 76 106.5 175.5t38.5 207.5q0 102 -33.5 201.5t-95.5 179.5q-66 82 -158 128t-200 46q-248 0 -418 -249v661h-102v-1495zM262 356v353q57 121 158 196q111 86 235 86q88 0 163 -36.5t132 -104.5 q53 -66 83 -149t30 -173q0 -84 -32 -165.5t-87 -147.5q-59 -68 -138 -105.5t-169 -37.5q-55 0 -118.5 22.5t-117.5 61.5q-57 39 -95 91t-44 109z" />
<glyph unicode="c" horiz-adv-x="1116" d="M86 537q0 -113 40 -213.5t112 -178.5t168 -121.5t206 -43.5q152 0 271 73q121 76 161 187l-100 28q-12 -39 -45 -74.5t-80 -62.5q-104 -59 -211 -59q-84 0 -161.5 36.5t-133.5 100.5q-57 63 -91 148t-34 180q0 94 33 177t90 146q55 61 132 96t163 35q104 0 191.5 -50 t134.5 -138l100 33q-55 117 -165.5 182t-256.5 65q-113 0 -209 -42t-168 -117q-70 -74 -108.5 -175.5t-38.5 -211.5z" />
<glyph unicode="d" horiz-adv-x="1259" d="M86 530q0 -106 38 -204.5t107 -175.5q70 -80 164 -125t203 -45q119 0 228.5 63t174.5 170v-119q0 -37 29 -67.5t70 -30.5q4 0 37 4v92q-43 0 -43 51v1352h-103v-661q-68 113 -170 176q-115 73 -243 73h-3q-102 0 -192 -44t-158 -121q-66 -76 -102.5 -176.5t-36.5 -211.5z M190 528q0 88 29 172t82 148q55 68 131 105.5t166 37.5q55 0 116.5 -22.5t116.5 -59.5q53 -39 95.5 -91t64.5 -109v-351q-10 -106 -137 -200q-55 -41 -118.5 -63.5t-119.5 -22.5q-174 0 -301 137q-59 63 -92 146t-33 173z" />
<glyph unicode="e" horiz-adv-x="1193" d="M86 537q0 -113 40 -213.5t112 -178.5t168 -121.5t206 -43.5h4q150 0 269 73q121 74 168 189l-90 24q-41 -94 -138 -147q-100 -57 -209 -58q-82 0 -155.5 33t-130.5 90q-59 59 -95 138t-42 170h933q2 2 2 20v25q0 109 -38.5 209t-108.5 176q-72 76 -168 118.5t-207 42.5 q-109 0 -205 -42t-165 -117q-70 -76 -110 -176.5t-40 -210.5zM190 573q7 93 40.5 171.5t91.5 136.5q57 57 129.5 87.5t156.5 30.5q82 0 157 -30.5t132 -87.5q57 -59 92 -137t41 -171h-840z" />
<glyph unicode="f" horiz-adv-x="651" d="M57 981h150v-981h102v981h303v84h-303v37q0 158 56.5 240.5t160.5 82.5q43 0 86 -14t72 -37l37 74q-37 31 -94.5 49.5t-118.5 18.5q-141 0 -221 -110t-80 -306v-35h-150v-84z" />
<glyph unicode="g" d="M86 530q0 -104 38 -201.5t105 -174.5q68 -80 161 -125t200 -45q119 0 227.5 62.5t173.5 166.5v-233q0 -168 -117 -263q-55 -45 -127.5 -67.5t-154.5 -22.5q-129 0 -235.5 52.5t-168.5 156.5l-69 -47q70 -119 178 -178q117 -68 295 -68q102 0 193.5 28t158.5 83 q70 55 110 138t40 188v1085h-95v-231q-171 249 -415 249h-2q-109 0 -200 -43t-159 -122q-66 -76 -101.5 -177.5t-35.5 -210.5zM190 528q0 84 29 167t80 149q55 70 130 108.5t169 38.5q123 0 236 -80q106 -76 157 -202v-351q-8 -51 -40.5 -102t-86.5 -92 q-53 -43 -118.5 -67.5t-131.5 -24.5q-86 0 -164.5 36.5t-136.5 100.5q-57 63 -90 146t-33 173z" />
<glyph unicode="h" horiz-adv-x="1179" d="M160 0h102v659q20 68 61.5 129.5t96.5 106.5q115 94 244 94q264 0 264 -395v-594h102v612q0 225 -80 344q-88 127 -258 127q-133 0 -248.5 -73.5t-181.5 -198.5v684h-102v-1495z" />
<glyph unicode="i" horiz-adv-x="423" d="M160 0h102v1065h-102v-1065zM160 1307h102v188h-102v-188z" />
<glyph unicode="j" horiz-adv-x="438" d="M-244 -287q81 -75 220 -75h4q55 0 108 22.5t96 63.5q94 90 95 219v1122h-103v-1126q0 -86 -65 -148q-63 -59 -142 -59q-98 0 -157 49zM176 1307h103v188h-103v-188z" />
<glyph unicode="k" horiz-adv-x="1069" d="M160 0h102v338l252 231l416 -569h112l-458 631l444 432h-119l-647 -612v1044h-102v-1495z" />
<glyph unicode="l" horiz-adv-x="530" d="M168 180q0 -88 52 -140t138 -52q37 0 88.5 9t85.5 23l-20 82q-49 -20 -113 -20q-59 0 -93 35t-34 94v1284h-104v-1315z" />
<glyph unicode="m" horiz-adv-x="1873" d="M160 0h102v659q39 143 146 240q102 90 231 90t190.5 -95t61.5 -300v-594h102v657q41 147 142 240q104 92 233 92t191.5 -96t62.5 -299v-594h102v612q0 232 -77.5 351.5t-245.5 119.5q-268 0 -418 -288q-16 131 -101 209.5t-218 78.5q-129 0 -235.5 -71.5t-172.5 -200.5 v254h-96v-1065z" />
<glyph unicode="n" horiz-adv-x="1179" d="M160 0h102v659q20 68 63.5 129.5t100.5 106.5t123.5 69.5t134.5 24.5q127 0 185.5 -94t58.5 -301v-594h102v612q0 236 -74.5 353.5t-242.5 117.5q-141 0 -267 -73q-125 -76 -190 -199v254h-96v-1065z" />
<glyph unicode="o" horiz-adv-x="1212" d="M86 530q0 -109 39 -210t108 -177q72 -78 167.5 -120.5t205.5 -42.5q109 0 204 43t167 120q70 76 109.5 177.5t39.5 209.5q0 111 -38.5 212.5t-110.5 177.5q-72 78 -167 120.5t-204 42.5t-204 -43t-166 -120q-70 -76 -110 -177.5t-40 -212.5zM188 526q0 92 34 178.5 t91 149.5t133 100t160 37t159 -35.5t134 -99.5q57 -63 90 -147t33 -177q0 -94 -33 -177t-90 -148q-57 -63 -134 -99t-161 -36t-159.5 34.5t-133.5 98.5q-57 63 -90 146t-33 175z" />
<glyph unicode="p" d="M160 -436h102v665q70 -111 178.5 -180t239.5 -69q106 0 197.5 43t156.5 120q63 76 98 176.5t35 210.5q0 104 -37.5 205t-105.5 178q-70 80 -164 125t-203 45q-121 0 -228 -63.5t-175 -167.5v213h-94v-1501zM262 354v351q6 55 44 106t95 94q55 41 118 63.5t118 22.5 q86 0 165 -36.5t138 -102.5q59 -63 91 -146t32 -176q0 -86 -28.5 -168.5t-82.5 -146.5q-55 -68 -131 -105.5t-166 -37.5q-124 0 -233 82t-160 200z" />
<glyph unicode="q" d="M86 530q0 -106 35 -204.5t100 -175.5q68 -80 157 -125t195 -45h2q247 0 416 249v-555q0 -49 31 -78.5t80 -29.5h16q12 0 19 2v90q-43 2 -43 53v1354h-95v-215q-63 102 -172.5 167.5t-230.5 65.5q-104 0 -197.5 -44t-162.5 -121q-70 -76 -110 -177.5t-40 -210.5zM190 528 q0 86 31 171t88 149q57 68 135 105.5t168 37.5q59 0 123 -23.5t121 -66.5q121 -92 135 -207v-348q-66 -123 -157 -192q-109 -82 -234 -82q-88 0 -163 35.5t-130 101.5q-55 63 -86 145t-31 174z" />
<glyph unicode="r" horiz-adv-x="698" d="M160 0h102v666q43 139 150.5 221t251.5 86v96h-27q-23 0 -37 -2q-104 -10 -195.5 -81t-146.5 -183v262h-98v-1065z" />
<glyph unicode="s" horiz-adv-x="985" d="M66 143q84 -80 195.5 -121.5t236.5 -41.5q186 0 297.5 85t111.5 228q0 68 -26.5 114t-79.5 78q-47 29 -116 50.5t-193 52.5q-86 23 -134.5 37t-78.5 32q-35 20 -50.5 49t-15.5 76q0 111 84 168q76 51 203 51q98 0 182 -31.5t137 -90.5l58 55q-55 68 -152.5 108.5 t-218.5 40.5q-166 0 -275 -77q-116 -81 -116 -235q0 -64 21.5 -105t64.5 -72q41 -27 103.5 -47.5t162.5 -42.5q96 -23 155.5 -41.5t98.5 -38.5q43 -25 64.5 -58.5t21.5 -82.5q0 -102 -84 -162t-225 -60q-111 0 -203 37t-178 115z" />
<glyph unicode="t" horiz-adv-x="655" d="M53 981h150v-803q0 -90 61 -141q59 -49 148 -49q47 0 80 8q76 16 116 41q8 4 14.5 8t12.5 6l-31 82q-4 -2 -55 -27q-47 -22 -106 -22h-5q-55 0 -94 30.5t-39 88.5v778h248v84h-248v365h-102v-365h-150v-84z" />
<glyph unicode="u" horiz-adv-x="1202" d="M150 451q0 -471 339 -471q144 0 266 72.5t189 199.5v-160q0 -41 31 -67.5t74 -26.5h12q12 0 18 2v92q-43 0 -43 51v922h-102v-672q-49 -145 -164 -231q-117 -90 -250 -90q-268 0 -268 393v600h-102v-614z" />
<glyph unicode="v" horiz-adv-x="1081" d="M43 1065l444 -1065h107l444 1065h-100l-395 -963l-393 963h-107z" />
<glyph unicode="w" horiz-adv-x="1650" d="M51 1065l377 -1065h104l306 913l301 -913h106l377 1065h-106l-326 -934l-303 934h-101l-303 -934l-323 934h-109z" />
<glyph unicode="x" horiz-adv-x="1015" d="M35 1065l414 -535l-412 -530h113l342 438l16 27l16 -27l342 -438h113l-412 530l414 535h-115l-342 -440l-16 -29l-16 29l-345 440h-112z" />
<glyph unicode="y" horiz-adv-x="1105" d="M35 1065l475 -1065l-78 -184q-27 -63 -47 -103q-20 -37 -29 -45q-8 -12 -22 -18q-27 -12 -72 -12q-25 0 -31 2v-95q7 -2 21 -2h16q160 0 209 121l584 1401h-100l-396 -965l-424 965h-106z" />
<glyph unicode="z" horiz-adv-x="1003" d="M66 0h864v80h-748l752 911v74h-856v-80h741l-753 -911v-74z" />
<glyph unicode="{" horiz-adv-x="507" d="M121 698q35 -4 53.5 -34.5t18.5 -71.5v-594q0 -33 13 -47t34 -14h161v88h-112v589q0 27 -11.5 62t-39.5 61q29 27 40 60.5t11 62.5v567h112v89h-161q-8 0 -29 -11q-18 -8 -18 -51v-571q0 -31 -15 -62q-8 -18 -23.5 -29.5t-33.5 -11.5v-82z" />
<glyph unicode="|" horiz-adv-x="456" d="M182 -266h92v1853h-92v-1853z" />
<glyph unicode="}" horiz-adv-x="507" d="M106 25v-88h162q20 0 33.5 14t13.5 47v594q0 41 17.5 71.5t54.5 34.5v82q-39 0 -57 41q-14 31 -15 62v571q0 43 -18 51q-25 10 -29 11h-162v-89h113v-567q0 -29 11.5 -62.5t39.5 -60.5q-29 -27 -40 -61.5t-11 -61.5v-589h-113z" />
<glyph unicode="~" horiz-adv-x="1009" d="M139 502h70q0 4 8 20q6 18 23 41q43 59 100 60q31 0 62.5 -14.5t82.5 -45.5q96 -61 174 -61q63 0 103 26q70 43 100 123l10 31h-69q0 -6 -8 -20q-8 -18 -25 -37q-47 -51 -111 -52q-37 0 -69.5 15.5t-85.5 46.5q-49 31 -87 46t-77 15q-57 0 -92 -26q-37 -27 -61.5 -62 t-36.5 -67q-10 -37 -11 -39z" />
<glyph unicode="&#xa1;" horiz-adv-x="495" d="M197 -2h102v1022h-102v-1022zM197 1257h102v209h-102v-209z" />
<glyph unicode="&#xa2;" horiz-adv-x="1134" d="M90 528q0 -98 35 -192t98 -170q66 -78 154 -127t188 -57v-228h64v226q57 0 120.5 17t122.5 48q135 74 179 195l-101 28q-12 -41 -46 -76.5t-83 -62.5q-45 -27 -97 -41t-95 -14v915q213 -10 309 -186l98 33q-115 238 -407 245v240h-64v-240q-104 -8 -192 -55t-152 -125 q-63 -76 -97 -172t-34 -201zM195 528q0 82 24.5 161t73.5 142q49 68 118.5 108t153.5 46v-907q-80 10 -147.5 50t-116.5 101q-51 61 -78.5 138t-27.5 161z" />
<glyph unicode="&#xa3;" horiz-adv-x="997" d="M102 674h242q31 -82 31 -164q0 -102 -56 -197q-63 -109 -206 -252l30 -75q115 29 211 28q55 0 105.5 -10t60.5 -12q8 -2 59.5 -12.5t104.5 -10.5q115 0 221 49l-26 82q-117 -39 -189 -39q-35 0 -70.5 6.5t-70.5 14.5q-8 2 -56.5 10t-99.5 8q-66 0 -147 -16 q129 141 174 229q49 96 49 203q0 78 -27 158h326v84h-360q-23 47 -50 92q-27 43 -49 86q-51 96 -51 178q0 106 76 186q76 76 180 76q86 0 166 -51t129 -139l65 63q-61 100 -154 157.5t-202 57.5q-74 0 -138.5 -26.5t-113.5 -75.5q-106 -102 -106 -244q0 -53 14 -96 q23 -76 84 -176l49 -88h-205v-84z" />
<glyph unicode="&#xa4;" horiz-adv-x="1095" d="M117 311l49 -49l145 141q96 -84 236 -84q139 0 237 87l150 -144l49 49l-149 146q80 102 79 231q0 127 -75 230l145 145l-55 53l-144 -145q-104 90 -237 90q-135 0 -236 -88l-141 143l-53 -53l141 -143q-76 -96 -76 -232q0 -131 80 -233zM270 686q0 62 21.5 116t60.5 95 q37 41 88.5 63.5t106.5 22.5q57 0 107.5 -21.5t88.5 -62.5q37 -41 58.5 -95t21.5 -114q0 -121 -80 -207q-39 -41 -90 -64.5t-106 -23.5t-106.5 22.5t-88.5 63.5q-82 86 -82 205z" />
<glyph unicode="&#xa5;" horiz-adv-x="1366" d="M57 1454l465 -723h-182v-78h227l62 -100v-57h-289v-76h289v-420h104v420h291v76h-291v53l66 104h225v78h-180l463 723h-115l-510 -805l-508 805h-117z" />
<glyph unicode="&#xa6;" horiz-adv-x="462" d="M186 -266h93v839h-93v-839zM186 748h93v839h-93v-839z" />
<glyph unicode="&#xa7;" horiz-adv-x="1017" d="M94 1124q0 -82 31 -146.5t82 -96.5q-27 -31 -43.5 -80t-16.5 -103q0 -150 115 -237q100 -76 279 -86q125 -4 192 -39q92 -47 92 -166q0 -57 -25.5 -104.5t-70.5 -79.5q-43 -33 -96 -50.5t-107 -17.5q-90 0 -168.5 36t-158.5 109l-68 -63q84 -84 162 -123q109 -57 235 -57 q70 0 140.5 22.5t128.5 65.5q61 45 97 112.5t36 151.5q0 156 -101 217q31 33 49.5 84t18.5 109q0 158 -127 241q-106 70 -276 70q-137 0 -211 53q-84 61 -84 178q0 55 24.5 102.5t67.5 80.5q41 31 94 47t107 16q82 0 157 -24q86 -33 119 -99l82 37q-57 84 -142 132t-221 48 q-74 0 -143.5 -23.5t-124.5 -68.5q-57 -47 -91 -109.5t-34 -138.5zM248 688q0 43 15.5 85t39.5 67q86 -35 195 -35q121 0 200 -47q100 -61 101 -176q0 -47 -18.5 -91.5t-49.5 -70.5q-49 18 -190 35q-68 8 -116 18t-85 33q-92 55 -92 182z" />
<glyph unicode="&#xa8;" horiz-adv-x="602" d="M117 1311h90v180h-90v-180zM395 1311h90v180h-90v-180z" />
<glyph unicode="&#xa9;" horiz-adv-x="1697" d="M100 727q0 -158 55.5 -293t157.5 -235q100 -100 238.5 -156.5t296.5 -56.5q160 0 297 55t239 158q102 100 157.5 235t55.5 293q0 156 -55 291t-158 235q-102 100 -240 155.5t-296 55.5t-295 -55t-240 -156q-102 -100 -157.5 -235t-55.5 -291zM162 725q0 145 51 270 t145 219q92 92 218 142.5t272 50.5q147 0 273 -50t220 -145q94 -94 144.5 -220t50.5 -271q0 -147 -52 -271t-147 -219q-92 -90 -218 -139t-271 -49q-146 0 -271.5 51t-220.5 146q-94 92 -144 217t-50 268zM395 727q0 -106 39 -194.5t107 -151.5q66 -61 149.5 -94t171.5 -33 q139 0 254 82q47 35 80 74t45 75l-98 29q-35 -78 -119 -123t-168 -45q-61 0 -122.5 25.5t-112.5 74.5q-55 51 -88 122t-33 159q0 70 21.5 138.5t64.5 121.5q96 125 264 125q82 0 147 -29q88 -41 129 -131l99 33q-41 106 -142.5 162.5t-232.5 56.5q-113 0 -199 -41t-145 -112 q-53 -68 -82 -153t-29 -171z" />
<glyph unicode="&#xaa;" horiz-adv-x="882" d="M100 936q0 -94 70 -158q33 -31 78 -48t96 -17q90 0 167 33.5t126 99.5l2 -53q6 -63 72 -70h22q16 0 27 2v88q-35 4 -35 41v313q0 135 -80 211t-221 76q-133 0 -277 -94l35 -64q127 84 236 84q98 0 152.5 -54t54.5 -146v-64q-88 37 -219 37q-135 0 -220.5 -60.5 t-85.5 -156.5zM197 942q0 66 61 105.5t164 39.5q119 0 203 -34v-113q0 -27 -25 -55q-33 -43 -96.5 -68.5t-134.5 -25.5q-74 0 -123 43t-49 108z" />
<glyph unicode="&#xab;" horiz-adv-x="1130" d="M84 498l500 -353v93l-414 292l414 295v93l-500 -359v-61zM498 498l499 -353v93l-413 292l413 295v93l-499 -359v-61z" />
<glyph unicode="&#xac;" horiz-adv-x="1175" d="M160 631h780v-363h92v457h-872v-94z" />
<glyph unicode="&#xad;" horiz-adv-x="1144" d="M137 510h871v94h-871v-94z" />
<glyph unicode="&#xae;" horiz-adv-x="1697" d="M100 727q0 -158 55.5 -293t157.5 -235q100 -100 238.5 -156.5t296.5 -56.5q160 0 297 55t239 158q102 100 157.5 235t55.5 293q0 156 -55 291t-158 235q-102 100 -240 155.5t-296 55.5t-295 -55t-240 -156q-102 -100 -157.5 -235t-55.5 -291zM164 727q0 143 50 267 t144 218q92 92 218 143.5t272 51.5q145 0 272 -51t221 -144q94 -94 144.5 -218t50.5 -267q0 -150 -52 -276.5t-147 -219.5q-92 -90 -218 -139t-271 -49q-146 0 -271.5 51t-218.5 146q-94 92 -144 217t-50 270zM543 256h82v354h270l225 -354h92l-231 365q96 12 160 96 q61 78 61 182q0 53 -20.5 104.5t-55.5 94.5q-82 92 -194 92h-389v-934zM625 684v428h301q86 0 141 -60.5t55 -152.5t-50 -153.5t-138 -61.5h-309z" />
<glyph unicode="&#xaf;" horiz-adv-x="798" d="M109 1376h583v76h-583v-76z" />
<glyph unicode="&#xb0;" horiz-adv-x="534" d="M109 1325q0 -68 46 -115t111 -47q68 0 114 46t46 116q0 66 -46 112t-114 46q-66 0 -111.5 -46t-45.5 -112zM174 1323q0 39 27 68q24 26 65 26t67.5 -27.5t26.5 -66.5t-26 -66q-29 -29 -68 -28q-37 0 -65 28q-27 27 -27 66z" />
<glyph unicode="&#xb1;" horiz-adv-x="958" d="M158 143h643v88h-643v-88zM158 694h274v-295h94v295h275v88h-275v295h-94v-295h-274v-88z" />
<glyph unicode="&#xb2;" horiz-adv-x="780" d="M76 846h614v69h-506q0 80 35 129q55 76 184 119q119 35 189 82q102 70 102 180q0 102 -69 166q-80 70 -217 70q-76 0 -134 -19q-106 -35 -159 -88q-25 -25 -29 -30l49 -49q35 43 92 75q78 41 170 41q104 0 160.5 -47t56.5 -117q0 -49 -26 -81q-47 -59 -158 -99 q-43 -12 -98 -35q-133 -53 -191 -129q-66 -88 -65 -237z" />
<glyph unicode="&#xb3;" horiz-adv-x="790" d="M76 1022q12 -86 98 -137t215 -51q137 0 225 59q94 63 95 160q0 78 -56.5 134t-152.5 73q184 37 184 178q0 94 -88 159q-90 63 -219 64q-96 0 -176 -36t-115 -95l51 -53q29 55 92.5 85.5t147.5 30.5q100 0 162 -43q68 -47 67 -116q0 -72 -71.5 -108t-204.5 -36h-47v-65h47 q141 0 223 -43t82 -119q0 -68 -72 -113q-70 -43 -174 -43q-111 0 -186 49q-76 49 -80 109z" />
<glyph unicode="&#xb4;" horiz-adv-x="436" d="M100 1321l72 -33l172 207h-119z" />
<glyph unicode="&#xb5;" horiz-adv-x="1255" d="M174 -434h98v602q33 -90 100.5 -139t170.5 -49q131 0 252 77q113 72 176 195v-154q0 -45 29.5 -72.5t74.5 -27.5h15q10 0 16 2v92q-43 0 -43 51v922h-102v-672q-49 -145 -164 -231q-117 -90 -250 -90q-270 0 -271 393v600h-102v-1499z" />
<glyph unicode="&#xb6;" horiz-adv-x="1204" d="M68 969q0 -226 147 -351q150 -131 401 -133v-649h93v649h163v-649h93v1534h143v84h-463q-274 0 -425.5 -128t-151.5 -357zM160 971q0 188 117.5 292.5t338.5 106.5v-799q-205 10 -319 103q-137 104 -137 297zM709 571v799h163v-799h-163z" />
<glyph unicode="&#xb7;" horiz-adv-x="362" d="M137 508h90v207h-90v-207z" />
<glyph unicode="&#xb8;" horiz-adv-x="555" d="M47 -311q88 -39 199 -39q92 0 141 33.5t49 99.5q0 59 -39 90t-108 31q-53 0 -82 -13l69 115l-55 25l-115 -205q109 29 166 29q100 0 101 -74q0 -76 -119 -76q-49 0 -97 11.5t-81 27.5z" />
<glyph unicode="&#xb9;" horiz-adv-x="540" d="M72 1477q47 0 112 36q59 33 84 62v-660h-168v-71h398v71h-156v746h-74l-20 -21q-10 -10 -47 -38q-78 -53 -129 -54v-71z" />
<glyph unicode="&#xba;" horiz-adv-x="919" d="M94 1081q0 -74 26.5 -140.5t76.5 -117.5q51 -53 117.5 -81.5t144.5 -28.5t145.5 29.5t118.5 80.5q49 51 75.5 119t26.5 139q0 74 -27.5 142.5t-76.5 119.5q-51 53 -117.5 82t-144.5 29t-144.5 -29.5t-115.5 -81.5q-49 -51 -77 -119.5t-28 -142.5zM184 1079q0 62 21.5 116 t60.5 95q37 41 87 62.5t106 21.5q55 0 106 -22.5t90 -61.5q37 -39 58.5 -93t21.5 -114q0 -121 -80 -206q-39 -41 -90 -65t-106 -24t-106.5 23t-88.5 63q-80 86 -80 205z" />
<glyph unicode="&#xbb;" horiz-adv-x="1130" d="M133 145l502 353v61l-502 359v-93l416 -295l-416 -292v-93zM547 145l500 353v61l-500 359v-93l414 -295l-414 -292v-93z" />
<glyph unicode="&#xbc;" horiz-adv-x="1628" d="M94 1313q47 0 113 37q59 33 84 61v-659h-168v-72h397v72h-155v745h-74l-21 -20q-10 -10 -47 -39q-78 -53 -129 -54v-71zM246 43l55 -49l563 713l572 706l-58 47l-561 -712zM897 217h471v-217h72v217h116v70h-116v518h-51l-492 -522v-66zM979 287l389 413v-413h-389z" />
<glyph unicode="&#xbd;" horiz-adv-x="1716" d="M98 1313q47 0 113 37q59 33 84 61v-659h-168v-72h397v72h-155v745h-74l-21 -20q-10 -10 -47 -39q-78 -53 -129 -54v-71zM182 43l56 -49l563 713l571 706l-57 47l-561 -712zM1018 0h612v70h-504q0 43 7.5 76.5t27.5 62.5q49 70 182 110q117 33 185 82q100 68 100 179 q0 102 -73.5 168.5t-208.5 66.5q-72 0 -132 -18q-102 -33 -157 -88q-25 -25 -29 -31l53 -57q33 43 90 77q74 41 164 41q104 0 157.5 -44t53.5 -113q0 -47 -24 -82q-45 -57 -156 -97q-33 -10 -94 -34q-129 -49 -191.5 -134t-62.5 -235z" />
<glyph unicode="&#xbe;" horiz-adv-x="1658" d="M88 858q12 -86 98 -137t215 -51q138 0 226 59q94 63 94 160q0 78 -56.5 134t-152.5 73q184 37 184 178q0 94 -88 160q-90 63 -219 63q-96 0 -176 -36t-115 -95l52 -53q29 55 92 86t147 31q100 0 162 -44q68 -47 67 -116q0 -72 -71.5 -108t-204.5 -36h-47v-65h47 q141 0 223 -43t82 -119q0 -68 -72 -113q-70 -43 -174 -43q-111 0 -186 50q-76 49 -80 108zM317 43l56 -49l563 713l571 706l-57 47l-561 -712zM920 217h471v-217h71v217h117v70h-117v518h-51l-491 -522v-66zM1001 287l390 413v-413h-390z" />
<glyph unicode="&#xbf;" horiz-adv-x="954" d="M70 -49q0 -184 120 -289q55 -49 126 -73.5t147 -24.5q135 0 252 69q117 72 174 195l-74 45q-49 -100 -143 -160.5t-209 -60.5q-127 0 -207 72q-94 80 -94 221q0 80 28 133q49 90 168 151q47 23 95 50q90 53 129 127q45 82 45 235h-90q0 -149 -43 -221q-20 -33 -50 -54.5 t-79 -43.5q-66 -31 -115 -60t-86 -65q-94 -90 -94 -246zM535 836h90v200h-90v-200z" />
<glyph unicode="&#xc0;" horiz-adv-x="1382" d="M29 0h112l203 479h694l203 -479h111l-615 1454h-90zM369 565l323 762l318 -762h-641zM520 1880l174 -207l70 33l-127 174h-117z" />
<glyph unicode="&#xc1;" horiz-adv-x="1382" d="M29 0h112l203 479h694l203 -479h111l-615 1454h-90zM369 565l323 762l318 -762h-641zM618 1704l72 -33l172 207h-119z" />
<glyph unicode="&#xc2;" horiz-adv-x="1382" d="M29 0h112l203 479h694l203 -479h111l-615 1454h-90zM369 565l323 762l318 -762h-641zM457 1712l61 -35l174 129l174 -129l62 35l-199 166h-76z" />
<glyph unicode="&#xc3;" horiz-adv-x="1382" d="M29 0h112l203 479h694l203 -479h111l-615 1454h-90zM369 565l323 762l318 -762h-641zM385 1692h70l4 20q2 6 14 33q29 45 86 45q27 0 49.5 -9t65.5 -32q78 -41 143 -41q105 0 156 76q16 27 24.5 53.5t8.5 40.5h-70l-2 -18q-2 -12 -14 -33q-31 -47 -101 -47 q-35 0 -60.5 10t-66.5 31q-39 20 -67.5 30.5t-65.5 10.5q-94 0 -141 -76q-16 -27 -24.5 -54.5t-8.5 -39.5z" />
<glyph unicode="&#xc4;" horiz-adv-x="1382" d="M29 0h112l203 479h694l203 -479h111l-615 1454h-90zM369 565l323 762l318 -762h-641zM508 1696h90v180h-90v-180zM786 1696h91v180h-91v-180z" />
<glyph unicode="&#xc5;" horiz-adv-x="1382" d="M29 0h112l203 479h694l203 -479h111l-615 1454h-90zM369 565l323 762l318 -762h-641zM551 1751q0 -57 40 -93t99 -36t99 36t40 93q0 55 -39.5 91t-99.5 36q-59 0 -99 -36t-40 -91zM608 1751q0 37 22.5 58.5t59.5 21.5t60.5 -21.5t23.5 -58.5q0 -35 -25.5 -58.5 t-58.5 -23.5q-35 0 -58.5 23.5t-23.5 58.5z" />
<glyph unicode="&#xc6;" horiz-adv-x="1970" d="M-55 0h116l310 479h547v-479h960v94h-858v600h729v97h-729v569h840v94h-971zM420 573l491 750v-750h-491z" />
<glyph unicode="&#xc7;" horiz-adv-x="1406" d="M82 737q0 -135 47 -266t133 -235q88 -109 208 -174.5t257 -71.5l-90 -164q109 29 166 29q100 0 100 -74q0 -76 -119 -76q-49 0 -97 11.5t-81 27.5l-28 -55q87 -39 198 -39q92 0 141.5 33.5t49.5 99.5q0 59 -39 90t-109 31q-53 0 -82 -13l60 99q174 10 317 94 q156 92 223 242l-90 43q-70 -137 -211 -217q-121 -68 -268 -68q-119 0 -226.5 52t-187.5 145q-80 90 -124 206.5t-44 243.5q0 117 39 229.5t111 202.5q78 96 184.5 149.5t241.5 53.5q137 0 256 -59q131 -70 203 -211l86 49q-70 145 -209.5 231t-327.5 86q-158 0 -287 -61.5 t-221 -169.5q-86 -102 -133 -231.5t-47 -262.5z" />
<glyph unicode="&#xc8;" d="M190 0h969v94h-864v604h739v90h-739v572h846v94h-951v-1454zM524 1880l174 -207l70 33l-127 174h-117z" />
<glyph unicode="&#xc9;" d="M190 0h969v94h-864v604h739v90h-739v572h846v94h-951v-1454zM623 1704l71 -33l172 207h-118z" />
<glyph unicode="&#xca;" d="M190 0h969v94h-864v604h739v90h-739v572h846v94h-951v-1454zM461 1712l61 -35l174 129l174 -129l62 35l-199 166h-76z" />
<glyph unicode="&#xcb;" d="M190 0h969v94h-864v604h739v90h-739v572h846v94h-951v-1454zM510 1696h90v180h-90v-180zM788 1696h91v180h-91v-180z" />
<glyph unicode="&#xcc;" horiz-adv-x="485" d="M70 1880l174 -207l69 33l-127 174h-116zM190 0h105v1454h-105v-1454z" />
<glyph unicode="&#xcd;" horiz-adv-x="485" d="M168 1704l72 -33l172 207h-119zM190 0h105v1454h-105v-1454z" />
<glyph unicode="&#xce;" horiz-adv-x="485" d="M6 1712l62 -35l174 129l174 -129l61 35l-198 166h-76zM190 0h105v1454h-105v-1454z" />
<glyph unicode="&#xcf;" horiz-adv-x="485" d="M57 1696h90v180h-90v-180zM190 0h105v1454h-105v-1454zM336 1696h90v180h-90v-180z" />
<glyph unicode="&#xd0;" horiz-adv-x="1474" d="M72 688h133v-688h483q156 0 284 52t220 149q92 96 139 230t47 298q0 152 -44 284t-128 228q-88 102 -219 157.5t-299 55.5h-483v-680h-133v-86zM309 94v594h365v86h-365v586h379q274 0 434 -178q74 -84 113 -200t39 -253q0 -135 -38 -251t-112 -202q-76 -88 -186.5 -135 t-249.5 -47h-379z" />
<glyph unicode="&#xd1;" horiz-adv-x="1583" d="M190 0h105v1257l1003 -1257h97v1454h-105v-1280l-1020 1280h-80v-1454zM494 1692h69l4 20q2 6 15 33q29 45 86 45q27 0 49 -9t65 -32q78 -41 144 -41q104 0 155 76q16 27 24.5 53.5t8.5 40.5h-70l-2 -18q-2 -12 -14 -33q-31 -47 -100 -47q-35 0 -60.5 10t-66.5 31 q-39 20 -67.5 30.5t-65.5 10.5q-94 0 -142 -76q-16 -27 -24 -54.5t-8 -39.5z" />
<glyph unicode="&#xd2;" horiz-adv-x="1542" d="M90 727q0 -139 49 -272t140 -236q94 -106 219 -167.5t272 -61.5q141 0 267 59.5t220 163.5q92 102 143.5 235.5t51.5 278.5q0 135 -49 267t-137 237q-92 109 -219 171t-275 62q-143 0 -268 -59t-217 -164q-94 -104 -145.5 -237.5t-51.5 -276.5zM195 727q0 119 40.5 233.5 t116.5 206.5q78 94 185.5 147.5t234.5 53.5q121 0 226.5 -51t185.5 -143q78 -90 120 -206t42 -241q0 -119 -41 -233.5t-115 -204.5q-78 -96 -184.5 -149.5t-233.5 -53.5q-123 0 -229.5 52t-186.5 145q-78 90 -119.5 205.5t-41.5 238.5zM600 1880l174 -207l70 33l-127 174 h-117z" />
<glyph unicode="&#xd3;" horiz-adv-x="1542" d="M90 727q0 -139 49 -272t140 -236q94 -106 219 -167.5t272 -61.5q141 0 267 59.5t220 163.5q92 102 143.5 235.5t51.5 278.5q0 135 -49 267t-137 237q-92 109 -219 171t-275 62q-143 0 -268 -59t-217 -164q-94 -104 -145.5 -237.5t-51.5 -276.5zM195 727q0 119 40.5 233.5 t116.5 206.5q78 94 185.5 147.5t234.5 53.5q121 0 226.5 -51t185.5 -143q78 -90 120 -206t42 -241q0 -119 -41 -233.5t-115 -204.5q-78 -96 -184.5 -149.5t-233.5 -53.5q-123 0 -229.5 52t-186.5 145q-78 90 -119.5 205.5t-41.5 238.5zM698 1704l72 -33l172 207h-119z" />
<glyph unicode="&#xd4;" horiz-adv-x="1542" d="M90 727q0 -139 49 -272t140 -236q94 -106 219 -167.5t272 -61.5q141 0 267 59.5t220 163.5q92 102 143.5 235.5t51.5 278.5q0 135 -49 267t-137 237q-92 109 -219 171t-275 62q-143 0 -268 -59t-217 -164q-94 -104 -145.5 -237.5t-51.5 -276.5zM195 727q0 119 40.5 233.5 t116.5 206.5q78 94 185.5 147.5t234.5 53.5q121 0 226.5 -51t185.5 -143q78 -90 120 -206t42 -241q0 -119 -41 -233.5t-115 -204.5q-78 -96 -184.5 -149.5t-233.5 -53.5q-123 0 -229.5 52t-186.5 145q-78 90 -119.5 205.5t-41.5 238.5zM537 1712l61 -35l174 129l174 -129 l62 35l-199 166h-76z" />
<glyph unicode="&#xd5;" horiz-adv-x="1542" d="M90 727q0 -139 49 -272t140 -236q94 -106 219 -167.5t272 -61.5q141 0 267 59.5t220 163.5q92 102 143.5 235.5t51.5 278.5q0 135 -49 267t-137 237q-92 109 -219 171t-275 62q-143 0 -268 -59t-217 -164q-94 -104 -145.5 -237.5t-51.5 -276.5zM195 727q0 119 40.5 233.5 t116.5 206.5q78 94 185.5 147.5t234.5 53.5q121 0 226.5 -51t185.5 -143q78 -90 120 -206t42 -241q0 -119 -41 -233.5t-115 -204.5q-78 -96 -184.5 -149.5t-233.5 -53.5q-123 0 -229.5 52t-186.5 145q-78 90 -119.5 205.5t-41.5 238.5zM465 1692h70l4 20q2 6 14 33 q29 45 86 45q27 0 49.5 -9t65.5 -32q78 -41 143 -41q105 0 156 76q16 27 24 53.5t8 40.5h-69l-2 -18q-2 -12 -15 -33q-31 -47 -100 -47q-35 0 -60.5 10t-66.5 31q-39 20 -67.5 30.5t-65.5 10.5q-94 0 -141 -76q-16 -27 -24.5 -54.5t-8.5 -39.5z" />
<glyph unicode="&#xd6;" horiz-adv-x="1542" d="M90 727q0 -139 49 -272t140 -236q94 -106 219 -167.5t272 -61.5q141 0 267 59.5t220 163.5q92 102 143.5 235.5t51.5 278.5q0 135 -49 267t-137 237q-92 109 -219 171t-275 62q-143 0 -268 -59t-217 -164q-94 -104 -145.5 -237.5t-51.5 -276.5zM195 727q0 119 40.5 233.5 t116.5 206.5q78 94 185.5 147.5t234.5 53.5q121 0 226.5 -51t185.5 -143q78 -90 120 -206t42 -241q0 -119 -41 -233.5t-115 -204.5q-78 -96 -184.5 -149.5t-233.5 -53.5q-123 0 -229.5 52t-186.5 145q-78 90 -119.5 205.5t-41.5 238.5zM588 1696h90v180h-90v-180zM866 1696 h90v180h-90v-180z" />
<glyph unicode="&#xd7;" horiz-adv-x="923" d="M137 299l66 -68l258 258l260 -258l67 66l-260 258l258 260l-65 68l-260 -260l-256 258l-68 -66l256 -260z" />
<glyph unicode="&#xd8;" horiz-adv-x="1542" d="M90 727q0 -164 65.5 -313.5t182.5 -255.5l-102 -158h116l64 98q158 -109 354 -108q141 0 267 59.5t220 163.5q92 102 143.5 235.5t51.5 278.5q0 158 -65.5 308.5t-184.5 258.5l107 160h-119l-66 -98q-162 109 -352 108q-143 0 -268 -59t-217 -164q-94 -104 -145.5 -237.5 t-51.5 -276.5zM195 727q0 119 40.5 233.5t116.5 206.5q78 94 185.5 147.5t234.5 53.5q160 0 299 -94l-678 -1032q-94 92 -146 219t-52 266zM469 178l678 1032q94 -94 146.5 -220t52.5 -263q0 -119 -41 -233.5t-115 -204.5q-78 -96 -184.5 -149.5t-233.5 -53.5 q-162 0 -303 92z" />
<glyph unicode="&#xd9;" horiz-adv-x="1548" d="M168 723q0 -313 131 -504q156 -229 477 -229q311 0 469 221q135 190 135 512v731h-104v-731q0 -268 -102 -436q-125 -201 -400 -201q-264 0 -395 199q-106 162 -107 438v731h-104v-731zM604 1880l174 -207l70 33l-127 174h-117z" />
<glyph unicode="&#xda;" horiz-adv-x="1548" d="M168 723q0 -313 131 -504q156 -229 477 -229q311 0 469 221q135 190 135 512v731h-104v-731q0 -268 -102 -436q-125 -201 -400 -201q-264 0 -395 199q-106 162 -107 438v731h-104v-731zM702 1704l72 -33l172 207h-119z" />
<glyph unicode="&#xdb;" horiz-adv-x="1548" d="M168 723q0 -313 131 -504q156 -229 477 -229q311 0 469 221q135 190 135 512v731h-104v-731q0 -268 -102 -436q-125 -201 -400 -201q-264 0 -395 199q-106 162 -107 438v731h-104v-731zM541 1712l61 -35l174 129l174 -129l62 35l-199 166h-76z" />
<glyph unicode="&#xdc;" horiz-adv-x="1548" d="M168 723q0 -313 131 -504q156 -229 477 -229q311 0 469 221q135 190 135 512v731h-104v-731q0 -268 -102 -436q-125 -201 -400 -201q-264 0 -395 199q-106 162 -107 438v731h-104v-731zM590 1696h90v180h-90v-180zM868 1696h90v180h-90v-180z" />
<glyph unicode="&#xdd;" horiz-adv-x="1325" d="M39 1454l571 -901v-553h105v549l573 905h-117l-509 -805l-508 805h-115zM588 1704l71 -33l172 207h-118z" />
<glyph unicode="&#xde;" horiz-adv-x="1230" d="M190 0h105v254h467q90 0 166 37t131 102q53 61 82.5 143t29.5 171q0 84 -31.5 164.5t-86.5 146.5q-57 66 -135 103.5t-168 37.5h-455v295h-105v-1454zM295 350v713h450q66 0 124.5 -28.5t105.5 -80.5q43 -49 68.5 -114.5t25.5 -132.5q0 -68 -21.5 -131.5t-60.5 -112.5 q-41 -53 -99.5 -83t-127.5 -30h-465z" />
<glyph unicode="&#xdf;" horiz-adv-x="1124" d="M160 0h100v1036q0 150 78 240q80 94 217 94q57 0 108.5 -17.5t90.5 -49.5q82 -70 82 -183q0 -109 -78 -180q-78 -72 -197 -72h-33v-96h35q168 0 268 -94q104 -98 105 -252q0 -164 -120 -252t-335 -92v-94q262 8 410.5 119.5t148.5 312.5q0 156 -87 263.5t-246 141.5 q96 23 161 113q66 88 66 199q0 68 -28.5 129t-78.5 104q-51 43 -121.5 67.5t-148.5 24.5q-86 0 -158.5 -29.5t-126.5 -82.5q-113 -119 -112 -299v-1051z" />
<glyph unicode="&#xe0;" horiz-adv-x="1099" d="M72 309q0 -70 26.5 -130t75.5 -103q102 -96 248 -96q135 0 248.5 51t187.5 147v-88q4 -41 29.5 -67.5t64.5 -26.5l41 4v92q-45 0 -45 51v521q0 197 -110.5 308t-302.5 111q-182 0 -390 -139l39 -70q186 127 342 127q147 0 233.5 -89t86.5 -240v-105q-70 27 -158 42.5 t-172 15.5q-195 0 -319 -88q-125 -92 -125 -228zM170 315q0 109 98 172q102 66 258 66q174 0 320 -57v-189q0 -41 -33 -82q-55 -74 -154.5 -119t-216.5 -45q-55 0 -106 19.5t-88 54.5q-78 72 -78 180zM362 1495l175 -207l69 33l-127 174h-117z" />
<glyph unicode="&#xe1;" horiz-adv-x="1099" d="M72 309q0 -70 26.5 -130t75.5 -103q102 -96 248 -96q135 0 248.5 51t187.5 147v-88q4 -41 29.5 -67.5t64.5 -26.5l41 4v92q-45 0 -45 51v521q0 197 -110.5 308t-302.5 111q-182 0 -390 -139l39 -70q186 127 342 127q147 0 233.5 -89t86.5 -240v-105q-70 27 -158 42.5 t-172 15.5q-195 0 -319 -88q-125 -92 -125 -228zM170 315q0 109 98 172q102 66 258 66q174 0 320 -57v-189q0 -41 -33 -82q-55 -74 -154.5 -119t-216.5 -45q-55 0 -106 19.5t-88 54.5q-78 72 -78 180zM461 1321l71 -33l173 207h-119z" />
<glyph unicode="&#xe2;" horiz-adv-x="1099" d="M72 309q0 -70 26.5 -130t75.5 -103q102 -96 248 -96q135 0 248.5 51t187.5 147v-88q4 -41 29.5 -67.5t64.5 -26.5l41 4v92q-45 0 -45 51v521q0 197 -110.5 308t-302.5 111q-182 0 -390 -139l39 -70q186 127 342 127q147 0 233.5 -89t86.5 -240v-105q-70 27 -158 42.5 t-172 15.5q-195 0 -319 -88q-125 -92 -125 -228zM170 315q0 109 98 172q102 66 258 66q174 0 320 -57v-189q0 -41 -33 -82q-55 -74 -154.5 -119t-216.5 -45q-55 0 -106 19.5t-88 54.5q-78 72 -78 180zM299 1329l61 -35l175 129l174 -129l61 35l-199 166h-75z" />
<glyph unicode="&#xe3;" horiz-adv-x="1099" d="M72 309q0 -70 26.5 -130t75.5 -103q102 -96 248 -96q135 0 248.5 51t187.5 147v-88q4 -41 29.5 -67.5t64.5 -26.5l41 4v92q-45 0 -45 51v521q0 197 -110.5 308t-302.5 111q-182 0 -390 -139l39 -70q186 127 342 127q147 0 233.5 -89t86.5 -240v-105q-70 27 -158 42.5 t-172 15.5q-195 0 -319 -88q-125 -92 -125 -228zM170 315q0 109 98 172q102 66 258 66q174 0 320 -57v-189q0 -41 -33 -82q-55 -74 -154.5 -119t-216.5 -45q-55 0 -106 19.5t-88 54.5q-78 72 -78 180zM227 1309h70l4 20q2 6 14 33q29 45 86 45q27 0 49.5 -9t65.5 -32 q78 -41 143 -41q105 0 156 76q16 27 24.5 53.5t8.5 40.5h-70l-2 -18q-2 -12 -14 -33q-31 -47 -100 -47q-35 0 -61 10t-66 31q-39 20 -68 30.5t-66 10.5q-94 0 -141 -76q-16 -27 -24.5 -54.5t-8.5 -39.5z" />
<glyph unicode="&#xe4;" horiz-adv-x="1099" d="M72 309q0 -70 26.5 -130t75.5 -103q102 -96 248 -96q135 0 248.5 51t187.5 147v-88q4 -41 29.5 -67.5t64.5 -26.5l41 4v92q-45 0 -45 51v521q0 197 -110.5 308t-302.5 111q-182 0 -390 -139l39 -70q186 127 342 127q147 0 233.5 -89t86.5 -240v-105q-70 27 -158 42.5 t-172 15.5q-195 0 -319 -88q-125 -92 -125 -228zM170 315q0 109 98 172q102 66 258 66q174 0 320 -57v-189q0 -41 -33 -82q-55 -74 -154.5 -119t-216.5 -45q-55 0 -106 19.5t-88 54.5q-78 72 -78 180zM350 1311h90v180h-90v-180zM629 1311h90v180h-90v-180z" />
<glyph unicode="&#xe5;" horiz-adv-x="1099" d="M72 309q0 -70 26.5 -130t75.5 -103q102 -96 248 -96q135 0 248.5 51t187.5 147v-88q4 -41 29.5 -67.5t64.5 -26.5l41 4v92q-45 0 -45 51v521q0 197 -110.5 308t-302.5 111q-182 0 -390 -139l39 -70q186 127 342 127q147 0 233.5 -89t86.5 -240v-105q-70 27 -158 42.5 t-172 15.5q-195 0 -319 -88q-125 -92 -125 -228zM170 315q0 109 98 172q102 66 258 66q174 0 320 -57v-189q0 -41 -33 -82q-55 -74 -154.5 -119t-216.5 -45q-55 0 -106 19.5t-88 54.5q-78 72 -78 180zM393 1368q0 -57 40 -93t99 -36t99.5 36t40.5 93q0 55 -40 91t-100 36 q-59 0 -99 -36t-40 -91zM451 1368q0 37 22.5 58.5t58.5 21.5q37 0 60.5 -21.5t23.5 -58.5q0 -35 -25.5 -58.5t-58.5 -23.5q-35 0 -58 23.5t-23 58.5z" />
<glyph unicode="&#xe6;" horiz-adv-x="1904" d="M72 309q0 -70 26.5 -130t75.5 -103q102 -96 248 -96q147 0 264 57q143 66 203 182q74 -111 187.5 -175t246.5 -64q152 0 272 73q121 72 170 189l-90 24q-41 -94 -137 -147q-100 -57 -211 -58q-82 0 -157.5 33t-135.5 90q-59 57 -96 137t-43 171h944l2 20v20 q0 111 -39 212.5t-110 177.5q-72 76 -169.5 118.5t-207.5 42.5q-129 0 -237.5 -61t-176.5 -166q-45 111 -138 169t-228 58q-184 0 -392 -139l41 -70q186 127 342 127q123 0 205 -64.5t105 -180.5q-29 -68 -39 -172q-139 41 -283 41q-193 0 -317 -88q-125 -92 -125 -228z M170 315q0 106 98.5 172t257.5 66q137 0 271 -41q4 -121 49 -215q-2 -33 -33 -72q-51 -76 -151.5 -120t-219.5 -44q-55 0 -106 19.5t-88 54.5q-78 72 -78 180zM895 567q4 92 38 172t91 138q57 57 132 89.5t159 32.5t159.5 -31.5t133.5 -88.5q57 -57 92 -138.5t41 -173.5 h-846z" />
<glyph unicode="&#xe7;" horiz-adv-x="1116" d="M86 537q0 -106 37 -203.5t102 -175.5q66 -76 155 -122t191 -54l-86 -156q109 29 166 29q100 0 101 -74q0 -76 -119 -76q-49 0 -97.5 11.5t-80.5 27.5l-29 -55q88 -39 199 -39q92 0 141 33.5t49 99.5q0 59 -39 90t-108 31q-53 0 -82 -13l53 91q131 2 254 79 q111 70 151 179l-100 28q-12 -39 -45 -74.5t-80 -62.5q-104 -59 -211 -59q-84 0 -161.5 36.5t-133.5 100.5q-57 63 -91 148t-34 180q0 94 33 177t90 146q55 61 132 96t163 35q104 0 191.5 -50t134.5 -138l100 33q-55 117 -165.5 182t-256.5 65q-113 0 -209 -42t-168 -117 q-70 -74 -108.5 -175.5t-38.5 -211.5z" />
<glyph unicode="&#xe8;" horiz-adv-x="1193" d="M86 537q0 -113 40 -213.5t112 -178.5t168 -121.5t206 -43.5q152 -1 273 73t168 189l-90 24q-41 -94 -138 -147q-100 -57 -209 -58q-82 0 -155.5 33t-130.5 90q-59 59 -95 138t-42 170h933q2 2 2 20v25q0 109 -38.5 209t-108.5 176q-72 76 -168 118.5t-207 42.5 q-109 0 -205 -42t-165 -117q-70 -76 -110 -176.5t-40 -210.5zM190 573q7 93 40.5 171.5t91.5 136.5q57 57 129.5 87.5t156.5 30.5q82 0 157 -30.5t132 -87.5q57 -59 92 -137t41 -171h-840zM432 1495l174 -207l70 33l-127 174h-117z" />
<glyph unicode="&#xe9;" horiz-adv-x="1193" d="M86 537q0 -113 40 -213.5t112 -178.5t168 -121.5t206 -43.5q152 -1 273 73t168 189l-90 24q-41 -94 -138 -147q-100 -57 -209 -58q-82 0 -155.5 33t-130.5 90q-59 59 -95 138t-42 170h933q2 2 2 20v25q0 109 -38.5 209t-108.5 176q-72 76 -168 118.5t-207 42.5 q-109 0 -205 -42t-165 -117q-70 -76 -110 -176.5t-40 -210.5zM190 573q7 93 40.5 171.5t91.5 136.5q57 57 129.5 87.5t156.5 30.5q82 0 157 -30.5t132 -87.5q57 -59 92 -137t41 -171h-840zM530 1321l72 -33l172 207h-119z" />
<glyph unicode="&#xea;" horiz-adv-x="1193" d="M86 537q0 -113 40 -213.5t112 -178.5t168 -121.5t206 -43.5q152 -1 273 73t168 189l-90 24q-41 -94 -138 -147q-100 -57 -209 -58q-82 0 -155.5 33t-130.5 90q-59 59 -95 138t-42 170h933q2 2 2 20v25q0 109 -38.5 209t-108.5 176q-72 76 -168 118.5t-207 42.5 q-109 0 -205 -42t-165 -117q-70 -76 -110 -176.5t-40 -210.5zM190 573q7 93 40.5 171.5t91.5 136.5q57 57 129.5 87.5t156.5 30.5q82 0 157 -30.5t132 -87.5q57 -59 92 -137t41 -171h-840zM369 1329l61 -35l174 129l174 -129l62 35l-199 166h-76z" />
<glyph unicode="&#xeb;" horiz-adv-x="1193" d="M86 537q0 -113 40 -213.5t112 -178.5t168 -121.5t206 -43.5q152 -1 273 73t168 189l-90 24q-41 -94 -138 -147q-100 -57 -209 -58q-82 0 -155.5 33t-130.5 90q-59 59 -95 138t-42 170h933q2 2 2 20v25q0 109 -38.5 209t-108.5 176q-72 76 -168 118.5t-207 42.5 q-109 0 -205 -42t-165 -117q-70 -76 -110 -176.5t-40 -210.5zM190 573q7 93 40.5 171.5t91.5 136.5q57 57 129.5 87.5t156.5 30.5q82 0 157 -30.5t132 -87.5q57 -59 92 -137t41 -171h-840zM420 1311h90v180h-90v-180zM698 1311h90v180h-90v-180z" />
<glyph unicode="&#xec;" horiz-adv-x="423" d="M39 1495l174 -207l70 33l-127 174h-117zM160 0h102v1065h-102v-1065z" />
<glyph unicode="&#xed;" horiz-adv-x="423" d="M137 1321l72 -33l172 207h-119zM160 0h102v1065h-102v-1065z" />
<glyph unicode="&#xee;" horiz-adv-x="423" d="M-25 1329l62 -35l174 129l174 -129l61 35l-198 166h-76zM160 0h102v1065h-102v-1065z" />
<glyph unicode="&#xef;" horiz-adv-x="423" d="M27 1311h90v180h-90v-180zM160 0h102v1065h-102v-1065zM305 1311h90v180h-90v-180z" />
<glyph unicode="&#xf0;" horiz-adv-x="1226" d="M90 475q0 -100 40 -190t112 -160q70 -68 165 -106.5t199 -38.5t200.5 41.5t170.5 117.5q74 78 115 180.5t41 223.5q0 217 -62 383q-76 205 -252 374l176 111l-34 49l-187 -119q-86 76 -217 154h-145q147 -84 284 -197l-229 -141l37 -51l237 151q135 -127 201 -261 t86 -285q-55 119 -172 189.5t-262 70.5q-102 0 -193.5 -39t-160.5 -109q-70 -70 -110 -160t-40 -188zM195 473q0 84 32.5 158t89.5 131t134 89t161 32t160 -30t133 -83t90 -124t33 -148q0 -84 -32.5 -162t-90.5 -137q-57 -59 -135 -93t-162 -34t-160.5 31.5t-132.5 86.5 q-57 55 -88.5 128t-31.5 155z" />
<glyph unicode="&#xf1;" horiz-adv-x="1179" d="M160 0h102v659q20 68 63.5 129.5t100.5 106.5t123.5 69.5t134.5 24.5q127 0 185.5 -94t58.5 -301v-594h102v612q0 236 -74.5 353.5t-242.5 117.5q-141 0 -267 -73q-125 -76 -190 -199v254h-96v-1065zM287 1309h69l4 20q2 6 15 33q29 45 86 45q27 0 49 -9t65 -32 q78 -41 144 -41q104 0 155 76q16 27 24.5 53.5t8.5 40.5h-69l-2 -18q-2 -12 -15 -33q-31 -47 -100 -47q-35 0 -60.5 10t-66.5 31q-39 20 -67.5 30.5t-65.5 10.5q-94 0 -142 -76q-16 -27 -24 -54.5t-8 -39.5z" />
<glyph unicode="&#xf2;" horiz-adv-x="1212" d="M86 530q0 -109 39 -210t108 -177q72 -78 167.5 -120.5t205.5 -42.5q109 0 204 43t167 120q70 76 109.5 177.5t39.5 209.5q0 111 -38.5 212.5t-110.5 177.5q-72 78 -167 120.5t-204 42.5t-204 -43t-166 -120q-70 -76 -110 -177.5t-40 -212.5zM188 526q0 92 34 178.5 t91 149.5t133 100t160 37t159 -35.5t134 -99.5q57 -63 90 -147t33 -177q0 -94 -33 -177t-90 -148q-57 -63 -134 -99t-161 -36t-159.5 34.5t-133.5 98.5q-57 63 -90 146t-33 175zM434 1495l174 -207l70 33l-127 174h-117z" />
<glyph unicode="&#xf3;" horiz-adv-x="1212" d="M86 530q0 -109 39 -210t108 -177q72 -78 167.5 -120.5t205.5 -42.5q109 0 204 43t167 120q70 76 109.5 177.5t39.5 209.5q0 111 -38.5 212.5t-110.5 177.5q-72 78 -167 120.5t-204 42.5t-204 -43t-166 -120q-70 -76 -110 -177.5t-40 -212.5zM188 526q0 92 34 178.5 t91 149.5t133 100t160 37t159 -35.5t134 -99.5q57 -63 90 -147t33 -177q0 -94 -33 -177t-90 -148q-57 -63 -134 -99t-161 -36t-159.5 34.5t-133.5 98.5q-57 63 -90 146t-33 175zM532 1321l72 -33l172 207h-119z" />
<glyph unicode="&#xf4;" horiz-adv-x="1212" d="M86 530q0 -109 39 -210t108 -177q72 -78 167.5 -120.5t205.5 -42.5q109 0 204 43t167 120q70 76 109.5 177.5t39.5 209.5q0 111 -38.5 212.5t-110.5 177.5q-72 78 -167 120.5t-204 42.5t-204 -43t-166 -120q-70 -76 -110 -177.5t-40 -212.5zM188 526q0 92 34 178.5 t91 149.5t133 100t160 37t159 -35.5t134 -99.5q57 -63 90 -147t33 -177q0 -94 -33 -177t-90 -148q-57 -63 -134 -99t-161 -36t-159.5 34.5t-133.5 98.5q-57 63 -90 146t-33 175zM371 1329l61 -35l174 129l174 -129l62 35l-199 166h-76z" />
<glyph unicode="&#xf5;" horiz-adv-x="1212" d="M86 530q0 -109 39 -210t108 -177q72 -78 167.5 -120.5t205.5 -42.5q109 0 204 43t167 120q70 76 109.5 177.5t39.5 209.5q0 111 -38.5 212.5t-110.5 177.5q-72 78 -167 120.5t-204 42.5t-204 -43t-166 -120q-70 -76 -110 -177.5t-40 -212.5zM188 526q0 92 34 178.5 t91 149.5t133 100t160 37t159 -35.5t134 -99.5q57 -63 90 -147t33 -177q0 -94 -33 -177t-90 -148q-57 -63 -134 -99t-161 -36t-159.5 34.5t-133.5 98.5q-57 63 -90 146t-33 175zM299 1309h70l4 20q2 6 14 33q29 45 86 45q27 0 49.5 -9t65.5 -32q78 -41 143 -41q105 0 156 76 q16 27 24.5 53.5t8.5 40.5h-70l-2 -18q-2 -12 -14 -33q-31 -47 -101 -47q-35 0 -60.5 10t-66.5 31q-39 20 -67.5 30.5t-65.5 10.5q-94 0 -141 -76q-16 -27 -24.5 -54.5t-8.5 -39.5z" />
<glyph unicode="&#xf6;" horiz-adv-x="1212" d="M86 530q0 -109 39 -210t108 -177q72 -78 167.5 -120.5t205.5 -42.5q109 0 204 43t167 120q70 76 109.5 177.5t39.5 209.5q0 111 -38.5 212.5t-110.5 177.5q-72 78 -167 120.5t-204 42.5t-204 -43t-166 -120q-70 -76 -110 -177.5t-40 -212.5zM188 526q0 92 34 178.5 t91 149.5t133 100t160 37t159 -35.5t134 -99.5q57 -63 90 -147t33 -177q0 -94 -33 -177t-90 -148q-57 -63 -134 -99t-161 -36t-159.5 34.5t-133.5 98.5q-57 63 -90 146t-33 175zM422 1311h90v180h-90v-180zM700 1311h91v180h-91v-180z" />
<glyph unicode="&#xf7;" horiz-adv-x="1105" d="M141 526h826v88h-826v-88zM508 166h90v164h-90v-164zM508 807h90v166h-90v-166z" />
<glyph unicode="&#xf8;" horiz-adv-x="1212" d="M86 530q0 -129 52 -241.5t145 -192.5l-70 -98h78l45 59q127 -78 270 -77q109 0 204 43t167 120q70 76 109.5 177.5t39.5 209.5q0 129 -52 242t-146 193l73 102h-81l-46 -63q-129 80 -268 79q-109 0 -204 -43t-166 -120q-70 -76 -110 -177.5t-40 -212.5zM188 526 q0 92 34 178.5t91 149.5t133 100t160 37q115 0 215 -67l-481 -750q-72 66 -112 156t-40 196zM387 137l483 746q70 -63 111 -155.5t41 -195.5q0 -94 -33 -177t-90 -148q-57 -63 -134 -99t-161 -36q-121 -1 -217 65z" />
<glyph unicode="&#xf9;" horiz-adv-x="1202" d="M150 451q0 -471 339 -471q144 0 266 72.5t189 199.5v-160q0 -41 31 -67.5t74 -26.5h12q12 0 18 2v92q-43 0 -43 51v922h-102v-672q-49 -145 -164 -231q-117 -90 -250 -90q-268 0 -268 393v600h-102v-614zM418 1495l174 -207l70 33l-127 174h-117z" />
<glyph unicode="&#xfa;" horiz-adv-x="1202" d="M150 451q0 -471 339 -471q144 0 266 72.5t189 199.5v-160q0 -41 31 -67.5t74 -26.5h12q12 0 18 2v92q-43 0 -43 51v922h-102v-672q-49 -145 -164 -231q-117 -90 -250 -90q-268 0 -268 393v600h-102v-614zM514 1321l72 -33l172 207h-119z" />
<glyph unicode="&#xfb;" horiz-adv-x="1202" d="M150 451q0 -471 339 -471q144 0 266 72.5t189 199.5v-160q0 -41 31 -67.5t74 -26.5h12q12 0 18 2v92q-43 0 -43 51v922h-102v-672q-49 -145 -164 -231q-117 -90 -250 -90q-268 0 -268 393v600h-102v-614zM352 1329l62 -35l174 129l174 -129l61 35l-198 166h-76z" />
<glyph unicode="&#xfc;" horiz-adv-x="1202" d="M150 451q0 -471 339 -471q144 0 266 72.5t189 199.5v-160q0 -41 31 -67.5t74 -26.5h12q12 0 18 2v92q-43 0 -43 51v922h-102v-672q-49 -145 -164 -231q-117 -90 -250 -90q-268 0 -268 393v600h-102v-614zM403 1311h91v180h-91v-180zM682 1311h90v180h-90v-180z" />
<glyph unicode="&#xfd;" horiz-adv-x="1105" d="M35 1065l475 -1065l-78 -184q-27 -63 -47 -103q-20 -37 -29 -45q-8 -12 -22 -18q-27 -12 -72 -12q-25 0 -31 2v-95q7 -2 21 -2h16q160 0 209 121l584 1401h-100l-396 -965l-424 965h-106zM492 1321l71 -33l172 207h-119z" />
<glyph unicode="&#xfe;" horiz-adv-x="1234" d="M160 -436h104v614q53 -86 152 -145q100 -61 215 -62q106 0 200.5 45t165.5 125q72 78 112 178.5t42 208.5q0 101 -35 199t-98 178q-68 84 -162 132t-207 48q-223 0 -385 -223v592h-104v-1890zM264 350v369q57 117 152 190q106 82 229 82q174 0 291 -141q53 -63 82 -147.5 t29 -174.5q0 -88 -31 -170t-86 -147q-57 -68 -134 -105.5t-167 -37.5q-55 0 -119 23.5t-119 62.5q-57 41 -92 92t-35 104z" />
<glyph unicode="&#xff;" horiz-adv-x="1105" d="M35 1065l475 -1065l-78 -184q-27 -63 -47 -103q-20 -37 -29 -45q-8 -12 -22 -18q-27 -12 -72 -12q-25 0 -31 2v-95q7 -2 21 -2h16q160 0 209 121l584 1401h-100l-396 -965l-424 965h-106zM381 1311h90v180h-90v-180zM659 1311h91v180h-91v-180z" />
<glyph unicode="&#x152;" horiz-adv-x="2402" d="M90 727q0 -139 50 -272t141 -236q94 -109 220 -169t273 -60q190 0 352 123q74 55 131.5 132t92.5 165v-410h960v94h-858v600h729v97h-729v569h840v94h-942v-412q-78 186 -220 297q-162 125 -358 125q-143 0 -268 -59t-217 -164q-94 -104 -145.5 -237.5t-51.5 -276.5z M195 727q0 119 40.5 233.5t116.5 206.5q78 94 185.5 147.5t234.5 53.5q121 0 226.5 -51t185.5 -143q78 -90 120 -206t42 -239q0 -121 -41 -234.5t-115 -205.5q-78 -96 -184.5 -149.5t-233.5 -53.5q-123 0 -229.5 52t-186.5 145q-78 90 -119.5 205.5t-41.5 238.5z" />
<glyph unicode="&#x153;" horiz-adv-x="2129" d="M86 528q0 -113 40 -213t110 -176q72 -76 166 -117.5t200 -41.5q156 0 287 98q125 96 186 260q61 -160 195 -258q131 -100 295 -100q143 0 270 73q125 72 172 189l-88 24q-39 -94 -133 -147q-100 -57 -215 -58q-84 0 -162 34t-139 93q-127 123 -142 304h936 q0 131 -38.5 240.5t-110.5 189.5q-70 78 -165 119.5t-206 41.5q-172 0 -296 -95t-177 -265q-49 160 -176 262q-127 98 -287 98q-109 0 -204 -42t-166 -119q-72 -76 -112 -177.5t-40 -216.5zM188 524q0 94 33 180.5t90 149.5t135 100t162 37t160 -34.5t133 -98.5 q57 -66 89 -149.5t32 -178.5q0 -94 -32 -178t-89 -147t-134 -98t-163 -35t-161.5 34.5t-131.5 96.5q-59 63 -91 145t-32 176zM1128 567q5 92 38.5 172t88.5 138q57 57 131 89.5t156 32.5q84 0 159 -31.5t132 -88.5q55 -57 90 -138.5t41 -173.5h-836z" />
<glyph unicode="&#x178;" horiz-adv-x="1325" d="M39 1454l571 -901v-553h105v549l573 905h-117l-509 -805l-508 805h-115zM477 1696h90v180h-90v-180zM756 1696h90v180h-90v-180z" />
<glyph unicode="&#x2c6;" horiz-adv-x="655" d="M92 1329l62 -35l174 129l174 -129l61 35l-198 166h-76z" />
<glyph unicode="&#x2dc;" horiz-adv-x="813" d="M96 1309h70l4 20q2 6 14 33q29 45 86 45q27 0 49.5 -9t65.5 -32q78 -41 143 -41q105 0 156 76q16 27 24.5 53.5t8.5 40.5h-70l-2 -18q-2 -12 -14 -33q-31 -47 -101 -47q-35 0 -60.5 10t-66.5 31q-39 20 -67.5 30.5t-65.5 10.5q-94 0 -141 -76q-16 -27 -24.5 -54.5 t-8.5 -39.5z" />
<glyph unicode="&#x2000;" horiz-adv-x="940" />
<glyph unicode="&#x2001;" horiz-adv-x="1880" />
<glyph unicode="&#x2002;" horiz-adv-x="940" />
<glyph unicode="&#x2003;" horiz-adv-x="1880" />
<glyph unicode="&#x2004;" horiz-adv-x="626" />
<glyph unicode="&#x2005;" horiz-adv-x="470" />
<glyph unicode="&#x2006;" horiz-adv-x="313" />
<glyph unicode="&#x2007;" horiz-adv-x="313" />
<glyph unicode="&#x2008;" horiz-adv-x="235" />
<glyph unicode="&#x2009;" horiz-adv-x="376" />
<glyph unicode="&#x200a;" horiz-adv-x="104" />
<glyph unicode="&#x2010;" horiz-adv-x="864" d="M137 510h590v94h-590v-94z" />
<glyph unicode="&#x2011;" horiz-adv-x="864" d="M137 510h590v94h-590v-94z" />
<glyph unicode="&#x2012;" horiz-adv-x="864" d="M137 510h590v94h-590v-94z" />
<glyph unicode="&#x2013;" horiz-adv-x="1144" d="M137 510h871v94h-871v-94z" />
<glyph unicode="&#x2014;" horiz-adv-x="1826" d="M137 510h1553v94h-1553v-94z" />
<glyph unicode="&#x2018;" horiz-adv-x="378" d="M135 1106h107v186h-39l30 203h-55l-43 -203v-186z" />
<glyph unicode="&#x2019;" horiz-adv-x="368" d="M137 1309h39l-31 -203h56l43 203v186h-107v-186z" />
<glyph unicode="&#x201a;" horiz-adv-x="487" d="M193 0h36l-30 -190h55l43 190v188h-104v-188z" />
<glyph unicode="&#x201c;" horiz-adv-x="595" d="M135 1106h107v186h-39l30 203h-55l-43 -203v-186zM352 1106h107v186h-39l31 203h-56l-43 -203v-186z" />
<glyph unicode="&#x201d;" horiz-adv-x="585" d="M137 1309h39l-31 -203h56l43 203v186h-107v-186zM352 1309h39l-31 -203h56l43 203v186h-107v-186z" />
<glyph unicode="&#x201e;" horiz-adv-x="692" d="M193 0h36l-30 -190h55l43 190v188h-104v-188zM397 0h37l-31 -190h56l43 190v188h-105v-188z" />
<glyph unicode="&#x2022;" horiz-adv-x="710" d="M180 707q0 -72 53 -125q47 -51 123 -52q72 0 123 51.5t51 125.5q0 69 -49 122q-55 51 -125 52q-72 0 -123 -52q-53 -53 -53 -122z" />
<glyph unicode="&#x2026;" horiz-adv-x="851" d="M137 0h90v174h-90v-174zM383 0h88v174h-88v-174zM627 0h90v174h-90v-174z" />
<glyph unicode="&#x202f;" horiz-adv-x="376" />
<glyph unicode="&#x2039;" horiz-adv-x="718" d="M84 498l500 -353v93l-414 292l414 295v93l-500 -359v-61z" />
<glyph unicode="&#x203a;" horiz-adv-x="718" d="M133 145l502 353v61l-502 359v-93l416 -295l-416 -292v-93z" />
<glyph unicode="&#x205f;" horiz-adv-x="470" />
<glyph unicode="&#x20ac;" horiz-adv-x="1652" d="M68 567h239q27 -117 85.5 -221t144.5 -184q188 -174 430 -174q180 0 336 86q170 94 241 252l-90 43q-70 -137 -211 -217q-121 -68 -268 -68q-100 0 -192.5 37t-168.5 104q-74 66 -126 153t-76 189h616l33 70h-662q-6 47 -6 94v39h713l31 70h-736q14 102 60.5 197.5 t118.5 166.5q158 162 389 162q137 0 256 -59q131 -70 202 -211l86 49q-70 145 -209 231t-327 86q-143 0 -262 -50t-209 -140q-86 -86 -140.5 -198.5t-70.5 -233.5h-129l-31 -70h154v-33q0 -51 6 -100h-197z" />
<glyph unicode="&#x2122;" horiz-adv-x="1427" d="M125 1380h194v-506h76v506h195v78h-465v-78zM684 874h78v463l182 -376h64l184 376v-463h76v580h-103l-190 -399l-189 399h-102v-580z" />
<glyph unicode="&#x25fc;" horiz-adv-x="1064" d="M0 0v1065h1065v-1065h-1065z" />
</font>
</defs>
</svg>
