<?xml version="1.0" standalone="no"?>
<!DOCTYPE svg PUBLIC "-//W3C//DTD SVG 1.1//EN" "http://www.w3.org/Graphics/SVG/1.1/DTD/svg11.dtd" >
<svg xmlns="http://www.w3.org/2000/svg">
<metadata></metadata>
<defs>
<font id="rt_ralewaysemibold" horiz-adv-x="1540" >
<font-face units-per-em="2048" ascent="1638" descent="-410" />
<missing-glyph horiz-adv-x="505" />
<glyph unicode="&#xfb01;" horiz-adv-x="1118" d="M53 870h144v-870h225v870h336v-870h225v1044h-561v50q0 94 49 157q55 72 156 72q72 0 140.5 -25.5t117.5 -68.5l92 168q-168 119 -365 119q-193 0 -309 -132q-106 -119 -106 -297v-43h-144v-174z" />
<glyph unicode="&#xfb02;" horiz-adv-x="1290" d="M53 870h144v-870h225v870h196v174h-196v27q10 252 199 252q104 0 153 -70q39 -57 39 -155v-897q0 -90 67.5 -152.5t180.5 -62.5q45 0 84 6q80 12 129 31q20 6 22 8l-34 182l-13 -4l-28 -8q-43 -14 -78 -15q-51 0 -78 41q-27 35 -27 82v836q0 172 -102 268 q-109 102 -320 103q-201 0 -310 -109t-109 -301v-62h-144v-174z" />
<glyph unicode="&#xfb03;" horiz-adv-x="1630" d="M53 870h144v-870h225v870h289v-870h225v870h334v-870h227v1044h-561v50q0 96 49 157q55 72 160 72q68 0 136.5 -26.5t115.5 -67.5l94 168q-184 119 -369 119q-205 0 -323 -134q-125 57 -252 58q-164 0 -260 -117q-90 -109 -90 -262v-17h-144v-174zM422 1044v21 q0 76 39 127q45 55 129 55q90 0 145 -33q-10 -20 -18 -84q-6 -49 -6 -86h-289z" />
<glyph unicode="&#xfb04;" horiz-adv-x="1808" d="M53 870h144v-870h225v870h293v-870h225v870h195v174h-195v19q0 117 45 184q49 76 152 76q104 0 153 -70q39 -57 39 -151v-901q0 -90 68.5 -152.5t181.5 -62.5q43 0 82 6q80 12 129 31q20 6 22 8l-32 182l-15 -4l-28 -8q-43 -14 -78 -15q-53 0 -80 41q-25 37 -25 82v836 q0 172 -102 268q-109 102 -317 103q-227 0 -336 -134q-125 57 -246 58q-80 0 -146.5 -30t-113.5 -83q-45 -51 -70.5 -120.5t-25.5 -145.5v-17h-144v-174zM422 1044v25q0 72 45 123q51 55 133 55t133 -30q-10 -20 -14 -80l-4 -93h-293z" />
<glyph horiz-adv-x="0" />
<glyph unicode="&#xd;" horiz-adv-x="0" />
<glyph unicode=" "  horiz-adv-x="505" />
<glyph unicode="&#x09;" horiz-adv-x="505" />
<glyph unicode="&#xa0;" horiz-adv-x="505" />
<glyph unicode="!" horiz-adv-x="581" d="M178 0h225v281h-225v-281zM178 518h225v950h-225v-950z" />
<glyph unicode="&#x22;" horiz-adv-x="731" d="M131 1026h193v451h-193v-451zM408 1026h192v451h-192v-451z" />
<glyph unicode="#" horiz-adv-x="1445" d="M76 397h231l-100 -397h184l96 397h297l-98 -397h184l97 397h311v172h-270l77 324h285v160h-246l101 401h-185l-98 -401h-295l98 401h-184l-96 -401h-297v-160h256l-78 -324h-270v-172zM528 569l78 324h297l-78 -324h-297z" />
<glyph unicode="$" horiz-adv-x="1286" d="M72 182q219 -170 524 -192v-219h106v215q219 4 357 104q145 109 145 313q0 182 -129 283q-57 45 -144 78t-206 61l-39 9v423q117 -8 219 -55q92 -41 137 -90l105 188q-203 148 -445 162v207h-106v-207q-209 -16 -336 -127q-133 -121 -133 -313q0 -84 26.5 -145.5 t82.5 -106.5q51 -43 128.5 -74.5t194.5 -62.5l27 -6l24 -9v-423q-133 14 -268 75q-113 51 -166 109zM367 1059q0 90 60 141t183 57v-403q-131 35 -187 79t-56 126zM686 193v405q141 -41 206.5 -88t65.5 -131q0 -90 -70.5 -137t-201.5 -49z" />
<glyph unicode="%" horiz-adv-x="1552" d="M74 1169q0 -61 25.5 -116.5t70.5 -98.5q43 -41 102.5 -64.5t126.5 -23.5q68 0 127.5 23.5t104.5 64.5q45 43 69.5 98.5t24.5 116.5q0 123 -94 217q-45 41 -104.5 65t-127.5 24t-127 -24t-102 -65q-96 -92 -96 -217zM166 82l104 -94l553 712l566 674l-107 92l-541 -702z M233 1169q0 76 49.5 132.5t116.5 56.5q33 0 64 -14.5t53 -38.5q49 -55 49 -136q0 -76 -49 -129q-51 -57 -117 -57q-67 0 -116 55q-49 53 -50 131zM827 285q0 -61 26 -116.5t71 -98.5q43 -43 102 -66.5t127 -23.5t127 23.5t104 66.5t70 98t25 117q0 61 -24.5 116.5 t-70.5 98.5q-45 41 -104 64.5t-127 23.5t-127 -23.5t-102 -64.5q-45 -43 -71 -98.5t-26 -116.5zM987 285q0 76 49 131q51 55 117 55q63 0 117 -53q49 -55 49 -133t-48 -133.5t-118 -55.5q-68 1 -117 56q-23 25 -36 59.5t-13 73.5z" />
<glyph unicode="&#x26;" horiz-adv-x="1425" d="M88 397q0 -86 35 -162.5t98 -132.5q63 -57 152.5 -89.5t193.5 -32.5q238 0 422 159l133 -139h297l-291 303q125 195 127 469h-184q0 -180 -74 -332l-327 344q127 86 194 170q80 100 80 209q0 72 -29.5 131.5t-80.5 98.5t-119 59.5t-142 20.5q-80 0 -151.5 -25t-122.5 -70 t-81 -108.5t-30 -134.5q0 -76 39 -148q39 -80 129 -176q-123 -84 -188 -174q-80 -111 -80 -240zM305 395q0 78 48 143.5t139 129.5l376 -400q-123 -111 -276 -110q-115 -1 -201 65t-86 172zM395 1141q0 69 50.5 116.5t127.5 47.5q74 0 119 -40t45 -106q0 -61 -49 -114.5 t-153 -118.5q-88 94 -111 131q-29 45 -29 84z" />
<glyph unicode="'" horiz-adv-x="454" d="M131 1024h193v453h-193v-453z" />
<glyph unicode="(" horiz-adv-x="606" d="M78 709q0 -356 301 -805l164 84q-254 412 -254 714q0 184 94 431q78 203 166 329l-174 74q-141 -242 -209 -414q-88 -229 -88 -413z" />
<glyph unicode=")" horiz-adv-x="606" d="M57 1462q92 -141 166 -329q94 -246 94 -431q0 -301 -256 -714l166 -84q299 444 299 805q0 188 -86 413q-63 162 -211 414z" />
<glyph unicode="*" horiz-adv-x="690" d="M113 1268l143 -45l-92 -138l90 -61l92 145l90 -145l90 61l-92 138l141 45l-30 102l-146 -59l9 155h-125l8 -155l-146 59z" />
<glyph unicode="+" horiz-adv-x="858" d="M100 637h228v-248h202v248h228v180h-228v248h-202v-248h-228v-180z" />
<glyph unicode="," horiz-adv-x="452" d="M125 12h74l-49 -211h106l72 211v250h-203v-250z" />
<glyph unicode="-" horiz-adv-x="862" d="M125 459h612v203h-612v-203z" />
<glyph unicode="." horiz-adv-x="436" d="M125 0h186v262h-186v-262z" />
<glyph unicode="/" horiz-adv-x="1359" d="M55 0h250l998 1454h-250z" />
<glyph unicode="0" horiz-adv-x="1423" d="M98 717q0 -127 41 -257t117 -233q84 -113 201.5 -179t263.5 -68q137 2 253 65.5t202 171.5q80 104 122.5 234.5t42.5 265.5q0 123 -39.5 252t-115.5 235q-86 117 -203 183.5t-262 66.5q-139 0 -255 -62.5t-200 -172.5q-80 -104 -124 -236.5t-44 -265.5zM332 717 q0 88 23.5 180t70.5 170q51 84 125 132t170 48q90 0 162.5 -46t124.5 -126q49 -74 74.5 -169t25.5 -189q0 -88 -24.5 -181.5t-69.5 -168.5q-51 -84 -125 -132.5t-168 -48.5q-178 0 -287 172q-47 74 -73.5 169.5t-28.5 189.5z" />
<glyph unicode="1" horiz-adv-x="950" d="M88 1063q76 0 188 65q104 61 140 111v-1036h-281v-203h772v203h-260v1265h-231l-33 -34q-31 -31 -78 -66q-125 -96 -217 -96v-209z" />
<glyph unicode="2" horiz-adv-x="1226" d="M90 0h1028v203h-723q0 123 76 207q78 84 258 168q90 45 154.5 83.5t113.5 86.5q119 115 119 290q0 92 -30.5 172t-90.5 138q-129 125 -354 125q-190 0 -360 -97q-63 -35 -110.5 -75.5t-72.5 -71.5l144 -150q61 76 147 125q106 61 225 62q119 0 183.5 -63.5t64.5 -168.5 q0 -80 -35 -133q-63 -92 -219 -162q-78 -35 -137 -63q-102 -51 -173 -109.5t-116 -134.5q-92 -160 -92 -432z" />
<glyph unicode="3" horiz-adv-x="1196" d="M90 285q39 -141 166 -222t311 -81q105 0 200 26.5t169 75.5q76 53 120 130t44 171q0 141 -84 242q-90 109 -228 131q135 31 207 110.5t72 202.5q0 84 -37 156.5t-104 130.5q-68 55 -160 85t-197 30q-147 0 -278 -58q-63 -29 -115.5 -70.5t-85.5 -91.5l148 -161 q39 76 126 129t207 53q104 0 177 -53q39 -29 60 -70t21 -90q0 -109 -107.5 -164t-291.5 -55h-70v-191h70q207 0 321.5 -60.5t114.5 -174.5q0 -102 -88 -164q-82 -61 -215 -62q-76 0 -140.5 23t-109.5 59q-43 35 -69.5 76t-30.5 80z" />
<glyph unicode="4" horiz-adv-x="1189" d="M55 352h650v-352h225v352h180v203h-180v899h-156l-719 -901v-201zM285 555l444 557v-557h-444z" />
<glyph unicode="5" horiz-adv-x="1155" d="M76 244q66 -123 190.5 -193.5t282.5 -70.5q111 0 207 35.5t168 101.5t110.5 155.5t38.5 196.5q0 102 -34.5 187t-100.5 147q-66 63 -154 97t-188 34q-153 0 -229 -82l73 395h547v207h-711l-79 -405l-31 -154l-27 -137l-18 -103l-10 -49h200q41 63 109.5 98t146.5 35 q55 0 106.5 -20.5t88.5 -54.5q80 -80 80 -201q0 -61 -21.5 -114.5t-60.5 -90.5t-93.5 -57.5t-115.5 -20.5q-102 0 -192.5 52.5t-147.5 140.5z" />
<glyph unicode="6" horiz-adv-x="1243" d="M98 625q0 -299 146 -473q70 -84 168 -128t219 -44q109 0 206 38.5t169 108.5q72 68 110.5 160t38.5 196q0 101 -38 190t-107 156q-68 68 -161 105t-198 37q-117 0 -207 -53.5t-135 -145.5q4 233 95.5 364.5t244.5 131.5q98 0 182 -50.5t132 -136.5l133 140 q-72 117 -187.5 180t-255.5 63q-258 0 -403 -211q-152 -223 -152 -628zM322 483q0 125 92 217q43 43 99 67t118 24q61 0 118.5 -24t100.5 -67q90 -94 90 -217q0 -61 -23.5 -118.5t-66.5 -100.5t-100.5 -67.5t-118.5 -24.5q-62 0 -118 24.5t-99 67.5t-67.5 100.5t-24.5 118.5 z" />
<glyph unicode="7" horiz-adv-x="1122" d="M68 1247h704l-627 -1247h254l729 1454h-1060v-207z" />
<glyph unicode="8" horiz-adv-x="1230" d="M94 430q0 -94 39 -176t111 -143q70 -61 165 -94t203 -33q104 0 199.5 30.5t167.5 87.5q74 57 115 139.5t41 178.5q0 125 -76 223q-63 82 -176 135q90 39 148.5 116t58.5 171q0 90 -41 164t-113 125q-68 49 -153 74.5t-169 25.5t-168 -25.5t-149 -74.5q-72 -53 -113 -127 t-41 -164q0 -94 57.5 -170t145.5 -115q-100 -45 -170 -129q-82 -98 -82 -219zM326 434q0 55 24.5 102.5t65.5 79.5q41 33 92 50.5t106 17.5q113 0 201 -66q92 -72 92 -184q0 -108 -90 -178t-201 -70q-53 0 -105 17.5t-93 50.5q-43 31 -67.5 78t-24.5 102zM371 1055 q0 43 19.5 81t53.5 64q74 53 170 53q102 0 172 -51q74 -57 74 -143q0 -94 -80 -150q-72 -53 -166 -53q-90 0 -163 51q-80 55 -80 148z" />
<glyph unicode="9" horiz-adv-x="1241" d="M86 961q0 -101 38 -190t107 -157q68 -68 161 -104.5t198 -36.5q117 0 208 53.5t134 145.5q-2 -233 -93 -363.5t-247 -130.5q-98 0 -182 50.5t-131 136.5l-134 -140q72 -117 188 -181t257 -64q125 0 227.5 54t175.5 159q150 219 150 628q0 297 -144 473q-70 84 -168 127 t-219 43q-109 0 -205 -37.5t-167 -107.5q-72 -70 -113 -162t-41 -196zM303 963q0 61 24.5 118.5t67.5 100.5t98.5 67.5t116.5 24.5q62 0 119 -24.5t100 -67.5t68 -101.5t25 -119.5t-24 -117t-67 -99t-100 -66.5t-119 -23.5q-61 0 -117.5 25t-99.5 68t-67.5 98t-24.5 117z " />
<glyph unicode=":" horiz-adv-x="456" d="M135 0h187v262h-187v-262zM135 801h187v260h-187v-260z" />
<glyph unicode=";" horiz-adv-x="489" d="M143 12h74l-49 -211h106l72 211v250h-203v-250zM145 801h185v260h-185v-260z" />
<glyph unicode="&#x3c;" horiz-adv-x="1048" d="M68 469l860 -512v250l-535 323l535 332v240l-860 -520v-113z" />
<glyph unicode="=" horiz-adv-x="897" d="M131 332h633v149h-633v-149zM131 649h633v150h-633v-150z" />
<glyph unicode="&#x3e;" horiz-adv-x="1048" d="M121 -43l862 512v113l-862 520v-240l534 -332l-534 -323v-250z" />
<glyph unicode="?" horiz-adv-x="987" d="M70 1208l147 -100q45 78 109 125q80 55 166 55q92 0 155 -53q70 -59 70 -154q0 -63 -29 -110q-55 -86 -164 -142l-41 -22q-12 -8 -22 -13.5t-19 -11.5q-94 -57 -132 -137t-38 -192h189q-1 102 67 170q27 27 58.5 47t89.5 53q117 61 170 133q68 92 67 217q0 197 -131 305 q-59 47 -133 71t-151 24q-143 0 -258 -70t-170 -195zM272 0h189v258h-189v-258z" />
<glyph unicode="@" horiz-adv-x="1726" d="M90 471q0 -166 57.5 -307t161.5 -248q102 -104 236.5 -159.5t288.5 -55.5q182 0 352 82l-33 90q-84 -39 -155.5 -58.5t-161.5 -19.5q-139 0 -259 52.5t-206 146.5q-86 92 -133.5 215t-47.5 262q0 143 50.5 267t140.5 214t211 139.5t262 49.5q143 0 266 -51.5t213 -143.5 q88 -94 137.5 -219t49.5 -268q0 -53 -9.5 -119t-27.5 -121q-20 -66 -60.5 -105.5t-93.5 -39.5q-63 0 -86 65q-16 47 -16 156v221q0 86 -10.5 156.5t-42.5 126.5q-84 141 -308 141q-186 0 -344 -102l45 -123q115 92 279 92q135 0 194 -78q47 -63 47 -201q-113 45 -243 45 q-160 0 -258 -61q-57 -35 -90 -93.5t-33 -135.5q0 -127 82 -205t229 -78q102 0 194.5 39t153.5 104q12 -82 43 -120q45 -55 144 -56q129 0 209 101q59 74 86 208q16 82 16 179q0 178 -60.5 325.5t-168.5 249.5q-104 98 -241.5 151.5t-289.5 53.5q-153 0 -291.5 -52.5 t-244.5 -150.5q-111 -102 -172.5 -245.5t-61.5 -315.5zM602 289q0 88 66.5 130t175.5 42q84 0 149 -19l92 -24v-78q0 -119 -114 -174q-97 -43 -185 -43q-84 0 -134 46t-50 120z" />
<glyph unicode="A" horiz-adv-x="1382" d="M14 0h244l152 395h561l153 -395h242l-573 1454h-201zM451 565l241 625l234 -625h-475z" />
<glyph unicode="B" horiz-adv-x="1382" d="M164 0h694q92 0 174 25.5t144 74.5q61 49 96 119t35 156q0 139 -73 236.5t-198 133.5q98 43 153.5 136.5t55.5 201.5q0 68 -23.5 135.5t-66.5 118.5q-45 55 -106.5 86t-135.5 31h-749v-1454zM393 199v444h479q43 0 80 -18.5t64 -49.5q25 -31 40 -72.5t15 -84.5 q0 -93 -61 -154q-60 -65 -149 -65h-3h-465zM393 827v428h434q82 0 135.5 -60t53.5 -155q0 -94 -58 -151q-61 -61 -143 -62h-422z" />
<glyph unicode="C" horiz-adv-x="1400" d="M72 737q0 -139 51 -273t143 -239q96 -111 224 -174t276 -63q86 0 175 22.5t169 65.5q174 94 242 250l-191 108q-55 -119 -168 -182q-98 -57 -219 -57q-100 0 -186 43t-150 118q-63 74 -98 171.5t-35 201.5q0 96 31 190.5t88 167.5q131 168 344 168q117 0 213 -49 q109 -57 168 -182l180 121q-74 145 -217 231t-336 86q-160 0 -292 -61.5t-226 -167.5q-90 -102 -138 -232.5t-48 -263.5z" />
<glyph unicode="D" horiz-adv-x="1466" d="M164 0h516q160 0 291 52t225 149q94 96 143.5 230t49.5 298q0 152 -45.5 284t-133.5 228q-92 102 -225 157.5t-305 55.5h-516v-1454zM393 203v1048h287q109 0 198 -37.5t152 -107.5q61 -70 93 -166t32 -211q0 -113 -30.5 -209t-90.5 -166q-130 -151 -351 -151h-3h-287z " />
<glyph unicode="E" horiz-adv-x="1234" d="M164 0h997v203h-768v444h649v191h-649v413h750v203h-979v-1454z" />
<glyph unicode="F" horiz-adv-x="1185" d="M164 0h229v627h619v190h-619v434h740v203h-969v-1454z" />
<glyph unicode="G" horiz-adv-x="1472" d="M74 733q0 -145 51 -280.5t145 -239.5q94 -106 219 -164.5t269 -58.5q240 0 424 190v-180h192v735h-497v-170h305v-155q-178 -213 -406 -213q-98 0 -184 41t-150 114q-63 74 -99 170t-36 205q0 104 32 200.5t91 170.5q61 76 145 117.5t185 41.5q127 0 230.5 -60 t162.5 -177l176 127q-76 147 -218 232t-345 85q-145 0 -273 -57t-223 -160q-94 -100 -145 -234t-51 -280z" />
<glyph unicode="H" horiz-adv-x="1521" d="M164 0h229v641h733v-641h232v1454h-232v-608h-733v608h-229v-1454z" />
<glyph unicode="I" horiz-adv-x="557" d="M164 0h229v1454h-229v-1454z" />
<glyph unicode="J" horiz-adv-x="999" d="M20 68q134 -91 316 -91q168 0 271.5 51.5t158.5 151.5q49 90 67.5 219t18.5 316v739h-231v-739q0 -143 -10.5 -238.5t-37.5 -157.5q-31 -70 -88 -102.5t-149 -32.5q-80 0 -149.5 21.5t-110.5 50.5z" />
<glyph unicode="K" horiz-adv-x="1351" d="M164 0h229v438l223 232l492 -670h256l-606 811l573 643h-254l-684 -749v747h-229v-1452z" />
<glyph unicode="L" horiz-adv-x="1196" d="M164 0h1010v203h-781v1251h-229v-1454z" />
<glyph unicode="M" horiz-adv-x="1781" d="M164 0h229v1047l434 -793h127l432 793v-1047h232v1454h-246l-481 -889l-481 889h-246v-1454z" />
<glyph unicode="N" horiz-adv-x="1570" d="M164 0h229v1024l824 -1024h190v1452h-231v-1046l-832 1048h-180v-1454z" />
<glyph unicode="O" d="M72 727q0 -139 50 -272t142 -236q94 -109 223 -169t281 -60q145 0 274 59.5t226 163.5q94 102 146 234.5t52 277.5q0 137 -50 269t-140 237q-96 109 -225 171t-279 62t-277.5 -58t-222.5 -165q-94 -104 -147 -237.5t-53 -276.5zM305 727q0 100 32 194.5t91 168.5 q63 78 149.5 121.5t192.5 43.5q100 0 186 -42t150 -117q59 -74 92 -169.5t33 -199.5q0 -100 -31 -194.5t-90 -167.5q-133 -168 -340 -168q-102 0 -189 43t-149 118q-61 74 -94 170.5t-33 198.5z" />
<glyph unicode="P" horiz-adv-x="1275" d="M164 0h229v506h393q96 0 177 39t141 108q57 68 89 152t32 176q0 88 -34 173t-93 153q-61 70 -145.5 108.5t-178.5 38.5h-610v-1454zM393 709v542h367q45 0 87 -19.5t75 -53.5q69 -79 69 -194q0 -120 -61 -198q-60 -77 -156 -77h-2h-379z" />
<glyph unicode="Q" horiz-adv-x="1536" d="M72 727q0 -139 50 -272t142 -236q96 -106 225 -167.5t279 -61.5q207 0 379 116l94 -106h221l-190 217q94 104 144 234.5t50 273.5q0 137 -50 269t-140 237q-96 109 -225 171t-279 62t-277.5 -58t-222.5 -165q-94 -104 -147 -237.5t-53 -276.5zM305 727q0 100 32 195.5 t91 169.5q63 78 149.5 121.5t192.5 43.5q102 0 187 -43t149 -118q59 -74 92 -169.5t33 -199.5q0 -94 -26.5 -182t-80.5 -160l-104 121h-221l207 -240q-105 -69 -232 -69h-4q-102 0 -189 43t-149 118q-61 74 -94 170.5t-33 198.5z" />
<glyph unicode="R" horiz-adv-x="1353" d="M164 0h229v506h336l315 -506h261l-342 553q61 20 115.5 62t90.5 100q78 121 78 266q0 88 -33.5 173t-93.5 153q-61 70 -145 108.5t-178 38.5h-633v-1454zM393 709v542h389q45 0 87 -21.5t75 -58.5q70 -84 70 -190q0 -113 -62 -190q-61 -82 -157 -82h-402z" />
<glyph unicode="S" horiz-adv-x="1251" d="M53 182q123 -96 277.5 -146t322.5 -50q233 0 377 98q74 51 115 131t41 188q0 182 -129 283q-57 45 -144.5 78t-205.5 61q-115 29 -172.5 47.5t-98.5 40.5q-45 25 -66.5 59t-21.5 87q0 96 69.5 148.5t213.5 52.5q127 0 243 -52q106 -47 150 -96l104 188q-100 74 -226 119 t-265 45q-113 0 -209 -28.5t-166 -83.5q-74 -59 -113.5 -143.5t-39.5 -186.5q0 -84 26.5 -145.5t81.5 -106.5q51 -43 129 -74.5t195 -62.5t182 -51.5t111 -44.5q53 -29 79.5 -67t26.5 -91q0 -92 -72.5 -139t-210.5 -47q-143 0 -305 67q-63 27 -114.5 58.5t-79.5 60.5z" />
<glyph unicode="T" horiz-adv-x="1261" d="M31 1251h485v-1251h232v1251h483v203h-1200v-203z" />
<glyph unicode="U" d="M143 717q0 -311 140 -504q162 -223 487 -223q164 0 285 56t198 159q74 96 110 227t36 285v737h-232v-737q0 -225 -84 -357q-101 -163 -310 -163h-2.5h-3.5q-209 0 -308 161q-86 135 -86 359v737h-230v-737z" />
<glyph unicode="V" horiz-adv-x="1388" d="M12 1454l584 -1454h197l581 1454h-244l-436 -1165l-438 1165h-244z" />
<glyph unicode="W" horiz-adv-x="2236" d="M29 1454l458 -1454h240l387 1077l395 -1077h242l457 1454h-260l-340 -1110l-369 1110h-252l-358 -1110l-340 1110h-260z" />
<glyph unicode="X" horiz-adv-x="1312" d="M0 1454l535 -737l-519 -717h254l387 553l387 -553h252l-516 717l533 737h-252l-404 -573l-403 573h-254z" />
<glyph unicode="Y" horiz-adv-x="1345" d="M18 1454l539 -930v-524h229v520l543 934h-252l-405 -729l-402 729h-252z" />
<glyph unicode="Z" horiz-adv-x="1288" d="M63 0h1154v203h-865l862 1075v176h-1130v-203h862l-883 -1075v-176z" />
<glyph unicode="[" horiz-adv-x="598" d="M170 -82h334v182h-125v1233h125v183h-334v-1598z" />
<glyph unicode="\" horiz-adv-x="1253" d="M55 1454l893 -1454h250l-891 1454h-252z" />
<glyph unicode="]" horiz-adv-x="598" d="M94 -82h334v1598h-334v-183h125v-1233h-125v-182z" />
<glyph unicode="^" horiz-adv-x="1165" d="M84 621h184l316 639l309 -639h188l-403 833h-189z" />
<glyph unicode="_" horiz-adv-x="1003" d="M121 0v-203h762v203h-762z" />
<glyph unicode="`" horiz-adv-x="497" d="M96 1495l189 -270l143 45l-117 225h-215z" />
<glyph unicode="a" horiz-adv-x="1290" d="M68 535q0 -115 37.5 -216.5t105.5 -175.5q70 -78 163 -120.5t201 -42.5q121 0 210 55t147 155v-190h223v1059h-225v-191q-55 100 -154.5 161t-220.5 61q-102 0 -191.5 -43t-156.5 -119q-68 -76 -103.5 -177.5t-35.5 -215.5zM301 530q0 68 23.5 134.5t66.5 117.5 q43 53 102.5 84t129.5 31q100 0 183 -64.5t126 -170.5v-279q-45 -96 -123 -153.5t-178 -57.5q-70 0 -130.5 27.5t-105.5 79.5q-45 47 -69.5 112.5t-24.5 138.5z" />
<glyph unicode="b" horiz-adv-x="1286" d="M135 0h199v195q57 -100 157.5 -157.5t221.5 -57.5q104 0 198.5 43t161.5 118q70 76 108 176.5t38 212.5q0 111 -34 212.5t-95 179.5q-66 80 -154 124t-193 44q-125 0 -221 -57.5t-162 -164.5v627h-225v-1495zM360 383v283q45 102 127 166.5t183 64.5q68 0 126 -29.5 t103 -81.5q41 -51 64.5 -117.5t23.5 -138.5t-24.5 -136t-67.5 -113q-47 -51 -108.5 -80t-133.5 -29q-94 0 -178 59q-92 66 -115 152z" />
<glyph unicode="c" horiz-adv-x="1144" d="M66 537q0 -111 39.5 -211.5t113.5 -178.5q74 -80 177.5 -123.5t224.5 -43.5q168 0 292.5 74.5t180.5 199.5l-222 65q-25 -61 -96 -104q-74 -43 -158 -43q-66 0 -124 27.5t-101 76.5q-96 106 -96 261q0 156 92 260q43 47 101.5 73.5t125.5 26.5q80 0 145.5 -38t104.5 -105 l219 69q-61 125 -182 196t-282 71q-125 0 -227.5 -43t-176.5 -121q-74 -76 -112.5 -176.5t-38.5 -212.5z" />
<glyph unicode="d" horiz-adv-x="1304" d="M68 539q0 -115 37.5 -217.5t105.5 -178.5q70 -78 162 -120.5t198 -42.5q123 0 226.5 57t163.5 158l4 -80q4 -55 47 -90t110 -35q33 0 92 10v193q-35 2 -48 18t-13 55v1229h-225v-627q-57 100 -156.5 161t-224.5 61q-102 0 -188.5 -43t-153.5 -121q-66 -76 -101.5 -176.5 t-35.5 -210.5zM301 532q0 70 23.5 135.5t64.5 116.5q92 113 221 113q100 0 189 -63q92 -66 129 -168v-281q-25 -90 -113 -152q-88 -61 -188 -61q-66 0 -125.5 27.5t-104.5 79.5q-45 49 -70.5 115.5t-25.5 137.5z" />
<glyph unicode="e" horiz-adv-x="1218" d="M66 532q0 -113 39.5 -213t113.5 -176q74 -78 177.5 -120.5t224.5 -42.5q167 0 295 75.5t186 198.5l-193 55q-35 -74 -110 -119q-78 -45 -170 -45q-61 0 -117.5 22.5t-99.5 65.5q-94 88 -107 228h858q6 55 6 82q0 111 -37.5 210t-109.5 173q-76 76 -177.5 120t-221.5 44 q-125 0 -227.5 -43t-176.5 -121t-113.5 -179.5t-39.5 -214.5zM299 616q6 68 32.5 125.5t69.5 98.5t99.5 62.5t120.5 21.5q63 0 120.5 -21.5t100.5 -62.5t70.5 -98.5t33.5 -125.5h-647z" />
<glyph unicode="f" horiz-adv-x="729" d="M53 870h144v-870h225v870h274v174h-274v50q0 113 42 172t122 59q37 0 80 -12.5t73 -30.5l49 168q-121 66 -249 66q-158 0 -250 -115t-92 -314v-43h-144v-174z" />
<glyph unicode="g" horiz-adv-x="1288" d="M70 535q0 -109 35.5 -207.5t101.5 -173.5q66 -78 156 -121t196 -43q113 0 213 54t156 151v-164q0 -158 -103 -240q-94 -76 -241 -76q-113 0 -209 46t-158 130l-127 -118q84 -113 203 -171.5t291 -58.5q121 0 226 33t181 96q162 129 162 359v1040h-199v-203 q-66 102 -164 162t-223 60q-106 0 -198.5 -43t-159.5 -119q-68 -76 -103.5 -177.5t-35.5 -215.5zM299 528q0 70 22.5 136.5t63.5 117.5q90 115 231 115q92 0 185 -66q86 -63 127 -165v-281q-25 -86 -109 -147q-86 -66 -186 -66q-70 0 -131.5 27.5t-106.5 79.5 q-45 49 -70.5 113.5t-25.5 135.5z" />
<glyph unicode="h" horiz-adv-x="1222" d="M135 0h225v637q35 111 125 182q86 70 183 70q203 0 202 -289v-600h226v653q0 196 -70 305q-84 131 -268 132q-125 0 -230.5 -61.5t-167.5 -172.5v639h-225v-1495z" />
<glyph unicode="i" horiz-adv-x="495" d="M135 0h225v1071h-225v-1071zM135 1247h225v248h-225v-248z" />
<glyph unicode="j" horiz-adv-x="507" d="M-236 -299q104 -92 259 -92q145 0 247 102q49 51 76 119t27 147v1094h-226v-1110q0 -66 -45 -111t-106 -45q-82 0 -131 48zM147 1247h226v248h-226v-248z" />
<glyph unicode="k" horiz-adv-x="1122" d="M135 0h225v326l179 168l342 -494h239l-438 621l416 448h-246l-492 -522v948h-225v-1495z" />
<glyph unicode="l" horiz-adv-x="616" d="M137 227q0 -116 64.5 -179.5t181.5 -63.5q55 0 122.5 13t115.5 36l-33 176q-66 -27 -109 -27q-55 0 -86 34t-31 93v1186h-225v-1268z" />
<glyph unicode="m" horiz-adv-x="1898" d="M135 0h225v637q35 113 115 182.5t176 69.5q94 0 142.5 -69.5t48.5 -219.5v-600h225v635q35 113 114 183.5t175 70.5q193 0 192 -289v-600h226v653q0 199 -66 305q-80 131 -256 132q-129 0 -232.5 -62.5t-170.5 -181.5q-18 109 -97.5 176.5t-208.5 67.5 q-133 0 -236.5 -60.5t-166.5 -173.5v215h-205v-1071z" />
<glyph unicode="n" horiz-adv-x="1222" d="M135 0h225v637q37 111 129 182q88 70 191 70q96 0 143 -69.5t47 -219.5v-600h226v653q-1 197 -64 308q-80 129 -256 129q-141 0 -258 -62.5t-178 -171.5v215h-205v-1071z" />
<glyph unicode="o" horiz-adv-x="1232" d="M66 535q0 -111 38.5 -212.5t110.5 -177.5q76 -78 177.5 -121.5t223.5 -43.5q121 0 223.5 44t178.5 121q72 76 110.5 177.5t38.5 212.5t-38.5 212t-110.5 177q-76 78 -178.5 122t-223.5 44t-222 -44.5t-177 -121.5q-74 -74 -112.5 -176.5t-38.5 -212.5zM297 532 q0 74 24.5 140.5t69.5 118.5q43 49 101.5 77.5t123.5 28.5q68 0 126.5 -27.5t101.5 -76.5t67.5 -117t24.5 -141q0 -154 -92 -259q-43 -49 -101.5 -76.5t-126.5 -27.5t-126 27.5t-101 76.5q-92 102 -92 256z" />
<glyph unicode="p" horiz-adv-x="1286" d="M135 -436h225v637q59 -102 158.5 -161.5t224.5 -59.5q103 0 190 43t152 120q63 74 98.5 176.5t35.5 217.5q0 111 -38 211t-106 176q-70 78 -163 122t-199 44q-121 0 -218.5 -56.5t-160.5 -154.5v192h-199v-1507zM360 406v280q23 86 115 150q41 29 88 45t90 16 q72 0 133.5 -27.5t106.5 -78.5t69.5 -117t24.5 -137q0 -70 -22.5 -135.5t-63.5 -116.5q-96 -113 -231 -113q-95 0 -183 68q-86 68 -127 166z" />
<glyph unicode="q" horiz-adv-x="1286" d="M70 537q0 -111 34.5 -213.5t98.5 -178.5q63 -78 150 -121.5t190 -43.5q252 0 383 221v-471q0 -68 50 -116t120 -48q66 0 121 8v193q-37 4 -51.5 20t-14.5 53v1231h-199v-194q-61 96 -160.5 154.5t-218.5 58.5q-106 0 -198 -42t-162 -120q-68 -76 -105.5 -176.5 t-37.5 -214.5zM299 530q0 70 24.5 136.5t67.5 117.5q45 53 104.5 83t129.5 30q90 0 188 -70q92 -72 113 -168v-282q-53 -94 -128 -149.5t-173 -55.5q-140 1 -234 107q-43 49 -67.5 113.5t-24.5 137.5z" />
<glyph unicode="r" horiz-adv-x="765" d="M135 0h225v655q43 102 143.5 159.5t233.5 62.5v202q-6 2 -22 2h-35q-102 -6 -191.5 -72.5t-144.5 -177.5v240h-209v-1071z" />
<glyph unicode="s" horiz-adv-x="1015" d="M47 141q90 -78 218 -119.5t259 -41.5q199 0 314.5 89t115.5 242q0 68 -24.5 116t-75.5 85q-47 33 -124 59.5t-193 55.5q-59 14 -107.5 28.5t-73.5 30.5q-53 33 -53 94q0 76 55.5 113t147.5 37q168 0 317 -119l97 135q-168 143 -412 144q-88 0 -164 -23t-131 -66 q-121 -94 -121 -253q0 -61 20.5 -104.5t65.5 -76.5q41 -31 109.5 -55.5t179.5 -52.5q143 -39 205 -68q66 -31 65 -98q0 -72 -58 -111t-159 -39q-184 0 -383 142z" />
<glyph unicode="t" horiz-adv-x="751" d="M49 897h141v-670q0 -125 78 -186q70 -57 183 -57q127 0 280 71l-47 178q-80 -43 -154 -43q-49 0 -79.5 27t-34.5 82v598h233v174h-233v352h-226v-352h-141v-174z" />
<glyph unicode="u" horiz-adv-x="1247" d="M125 416q0 -217 86 -326.5t254 -109.5q139 0 252.5 61t185.5 176l4 -106q2 -53 45 -87t105 -34q41 0 100 10v193q-35 2 -48 18t-13 55v805h-226v-668q-47 -111 -132 -171t-183 -60q-205 0 -205 289v610h-225v-655z" />
<glyph unicode="v" horiz-adv-x="1112" d="M27 1071l409 -1071h242l409 1071h-213l-309 -881l-307 881h-231z" />
<glyph unicode="w" horiz-adv-x="1751" d="M29 1071l372 -1071h242l234 723l233 -723h242l370 1071h-233l-266 -799l-240 799h-213l-240 -799l-266 799h-235z" />
<glyph unicode="x" horiz-adv-x="1069" d="M16 0h236l264 365l19 32l18 -32l264 -365h236l-396 535l392 536h-236l-260 -366l-18 -35l-19 35l-262 366h-234l392 -536z" />
<glyph unicode="y" horiz-adv-x="1120" d="M18 1071l441 -1071q-61 -168 -92 -215q-18 -29 -39 -40t-47 -11q-37 0 -109 14v-197q50 -16 111 -16q123 0 204.5 59.5t116.5 157.5l486 1319h-213l-295 -872l-332 872h-232z" />
<glyph unicode="z" horiz-adv-x="1009" d="M57 0h887v160h-645l639 770v141h-858v-160h620l-643 -770v-141z" />
<glyph unicode="{" horiz-adv-x="600" d="M90 659q41 -8 67.5 -43.5t26.5 -85.5v-532q0 -33 15.5 -47t31.5 -14h271v182h-113v481q0 35 -17.5 72t-47.5 65q31 29 48 65t17 72v459h113v183h-271q-8 0 -28 -11q-18 -12 -19 -51v-510q0 -39 -26 -80q-29 -45 -68 -45v-160z" />
<glyph unicode="|" horiz-adv-x="524" d="M166 -266h192v1853h-192v-1853z" />
<glyph unicode="}" horiz-adv-x="600" d="M100 -63h269q18 0 32.5 14t14.5 47v532q0 49 26.5 85t67.5 44v160q-41 0 -70 45q-25 37 -24 80v510q0 39 -19 51q-20 10 -28 11h-269v-183h113v-459q0 -37 16.5 -72.5t46.5 -64.5q-31 -29 -47 -64.5t-16 -72.5v-481h-113v-182z" />
<glyph unicode="~" horiz-adv-x="1124" d="M125 475h127l6 21q2 12 21 36q18 25 42.5 40.5t61.5 15.5t71.5 -13.5t90.5 -42.5q53 -27 96 -42t90 -15q78 0 131 35q94 63 129 160q12 41 13 47h-130l-6 -21q-6 -14 -22 -34q-45 -49 -113 -50q-39 0 -72.5 13.5t-93.5 44.5q-51 27 -94 41t-88 14q-123 0 -203 -111 q-27 -39 -42 -79.5t-15 -59.5z" />
<glyph unicode="&#xa1;" horiz-adv-x="577" d="M176 -8h225v950h-225v-950zM176 1180h225v280h-225v-280z" />
<glyph unicode="&#xa2;" horiz-adv-x="1187" d="M84 528q0 -96 36 -191t99 -171q66 -78 155 -127t191 -57v-228h107v226q55 0 119.5 18t126.5 51q139 76 194 205l-219 65q-20 -55 -88 -96q-59 -35 -133 -45v711q68 -4 123 -39t92 -96l217 69q-63 123 -174 191.5t-258 72.5v234h-107v-234q-221 -27 -354 -190 q-61 -76 -94 -170t-33 -199zM315 528q0 130 66 230q70 102 184 123v-693q-53 12 -100 45t-80 78t-51.5 101.5t-18.5 115.5z" />
<glyph unicode="&#xa3;" horiz-adv-x="1081" d="M106 145l54 -161q133 41 246 41q74 0 184 -27q104 -29 180 -29q129 0 231 60l-55 168q-100 -35 -164 -35q-72 0 -137 18q-68 18 -145 19q-68 0 -154 -23q102 109 145.5 196t43.5 183q0 14 -5 47h326v172h-373q-20 47 -39 82q-35 66 -41 78q-43 86 -43 151 q0 84 55.5 139.5t141.5 55.5q80 0 159 -46t128 -124l121 139q-72 100 -179.5 157.5t-224.5 57.5q-84 0 -157.5 -27.5t-129.5 -76.5q-55 -49 -86.5 -115.5t-31.5 -138.5q0 -68 23.5 -130.5t70.5 -152.5q10 -16 26 -49h-163v-172h221q4 -37 4 -57q0 -100 -55.5 -195.5 t-176.5 -204.5z" />
<glyph unicode="&#xa4;" horiz-adv-x="1116" d="M96 326l86 -86l150 139q104 -68 227 -68q125 0 223 68l150 -139l88 86l-148 143q70 96 70 221q0 127 -68 221l146 144l-98 96l-144 -145q-102 66 -219 65q-127 0 -221 -65l-145 145l-97 -96l144 -146q-66 -96 -66 -219q0 -119 68 -219zM350 688q0 103 60.5 168.5 t148.5 65.5t148.5 -65.5t60.5 -164.5q0 -100 -60.5 -166.5t-148.5 -66.5q-43 0 -81 17.5t-66 47.5q-61 68 -62 164z" />
<glyph unicode="&#xa5;" horiz-adv-x="1431" d="M59 1454l392 -657h-162v-150h239l68 -123v-63h-307v-150h307v-311h231v311h312v150h-312v59l72 127h238v150h-158l391 657h-252l-405 -729l-402 729h-252z" />
<glyph unicode="&#xa6;" horiz-adv-x="528" d="M168 -266h192v817h-192v-817zM168 770h192v817h-192v-817z" />
<glyph unicode="&#xa7;" horiz-adv-x="1073" d="M92 1090q0 -76 26.5 -137.5t65.5 -94.5q-45 -61 -45 -160q0 -156 110.5 -248t305.5 -104q80 -4 133 -29q66 -31 66 -110q0 -80 -68 -127q-63 -45 -149 -45q-150 0 -275 127l-145 -139q63 -74 166 -132q125 -72 264 -71q74 0 151.5 23.5t139.5 68.5q70 51 109.5 127 t39.5 176q0 147 -80 211q21 25 35 72t14 102q0 170 -139 260q-111 72 -291 76q-98 2 -152.5 37t-54.5 119q0 39 16.5 72.5t45.5 54.5q61 45 145 45q76 0 136.5 -29t91.5 -84l174 82q-72 102 -148 153q-117 78 -268 78q-82 0 -157.5 -28.5t-135.5 -79.5q-59 -51 -93 -121 t-34 -145zM358 670q0 30 11.5 60t29.5 46q49 -23 136 -22q80 0 137 -35q72 -43 71 -123q0 -33 -12 -64.5t-35 -48.5q-41 16 -96 19q-57 4 -111 18q-61 14 -96 48t-35 102z" />
<glyph unicode="&#xa8;" horiz-adv-x="841" d="M145 1260h189v225h-189v-225zM508 1260h188v225h-188v-225z" />
<glyph unicode="&#xa9;" horiz-adv-x="1716" d="M92 727q0 -158 57.5 -293t159.5 -235q102 -102 242.5 -157.5t302.5 -55.5q164 0 305 55t248 158q104 100 161.5 235t57.5 293q0 156 -57.5 291t-161.5 235q-106 100 -247.5 155.5t-305.5 55.5q-162 0 -302 -55t-243 -156q-102 -100 -159.5 -235t-57.5 -291zM188 725 q0 135 50.5 255t140.5 208t212 137t263 49q143 0 266 -48t215 -138q92 -88 142.5 -208t50.5 -257q0 -139 -51.5 -259t-143.5 -208q-92 -86 -215 -133t-264 -47q-139 0 -262 49t-213 139q-90 88 -140.5 207t-50.5 254zM369 727q0 -102 37.5 -191.5t105.5 -154.5 q68 -66 161 -101.5t197 -35.5q158 0 281 82q111 70 154 174l-220 65q-29 -59 -91 -94t-128 -35q-49 0 -96 19.5t-86 56.5q-41 39 -63.5 93t-22.5 122q0 55 18.5 109.5t51.5 93.5q74 88 194 88q59 0 117 -25q63 -31 98 -100l217 70q-53 119 -166.5 184t-265.5 65 q-119 0 -213 -39.5t-157 -111.5q-59 -68 -91 -155t-32 -179z" />
<glyph unicode="&#xaa;" horiz-adv-x="903" d="M88 930q0 -98 72 -164t174 -66q82 0 152.5 34t119.5 100l2 -43q12 -86 113 -86q41 0 76 8v149q-47 4 -47 53v242q0 145 -84 223t-240 78t-299 -94l53 -109q121 82 230 82q84 0 126 -42t42 -117v-45q-74 33 -185 32q-131 0 -219 -65q-41 -31 -63.5 -75t-22.5 -95zM250 944 q0 53 48 87t126 34q94 0 154 -29v-88q0 -33 -27 -53q-27 -31 -72 -49.5t-96 -18.5q-57 0 -95 34t-38 83z" />
<glyph unicode="&#xab;" horiz-adv-x="1271" d="M78 469l528 -358v184l-348 235l348 244v187l-528 -379v-113zM621 469l530 -358v184l-350 235l350 244v187l-530 -379v-113z" />
<glyph unicode="&#xac;" horiz-adv-x="1230" d="M129 590h770v-359h193v562h-963v-203z" />
<glyph unicode="&#xad;" horiz-adv-x="1212" d="M125 459h962v203h-962v-203z" />
<glyph unicode="&#xae;" horiz-adv-x="1716" d="M92 727q0 -158 56.5 -293t160.5 -235q104 -102 243.5 -157.5t303.5 -55.5t304 55t247 158q104 100 161.5 235t57.5 293q0 156 -57.5 291t-161.5 235q-106 100 -247.5 155.5t-303.5 55.5t-302 -55t-245 -156q-104 -100 -160.5 -235t-56.5 -291zM193 727q0 135 49 254 t139 207q92 88 213 137t262 49q139 0 263 -49t216 -137t141.5 -208t49.5 -255q0 -143 -50.5 -263t-142.5 -208q-92 -86 -215 -133t-262 -47q-143 0 -263 49t-212 139q-90 88 -139 208t-49 257zM532 272h162v318h170l201 -318h182l-219 346q82 27 132 101t50 166 q0 55 -21.5 108.5t-58.5 96.5q-39 43 -91 67.5t-111 24.5h-396v-910zM694 731v305h217q61 0 100.5 -41t39.5 -110q0 -70 -36 -112t-97 -42h-224z" />
<glyph unicode="&#xaf;" horiz-adv-x="841" d="M119 1319h606v143h-606v-143z" />
<glyph unicode="&#xb0;" horiz-adv-x="569" d="M90 1292q0 -86 55.5 -143t139.5 -57q86 0 140 55t54 145q0 82 -54 136.5t-140 54.5q-84 0 -139.5 -54.5t-55.5 -136.5zM203 1288q0 31 24 58q23 22 58 22q37 0 57 -22q25 -27 25 -58q0 -33 -25 -57q-20 -25 -57 -25q-35 0 -58.5 24.5t-23.5 57.5z" />
<glyph unicode="&#xb1;" horiz-adv-x="960" d="M129 82h700v182h-700v-182zM129 672h250v-271h203v271h249v182h-249v268h-203v-268h-250v-182z" />
<glyph unicode="&#xb2;" horiz-adv-x="831" d="M66 809h673v133h-485q0 53 57.5 104.5t169.5 86.5q113 33 181 84q96 72 96 186q0 123 -82 192.5t-240 69.5q-133 0 -243 -51q-43 -20 -74 -44t-45 -44l88 -99q104 104 254 105q90 0 139 -35t49 -92q0 -43 -24 -72q-43 -51 -154 -92l-96 -37q-147 -59 -203 -143 q-61 -88 -61 -252z" />
<glyph unicode="&#xb3;" horiz-adv-x="819" d="M61 965q25 -80 113 -124t217 -44q150 0 248 61q109 63 109 176q0 82 -58.5 142.5t-154.5 74.5q92 16 141 62.5t49 118.5q0 49 -25.5 92t-70.5 75q-94 66 -240 66q-102 0 -192.5 -33t-130.5 -92l90 -106q78 104 233 104q78 0 131 -29q27 -14 43.5 -36.5t16.5 -47.5 q0 -61 -74 -90q-80 -29 -203 -28h-47v-125h47q141 0 223 -31q82 -33 82 -96q0 -55 -62.5 -88t-156.5 -33q-102 0 -174 47q-31 18 -51.5 39.5t-26.5 42.5z" />
<glyph unicode="&#xb4;" horiz-adv-x="497" d="M96 1270l148 -45l184 270h-215z" />
<glyph unicode="&#xb5;" horiz-adv-x="1320" d="M158 -434h213v553q20 -57 73.5 -98t135.5 -41q109 0 215 75q102 72 143 162l4 -98q4 -57 44 -93t106 -36q43 0 104 10v193q-66 4 -66 73v805h-225v-668q-47 -109 -133 -170t-180 -61q-209 0 -209 289v610h-225v-1505z" />
<glyph unicode="&#xb6;" horiz-adv-x="1304" d="M72 944q0 -223 133 -362q63 -66 154.5 -102t201.5 -38v-606h195v606h121v-606h192v1446h143v172h-563q-274 0 -425.5 -134t-151.5 -376zM260 948q0 152 79 241t222 93v-668q-129 10 -211 93q-90 86 -90 241zM756 614v668h121v-668h-121z" />
<glyph unicode="&#xb7;" horiz-adv-x="436" d="M125 498h186v280h-186v-280z" />
<glyph unicode="&#xb8;" horiz-adv-x="634" d="M45 -346q100 -41 211 -41q119 0 181.5 45t62.5 121q0 70 -46 103.5t-122 33.5q-39 0 -70 -8l72 110l-92 31l-123 -233q31 8 78 16t86 8q51 0 78.5 -15t27.5 -54q0 -70 -117 -70q-49 0 -101 12.5t-79 28.5z" />
<glyph unicode="&#xb9;" horiz-adv-x="591" d="M68 1413q43 0 112 39q57 33 82 64v-572h-162v-135h449v135h-150v721h-137q0 -2 -18 -20q-10 -10 -47 -39q-80 -55 -129 -56v-137z" />
<glyph unicode="&#xba;" horiz-adv-x="913" d="M80 1077q0 -76 26.5 -142.5t75.5 -119.5q51 -53 121 -84t154 -31t153.5 31t120.5 84q49 53 76 119.5t27 142.5q0 78 -27 146.5t-76 122.5q-51 53 -120.5 82.5t-153.5 29.5t-154 -29.5t-121 -82.5q-49 -53 -75.5 -122t-26.5 -147zM254 1077q0 100 59 166t144 66 q86 0 145 -66q57 -63 57 -164q0 -102 -57 -166q-59 -66 -145 -65q-84 0 -144 65q-59 66 -59 164z" />
<glyph unicode="&#xbb;" horiz-adv-x="1271" d="M123 111l528 358v113l-528 379v-187l348 -244l-348 -235v-184zM666 111l528 358v113l-528 379v-187l350 -244l-350 -235v-184z" />
<glyph unicode="&#xbc;" horiz-adv-x="1828" d="M88 1245q43 0 113 39q57 33 82 64v-572h-162v-135h448v135h-149v721h-137q0 -2 -19 -20q-10 -10 -47 -39q-78 -57 -129 -58v-135zM330 82l104 -94l553 712l565 674l-106 92l-541 -702zM1040 199h459v-199h135v199h123v133h-123v516h-94l-500 -518v-131zM1178 332l325 342 v-342h-325z" />
<glyph unicode="&#xbd;" horiz-adv-x="1888" d="M86 1245q43 0 113 39q57 33 82 64v-572h-162v-135h448v135h-149v721h-137q0 -2 -19 -20q-10 -10 -47 -39q-78 -57 -129 -58v-135zM252 82l104 -94l553 712l566 674l-107 92l-541 -702zM1130 0h676v133h-460q0 57 44 108.5t146 86.5q117 37 174 80q94 70 94 186 q0 123 -81 192.5t-232 69.5q-133 0 -236 -51q-41 -20 -71.5 -44t-44.5 -44l86 -101q41 45 101 76t144 31q90 0 137.5 -33t47.5 -94q0 -43 -25 -72q-45 -55 -147 -92l-94 -37q-143 -61 -199 -143q-59 -88 -60 -252z" />
<glyph unicode="&#xbe;" horiz-adv-x="1845" d="M80 797q25 -80 113 -125t217 -45q149 0 247 61q109 63 109 178q0 82 -58.5 142.5t-154.5 74.5q92 16 141 62.5t49 118.5q0 49 -25.5 92t-70.5 76q-94 66 -239 65q-102 0 -192.5 -32.5t-131.5 -92.5l90 -108q80 106 234 106q78 0 131 -29q59 -31 59 -86q0 -59 -74 -88 q-80 -29 -202 -28h-48v-125h48q139 0 223 -31q82 -33 82 -96q0 -55 -62.5 -88t-156.5 -33q-98 0 -172 45q-31 18 -52.5 40.5t-27.5 43.5zM393 82l105 -94l553 712l565 674l-107 92l-540 -702zM1055 199h458v-199h136v199h123v133h-123v516h-95l-499 -518v-131zM1192 332 l326 342v-342h-326z" />
<glyph unicode="&#xbf;" horiz-adv-x="974" d="M66 -37q0 -199 131 -303q117 -96 284 -96q143 0 258 69.5t170 194.5l-147 100q-39 -74 -109 -123q-78 -57 -166 -57q-92 0 -155 53q-70 59 -70 154q0 66 31 111q51 82 162 143q70 37 82 45q94 57 132 137t38 193h-189q1 -100 -65 -170q-27 -27 -60 -47.5t-90 -53.5 q-63 -39 -102 -66.5t-66 -64.5q-70 -92 -69 -219zM518 778h189v258h-189v-258z" />
<glyph unicode="&#xc0;" horiz-adv-x="1382" d="M14 0h244l152 395h561l153 -395h242l-573 1454h-201zM451 565l241 625l234 -625h-475zM455 1878l188 -270l143 45l-116 225h-215z" />
<glyph unicode="&#xc1;" horiz-adv-x="1382" d="M14 0h244l152 395h561l153 -395h242l-573 1454h-201zM451 565l241 625l234 -625h-475zM594 1651l147 -45l185 270h-215z" />
<glyph unicode="&#xc2;" horiz-adv-x="1382" d="M14 0h244l152 395h561l153 -395h242l-573 1454h-201zM397 1681l119 -57l174 129l174 -129l121 57l-213 195h-162zM451 565l241 625l234 -625h-475z" />
<glyph unicode="&#xc3;" horiz-adv-x="1382" d="M14 0h244l152 395h561l153 -395h242l-573 1454h-201zM328 1630h127l4 19q4 16 12 34q29 45 84 46q29 0 54.5 -10.5t66.5 -32.5q72 -45 145 -46q119 1 185 105q23 37 36 76t13 55h-129l-2 -18q-2 -10 -15 -35q-31 -47 -94 -47q-33 0 -58.5 11t-66.5 34t-72.5 34t-70.5 11 q-111 0 -172 -101q-23 -35 -35 -73.5t-12 -61.5zM451 565l241 625l234 -625h-475z" />
<glyph unicode="&#xc4;" horiz-adv-x="1382" d="M14 0h244l152 395h561l153 -395h242l-573 1454h-201zM418 1642h188v226h-188v-226zM451 565l241 625l234 -625h-475zM780 1642h189v226h-189v-226z" />
<glyph unicode="&#xc5;" horiz-adv-x="1382" d="M14 0h244l152 395h561l153 -395h242l-573 1454h-201zM451 565l241 625l234 -625h-475zM510 1726q0 -67 50 -108t130 -41q82 0 132 41t50 108q0 72 -49 111t-133 39q-82 0 -131 -39t-49 -111zM608 1726q0 35 22.5 55.5t59.5 20.5t60.5 -20.5t23.5 -55.5q0 -33 -24.5 -54 t-59.5 -21t-58.5 22.5t-23.5 52.5z" />
<glyph unicode="&#xc6;" horiz-adv-x="1972" d="M-51 0h248l241 395h490v-395h973v203h-744v436h615v203h-615v409h725v203h-1016zM539 600l372 590v-590h-372z" />
<glyph unicode="&#xc7;" horiz-adv-x="1396" d="M68 737q0 -133 47 -262t133 -233q88 -109 205.5 -175.5t257.5 -76.5l-93 -174q31 8 78 16t86 8q51 0 79 -15t28 -54q0 -70 -117 -70q-49 0 -101.5 12.5t-78.5 28.5l-47 -88q100 -41 211 -41q119 0 181 45t62 121q0 70 -46 103.5t-122 33.5q-39 0 -69 -8l53 82 q172 12 315 98q158 94 218 238l-191 108q-55 -119 -168 -182q-98 -57 -219 -57q-100 0 -186 43t-150 118q-63 74 -98 171.5t-35 201.5q0 96 30.5 190.5t88.5 167.5q131 168 344 168q117 0 213 -49q109 -57 168 -182l180 121q-74 145 -217 231t-336 86q-160 0 -292 -61.5 t-226 -167.5q-90 -102 -138 -232.5t-48 -263.5z" />
<glyph unicode="&#xc8;" horiz-adv-x="1234" d="M164 0h997v203h-768v444h649v191h-649v413h750v203h-979v-1454zM438 1878l189 -270l143 45l-117 225h-215z" />
<glyph unicode="&#xc9;" horiz-adv-x="1234" d="M164 0h997v203h-768v444h649v191h-649v413h750v203h-979v-1454zM580 1651l147 -45l184 270h-215z" />
<glyph unicode="&#xca;" horiz-adv-x="1234" d="M164 0h997v203h-768v444h649v191h-649v413h750v203h-979v-1454zM383 1681l119 -57l174 129l174 -129l121 57l-213 195h-162z" />
<glyph unicode="&#xcb;" horiz-adv-x="1234" d="M164 0h997v203h-768v444h649v191h-649v413h750v203h-979v-1454zM401 1642h189v226h-189v-226zM764 1642h188v226h-188v-226z" />
<glyph unicode="&#xcc;" horiz-adv-x="557" d="M41 1878l188 -270l144 45l-117 225h-215zM164 0h229v1454h-229v-1454z" />
<glyph unicode="&#xcd;" horiz-adv-x="557" d="M164 0h229v1454h-229v-1454zM182 1651l148 -45l184 270h-215z" />
<glyph unicode="&#xce;" horiz-adv-x="557" d="M-14 1681l118 -57l175 129l174 -129l120 57l-213 195h-161zM164 0h229v1454h-229v-1454z" />
<glyph unicode="&#xcf;" horiz-adv-x="557" d="M4 1642h189v226h-189v-226zM164 0h229v1454h-229v-1454zM367 1642h188v226h-188v-226z" />
<glyph unicode="&#xd0;" horiz-adv-x="1478" d="M68 645h108v-645h516q160 0 291 52t225 149q94 96 143.5 230t49.5 298q0 152 -45 284t-133 228q-92 102 -225.5 157.5t-305.5 55.5h-516v-637h-108v-172zM406 203v442h309v172h-309v434h286q109 0 198 -37.5t152 -107.5q61 -70 93 -166t32 -211q0 -113 -30.5 -209 t-89.5 -166q-131 -152 -355 -151h-286z" />
<glyph unicode="&#xd1;" horiz-adv-x="1570" d="M164 0h229v1024l824 -1024h190v1452h-231v-1046l-832 1048h-180v-1454zM422 1628h127l4 19q4 16 12 34q29 45 84 45q29 0 54.5 -10t66.5 -33q72 -45 145 -45q119 1 185 105q23 37 36 76t13 55h-129l-2 -19q-2 -10 -14 -34q-31 -47 -95 -47q-33 0 -58.5 11t-66.5 34 t-72.5 34t-70.5 11q-111 0 -172 -101q-23 -35 -35 -73.5t-12 -61.5z" />
<glyph unicode="&#xd2;" d="M72 727q0 -139 50 -272t142 -236q94 -109 223 -169t281 -60q145 0 274 59.5t226 163.5q94 102 146 234.5t52 277.5q0 137 -50 269t-140 237q-96 109 -225 171t-279 62t-277.5 -58t-222.5 -165q-94 -104 -147 -237.5t-53 -276.5zM305 727q0 100 32 194.5t91 168.5 q63 78 149.5 121.5t192.5 43.5q100 0 186 -42t150 -117q59 -74 92 -169.5t33 -199.5q0 -100 -31 -194.5t-90 -167.5q-133 -168 -340 -168q-102 0 -189 43t-149 118q-61 74 -94 170.5t-33 198.5zM537 1878l188 -270l143 45l-116 225h-215z" />
<glyph unicode="&#xd3;" d="M72 727q0 -139 50 -272t142 -236q94 -109 223 -169t281 -60q145 0 274 59.5t226 163.5q94 102 146 234.5t52 277.5q0 137 -50 269t-140 237q-96 109 -225 171t-279 62t-277.5 -58t-222.5 -165q-94 -104 -147 -237.5t-53 -276.5zM305 727q0 100 32 194.5t91 168.5 q63 78 149.5 121.5t192.5 43.5q100 0 186 -42t150 -117q59 -74 92 -169.5t33 -199.5q0 -100 -31 -194.5t-90 -167.5q-133 -168 -340 -168q-102 0 -189 43t-149 118q-61 74 -94 170.5t-33 198.5zM678 1651l147 -45l185 270h-215z" />
<glyph unicode="&#xd4;" d="M72 727q0 -139 50 -272t142 -236q94 -109 223 -169t281 -60q145 0 274 59.5t226 163.5q94 102 146 234.5t52 277.5q0 137 -50 269t-140 237q-96 109 -225 171t-279 62t-277.5 -58t-222.5 -165q-94 -104 -147 -237.5t-53 -276.5zM305 727q0 100 32 194.5t91 168.5 q63 78 149.5 121.5t192.5 43.5q100 0 186 -42t150 -117q59 -74 92 -169.5t33 -199.5q0 -100 -31 -194.5t-90 -167.5q-133 -168 -340 -168q-102 0 -189 43t-149 118q-61 74 -94 170.5t-33 198.5zM477 1681l119 -57l174 129l174 -129l121 57l-213 195h-162z" />
<glyph unicode="&#xd5;" d="M72 727q0 -139 50 -272t142 -236q94 -109 223 -169t281 -60q145 0 274 59.5t226 163.5q94 102 146 234.5t52 277.5q0 137 -50 269t-140 237q-96 109 -225 171t-279 62t-277.5 -58t-222.5 -165q-94 -104 -147 -237.5t-53 -276.5zM305 727q0 100 32 194.5t91 168.5 q63 78 149.5 121.5t192.5 43.5q100 0 186 -42t150 -117q59 -74 92 -169.5t33 -199.5q0 -100 -31 -194.5t-90 -167.5q-133 -168 -340 -168q-102 0 -189 43t-149 118q-61 74 -94 170.5t-33 198.5zM410 1630h127l4 19q4 16 12 34q29 45 84 46q29 0 54.5 -10.5t66.5 -32.5 q72 -45 145 -46q118 1 184 105q23 37 36.5 76t13.5 55h-129l-2 -18q-2 -10 -15 -35q-31 -47 -94 -47q-33 0 -58.5 11t-66.5 34t-72.5 34t-70.5 11q-111 0 -172 -101q-23 -35 -35 -73.5t-12 -61.5z" />
<glyph unicode="&#xd6;" d="M72 727q0 -139 50 -272t142 -236q94 -109 223 -169t281 -60q145 0 274 59.5t226 163.5q94 102 146 234.5t52 277.5q0 137 -50 269t-140 237q-96 109 -225 171t-279 62t-277.5 -58t-222.5 -165q-94 -104 -147 -237.5t-53 -276.5zM305 727q0 100 32 194.5t91 168.5 q63 78 149.5 121.5t192.5 43.5q100 0 186 -42t150 -117q59 -74 92 -169.5t33 -199.5q0 -100 -31 -194.5t-90 -167.5q-133 -168 -340 -168q-102 0 -189 43t-149 118q-61 74 -94 170.5t-33 198.5zM498 1642h188v226h-188v-226zM860 1642h189v226h-189v-226z" />
<glyph unicode="&#xd7;" horiz-adv-x="962" d="M117 338l139 -141l225 223l226 -223l141 139l-225 225l217 219l-140 142l-219 -220l-217 218l-141 -140l215 -219z" />
<glyph unicode="&#xd8;" horiz-adv-x="1538" d="M72 727q0 -147 54 -285.5t155 -242.5l-136 -199h250l49 72q154 -82 324 -82q145 0 274 59.5t226 163.5q94 102 146 234.5t52 277.5q0 143 -55 282.5t-156 245.5l138 201h-250l-51 -74q-139 84 -320 84q-150 0 -277.5 -58t-222.5 -165q-94 -104 -147 -237.5t-53 -276.5z M305 727q0 100 32 194.5t91 168.5q63 78 149.5 121.5t192.5 43.5q111 0 201 -51l-561 -819q-51 72 -78 160t-27 182zM565 246l561 821q104 -150 105 -340q0 -100 -31 -194.5t-90 -167.5q-133 -168 -340 -168q-111 0 -205 49z" />
<glyph unicode="&#xd9;" d="M143 717q0 -311 140 -504q162 -223 487 -223q164 0 285 56t198 159q74 96 110 227t36 285v737h-232v-737q0 -225 -84 -357q-102 -164 -313 -163q-211 -1 -311 161q-86 135 -86 359v737h-230v-737zM535 1878l188 -270l143 45l-116 225h-215z" />
<glyph unicode="&#xda;" d="M143 717q0 -311 140 -504q162 -223 487 -223q164 0 285 56t198 159q74 96 110 227t36 285v737h-232v-737q0 -225 -84 -357q-102 -164 -313 -163q-211 -1 -311 161q-86 135 -86 359v737h-230v-737zM674 1651l147 -45l185 270h-215z" />
<glyph unicode="&#xdb;" d="M143 717q0 -311 140 -504q162 -223 487 -223q164 0 285 56t198 159q74 96 110 227t36 285v737h-232v-737q0 -225 -84 -357q-102 -164 -313 -163q-211 -1 -311 161q-86 135 -86 359v737h-230v-737zM477 1681l119 -57l174 129l174 -129l121 57l-213 195h-162z" />
<glyph unicode="&#xdc;" d="M143 717q0 -311 140 -504q162 -223 487 -223q164 0 285 56t198 159q74 96 110 227t36 285v737h-232v-737q0 -225 -84 -357q-102 -164 -313 -163q-211 -1 -311 161q-86 135 -86 359v737h-230v-737zM496 1642h188v226h-188v-226zM858 1642h189v226h-189v-226z" />
<glyph unicode="&#xdd;" horiz-adv-x="1345" d="M18 1454l539 -930v-524h229v520l543 934h-252l-405 -729l-402 729h-252zM575 1651l148 -45l184 270h-215z" />
<glyph unicode="&#xde;" horiz-adv-x="1236" d="M164 0h229v233h357q96 0 178 39t141 107q57 68 89 152.5t32 177.5q0 88 -34 173t-93 152q-61 70 -145 109t-179 39h-346v272h-229v-1454zM393 438v541h334q96 0 164 -78q68 -82 67 -192q0 -113 -59 -189q-68 -82 -160 -82h-346z" />
<glyph unicode="&#xdf;" horiz-adv-x="1136" d="M135 0h215v1026q0 104 49 168q55 76 162 76q82 0 131 -39q61 -47 62 -137q0 -82 -52.5 -132.5t-138.5 -50.5h-39v-204h41q117 0 195 -68t78 -188q0 -125 -95 -193q-88 -59 -243 -63v-207q249 3 405 112q168 115 168 328q0 147 -79 253.5t-218 141.5q82 27 135 111 q55 94 56 194q0 150 -111 244q-53 43 -126 66.5t-157 23.5q-92 0 -173 -28.5t-140 -81.5t-92 -128t-33 -159v-1065z" />
<glyph unicode="&#xe0;" horiz-adv-x="1155" d="M57 315q0 -72 28 -133t77 -106t115.5 -70.5t142.5 -25.5q121 0 226.5 50t176.5 144l6 -68q8 -53 45 -84.5t101 -31.5q49 0 102 10v193q-59 4 -59 73v387q0 209 -123 323t-344 114q-223 0 -430 -140l69 -143q180 123 340 123q127 0 195 -66.5t68 -185.5v-74 q-127 49 -283 49q-199 0 -326 -94q-127 -92 -127 -244zM270 334q0 86 76 138t199 52q131 0 248 -47v-141q0 -41 -43 -78q-41 -53 -114 -83t-155 -30q-92 0 -151.5 54.5t-59.5 134.5zM313 1495l189 -270l143 45l-117 225h-215z" />
<glyph unicode="&#xe1;" horiz-adv-x="1155" d="M57 315q0 -72 28 -133t77 -106t115.5 -70.5t142.5 -25.5q121 0 226.5 50t176.5 144l6 -68q8 -53 45 -84.5t101 -31.5q49 0 102 10v193q-59 4 -59 73v387q0 209 -123 323t-344 114q-223 0 -430 -140l69 -143q180 123 340 123q127 0 195 -66.5t68 -185.5v-74 q-127 49 -283 49q-199 0 -326 -94q-127 -92 -127 -244zM270 334q0 86 76 138t199 52q131 0 248 -47v-141q0 -41 -43 -78q-41 -53 -114 -83t-155 -30q-92 0 -151.5 54.5t-59.5 134.5zM455 1270l147 -45l184 270h-215z" />
<glyph unicode="&#xe2;" horiz-adv-x="1155" d="M57 315q0 -72 28 -133t77 -106t115.5 -70.5t142.5 -25.5q121 0 226.5 50t176.5 144l6 -68q8 -53 45 -84.5t101 -31.5q49 0 102 10v193q-59 4 -59 73v387q0 209 -123 323t-344 114q-223 0 -430 -140l69 -143q180 123 340 123q127 0 195 -66.5t68 -185.5v-74 q-127 49 -283 49q-199 0 -326 -94q-127 -92 -127 -244zM258 1300l119 -57l174 129l174 -129l121 57l-213 195h-162zM270 334q0 86 76 138t199 52q131 0 248 -47v-141q0 -41 -43 -78q-41 -53 -114 -83t-155 -30q-92 0 -151.5 54.5t-59.5 134.5z" />
<glyph unicode="&#xe3;" horiz-adv-x="1155" d="M57 315q0 -72 28 -133t77 -106t115.5 -70.5t142.5 -25.5q121 0 226.5 50t176.5 144l6 -68q8 -53 45 -84.5t101 -31.5q49 0 102 10v193q-59 4 -59 73v387q0 209 -123 323t-344 114q-223 0 -430 -140l69 -143q180 123 340 123q127 0 195 -66.5t68 -185.5v-74 q-127 49 -283 49q-199 0 -326 -94q-127 -92 -127 -244zM186 1249h127l4 19q4 16 13 35q29 45 84 45q29 0 54.5 -10.5t66.5 -32.5q72 -45 145 -45q118 0 184 104q23 37 36 76t13 55h-129l-2 -18q-2 -10 -14 -35q-31 -47 -94 -47q-33 0 -58.5 11t-66.5 34t-73 34t-70 11 q-111 0 -173 -101q-23 -35 -35 -73.5t-12 -61.5zM270 334q0 86 76 138t199 52q131 0 248 -47v-141q0 -41 -43 -78q-41 -53 -114 -83t-155 -30q-92 0 -151.5 54.5t-59.5 134.5z" />
<glyph unicode="&#xe4;" horiz-adv-x="1155" d="M57 315q0 -72 28 -133t77 -106t115.5 -70.5t142.5 -25.5q121 0 226.5 50t176.5 144l6 -68q8 -53 45 -84.5t101 -31.5q49 0 102 10v193q-59 4 -59 73v387q0 209 -123 323t-344 114q-223 0 -430 -140l69 -143q180 123 340 123q127 0 195 -66.5t68 -185.5v-74 q-127 49 -283 49q-199 0 -326 -94q-127 -92 -127 -244zM270 334q0 86 76 138t199 52q131 0 248 -47v-141q0 -41 -43 -78q-41 -53 -114 -83t-155 -30q-92 0 -151.5 54.5t-59.5 134.5zM276 1260h189v225h-189v-225zM639 1260h188v225h-188v-225z" />
<glyph unicode="&#xe5;" horiz-adv-x="1155" d="M57 315q0 -72 28 -133t77 -106t115.5 -70.5t142.5 -25.5q121 0 226.5 50t176.5 144l6 -68q8 -53 45 -84.5t101 -31.5q49 0 102 10v193q-59 4 -59 73v387q0 209 -123 323t-344 114q-223 0 -430 -140l69 -143q180 123 340 123q127 0 195 -66.5t68 -185.5v-74 q-127 49 -283 49q-199 0 -326 -94q-127 -92 -127 -244zM270 334q0 86 76 138t199 52q131 0 248 -47v-141q0 -41 -43 -78q-41 -53 -114 -83t-155 -30q-92 0 -151.5 54.5t-59.5 134.5zM369 1346q0 -68 50 -109t130 -41q82 0 132 41t50 109q0 72 -49 110.5t-133 38.5 q-82 0 -131 -39t-49 -110zM467 1346q0 35 22.5 55t59.5 20t60.5 -20.5t23.5 -54.5q0 -33 -24.5 -54.5t-59.5 -21.5t-58.5 22.5t-23.5 53.5z" />
<glyph unicode="&#xe6;" horiz-adv-x="1914" d="M57 315q0 -72 28 -133t77 -106q102 -96 256 -96q127 0 246 53q137 63 200 174q74 -106 190.5 -166.5t262.5 -60.5q166 0 299 77q131 78 182 197l-192 55q-35 -74 -111 -119q-78 -45 -170 -45q-135 0 -229 88q-98 88 -111 228h875q6 18 6 74q0 113 -40 214t-112 177 q-74 78 -177 121t-224 43q-119 0 -220.5 -46.5t-170.5 -128.5q-53 84 -148.5 129.5t-224.5 45.5q-217 0 -430 -140l71 -143q180 123 338 123q115 0 179.5 -52.5t76.5 -150.5q-12 -27 -14 -55q-2 -18 -4 -32.5t-4 -27.5q-111 41 -254 41q-199 0 -326 -94q-125 -92 -125 -244z M268 334q0 86 77 138t200 52q106 0 217 -37q2 -39 10 -87t21 -70q-2 -37 -43 -72q-41 -53 -113 -83t-158 -30q-88 1 -149 56q-61 51 -62 133zM981 604q10 140 100 230q43 43 101.5 66.5t126.5 23.5t126 -22.5t101 -65.5t70.5 -103.5t33.5 -128.5h-659z" />
<glyph unicode="&#xe7;" horiz-adv-x="1144" d="M66 537q0 -106 35.5 -203.5t103.5 -171.5q68 -78 162 -125t206 -55l-86 -166q31 8 78 16t86 8q51 0 79 -15t28 -54q0 -70 -117 -70q-49 0 -101.5 12.5t-78.5 28.5l-47 -88q100 -41 211 -41q119 0 181 45t62 121q0 70 -46 103.5t-122 33.5q-39 0 -69 -8l47 74 q147 14 256.5 86.5t159.5 185.5l-222 65q-25 -61 -96 -104q-74 -43 -158 -43q-66 0 -124 27.5t-101 76.5q-96 106 -96 261q0 156 92 260q43 47 101.5 73.5t125.5 26.5q80 0 145.5 -38t104.5 -105l219 69q-61 125 -182 196t-282 71q-125 0 -227.5 -43t-176.5 -121 q-74 -76 -112.5 -176.5t-38.5 -212.5z" />
<glyph unicode="&#xe8;" horiz-adv-x="1218" d="M66 532q0 -113 39.5 -213t113.5 -176q74 -78 177.5 -120.5t224.5 -42.5q167 0 295 75.5t186 198.5l-193 55q-35 -74 -110 -119q-78 -45 -170 -45q-61 0 -117.5 22.5t-99.5 65.5q-94 88 -107 228h858q6 55 6 82q0 111 -37.5 210t-109.5 173q-76 76 -177.5 120t-221.5 44 q-125 0 -227.5 -43t-176.5 -121t-113.5 -179.5t-39.5 -214.5zM299 616q6 68 32.5 125.5t69.5 98.5t99.5 62.5t120.5 21.5q63 0 120.5 -21.5t100.5 -62.5t70.5 -98.5t33.5 -125.5h-647zM379 1495l188 -270l144 45l-117 225h-215z" />
<glyph unicode="&#xe9;" horiz-adv-x="1218" d="M66 532q0 -113 39.5 -213t113.5 -176q74 -78 177.5 -120.5t224.5 -42.5q167 0 295 75.5t186 198.5l-193 55q-35 -74 -110 -119q-78 -45 -170 -45q-61 0 -117.5 22.5t-99.5 65.5q-94 88 -107 228h858q6 55 6 82q0 111 -37.5 210t-109.5 173q-76 76 -177.5 120t-221.5 44 q-125 0 -227.5 -43t-176.5 -121t-113.5 -179.5t-39.5 -214.5zM299 616q6 68 32.5 125.5t69.5 98.5t99.5 62.5t120.5 21.5q63 0 120.5 -21.5t100.5 -62.5t70.5 -98.5t33.5 -125.5h-647zM518 1270l148 -45l184 270h-215z" />
<glyph unicode="&#xea;" horiz-adv-x="1218" d="M66 532q0 -113 39.5 -213t113.5 -176q74 -78 177.5 -120.5t224.5 -42.5q167 0 295 75.5t186 198.5l-193 55q-35 -74 -110 -119q-78 -45 -170 -45q-61 0 -117.5 22.5t-99.5 65.5q-94 88 -107 228h858q6 55 6 82q0 111 -37.5 210t-109.5 173q-76 76 -177.5 120t-221.5 44 q-125 0 -227.5 -43t-176.5 -121t-113.5 -179.5t-39.5 -214.5zM299 616q6 68 32.5 125.5t69.5 98.5t99.5 62.5t120.5 21.5q63 0 120.5 -21.5t100.5 -62.5t70.5 -98.5t33.5 -125.5h-647zM322 1300l118 -57l174 129l174 -129l121 57l-213 195h-161z" />
<glyph unicode="&#xeb;" horiz-adv-x="1218" d="M66 532q0 -113 39.5 -213t113.5 -176q74 -78 177.5 -120.5t224.5 -42.5q167 0 295 75.5t186 198.5l-193 55q-35 -74 -110 -119q-78 -45 -170 -45q-61 0 -117.5 22.5t-99.5 65.5q-94 88 -107 228h858q6 55 6 82q0 111 -37.5 210t-109.5 173q-76 76 -177.5 120t-221.5 44 q-125 0 -227.5 -43t-176.5 -121t-113.5 -179.5t-39.5 -214.5zM299 616q6 68 32.5 125.5t69.5 98.5t99.5 62.5t120.5 21.5q63 0 120.5 -21.5t100.5 -62.5t70.5 -98.5t33.5 -125.5h-647zM340 1260h188v225h-188v-225zM702 1260h189v225h-189v-225z" />
<glyph unicode="&#xec;" horiz-adv-x="495" d="M10 1495l189 -270l143 45l-117 225h-215zM135 0h225v1071h-225v-1071z" />
<glyph unicode="&#xed;" horiz-adv-x="495" d="M135 0h225v1071h-225v-1071zM152 1270l147 -45l184 270h-215z" />
<glyph unicode="&#xee;" horiz-adv-x="495" d="M-45 1300l119 -57l174 129l174 -129l121 57l-213 195h-162zM135 0h225v1071h-225v-1071z" />
<glyph unicode="&#xef;" horiz-adv-x="495" d="M-27 1260h189v225h-189v-225zM135 0h225v1071h-225v-1071zM336 1260h188v225h-188v-225z" />
<glyph unicode="&#xf0;" horiz-adv-x="1247" d="M72 477q0 -102 41 -193t116 -161q74 -68 174.5 -105.5t210.5 -37.5q117 0 219.5 41.5t178.5 121.5q76 82 119 197t43 254q0 170 -64 346q-68 188 -207 342l152 86l-66 92l-168 -98q-76 70 -188 133h-301q190 -106 315 -215l-188 -109l65 -92l207 119q88 -94 137.5 -197.5 t73.5 -222.5q-55 86 -155.5 138.5t-217.5 52.5q-102 0 -192 -38t-160 -106q-68 -68 -106.5 -159t-38.5 -189zM303 477q0 62 24.5 120t67.5 99q43 43 103.5 66.5t126.5 23.5q135 0 225 -84q43 -41 67.5 -97t24.5 -118q0 -131 -92 -223q-43 -43 -103.5 -67.5t-128.5 -24.5 q-131 0 -223 88t-92 217z" />
<glyph unicode="&#xf1;" horiz-adv-x="1222" d="M135 0h225v637q37 111 129 182q88 70 191 70q96 0 143 -69.5t47 -219.5v-600h226v653q-1 197 -64 308q-80 129 -256 129q-141 0 -258 -62.5t-178 -171.5v215h-205v-1071zM268 1249h127l4 19q4 16 13 35q29 45 84 45q29 0 54 -10.5t66 -32.5q72 -45 146 -45q118 0 184 104 q23 37 36 76t13 55h-129l-2 -18q-2 -10 -14 -35q-31 -47 -94 -47q-33 0 -58.5 11t-66.5 34t-73 34t-71 11q-111 0 -172 -101q-23 -35 -35 -73.5t-12 -61.5z" />
<glyph unicode="&#xf2;" horiz-adv-x="1232" d="M66 535q0 -111 38.5 -212.5t110.5 -177.5q76 -78 177.5 -121.5t223.5 -43.5q121 0 223.5 44t178.5 121q72 76 110.5 177.5t38.5 212.5t-38.5 212t-110.5 177q-76 78 -178.5 122t-223.5 44t-222 -44.5t-177 -121.5q-74 -74 -112.5 -176.5t-38.5 -212.5zM297 532 q0 74 24.5 140.5t69.5 118.5q43 49 101.5 77.5t123.5 28.5q68 0 126.5 -27.5t101.5 -76.5t67.5 -117t24.5 -141q0 -154 -92 -259q-43 -49 -101.5 -76.5t-126.5 -27.5t-126 27.5t-101 76.5q-92 102 -92 256zM381 1495l188 -270l144 45l-117 225h-215z" />
<glyph unicode="&#xf3;" horiz-adv-x="1232" d="M66 535q0 -111 38.5 -212.5t110.5 -177.5q76 -78 177.5 -121.5t223.5 -43.5q121 0 223.5 44t178.5 121q72 76 110.5 177.5t38.5 212.5t-38.5 212t-110.5 177q-76 78 -178.5 122t-223.5 44t-222 -44.5t-177 -121.5q-74 -74 -112.5 -176.5t-38.5 -212.5zM297 532 q0 74 24.5 140.5t69.5 118.5q43 49 101.5 77.5t123.5 28.5q68 0 126.5 -27.5t101.5 -76.5t67.5 -117t24.5 -141q0 -154 -92 -259q-43 -49 -101.5 -76.5t-126.5 -27.5t-126 27.5t-101 76.5q-92 102 -92 256zM518 1270l148 -45l184 270h-215z" />
<glyph unicode="&#xf4;" horiz-adv-x="1232" d="M66 535q0 -111 38.5 -212.5t110.5 -177.5q76 -78 177.5 -121.5t223.5 -43.5q121 0 223.5 44t178.5 121q72 76 110.5 177.5t38.5 212.5t-38.5 212t-110.5 177q-76 78 -178.5 122t-223.5 44t-222 -44.5t-177 -121.5q-74 -74 -112.5 -176.5t-38.5 -212.5zM297 532 q0 74 24.5 140.5t69.5 118.5q43 49 101.5 77.5t123.5 28.5q68 0 126.5 -27.5t101.5 -76.5t67.5 -117t24.5 -141q0 -154 -92 -259q-43 -49 -101.5 -76.5t-126.5 -27.5t-126 27.5t-101 76.5q-92 102 -92 256zM322 1300l118 -57l174 129l174 -129l121 57l-213 195h-161z" />
<glyph unicode="&#xf5;" horiz-adv-x="1232" d="M66 535q0 -111 38.5 -212.5t110.5 -177.5q76 -78 177.5 -121.5t223.5 -43.5q121 0 223.5 44t178.5 121q72 76 110.5 177.5t38.5 212.5t-38.5 212t-110.5 177q-76 78 -178.5 122t-223.5 44t-222 -44.5t-177 -121.5q-74 -74 -112.5 -176.5t-38.5 -212.5zM252 1249h127l4 19 q4 16 12 35q29 45 84 45q29 0 54.5 -10.5t66.5 -32.5q72 -45 145 -45q119 0 185 104q23 37 36 76t13 55h-129l-2 -18q-2 -10 -14 -35q-31 -47 -95 -47q-33 0 -58.5 11t-66.5 34t-72.5 34t-70.5 11q-111 0 -172 -101q-23 -35 -35 -73.5t-12 -61.5zM297 532q0 74 24.5 140.5 t69.5 118.5q43 49 101.5 77.5t123.5 28.5q68 0 126.5 -27.5t101.5 -76.5t67.5 -117t24.5 -141q0 -154 -92 -259q-43 -49 -101.5 -76.5t-126.5 -27.5t-126 27.5t-101 76.5q-92 102 -92 256z" />
<glyph unicode="&#xf6;" horiz-adv-x="1232" d="M66 535q0 -111 38.5 -212.5t110.5 -177.5q76 -78 177.5 -121.5t223.5 -43.5q121 0 223.5 44t178.5 121q72 76 110.5 177.5t38.5 212.5t-38.5 212t-110.5 177q-76 78 -178.5 122t-223.5 44t-222 -44.5t-177 -121.5q-74 -74 -112.5 -176.5t-38.5 -212.5zM297 532 q0 74 24.5 140.5t69.5 118.5q43 49 101.5 77.5t123.5 28.5q68 0 126.5 -27.5t101.5 -76.5t67.5 -117t24.5 -141q0 -154 -92 -259q-43 -49 -101.5 -76.5t-126.5 -27.5t-126 27.5t-101 76.5q-92 102 -92 256zM340 1260h188v225h-188v-225zM702 1260h189v225h-189v-225z" />
<glyph unicode="&#xf7;" horiz-adv-x="1071" d="M123 508h825v180h-825v-180zM440 119h191v233h-191v-233zM440 842h191v235h-191v-235z" />
<glyph unicode="&#xf8;" horiz-adv-x="1232" d="M66 535q0 -123 44 -229.5t130 -184.5l-105 -127h131l53 65q127 -80 297 -79q121 0 223.5 44t178.5 121q72 76 110.5 177.5t38.5 212.5q0 123 -47 230t-133 185l105 127h-136l-51 -65q-129 78 -289 78q-121 0 -222 -44.5t-177 -121.5q-74 -74 -112.5 -176.5t-38.5 -212.5z M297 532q0 74 24.5 140.5t69.5 118.5q43 49 101.5 77.5t123.5 28.5q88 0 164 -51l-401 -559q-82 102 -82 245zM446 225l406 557q84 -106 84 -247q0 -154 -92 -259q-43 -49 -101.5 -76.5t-126.5 -27.5q-92 0 -170 53z" />
<glyph unicode="&#xf9;" horiz-adv-x="1247" d="M125 416q0 -217 86 -326.5t254 -109.5q139 0 252.5 61t185.5 176l4 -106q2 -53 45 -87t105 -34q41 0 100 10v193q-35 2 -48 18t-13 55v805h-226v-668q-47 -111 -132 -171t-183 -60q-205 0 -205 289v610h-225v-655zM373 1495l188 -270l144 45l-117 225h-215z" />
<glyph unicode="&#xfa;" horiz-adv-x="1247" d="M125 416q0 -217 86 -326.5t254 -109.5q139 0 252.5 61t185.5 176l4 -106q2 -53 45 -87t105 -34q41 0 100 10v193q-35 2 -48 18t-13 55v805h-226v-668q-47 -111 -132 -171t-183 -60q-205 0 -205 289v610h-225v-655zM512 1270l147 -45l185 270h-215z" />
<glyph unicode="&#xfb;" horiz-adv-x="1247" d="M125 416q0 -217 86 -326.5t254 -109.5q139 0 252.5 61t185.5 176l4 -106q2 -53 45 -87t105 -34q41 0 100 10v193q-35 2 -48 18t-13 55v805h-226v-668q-47 -111 -132 -171t-183 -60q-205 0 -205 289v610h-225v-655zM315 1300l119 -57l174 129l174 -129l121 57l-213 195 h-162z" />
<glyph unicode="&#xfc;" horiz-adv-x="1247" d="M125 416q0 -217 86 -326.5t254 -109.5q139 0 252.5 61t185.5 176l4 -106q2 -53 45 -87t105 -34q41 0 100 10v193q-35 2 -48 18t-13 55v805h-226v-668q-47 -111 -132 -171t-183 -60q-205 0 -205 289v610h-225v-655zM334 1260h188v225h-188v-225zM696 1260h189v225h-189 v-225z" />
<glyph unicode="&#xfd;" horiz-adv-x="1120" d="M18 1071l441 -1071q-61 -168 -92 -215q-18 -29 -39 -40t-47 -11q-37 0 -109 14v-197q50 -16 111 -16q123 0 204.5 59.5t116.5 157.5l486 1319h-213l-295 -872l-332 872h-232zM483 1270l148 -45l184 270h-215z" />
<glyph unicode="&#xfe;" horiz-adv-x="1232" d="M135 -436h232v526q33 -53 104.5 -93t163.5 -40q109 0 205 45t172 127q74 80 114.5 183.5t42.5 213.5q0 105 -35.5 207.5t-103.5 181.5q-72 84 -168 133.5t-209 49.5q-186 0 -286 -146v502h-232v-1890zM367 356v340q100 199 272 199q66 0 122 -29.5t95 -81.5 q82 -109 82 -256q0 -152 -86 -256q-94 -111 -223 -110q-43 0 -90 17.5t-84 45.5q-41 29 -64.5 63t-23.5 68z" />
<glyph unicode="&#xff;" horiz-adv-x="1120" d="M18 1071l441 -1071q-61 -168 -92 -215q-18 -29 -39 -40t-47 -11q-37 0 -109 14v-197q50 -16 111 -16q123 0 204.5 59.5t116.5 157.5l486 1319h-213l-295 -872l-332 872h-232zM305 1260h189v225h-189v-225zM668 1260h188v225h-188v-225z" />
<glyph unicode="&#x152;" horiz-adv-x="2271" d="M72 727q0 -139 50 -272t140 -236q94 -109 221 -169t277 -60q145 0 272 82q115 72 191 198v-270h977v203h-746v436h617v203h-617v409h727v203h-958v-270q-76 127 -187 200q-127 80 -272 80t-273.5 -59t-222.5 -164q-94 -104 -145 -237.5t-51 -276.5zM305 727 q0 98 32 193.5t89 171.5q61 78 146 121.5t188 43.5q100 0 184 -43t146 -118q59 -74 91.5 -169.5t32.5 -197.5q0 -100 -30.5 -196.5t-87.5 -167.5q-61 -78 -146.5 -123t-187.5 -45q-103 0 -188 43t-146 118q-59 74 -91 169.5t-32 199.5z" />
<glyph unicode="&#x153;" horiz-adv-x="2088" d="M66 532q0 -117 40.5 -219t114.5 -176q76 -76 176.5 -116.5t216.5 -40.5q265 0 437 274q88 -133 201.5 -203.5t250.5 -70.5q160 0 290 74.5t189 199.5l-186 55q-27 -70 -108 -121q-78 -47 -177 -47q-133 0 -229 92q-94 90 -106 228h858q4 20 4 37v37q-6 123 -48 226 t-114 177q-74 74 -172 113t-213 39q-147 0 -259 -72t-181 -211q-66 135 -178.5 209t-258.5 74q-115 0 -215 -41t-176 -117t-116.5 -179.5t-40.5 -220.5zM297 530q0 156 92 261q43 49 103.5 77.5t125.5 28.5q68 0 126.5 -27.5t101.5 -76.5t66.5 -117t23.5 -141 q0 -78 -24.5 -143.5t-67.5 -115.5q-43 -49 -101.5 -76.5t-126.5 -27.5q-65 0 -124.5 26.5t-102.5 75.5q-92 102 -92 256zM1169 604q11 142 99 230q86 90 217 90q61 0 119.5 -23.5t103.5 -64.5q43 -43 70.5 -103.5t33.5 -128.5h-643z" />
<glyph unicode="&#x178;" horiz-adv-x="1345" d="M18 1454l539 -930v-524h229v520l543 934h-252l-405 -729l-402 729h-252zM397 1642h189v226h-189v-226zM760 1642h188v226h-188v-226z" />
<glyph unicode="&#x2c6;" horiz-adv-x="727" d="M70 1300l118 -57l174 129l175 -129l120 57l-213 195h-161z" />
<glyph unicode="&#x2dc;" horiz-adv-x="872" d="M74 1249h127l4 19q4 16 12 35q29 45 84 45q29 0 54.5 -10.5t66.5 -32.5q72 -45 145 -45q119 0 185 104q23 37 36 76t13 55h-129l-2 -18q-2 -10 -15 -35q-31 -47 -94 -47q-33 0 -58.5 11t-66.5 34t-72.5 34t-70.5 11q-111 0 -172 -101q-23 -35 -35 -73.5t-12 -61.5z" />
<glyph unicode="&#x2000;" horiz-adv-x="939" />
<glyph unicode="&#x2001;" horiz-adv-x="1878" />
<glyph unicode="&#x2002;" horiz-adv-x="939" />
<glyph unicode="&#x2003;" horiz-adv-x="1878" />
<glyph unicode="&#x2004;" horiz-adv-x="626" />
<glyph unicode="&#x2005;" horiz-adv-x="469" />
<glyph unicode="&#x2006;" horiz-adv-x="313" />
<glyph unicode="&#x2007;" horiz-adv-x="313" />
<glyph unicode="&#x2008;" horiz-adv-x="234" />
<glyph unicode="&#x2009;" horiz-adv-x="375" />
<glyph unicode="&#x200a;" horiz-adv-x="104" />
<glyph unicode="&#x2010;" horiz-adv-x="862" d="M125 459h612v203h-612v-203z" />
<glyph unicode="&#x2011;" horiz-adv-x="862" d="M125 459h612v203h-612v-203z" />
<glyph unicode="&#x2012;" horiz-adv-x="862" d="M125 459h612v203h-612v-203z" />
<glyph unicode="&#x2013;" horiz-adv-x="1212" d="M125 459h962v203h-962v-203z" />
<glyph unicode="&#x2014;" horiz-adv-x="1882" d="M125 459h1632v203h-1632v-203z" />
<glyph unicode="&#x2018;" horiz-adv-x="462" d="M121 999h221v254h-72l43 242h-125l-67 -240v-256z" />
<glyph unicode="&#x2019;" horiz-adv-x="446" d="M117 1247h71l-43 -241h125l68 239v256h-221v-254z" />
<glyph unicode="&#x201a;" horiz-adv-x="471" d="M125 0h72l-45 -252h127l67 250v266h-221v-264z" />
<glyph unicode="&#x201c;" horiz-adv-x="792" d="M121 999h221v254h-72l43 242h-125l-67 -240v-256zM453 999h221v254h-72l43 242h-125l-67 -240v-256z" />
<glyph unicode="&#x201d;" horiz-adv-x="778" d="M117 1247h71l-43 -241h125l68 239v256h-221v-254zM449 1247h71l-43 -241h125l68 239v256h-221v-254z" />
<glyph unicode="&#x201e;" horiz-adv-x="796" d="M125 0h72l-45 -252h127l67 250v266h-221v-264zM451 0h71l-43 -252h125l68 250v266h-221v-264z" />
<glyph unicode="&#x2022;" horiz-adv-x="735" d="M166 713q0 -82 61 -144q59 -59 142 -59q84 0 142 58.5t58 144.5t-57 143q-59 59 -143 59q-82 0 -142 -59q-61 -61 -61 -143z" />
<glyph unicode="&#x2026;" horiz-adv-x="1126" d="M125 0h186v262h-186v-262zM471 0h184v262h-184v-262zM815 0h186v262h-186v-262z" />
<glyph unicode="&#x202f;" horiz-adv-x="375" />
<glyph unicode="&#x2039;" horiz-adv-x="729" d="M78 469l528 -358v184l-348 235l348 244v187l-528 -379v-113z" />
<glyph unicode="&#x203a;" horiz-adv-x="729" d="M123 111l528 358v113l-528 379v-187l348 -244l-348 -235v-184z" />
<glyph unicode="&#x205f;" horiz-adv-x="469" />
<glyph unicode="&#x20ac;" horiz-adv-x="1632" d="M68 514h219q33 -106 94 -201.5t147 -167.5q184 -158 420 -157q86 0 175 22.5t169 65.5q174 94 242 250l-191 108q-55 -119 -167 -182q-98 -57 -220 -57q-147 0 -264 90q-113 88 -166 229h447l53 127h-532q-6 43 -7 88v27h555l52 127h-588q41 162 151 260q123 113 293 112 q117 0 213 -49q109 -57 168 -182l180 121q-74 145 -217 231t-336 86q-139 0 -257.5 -47t-208.5 -129q-86 -80 -142.5 -184.5t-81.5 -218.5h-108l-54 -127h148v-19q0 -49 6 -96h-139z" />
<glyph unicode="&#x2122;" horiz-adv-x="1624" d="M127 1309h195v-457h149v457h195v149h-539v-149zM760 852h149v405l148 -319h121l147 319v-405h150v602h-220l-139 -344l-139 344h-217v-602z" />
<glyph unicode="&#x25fc;" horiz-adv-x="1075" d="M0 0v1075h1075v-1075h-1075z" />
</font>
</defs>
</svg>
