<?xml version="1.0" standalone="no"?>
<!DOCTYPE svg PUBLIC "-//W3C//DTD SVG 1.1//EN" "http://www.w3.org/Graphics/SVG/1.1/DTD/svg11.dtd" >
<svg xmlns="http://www.w3.org/2000/svg">
<metadata></metadata>
<defs>
<font id="rt_ralewayregular" horiz-adv-x="1384" >
<font-face units-per-em="2048" ascent="1638" descent="-410" />
<missing-glyph horiz-adv-x="522" />
<glyph unicode="&#xfb01;" horiz-adv-x="1032" d="M57 956h148v-956h139v956h395v-956h140v1067h-535v33q0 53 15.5 106.5t43.5 91.5q66 94 187 95q72 0 136.5 -20.5t100.5 -53.5l64 100q-20 14 -50 31.5t-65 30.5q-100 35 -194 35q-182 0 -287 -136q-45 -57 -67.5 -133t-22.5 -151v-29h-148v-111z" />
<glyph unicode="&#xfb02;" horiz-adv-x="1193" d="M57 956h148v-956h139v956h225v111h-225v27q4 129 57 211q59 88 174 88q113 0 175 -72q49 -61 49 -152v-989q0 -82 56 -137t151 -55q25 0 69 4q63 8 107 22q16 4 16 6l-27 115l-41 -10q-39 -12 -79 -12q-53 0 -83 38.5t-30 88.5v956q0 145 -90 229q-96 90 -275 91 q-178 0 -276 -115q-92 -111 -92 -295v-39h-148v-111z" />
<glyph unicode="&#xfb03;" horiz-adv-x="1503" d="M57 956h148v-956h139v956h332v-956h139v956h395v-956h140v1067h-535v33q0 121 57 198q70 94 195 95q68 0 133.5 -21.5t97.5 -52.5l64 100q-63 43 -119 62q-100 35 -190 35q-186 0 -293 -134q-102 53 -230 54q-78 0 -139 -31t-104 -82q-39 -49 -60.5 -114.5t-21.5 -129.5 v-12h-148v-111zM344 1067v14q0 96 45 158q55 76 164 76q104 0 164 -41q-41 -68 -41 -207h-332z" />
<glyph unicode="&#xfb04;" horiz-adv-x="1673" d="M57 956h148v-956h139v956h340v-956h139v956h224v111h-224v18q0 135 54 213q63 94 182 95q111 0 168 -72q49 -61 49 -152v-989q0 -82 56.5 -137t156.5 -55q20 0 65 4q68 10 107 22q16 4 16 6l-26 115l-15 -2l-28 -8q-37 -12 -78 -12q-55 0 -85 38.5t-30 88.5v956 q0 145 -90 229q-96 90 -270 91q-201 0 -295 -134q-53 25 -102.5 39.5t-114.5 14.5q-78 0 -141.5 -28t-108.5 -79q-88 -100 -88 -250v-12h-148v-111zM344 1067v16q0 43 14.5 85t40.5 73q63 74 168 74q92 0 148 -39q-31 -63 -31 -209h-340z" />
<glyph horiz-adv-x="0" />
<glyph unicode="&#xd;" horiz-adv-x="0" />
<glyph unicode=" "  horiz-adv-x="522" />
<glyph unicode="&#x09;" horiz-adv-x="522" />
<glyph unicode="&#xa0;" horiz-adv-x="522" />
<glyph unicode="!" horiz-adv-x="516" d="M188 0h140v229h-140v-229zM188 467h140v1001h-140v-1001z" />
<glyph unicode="&#x22;" horiz-adv-x="598" d="M141 1069h121v397h-121v-397zM336 1069h121v397h-121v-397z" />
<glyph unicode="#" horiz-adv-x="1392" d="M76 424h231l-104 -424h119l102 424h387l-104 -424h118l103 424h301v111h-275l97 401h264v104h-238l103 414h-119l-100 -414h-388l103 414h-119l-100 -414h-293v-104h266l-96 -401h-258v-111zM451 535l96 401h387l-96 -401h-387z" />
<glyph unicode="$" horiz-adv-x="1267" d="M78 199q223 -193 524 -209v-201h76v199q231 4 364 100q143 100 144 293q0 96 -34 162.5t-101 113.5q-61 43 -151.5 74t-217.5 57q-4 0 -6 3h-8v546q119 -4 217 -46t159 -109l70 114q-182 160 -436 168v205h-76v-207q-217 -12 -340 -116q-131 -111 -131 -299 q0 -86 28.5 -147.5t90.5 -104.5q57 -41 139 -70t207 -57l12 -4v-547q-143 10 -264 64.5t-194 133.5zM279 1067q0 121 80.5 190.5t248.5 77.5v-530q-92 20 -151.5 42.5t-98.5 51.5q-41 31 -60 70t-19 98zM668 115v536q197 -49 274 -104q47 -33 69.5 -76t22.5 -104 q0 -125 -95 -188.5t-271 -63.5z" />
<glyph unicode="%" horiz-adv-x="1462" d="M82 1180q0 -121 90 -207q43 -41 99.5 -63.5t117.5 -22.5q125 0 217 86q88 84 88 207q0 61 -22.5 114.5t-65.5 94.5q-92 86 -217 86q-61 0 -117.5 -22.5t-99.5 -63.5t-66.5 -95.5t-23.5 -113.5zM133 55l70 -63l559 713l571 696l-71 61l-557 -710zM186 1180q0 84 60 149 q59 63 143 64q39 0 77 -16.5t64 -45.5q59 -63 60 -151q0 -86 -58 -148q-59 -66 -143 -65q-84 0 -141 63q-61 66 -62 150zM770 274q0 -61 23.5 -114.5t66.5 -93.5q43 -41 98.5 -63.5t116.5 -22.5q62 0 118 22.5t99 63.5t66.5 95t23.5 113t-23.5 113.5t-66.5 95.5 q-41 41 -97 62.5t-120 21.5q-127 0 -215 -84q-43 -41 -66.5 -94t-23.5 -115zM874 274q0 84 60 150q59 63 141 63q39 0 77 -16t65 -45q59 -66 59 -152q0 -88 -57 -149q-59 -63 -144 -64q-82 1 -139 62q-61 66 -62 151z" />
<glyph unicode="&#x26;" horiz-adv-x="1366" d="M96 375q0 -86 36 -159t101 -126q61 -53 146.5 -81.5t181.5 -28.5q129 0 240.5 51t199.5 145l168 -176h185l-273 283q121 190 125 446h-119q0 -195 -88 -360l-407 426q156 102 223 176q94 104 94 215q0 61 -25.5 115.5t-72.5 93.5q-98 78 -242 78q-156 0 -260 -93 q-49 -43 -76.5 -101t-27.5 -126q0 -78 45 -152q43 -76 153 -194q-145 -98 -215 -182q-92 -113 -92 -250zM231 371q0 102 64.5 185t187.5 167l441 -465q-70 -80 -158 -123t-191 -43q-139 0 -235 72q-109 78 -109 207zM334 1157q-1 85 67 146q66 61 168 61q92 0 151.5 -51 t59.5 -131t-64.5 -145.5t-203.5 -157.5q-98 100 -143 174q-35 53 -35 104z" />
<glyph unicode="'" horiz-adv-x="403" d="M141 1067h121v399h-121v-399z" />
<glyph unicode="(" horiz-adv-x="550" d="M90 709q0 -359 287 -785l104 56q-123 186 -191.5 375.5t-68.5 346.5q0 174 90 416q74 199 172 344l-106 51q-137 -227 -203 -397q-84 -219 -84 -407z" />
<glyph unicode=")" horiz-adv-x="548" d="M66 1462q98 -139 174 -344q90 -242 90 -416q0 -158 -70 -348q-66 -184 -190 -374l102 -56q287 422 287 785q0 186 -82 407q-66 170 -203 397z" />
<glyph unicode="*" horiz-adv-x="657" d="M127 1290l139 -45l-88 -127l64 -45l88 133l86 -133l65 45l-90 127l139 45l-22 74l-141 -53v149h-76v-149l-141 53z" />
<glyph unicode="+" horiz-adv-x="849" d="M106 670h254v-277h129v277h254v114h-254v277h-129v-277h-254v-114z" />
<glyph unicode="," horiz-adv-x="460" d="M164 6h47l-35 -172h72l51 172v195h-135v-195z" />
<glyph unicode="-" horiz-adv-x="864" d="M133 494h598v129h-598v-129z" />
<glyph unicode="." horiz-adv-x="387" d="M133 0h121v201h-121v-201z" />
<glyph unicode="/" horiz-adv-x="1236" d="M55 0h158l967 1454h-158z" />
<glyph unicode="0" horiz-adv-x="1398" d="M98 717q0 -125 40 -254t114 -234q80 -113 193.5 -179t254.5 -70q136 2 246.5 64t192.5 173q78 104 119.5 234.5t41.5 265.5q0 123 -38.5 252t-112.5 235q-80 117 -193.5 183.5t-255.5 66.5q-135 0 -246.5 -62.5t-193.5 -172.5q-78 -104 -120 -236.5t-42 -265.5zM244 717 q0 100 28.5 205.5t83.5 193.5q61 96 147.5 152.5t196.5 56.5q104 0 190.5 -53t147.5 -144q57 -86 88 -194.5t31 -216.5q0 -98 -29.5 -206t-83.5 -196q-59 -96 -146 -151t-198 -55q-106 0 -192 53t-143 145q-55 84 -87 193.5t-34 216.5z" />
<glyph unicode="1" horiz-adv-x="876" d="M86 1141q78 0 186 65q104 63 138 111v-1190h-277v-127h678v127h-260v1346h-141l-17 -17l-37 -39q-59 -55 -123 -94q-88 -51 -147 -51v-131z" />
<glyph unicode="2" horiz-adv-x="1185" d="M98 0h981v127h-829q0 147 80 250q92 119 309 211q111 47 175.5 79.5t119.5 80.5q143 123 143 307q0 86 -28.5 160.5t-83.5 132.5q-59 59 -145.5 92t-194.5 33q-121 0 -207 -33q-168 -63 -256 -162q-35 -35 -51 -55l92 -90q70 86 149 135q119 74 258 73q156 0 238 -86 q37 -39 56.5 -92t19.5 -110q0 -90 -41 -150q-72 -104 -244 -174q-78 -31 -145 -63q-205 -96 -291 -228q-104 -156 -105 -409v-29z" />
<glyph unicode="3" horiz-adv-x="1196" d="M98 319q12 -74 53.5 -137t104.5 -106q63 -45 147 -69.5t181 -24.5q102 0 194 27.5t162 78.5q72 53 112 126t40 163q0 137 -86 239q-90 104 -236 132q141 35 213 115.5t72 205.5q0 84 -36 159t-101 130q-66 55 -155 85t-192 30q-152 0 -274 -64q-129 -63 -186 -174l96 -94 q39 90 137 148.5t229 58.5q68 0 129.5 -20.5t108.5 -57.5t72.5 -90.5t25.5 -114.5q0 -129 -111.5 -195.5t-316.5 -66.5h-69v-121h69q213 0 340 -76q127 -80 127 -213q0 -61 -27.5 -113.5t-76.5 -89.5q-104 -78 -260 -77q-82 0 -155 24.5t-128 65.5q-51 39 -82 90t-35 104z " />
<glyph unicode="4" horiz-adv-x="1167" d="M53 389h715v-389h139v389h180v127h-180v938h-96l-758 -940v-125zM203 516l577 721v-721h-577z" />
<glyph unicode="5" horiz-adv-x="1138" d="M82 260q63 -129 188 -204.5t279 -75.5q104 0 196.5 34.5t159.5 98.5q70 66 109 153.5t39 194.5q0 100 -36 185t-102 149q-63 61 -150 95t-185 34q-93 0 -170.5 -31t-130.5 -90l102 522h598v129h-703q-12 -72 -25 -135.5t-24 -118.5l-26 -129l-29 -145q-31 -156 -47 -234 l-12 -55h131q53 78 137 121t182 43q145 0 248 -96q49 -45 74.5 -109t25.5 -137q0 -78 -27.5 -142.5t-76.5 -111.5t-115.5 -73t-140.5 -26q-119 0 -219.5 60.5t-155.5 163.5z" />
<glyph unicode="6" horiz-adv-x="1234" d="M106 588q0 -139 39 -253t109 -194q68 -78 164 -119.5t211 -41.5q106 0 201.5 37.5t164.5 107.5q70 70 110 161t40 193q0 101 -38 191t-108 159q-70 68 -160.5 105t-193.5 37q-139 0 -248.5 -72t-154.5 -192q0 145 29.5 265t82.5 204q109 166 289 165q117 0 209 -62 t135 -167l90 82q-59 127 -174 198.5t-260 71.5q-248 0 -387 -215q-150 -233 -150 -661zM252 479q0 78 29.5 146.5t83.5 119.5q53 53 121.5 82t144.5 29t145.5 -29.5t122.5 -81.5q53 -51 83 -119.5t30 -146.5t-29 -146.5t-82 -119.5t-122.5 -81t-145.5 -30t-144.5 30 t-121.5 83q-115 115 -115 264z" />
<glyph unicode="7" horiz-adv-x="1069" d="M63 1325h785l-672 -1325h156l737 1454h-1006v-129z" />
<glyph unicode="8" horiz-adv-x="1214" d="M102 412q0 -88 37 -165t105 -136t160 -93t198 -34q102 0 195.5 29.5t163.5 84.5q152 121 151 305q0 134 -86 236q-82 98 -207 139q106 43 172 121q72 84 72 186q0 84 -39 156t-106 119q-63 45 -145.5 69.5t-164.5 24.5t-162.5 -24.5t-144.5 -71.5q-147 -109 -147 -275 q0 -100 71 -186q63 -76 168 -119q-117 -41 -198 -131q-92 -102 -93 -235zM246 412q0 68 29.5 126t82.5 99q51 39 115 60.5t131 21.5q63 0 129 -20.5t119 -59.5q119 -84 119 -225q0 -66 -31 -123.5t-84 -97.5q-51 -39 -115.5 -61.5t-130.5 -22.5t-129 20.5t-116 58.5 q-55 41 -87 97.5t-32 126.5zM293 1077q0 56 25.5 104t70.5 81q43 31 99.5 48t115.5 17q129 0 221 -63q45 -33 71 -80t26 -103q0 -115 -103 -186q-45 -33 -101 -49.5t-112 -16.5q-55 0 -111.5 17.5t-99.5 48.5q-102 70 -102 182z" />
<glyph unicode="9" horiz-adv-x="1236" d="M90 965q0 -101 38 -190t108 -157q70 -70 160.5 -107.5t193.5 -37.5q139 0 248.5 71.5t154.5 192.5q0 -299 -110 -467q-109 -166 -291 -166q-117 0 -210 61.5t-136 166.5l-88 -80q59 -129 173.5 -200.5t258.5 -71.5q250 0 389 217q147 227 147 661q0 137 -37.5 251 t-107.5 196q-70 78 -166 118.5t-211 40.5q-106 0 -200.5 -37.5t-163.5 -107.5q-70 -70 -110 -161t-40 -193zM225 967q0 74 30 143.5t81 122.5t119.5 81.5t146.5 28.5q76 0 146.5 -29.5t123.5 -82.5q53 -51 83 -122t30 -144q0 -152 -113 -265q-53 -53 -121.5 -82.5 t-146.5 -29.5q-76 0 -144.5 29.5t-121.5 82.5t-83 122t-30 145z" />
<glyph unicode=":" horiz-adv-x="385" d="M133 0h119v201h-119v-201zM133 860h119v201h-119v-201z" />
<glyph unicode=";" horiz-adv-x="419" d="M143 6h47l-34 -172h71l52 172v195h-136v-195zM143 860h119v201h-119v-201z" />
<glyph unicode="&#x3c;" horiz-adv-x="1040" d="M68 489l858 -512v154l-656 399l656 402v149l-858 -516v-76z" />
<glyph unicode="=" horiz-adv-x="897" d="M139 397h619v101h-619v-101zM139 633h619v100h-619v-100z" />
<glyph unicode="&#x3e;" horiz-adv-x="1040" d="M113 -23l858 512v76l-858 516v-149l655 -402l-655 -399v-154z" />
<glyph unicode="?" horiz-adv-x="974" d="M70 1208l96 -61q47 92 135 150.5t195 58.5q119 0 192 -66q86 -76 86 -200q0 -74 -29 -127q-57 -96 -165 -150q-80 -45 -91 -51q-92 -55 -133 -135t-41 -213h119q1 133 58 207q23 31 52 50t77 46q16 10 59 33.5t75.5 47t55.5 48.5q86 92 86 235q0 186 -123 295 q-55 47 -127 72t-149 25q-141 0 -252 -68q-117 -70 -176 -197zM317 0h121v219h-121v-219z" />
<glyph unicode="@" horiz-adv-x="1714" d="M96 471q0 -162 57.5 -304t161.5 -247q102 -104 237.5 -161.5t287.5 -57.5q176 0 342 82l-27 65q-80 -39 -154.5 -58t-158.5 -19q-143 0 -266 53t-214 151q-90 98 -141 225.5t-51 270.5q0 150 53 276.5t150 221.5q94 94 218 145t261 51q139 0 263 -54t218 -150 q92 -96 142.5 -226.5t50.5 -275.5q0 -154 -43 -264q-59 -152 -170 -152q-63 0 -88 57q-18 39 -19 148v264q0 90 -10 159.5t-43 125.5q-80 135 -281 135q-176 0 -335 -107l36 -80q129 96 287 97q139 0 203 -92q51 -76 51 -238q-135 47 -260 47q-156 0 -256 -57 q-123 -72 -123 -217q0 -123 82 -199t225 -76q104 0 194.5 41t151.5 105q12 -92 39 -131q41 -57 133 -58q129 0 201 101q55 76 82 208q16 82 16 179q0 170 -58 314t-163 251q-104 104 -238 159.5t-286 55.5q-147 0 -284.5 -54.5t-241.5 -154.5q-109 -102 -170.5 -244.5 t-61.5 -310.5zM569 289q0 98 86 149q68 41 195 41q100 0 168 -20q68 -23 94 -25v-82q0 -68 -27.5 -120t-105.5 -89q-95 -45 -191 -45q-98 0 -158.5 52.5t-60.5 138.5z" />
<glyph unicode="A" d="M25 0h153l187 455h653l188 -455h152l-604 1454h-121zM395 567l297 719l293 -719h-590z" />
<glyph unicode="B" horiz-adv-x="1363" d="M182 0h686q84 0 158 27.5t129 78.5q57 51 89 120t32 149q0 133 -73 233.5t-197 136.5q98 45 153 136.5t55 201.5q0 68 -23.5 135.5t-66.5 118.5q-45 55 -106.5 86t-134.5 31h-701v-1454zM326 125v551h557q51 0 98 -22.5t82 -61.5q33 -39 51.5 -89t18.5 -104 q0 -53 -20.5 -103t-55.5 -87q-80 -84 -189 -84h-542zM326 793v536h512q98 0 170 -78q65 -77 65 -187t-69 -190q-33 -39 -79 -60t-100 -21h-499z" />
<glyph unicode="C" horiz-adv-x="1404" d="M86 737q0 -139 50 -273t140 -239q94 -111 220.5 -174t269.5 -63q176 0 336 88q172 94 239 250l-118 61q-63 -129 -197 -205q-117 -65 -248 -65h-4q-115 0 -214 49t-173 137q-76 86 -117 196.5t-41 229.5q0 113 36 220.5t104 191.5q72 90 173 141t226 51q133 0 240 -57 q129 -70 192 -201l113 70q-68 145 -207 231t-330 86q-158 0 -288 -61.5t-222 -169.5q-86 -102 -133 -231.5t-47 -262.5z" />
<glyph unicode="D" horiz-adv-x="1464" d="M182 0h494q158 0 286 52t222 149q92 96 140 230t48 298q0 150 -44 282t-130 230q-90 102 -222 157.5t-300 55.5h-494v-1454zM326 127v1200h350q260 0 409 -168q70 -80 107 -189.5t37 -240.5q0 -129 -36 -238.5t-106 -189.5q-72 -84 -175 -129t-236 -45h-350z" />
<glyph unicode="E" horiz-adv-x="1247" d="M182 0h977v127h-833v555h710v121h-710v524h815v127h-959v-1454z" />
<glyph unicode="F" horiz-adv-x="1206" d="M182 0h144v674h684v119h-684v534h811v127h-955v-1454z" />
<glyph unicode="G" horiz-adv-x="1466" d="M86 729q0 -139 51 -271t144 -237q94 -109 218 -170t267 -61q264 0 467 223v-213h121v715h-445v-111h324v-242q-198 -243 -455 -243h-2q-113 0 -213 48t-176 134q-76 84 -117 194.5t-41 231.5q0 117 37 226.5t107 195.5q70 88 168 137t215 49q307 0 446 -262l111 74 q-76 150 -203 229q-147 88 -352 88q-141 0 -264 -58t-218 -163q-90 -102 -140 -235.5t-50 -278.5z" />
<glyph unicode="H" horiz-adv-x="1511" d="M182 0h144v680h862v-680h141v1454h-141v-647h-862v647h-144v-1454z" />
<glyph unicode="I" horiz-adv-x="507" d="M182 0h144v1454h-144v-1454z" />
<glyph unicode="J" horiz-adv-x="985" d="M29 68q133 -91 315 -91q156 0 251 51.5t146 151.5q45 90 62.5 220t17.5 315v739h-143v-739q0 -164 -11.5 -271.5t-43.5 -179.5q-37 -80 -103.5 -119t-175.5 -39q-82 0 -153.5 22t-120.5 54z" />
<glyph unicode="K" horiz-adv-x="1316" d="M182 0h144v446l274 285l557 -731h158l-625 815l594 639h-158l-800 -846v844h-144v-1452z" />
<glyph unicode="L" horiz-adv-x="1193" d="M182 0h983v127h-839v1327h-144v-1454z" />
<glyph unicode="M" horiz-adv-x="1796" d="M182 0h144v1194l530 -924h84l530 924v-1194h144v1454h-146l-571 -995l-567 995h-148v-1454z" />
<glyph unicode="N" horiz-adv-x="1581" d="M182 0h144v1188l948 -1188h125v1452h-144v-1208l-962 1210h-111v-1454z" />
<glyph unicode="O" horiz-adv-x="1538" d="M86 727q0 -139 49 -272t139 -236q94 -109 220.5 -169t273.5 -60q141 0 267 59.5t220 163.5q92 102 143.5 235.5t51.5 276.5q0 137 -49 269t-137 237q-92 109 -219 171t-275 62q-143 0 -268 -58t-219 -165q-94 -104 -145.5 -237.5t-51.5 -276.5zM229 727q0 113 38 221.5 t108 194.5q72 88 173 139t220 51q115 0 214 -48t173 -136q72 -84 112 -193.5t40 -228.5q0 -113 -38 -221.5t-108 -194.5q-72 -90 -173 -141t-220 -51t-217 49t-172 137q-72 84 -111 193.5t-39 228.5z" />
<glyph unicode="P" horiz-adv-x="1273" d="M182 0h144v537h471q90 0 167.5 37.5t135.5 103.5q55 63 86 146t31 173q0 84 -33 166t-90 148q-59 68 -139.5 105.5t-170.5 37.5h-602v-1454zM326 664v663h452q59 0 113.5 -25.5t95.5 -70.5t63.5 -105.5t22.5 -128.5q0 -133 -78 -231q-39 -47 -91 -74.5t-113 -27.5h-465z " />
<glyph unicode="Q" horiz-adv-x="1533" d="M86 727q0 -139 49 -272t139 -236q94 -106 220.5 -167.5t273.5 -61.5q219 0 397 139l111 -129h141l-172 203q98 104 151.5 239.5t53.5 282.5q0 137 -49 269t-137 237q-92 109 -219 171t-275 62q-143 0 -268 -58t-219 -165q-94 -104 -145.5 -237.5t-51.5 -276.5zM229 727 q0 113 38 222.5t108 195.5q72 88 173 139t220 51q115 0 213 -49t174 -137q72 -84 112 -193.5t40 -228.5q0 -115 -39 -224.5t-111 -195.5l-117 139h-141l182 -217q-142 -110 -310 -110h-3q-119 0 -217 49t-172 137q-72 84 -111 193.5t-39 228.5z" />
<glyph unicode="R" horiz-adv-x="1337" d="M182 0h144v537h430l342 -537h162l-357 561q141 27 236 154q88 125 88 282q0 84 -32 166t-89 148q-59 68 -139 105.5t-170 37.5h-615v-1454zM326 664v663h462q59 0 113.5 -26.5t95.5 -71.5t63.5 -105.5t22.5 -126.5q0 -131 -77 -231q-37 -49 -90.5 -75.5t-114.5 -26.5 h-475z" />
<glyph unicode="S" horiz-adv-x="1243" d="M66 199q244 -211 583 -211q242 0 377 96q147 104 148 297q0 96 -34 162.5t-102 113.5q-61 43 -151 74t-217 57q-119 27 -190.5 48.5t-117.5 50.5q-49 31 -72.5 72.5t-23.5 107.5q0 129 91.5 199.5t277.5 70.5q127 0 230.5 -42t166.5 -113l70 114q-195 168 -465 168 q-231 0 -373 -106q-70 -53 -107.5 -133t-37.5 -178q0 -86 28.5 -147.5t90.5 -104.5q57 -41 139 -70t207 -57q123 -29 199.5 -52.5t127.5 -54.5q55 -35 83 -81t28 -113q0 -125 -96.5 -188.5t-272.5 -63.5q-160 0 -301 59q-135 55 -215 141z" />
<glyph unicode="T" horiz-adv-x="1249" d="M35 1327h518v-1327h143v1327h518v127h-1179v-127z" />
<glyph unicode="U" horiz-adv-x="1546" d="M162 721q0 -313 133 -504q160 -227 479 -227q313 0 475 219q137 190 137 512v733h-143v-733q0 -260 -96 -412q-123 -190 -375 -190q-250 0 -369 186q-100 154 -100 416v733h-141v-733z" />
<glyph unicode="V" horiz-adv-x="1390" d="M27 1454l606 -1454h125l606 1454h-150l-518 -1276l-520 1276h-149z" />
<glyph unicode="W" horiz-adv-x="2142" d="M43 1454l463 -1454h149l426 1223l439 -1223h149l463 1454h-160l-389 -1247l-426 1247h-156l-409 -1247l-389 1247h-160z" />
<glyph unicode="X" horiz-adv-x="1294" d="M10 1454l559 -737l-542 -717h161l461 614l461 -614h158l-543 717l559 737h-158l-477 -635l-477 635h-162z" />
<glyph unicode="Y" horiz-adv-x="1333" d="M33 1454l561 -909v-545h143v541l563 913h-155l-479 -782l-476 782h-157z" />
<glyph unicode="Z" horiz-adv-x="1288" d="M63 0h1154v127h-975l977 1214v113h-1139v-127h973l-990 -1214v-113z" />
<glyph unicode="[" horiz-adv-x="528" d="M180 -82h244v117h-113v1364h113v117h-244v-1598z" />
<glyph unicode="\" horiz-adv-x="1163" d="M57 1454l893 -1454h156l-891 1454h-158z" />
<glyph unicode="]" horiz-adv-x="528" d="M102 35v-117h246v1598h-246v-117h115v-1364h-115z" />
<glyph unicode="^" horiz-adv-x="1103" d="M88 621h119l346 702l340 -702h123l-404 833h-118z" />
<glyph unicode="_" horiz-adv-x="1046" d="M133 0v-127h780v127h-780z" />
<glyph unicode="`" horiz-adv-x="454" d="M100 1495l179 -225l90 35l-123 190h-146z" />
<glyph unicode="a" horiz-adv-x="1271" d="M82 530q0 -109 37 -209t104 -176q68 -78 162 -121.5t203 -43.5q127 0 228.5 63t162.5 172v-215h139v1059h-139v-217q-63 111 -166.5 177t-234.5 66q-102 0 -192.5 -43t-160.5 -120q-68 -76 -105.5 -178.5t-37.5 -213.5zM225 530q0 78 28 156t79 139q53 63 124.5 100.5 t155.5 37.5q121 0 222 -78q100 -78 145 -197v-323q-51 -117 -145.5 -190t-217.5 -73q-84 0 -155.5 34t-124.5 95q-53 59 -82 136t-29 163z" />
<glyph unicode="b" horiz-adv-x="1263" d="M154 0h125v207q61 -102 166.5 -164.5t230.5 -62.5q104 0 197.5 44t162.5 119q68 74 107 175.5t39 211.5q0 104 -34 204t-95 179q-66 82 -156 127t-199 45q-246 0 -405 -241v651h-139v-1495zM293 365v331q51 115 145 187q102 80 221 80q82 0 154 -35t123 -97 q49 -61 76.5 -139t27.5 -162q0 -82 -28.5 -158.5t-81.5 -135.5q-53 -63 -127 -98.5t-160 -35.5q-53 0 -111.5 20.5t-107.5 55.5q-53 37 -88 85t-43 102z" />
<glyph unicode="c" horiz-adv-x="1124" d="M80 537q0 -115 39 -214.5t112 -177.5q74 -78 172.5 -121.5t212.5 -43.5q156 0 277 75q119 72 166 189l-137 41q-25 -74 -117 -127q-90 -55 -195 -56q-78 0 -148.5 34t-125.5 93t-85 138t-30 170q0 90 30 168.5t83 136.5q53 57 123.5 89t150.5 32q98 0 179 -46.5 t126 -128.5l136 43q-57 119 -171 186.5t-264 67.5q-115 0 -214 -42t-171 -117q-72 -76 -110.5 -177.5t-38.5 -211.5z" />
<glyph unicode="d" horiz-adv-x="1273" d="M82 530q0 -109 38 -208t105 -175q70 -78 165 -122.5t202 -44.5q117 0 225.5 61t171.5 166v-105q0 -45 37 -76.5t86 -31.5q18 0 49 6v123q-49 0 -49 57v1315h-139v-651q-63 106 -169 173.5t-235 67.5q-104 0 -193 -43t-155 -120q-66 -76 -102.5 -178.5t-36.5 -213.5z M225 530q0 82 27 160t78 139t120.5 97.5t153.5 36.5q55 0 112.5 -20.5t108.5 -57.5q109 -82 148 -189v-329q-8 -53 -43 -101.5t-88 -85.5q-49 -37 -108.5 -57.5t-110.5 -20.5q-82 0 -155 34t-128 95q-55 59 -85 137t-30 162z" />
<glyph unicode="e" horiz-adv-x="1202" d="M80 537q0 -115 39 -214.5t112 -177.5q74 -80 171.5 -122.5t211.5 -42.5h4q155 0 277 75q127 74 174 191l-121 33q-37 -86 -131 -140q-92 -53 -196 -53q-156 0 -269 113q-115 115 -127 284h914q2 4 2 23v33q0 109 -39 208t-109 175q-72 78 -169 120.5t-212 42.5 q-113 0 -210 -43t-171 -118q-72 -76 -111.5 -176.5t-39.5 -210.5zM223 590q6 84 38 155.5t85 122.5t122 80t146 29q78 0 146.5 -28.5t122.5 -80.5q53 -51 85.5 -122.5t39.5 -155.5h-785z" />
<glyph unicode="f" horiz-adv-x="675" d="M57 956h148v-956h139v956h295v111h-295v33q0 143 51 219t150 76q43 0 85 -12.5t70 -34.5l43 100q-43 31 -103 49.5t-122 18.5q-145 0 -229 -112t-84 -308v-29h-148v-111z" />
<glyph unicode="g" horiz-adv-x="1265" d="M82 530q0 -104 37 -202.5t104 -173.5q70 -78 161 -123t198 -45q116 0 222.5 59t168.5 162v-211q0 -166 -113 -256q-104 -86 -270 -86q-127 0 -229.5 49t-163.5 150l-86 -68q74 -117 188.5 -179.5t290.5 -62.5q106 0 202.5 30t165.5 85q74 59 114 144t40 194v1071h-125 v-223q-167 241 -407 241h-2q-106 0 -198.5 -44t-160.5 -121q-66 -76 -101.5 -177.5t-35.5 -212.5zM223 528q0 82 25.5 159t75.5 138q51 63 121.5 100.5t158.5 37.5q115 0 219 -76q102 -74 150 -191v-329q-10 -49 -43 -96.5t-80 -84.5q-51 -39 -110.5 -61.5t-118.5 -22.5 q-82 0 -154 34t-127 93t-86 136t-31 163z" />
<glyph unicode="h" horiz-adv-x="1193" d="M154 0h139v653q35 127 145 217q109 88 228 88q246 0 245 -362v-596h140v625q0 218 -78 333q-88 127 -260 127q-131 0 -244 -69.5t-176 -190.5v670h-139v-1495z" />
<glyph unicode="i" horiz-adv-x="446" d="M154 0h139v1067h-139v-1067zM154 1290h139v205h-139v-205z" />
<glyph unicode="j" horiz-adv-x="460" d="M-240 -291q88 -80 234 -80q59 0 115.5 23.5t101.5 66.5q96 96 96 234v1114h-139v-1122q0 -80 -59 -135q-55 -55 -132 -56q-94 0 -149 49zM168 1290h139v205h-139v-205z" />
<glyph unicode="k" horiz-adv-x="1085" d="M154 0h139v334l229 213l393 -547h152l-453 629l437 436h-158l-600 -586v1016h-139v-1495z" />
<glyph unicode="l" horiz-adv-x="557" d="M160 195q0 -99 55 -153t152 -54q43 0 99 10t93 27l-24 112q-53 -22 -106 -22h-5q-59 0 -92 33.5t-33 93.5v1253h-139v-1300z" />
<glyph unicode="m" horiz-adv-x="1882" d="M154 0h139v653q43 139 136 222t214 83q119 0 176.5 -87t57.5 -275v-596h139v651q37 131 135 221q96 86 215 86q117 0 176.5 -89t59.5 -273v-596h139v625q0 217 -72 336q-79 124 -251 124h-3q-260 0 -411 -274q-18 127 -100.5 200.5t-215.5 73.5q-129 0 -235.5 -68.5 t-171.5 -191.5v242h-127v-1067z" />
<glyph unicode="n" horiz-adv-x="1193" d="M154 0h139v653q35 125 153 219q53 41 114 63.5t122 22.5q117 0 173 -87t56 -275v-596h140v625q0 223 -70 336q-77 124 -245 124h-3q-141 0 -263 -70.5t-189 -189.5v242h-127v-1067z" />
<glyph unicode="o" horiz-adv-x="1218" d="M80 530q0 -111 39 -211t110 -176q74 -78 170.5 -120.5t208.5 -42.5q115 0 213.5 43t169.5 120q72 76 110 176.5t38 210.5q0 111 -39 212.5t-111 177.5q-74 78 -171 121.5t-210 43.5t-208 -44t-169 -121q-72 -76 -111.5 -177.5t-39.5 -212.5zM221 528q0 88 30 167t85 141 q55 61 124.5 94t147.5 33t148.5 -33t126.5 -92q53 -59 83.5 -139.5t30.5 -166.5q0 -178 -114 -303q-55 -59 -126 -93t-149 -34t-148.5 33t-123.5 92q-115 129 -115 301z" />
<glyph unicode="p" horiz-adv-x="1263" d="M154 -436h139v657q66 -111 171 -176t234 -65q105 0 195 43t156 120q63 76 98 176.5t35 212.5q0 106 -38 207t-106 179q-70 80 -162 123.5t-200 43.5q-121 0 -225.5 -61t-171.5 -164v207h-125v-1503zM293 371v327q8 51 43 99.5t88 87.5q49 37 107.5 57.5t111.5 20.5 q82 0 154.5 -34t128.5 -95q55 -61 84.5 -139.5t29.5 -162.5q0 -82 -26.5 -158.5t-75.5 -135.5q-53 -63 -124 -99.5t-155 -36.5q-117 0 -217 78q-98 70 -149 191z" />
<glyph unicode="q" horiz-adv-x="1263" d="M82 532q0 -109 35 -207t98 -175q66 -80 155 -125t195 -45h2q245 0 404 241v-530q0 -49 32.5 -85t79.5 -40h39q10 0 39 4v121q-51 2 -51 59v1317h-125v-209q-63 102 -166 164q-111 63 -229 63q-104 0 -197.5 -44t-163.5 -121q-70 -76 -108.5 -177.5t-38.5 -210.5zM223 530 q0 82 29 160t82 139t125.5 97.5t156.5 36.5q55 0 116 -22.5t112 -61.5q51 -41 85 -91.5t42 -103.5v-330q-57 -113 -146 -176q-102 -76 -217 -76q-82 0 -152.5 35t-123.5 94q-51 59 -80 137t-29 162z" />
<glyph unicode="r" horiz-adv-x="718" d="M154 0h139v664q43 129 147.5 202.5t245.5 77.5v127q-7 2 -27 2q-115 0 -215 -69.5t-159 -192.5v256h-131v-1067z" />
<glyph unicode="s" horiz-adv-x="997" d="M59 139q84 -78 203 -118.5t246 -40.5q190 0 303 86t113 233q0 131 -105 195q-49 31 -123.5 55t-187.5 51q-80 18 -127 33.5t-78 34.5q-33 18 -47 44.5t-14 69.5q0 100 77 152q68 47 185 47q94 0 178 -31.5t143 -91.5l68 82q-63 68 -163.5 106.5t-221.5 38.5 q-172 0 -281 -79q-57 -41 -87.5 -103.5t-30.5 -140.5q0 -61 21.5 -104.5t66.5 -71.5q41 -27 103 -48.5t167 -48.5q94 -23 149.5 -39t92.5 -36q41 -25 60 -54.5t19 -72.5q0 -96 -75.5 -148.5t-206.5 -52.5q-104 0 -197.5 37t-185.5 110z" />
<glyph unicode="t" horiz-adv-x="686" d="M51 956h148v-763q0 -100 67 -154q59 -51 158 -51q76 0 151 26q55 18 91 37l-37 113q-25 -17 -68 -32t-94 -15q-53 0 -89 28.5t-40 85.5v725h246v111h-246v360h-139v-360h-148v-111z" />
<glyph unicode="u" horiz-adv-x="1216" d="M143 440q0 -460 343 -460h1q138 0 257.5 69.5t187.5 192.5v-123q0 -55 30.5 -88t79.5 -35h23q6 0 39 4v123q-49 0 -49 57v887h-140v-672q-47 -129 -153 -213q-104 -80 -232 -80q-248 0 -247 363v602h-140v-627z" />
<glyph unicode="v" horiz-adv-x="1091" d="M39 1067l434 -1067h145l435 1067h-135l-369 -938l-367 938h-143z" />
<glyph unicode="w" horiz-adv-x="1665" d="M45 1067l375 -1067h145l285 856l280 -856h148l375 1067h-146l-307 -893l-285 893h-133l-284 -893l-308 893h-145z" />
<glyph unicode="x" horiz-adv-x="1032" d="M31 0h149l320 416l16 28l16 -28l320 -416h149l-407 530l407 537h-149l-320 -418l-16 -31l-16 31l-320 418h-149l407 -537z" />
<glyph unicode="y" horiz-adv-x="1110" d="M31 1067l465 -1067q-53 -129 -72 -176q-35 -80 -47 -100q-18 -35 -40 -45.5t-61 -10.5q-16 0 -61 4v-123q35 -6 84 -6q84 0 138.5 41t78.5 107l553 1376h-133l-367 -938l-395 938h-143z" />
<glyph unicode="z" horiz-adv-x="1007" d="M63 0h871v104h-717l719 869v94h-856v-104h704l-721 -869v-94z" />
<glyph unicode="{" horiz-adv-x="530" d="M109 686q37 -4 58 -37t21 -76v-575q0 -33 13.5 -47t34.5 -14h192v116h-113v557q0 29 -13 65t-42 62q29 27 42 62t13 65v535h113v117h-192q-8 0 -29 -11q-18 -12 -19 -51v-553q0 -39 -18 -67q-27 -41 -61 -41v-107z" />
<glyph unicode="|" horiz-adv-x="473" d="M176 -266h121v1853h-121v-1853z" />
<glyph unicode="}" horiz-adv-x="530" d="M102 53v-116h193q20 0 33.5 14t13.5 47v575q0 43 20.5 76t57.5 37v107q-37 0 -60 41q-18 35 -18 67v553q0 39 -18 51q-20 10 -29 11h-193v-117h113v-535q0 -31 12.5 -65.5t40.5 -61.5q-29 -27 -41 -61.5t-12 -65.5v-557h-113z" />
<glyph unicode="~" horiz-adv-x="1046" d="M135 494h88q0 4 8 20q6 18 23 41q41 57 100 57q33 0 66 -14t86 -45q49 -29 90 -44t86 -15q66 0 111 30q80 53 110 133l10 35h-88l-6 -20q-8 -18 -24 -37q-49 -49 -111 -49q-39 0 -75 15t-85 44q-47 29 -86 44.5t-82 15.5q-61 0 -102 -29q-76 -55 -107 -137 q-12 -33 -12 -45z" />
<glyph unicode="&#xa1;" horiz-adv-x="514" d="M186 -4h140v1001h-140v-1001zM186 1235h140v229h-140v-229z" />
<glyph unicode="&#xa2;" horiz-adv-x="1148" d="M88 528q0 -96 36 -191t99 -171q63 -78 152.5 -127t189.5 -57v-228h76v226q57 0 121.5 17t124.5 48q63 35 110 85t72 114l-137 41q-10 -37 -41 -70t-74 -57q-43 -23 -90 -37.5t-86 -16.5v854q193 -10 283 -170l133 43q-121 244 -416 252v238h-76v-238q-109 -10 -196.5 -58 t-151.5 -126q-61 -76 -95 -171t-34 -200zM231 528q0 74 22.5 148t65.5 133q43 61 105.5 99t140.5 46v-843q-72 12 -133 50t-106 95q-45 55 -70 126t-25 146z" />
<glyph unicode="&#xa3;" horiz-adv-x="1021" d="M106 651h238q20 -59 21 -131q0 -100 -56 -196q-59 -98 -198 -238l36 -102q111 35 222 34q43 0 87 -7t85 -17t85 -17.5t85 -7.5q113 0 223 54l-35 106q-111 -37 -182 -37q-35 0 -70 6l-69 13q-10 2 -56.5 10t-95.5 8q-76 0 -150 -18q115 123 163 218t48 199q0 57 -16 123 h324v111h-365q-20 41 -47 90q-16 27 -45 84q-49 102 -49 170q0 49 18.5 94t50.5 78q31 33 75 51.5t93 18.5q86 0 165 -49.5t128 -135.5l82 86q-61 100 -160.5 157.5t-210.5 57.5q-154 0 -262 -102q-51 -49 -79.5 -112.5t-28.5 -135.5q0 -51 14 -94q20 -76 78 -172 q33 -57 47 -86h-193v-111z" />
<glyph unicode="&#xa4;" horiz-adv-x="1099" d="M109 315l61 -59l145 141q102 -80 234 -80q135 0 231 80l152 -141l61 59l-149 148q74 100 74 225q0 129 -72 225l147 148l-69 67l-144 -145q-102 80 -231 80q-137 0 -230 -80l-143 145l-67 -67l143 -146q-72 -96 -72 -227q0 -125 74 -227zM297 686q0 57 19.5 108.5 t54.5 88.5q76 80 178 80q51 0 97 -20.5t81 -57.5t54.5 -87t19.5 -108q0 -57 -19.5 -107.5t-54.5 -86.5q-37 -37 -83 -58.5t-95 -21.5q-102 0 -178 80q-74 78 -74 190z" />
<glyph unicode="&#xa5;" d="M59 1454l443 -704h-176v-99h229l63 -106v-60h-292v-98h292v-387h144v387h297v98h-297v56l67 110h228v99h-172l442 704h-158l-479 -782l-475 782h-156z" />
<glyph unicode="&#xa6;" horiz-adv-x="479" d="M178 -266h123v833h-123v-833zM178 754h123v833h-123v-833z" />
<glyph unicode="&#xa7;" horiz-adv-x="1036" d="M96 1110q0 -76 30 -139.5t75 -96.5q-53 -68 -54 -182q0 -291 400 -325q10 -2 67.5 -8.5t100.5 -26.5q90 -43 90 -148q0 -109 -88 -172q-78 -59 -195 -59q-158 0 -303 139l-92 -86q74 -78 166 -125q115 -61 235 -61q72 0 147 22.5t134 65.5q66 45 102.5 116.5t36.5 165.5 q0 152 -94 209q27 31 44 81t17 112q0 162 -133 239q-100 59 -276 74q-104 4 -174 39q-96 49 -96 162q0 106 83 174q72 57 191 57q78 0 145 -26q76 -29 109 -92l110 51q-59 86 -150 140t-214 54q-84 0 -159 -25.5t-130 -72.5q-125 -104 -125 -256zM283 674q0 94 51 145 q43 -16 80 -21t96 -7q115 -4 182 -43q90 -55 90 -160q0 -45 -15 -85t-44 -63q-49 18 -123 25q-63 2 -145 20t-127 61.5t-45 127.5z" />
<glyph unicode="&#xa8;" horiz-adv-x="673" d="M125 1296h119v193h-119v-193zM430 1296h119v193h-119v-193z" />
<glyph unicode="&#xa9;" horiz-adv-x="1703" d="M98 727q0 -158 55.5 -293t157.5 -235q100 -100 239.5 -156.5t299.5 -56.5t300 56t241 157q102 100 158.5 236t56.5 292t-56.5 291t-158.5 235q-100 100 -240.5 155.5t-300.5 55.5t-298 -55t-241 -156q-102 -100 -157.5 -235t-55.5 -291zM170 725q0 141 51 266t144 215 q92 90 217 140.5t268 50.5q145 0 270 -50.5t219 -142.5t144.5 -215t50.5 -266q0 -145 -52 -269t-147 -214q-94 -88 -219 -137.5t-266 -49.5q-145 0 -269 50.5t-216 142.5q-94 92 -144.5 215t-50.5 264zM387 727q0 -106 39 -194.5t109 -151.5q66 -61 151.5 -95t179.5 -34 q147 0 260 82q49 35 85 77t51 78l-136 39q-35 -70 -110.5 -112.5t-157.5 -42.5q-55 0 -113.5 24.5t-105.5 67.5q-49 47 -79 113.5t-30 148.5q0 63 21.5 129t60.5 115q92 113 242 112q76 0 139 -28q84 -39 119 -119l135 43q-47 109 -151.5 168t-241.5 59q-113 0 -203 -41 t-149 -112q-55 -66 -85 -152t-30 -174z" />
<glyph unicode="&#xaa;" horiz-adv-x="888" d="M98 934q0 -94 70 -160t172 -65q88 0 164 33.5t125 99.5l2 -51q4 -33 26.5 -52.5t57.5 -21.5q8 0 57 4v106q-39 2 -39 45v293q0 139 -82 214t-225 75q-141 0 -285 -94l41 -76q127 84 234 84q92 0 143 -51t51 -139v-58q-82 37 -207 37q-131 0 -219 -61q-86 -63 -86 -162z M213 942q0 63 57.5 101t151.5 38q115 0 188 -32v-107q0 -29 -24 -53q-31 -41 -88.5 -64.5t-124.5 -23.5q-68 0 -114 41t-46 100z" />
<glyph unicode="&#xab;" horiz-adv-x="1173" d="M84 489l508 -354v121l-395 274l395 279v121l-508 -365v-76zM535 489l509 -354v121l-395 274l395 279v121l-509 -365v-76z" />
<glyph unicode="&#xac;" horiz-adv-x="1191" d="M150 618h776v-360h123v487h-899v-127z" />
<glyph unicode="&#xad;" horiz-adv-x="1167" d="M133 494h899v129h-899v-129z" />
<glyph unicode="&#xae;" horiz-adv-x="1703" d="M98 727q0 -158 56.5 -293t158.5 -235q104 -102 240.5 -157.5t298.5 -55.5q160 0 299 56t240 157q102 100 158.5 236t56.5 292t-56.5 291t-158.5 235t-240.5 155.5t-298.5 55.5q-162 0 -298 -55t-241 -156q-102 -100 -158.5 -235t-56.5 -291zM172 727q0 141 50 263 t143 214q92 92 217 142.5t270 50.5t269 -50.5t218 -142.5q92 -92 142.5 -215t50.5 -264q0 -150 -51 -273.5t-146 -213.5q-94 -88 -218 -137.5t-265 -49.5q-145 0 -270 50.5t-217 144.5q-92 92 -142.5 215t-50.5 266zM539 260h108v344h240l217 -344h119l-228 358 q92 18 151.5 97.5t59.5 179.5q0 111 -78 201q-39 43 -90 67.5t-108 24.5h-391v-928zM647 698v392h275q78 0 128 -54.5t50 -140.5q0 -88 -44 -142.5t-126 -54.5h-283z" />
<glyph unicode="&#xaf;" horiz-adv-x="811" d="M111 1358h591v96h-591v-96z" />
<glyph unicode="&#xb0;" horiz-adv-x="544" d="M102 1315q0 -74 49.5 -123t120.5 -49q72 0 121 49t49 123q0 72 -49 120t-121 48t-121 -48.5t-49 -119.5zM182 1313q0 37 27 63q24 27 63 27q41 0 65.5 -26.5t24.5 -63.5t-26.5 -63.5t-63.5 -26.5t-63.5 26.5t-26.5 63.5z" />
<glyph unicode="&#xb1;" horiz-adv-x="956" d="M147 125h662v117h-662v-117zM147 688h267v-287h129v287h266v117h-266v287h-129v-287h-267v-117z" />
<glyph unicode="&#xb2;" horiz-adv-x="794" d="M74 834h631v88h-519q0 61 54 120q61 68 186 111q63 20 106 37.5t80 44.5q102 74 103 182q0 109 -78 176.5t-221 67.5q-72 0 -133 -16q-111 -35 -168 -89l-33 -34l61 -64q31 37 95 74q74 39 165 39q100 0 154.5 -43t54.5 -109q0 -47 -26 -80q-45 -55 -158 -94l-96 -37 q-131 -49 -195 -133q-63 -88 -63 -241z" />
<glyph unicode="&#xb3;" horiz-adv-x="798" d="M72 1004q16 -84 102 -133.5t215 -49.5q142 1 232 60q98 63 98 166q0 80 -56.5 137t-152.5 71q186 39 186 181q0 98 -90 161q-94 63 -225 64q-100 0 -182 -35t-119 -94l61 -70q33 53 94.5 84t145.5 31q90 0 153.5 -41t63.5 -106q0 -66 -72.5 -101t-203.5 -35h-48v-84h48 q141 0 223 -40t82 -111q0 -66 -69 -106t-171 -40t-182 52q-35 23 -55.5 48t-22.5 50z" />
<glyph unicode="&#xb4;" horiz-adv-x="454" d="M100 1305l93 -35l176 225h-148z" />
<glyph unicode="&#xb5;" horiz-adv-x="1269" d="M168 -434h131v588q31 -82 94.5 -128t157.5 -46q125 0 242 77q115 76 165 185v-136q0 -43 29 -74.5t76 -35.5h29q6 0 38 4v123q-49 0 -49 57v887h-139v-672q-47 -129 -154 -213q-104 -80 -229 -80q-252 0 -252 363v602h-139v-1501z" />
<glyph unicode="&#xb6;" horiz-adv-x="1232" d="M70 961q0 -224 143 -355q143 -129 389 -133v-637h121v637h151v-637h123v1507h144v111h-494q-274 0 -425.5 -130t-151.5 -363zM190 965q0 176 106.5 276t305.5 102v-759q-180 10 -289 100q-123 100 -123 281zM723 584v759h151v-759h-151z" />
<glyph unicode="&#xb7;" horiz-adv-x="387" d="M133 504h121v229h-121v-229z" />
<glyph unicode="&#xb8;" horiz-adv-x="579" d="M45 -322q97 -38 203 -38q102 0 155.5 36.5t53.5 106.5q0 61 -41 93t-115 32q-49 0 -78 -12l72 114l-68 27l-116 -215q27 12 74.5 20t88.5 8q51 0 77 -17t26 -56q0 -72 -117 -72q-51 0 -99 11.5t-81 25.5z" />
<glyph unicode="&#xb9;" horiz-adv-x="557" d="M70 1456q45 0 114 39q55 31 82 61v-632h-166v-93h412v93h-154v737h-92q0 -2 -18 -21q-10 -10 -47 -38q-78 -53 -131 -54v-92z" />
<glyph unicode="&#xba;" horiz-adv-x="919" d="M90 1081q0 -74 26.5 -141.5t76.5 -118.5q51 -53 119.5 -82.5t146.5 -29.5q80 0 148.5 29.5t119.5 82.5q49 51 75.5 119t26.5 141q0 74 -27.5 142.5t-76.5 119.5q-51 51 -118.5 81t-147.5 30t-147.5 -29.5t-118.5 -81.5q-49 -51 -76 -118.5t-27 -143.5zM207 1079 q0 56 20.5 106t55.5 89q35 37 81 58.5t95 21.5q51 0 97 -20.5t81 -57.5q74 -78 74 -193q0 -57 -19.5 -107t-54.5 -87q-37 -37 -83 -58.5t-95 -21.5q-104 0 -178 78t-74 192z" />
<glyph unicode="&#xbb;" horiz-adv-x="1173" d="M129 135l510 354v76l-510 365v-121l395 -279l-395 -274v-121zM582 135l508 354v76l-508 365v-121l395 -279l-395 -274v-121z" />
<glyph unicode="&#xbc;" horiz-adv-x="1689" d="M90 1292q45 0 115 39q55 31 82 62v-633h-166v-92h411v92h-153v737h-92q0 -2 -19 -20q-10 -10 -47 -39q-78 -53 -131 -54v-92zM272 55l70 -63l559 713l572 696l-72 61l-557 -710zM940 211h467v-211h92v211h117v90h-117v516h-63l-496 -520v-86zM1038 301l371 391v-391h-371 z" />
<glyph unicode="&#xbd;" horiz-adv-x="1769" d="M92 1292q45 0 115 39q55 31 82 62v-633h-166v-92h412v92h-154v737h-92q0 -2 -19 -20q-10 -10 -47 -39q-78 -53 -131 -54v-92zM203 55l69 -63l559 713l572 696l-72 61l-557 -710zM1057 0h626v90h-507q0 66 47 121q57 70 180 113q59 20 100 36.5t80 42.5q98 70 98 181 q0 109 -74.5 176t-215.5 67q-127 0 -228 -57q-37 -23 -63.5 -45.5t-34.5 -34.5l59 -65q33 41 93 75q72 39 161 39q98 0 150.5 -43t52.5 -110q0 -47 -25 -78q-47 -59 -153 -96q-33 -10 -94 -35q-131 -51 -189 -135q-63 -88 -63 -242z" />
<glyph unicode="&#xbe;" horiz-adv-x="1714" d="M86 840q16 -84 102 -133.5t215 -49.5q142 1 232 60q98 63 98 166q0 80 -56 137t-153 72q186 39 187 180q0 98 -90 162q-94 63 -226 63q-100 0 -182 -35t-119 -94l62 -70q33 53 94 84t145 31q90 0 153.5 -41t63.5 -106q0 -66 -72.5 -101t-203.5 -35h-47v-83h47 q141 0 223 -40t82 -112q0 -66 -68.5 -105.5t-171.5 -39.5q-102 0 -182 51q-35 23 -55.5 48t-22.5 50zM340 55l70 -63l559 713l571 696l-72 61l-557 -710zM958 211h467v-211h93v211h116v90h-116v516h-64l-496 -520v-86zM1057 301l370 391v-391h-370z" />
<glyph unicode="&#xbf;" horiz-adv-x="960" d="M70 -45q0 -186 125 -295q53 -47 124.5 -71.5t149.5 -24.5q137 0 254 69q117 72 174 195l-96 61q-47 -92 -135 -150t-195 -58q-115 0 -192 67q-86 76 -86 199q0 76 30 127q53 92 164 151q55 27 90 49q92 55 133 135t41 214h-119q0 -131 -57 -205q-25 -31 -54.5 -52.5 t-74.5 -46.5q-76 -41 -116 -66.5t-74 -62.5q-86 -92 -86 -235zM528 817h121v219h-121v-219z" />
<glyph unicode="&#xc0;" d="M25 0h153l187 455h653l188 -455h152l-604 1454h-121zM395 567l297 719l293 -719h-590zM502 1878l178 -225l90 35l-123 190h-145z" />
<glyph unicode="&#xc1;" d="M25 0h153l187 455h653l188 -455h152l-604 1454h-121zM395 567l297 719l293 -719h-590zM614 1688l93 -35l176 225h-148z" />
<glyph unicode="&#xc2;" d="M25 0h153l187 455h653l188 -455h152l-604 1454h-121zM395 567l297 719l293 -719h-590zM440 1704l78 -43l174 129l174 -129l80 43l-203 174h-102z" />
<glyph unicode="&#xc3;" d="M25 0h153l187 455h653l188 -455h152l-604 1454h-121zM369 1673h86l4 21q4 16 14 32q29 45 84 46q25 0 48.5 -8.5t44 -18.5t26.5 -14q39 -20 69.5 -30.5t73.5 -10.5q58 0 98.5 23.5t65.5 60.5q18 29 27.5 58.5t9.5 45.5h-86l-2 -18q-2 -14 -17 -35q-31 -47 -98 -47 q-35 0 -62.5 10t-64.5 33q-37 20 -66.5 31.5t-68.5 11.5q-53 0 -91 -23.5t-61 -60.5q-18 -29 -26 -59.5t-8 -47.5zM395 567l297 719l293 -719h-590z" />
<glyph unicode="&#xc4;" d="M25 0h153l187 455h653l188 -455h152l-604 1454h-121zM395 567l297 719l293 -719h-590zM481 1679h119v193h-119v-193zM786 1679h119v193h-119v-193z" />
<glyph unicode="&#xc5;" d="M25 0h153l187 455h653l188 -455h152l-604 1454h-121zM395 567l297 719l293 -719h-590zM541 1745q0 -62 42 -98.5t109 -36.5q68 0 110 36.5t42 98.5q0 59 -43 96t-109 37t-108.5 -37t-42.5 -96zM610 1745q0 35 23.5 56.5t58.5 21.5q37 0 60.5 -21.5t23.5 -56.5 t-25.5 -57.5t-58.5 -22.5q-35 0 -58.5 22.5t-23.5 57.5z" />
<glyph unicode="&#xc6;" horiz-adv-x="1968" d="M-53 0h155l289 455h531v-455h964v127h-825v551h696v127h-696v522h807v127h-985zM457 582l454 700v-700h-454z" />
<glyph unicode="&#xc7;" horiz-adv-x="1398" d="M80 737q0 -135 47 -265t133 -234q88 -109 207 -174.5t256 -73.5l-90 -168q27 12 75 20t89 8q51 0 76.5 -17t25.5 -56q0 -72 -117 -72q-51 0 -99 11.5t-81 25.5l-35 -64q97 -38 203 -38q102 0 155.5 36.5t53.5 106.5q0 61 -41 93t-115 32q-49 0 -78 -12l58 94 q170 12 313 98q74 43 131.5 103.5t87.5 134.5l-118 61q-63 -129 -197 -205q-119 -66 -252 -65q-115 0 -214 49t-173 137q-76 86 -117 196.5t-41 229.5q0 113 36 220.5t103 191.5q72 90 173.5 141t226.5 51q133 0 239 -57q129 -70 193 -201l113 70q-68 145 -207 231t-330 86 q-158 0 -288 -61.5t-222 -169.5q-86 -102 -133 -231.5t-47 -262.5z" />
<glyph unicode="&#xc8;" horiz-adv-x="1247" d="M182 0h977v127h-833v555h710v121h-710v524h815v127h-959v-1454zM500 1878l178 -225l90 35l-123 190h-145z" />
<glyph unicode="&#xc9;" horiz-adv-x="1247" d="M182 0h977v127h-833v555h710v121h-710v524h815v127h-959v-1454zM610 1688l92 -35l177 225h-148z" />
<glyph unicode="&#xca;" horiz-adv-x="1247" d="M182 0h977v127h-833v555h710v121h-710v524h815v127h-959v-1454zM438 1704l78 -43l174 129l174 -129l80 43l-203 174h-102z" />
<glyph unicode="&#xcb;" horiz-adv-x="1247" d="M182 0h977v127h-833v555h710v121h-710v524h815v127h-959v-1454zM477 1679h119v193h-119v-193zM782 1679h119v193h-119v-193z" />
<glyph unicode="&#xcc;" horiz-adv-x="507" d="M63 1878l179 -225l90 35l-123 190h-146zM182 0h144v1454h-144v-1454z" />
<glyph unicode="&#xcd;" horiz-adv-x="507" d="M174 1688l92 -35l176 225h-147zM182 0h144v1454h-144v-1454z" />
<glyph unicode="&#xce;" horiz-adv-x="507" d="M2 1704l78 -43l174 129l174 -129l80 43l-203 174h-102zM182 0h144v1454h-144v-1454z" />
<glyph unicode="&#xcf;" horiz-adv-x="507" d="M41 1679h119v193h-119v-193zM182 0h144v1454h-144v-1454zM346 1679h119v193h-119v-193z" />
<glyph unicode="&#xd0;" horiz-adv-x="1476" d="M70 676h125v-676h493q158 0 286 52t222 149q92 96 140 230t48 298q0 150 -44 282t-130 230q-90 102 -222 157.5t-300 55.5h-493v-668h-125v-110zM338 127v549h348v110h-348v541h350q260 0 410 -168q70 -80 106.5 -189.5t36.5 -240.5q0 -129 -36 -238.5t-105 -189.5 q-72 -84 -175.5 -129t-236.5 -45h-350z" />
<glyph unicode="&#xd1;" horiz-adv-x="1581" d="M182 0h144v1188l948 -1188h125v1452h-144v-1208l-962 1210h-111v-1454zM473 1673h86l4 21q4 16 15 32q29 45 84 46q25 0 48 -8.5t43.5 -18.5t26.5 -14q39 -20 70 -30.5t74 -10.5q57 0 98 23.5t65 60.5q18 29 27.5 58.5t9.5 45.5h-86l-2 -18q-2 -14 -16 -35 q-31 -47 -98 -47q-35 0 -63 10t-64 33q-37 20 -67 31.5t-69 11.5q-53 0 -91 -23.5t-60 -60.5q-18 -29 -26.5 -59.5t-8.5 -47.5z" />
<glyph unicode="&#xd2;" horiz-adv-x="1538" d="M86 727q0 -139 49 -272t139 -236q94 -109 220.5 -169t273.5 -60q141 0 267 59.5t220 163.5q92 102 143.5 235.5t51.5 276.5q0 137 -49 269t-137 237q-92 109 -219 171t-275 62q-143 0 -268 -58t-219 -165q-94 -104 -145.5 -237.5t-51.5 -276.5zM229 727q0 113 38 221.5 t108 194.5q72 88 173 139t220 51q115 0 214 -48t173 -136q72 -84 112 -193.5t40 -228.5q0 -113 -38 -221.5t-108 -194.5q-72 -90 -173 -141t-220 -51t-217 49t-172 137q-72 84 -111 193.5t-39 228.5zM580 1878l178 -225l90 35l-123 190h-145z" />
<glyph unicode="&#xd3;" horiz-adv-x="1538" d="M86 727q0 -139 49 -272t139 -236q94 -109 220.5 -169t273.5 -60q141 0 267 59.5t220 163.5q92 102 143.5 235.5t51.5 276.5q0 137 -49 269t-137 237q-92 109 -219 171t-275 62q-143 0 -268 -58t-219 -165q-94 -104 -145.5 -237.5t-51.5 -276.5zM229 727q0 113 38 221.5 t108 194.5q72 88 173 139t220 51q115 0 214 -48t173 -136q72 -84 112 -193.5t40 -228.5q0 -113 -38 -221.5t-108 -194.5q-72 -90 -173 -141t-220 -51t-217 49t-172 137q-72 84 -111 193.5t-39 228.5zM690 1688l92 -35l176 225h-147z" />
<glyph unicode="&#xd4;" horiz-adv-x="1538" d="M86 727q0 -139 49 -272t139 -236q94 -109 220.5 -169t273.5 -60q141 0 267 59.5t220 163.5q92 102 143.5 235.5t51.5 276.5q0 137 -49 269t-137 237q-92 109 -219 171t-275 62q-143 0 -268 -58t-219 -165q-94 -104 -145.5 -237.5t-51.5 -276.5zM229 727q0 113 38 221.5 t108 194.5q72 88 173 139t220 51q115 0 214 -48t173 -136q72 -84 112 -193.5t40 -228.5q0 -113 -38 -221.5t-108 -194.5q-72 -90 -173 -141t-220 -51t-217 49t-172 137q-72 84 -111 193.5t-39 228.5zM518 1704l78 -43l174 129l174 -129l80 43l-203 174h-102z" />
<glyph unicode="&#xd5;" horiz-adv-x="1538" d="M86 727q0 -139 49 -272t139 -236q94 -109 220.5 -169t273.5 -60q141 0 267 59.5t220 163.5q92 102 143.5 235.5t51.5 276.5q0 137 -49 269t-137 237q-92 109 -219 171t-275 62q-143 0 -268 -58t-219 -165q-94 -104 -145.5 -237.5t-51.5 -276.5zM229 727q0 113 38 221.5 t108 194.5q72 88 173 139t220 51q115 0 214 -48t173 -136q72 -84 112 -193.5t40 -228.5q0 -113 -38 -221.5t-108 -194.5q-72 -90 -173 -141t-220 -51t-217 49t-172 137q-72 84 -111 193.5t-39 228.5zM446 1673h86l5 21q4 16 14 32q29 45 84 46q25 0 48.5 -8.5t44 -18.5 t26.5 -14q39 -20 69.5 -30.5t73.5 -10.5q57 0 98 23.5t66 60.5q18 29 27.5 58.5t9.5 45.5h-86l-2 -18q-2 -14 -17 -35q-31 -47 -98 -47q-35 0 -62.5 10t-64.5 33q-37 20 -66.5 31.5t-68.5 11.5q-53 0 -91 -23.5t-61 -60.5q-18 -29 -26.5 -59.5t-8.5 -47.5z" />
<glyph unicode="&#xd6;" horiz-adv-x="1538" d="M86 727q0 -139 49 -272t139 -236q94 -109 220.5 -169t273.5 -60q141 0 267 59.5t220 163.5q92 102 143.5 235.5t51.5 276.5q0 137 -49 269t-137 237q-92 109 -219 171t-275 62q-143 0 -268 -58t-219 -165q-94 -104 -145.5 -237.5t-51.5 -276.5zM229 727q0 113 38 221.5 t108 194.5q72 88 173 139t220 51q115 0 214 -48t173 -136q72 -84 112 -193.5t40 -228.5q0 -113 -38 -221.5t-108 -194.5q-72 -90 -173 -141t-220 -51t-217 49t-172 137q-72 84 -111 193.5t-39 228.5zM559 1679h119v193h-119v-193zM864 1679h119v193h-119v-193z" />
<glyph unicode="&#xd7;" horiz-adv-x="935" d="M131 311l88 -90l248 248l250 -248l90 88l-250 248l246 248l-88 90l-248 -248l-244 246l-90 -88l246 -248z" />
<glyph unicode="&#xd8;" horiz-adv-x="1538" d="M86 727q0 -158 61.5 -304.5t171.5 -252.5l-112 -170h158l59 90q156 -100 344 -100q141 0 267 59.5t220 163.5q92 102 143.5 235.5t51.5 276.5q0 154 -62.5 300t-173.5 255l117 174h-157l-62 -92q-158 102 -342 102q-143 0 -268 -58t-219 -165q-94 -104 -145.5 -237.5 t-51.5 -276.5zM229 727q0 113 38 221.5t108 194.5q72 88 173 139t220 51q143 0 270 -82l-643 -966q-80 86 -123 200.5t-43 241.5zM496 199l643 966q80 -88 124 -201.5t44 -236.5q0 -113 -38 -221.5t-108 -194.5q-72 -90 -173 -141t-220 -51q-152 0 -272 80z" />
<glyph unicode="&#xd9;" horiz-adv-x="1546" d="M162 721q0 -313 133 -504q160 -227 479 -227q313 0 475 219q137 190 137 512v733h-143v-733q0 -260 -96 -412q-123 -190 -375 -190q-250 0 -369 186q-100 154 -100 416v733h-141v-733zM584 1878l178 -225l90 35l-123 190h-145z" />
<glyph unicode="&#xda;" horiz-adv-x="1546" d="M162 721q0 -313 133 -504q160 -227 479 -227q313 0 475 219q137 190 137 512v733h-143v-733q0 -260 -96 -412q-123 -190 -375 -190q-250 0 -369 186q-100 154 -100 416v733h-141v-733zM696 1688l92 -35l177 225h-148z" />
<glyph unicode="&#xdb;" horiz-adv-x="1546" d="M162 721q0 -313 133 -504q160 -227 479 -227q313 0 475 219q137 190 137 512v733h-143v-733q0 -260 -96 -412q-123 -190 -375 -190q-250 0 -369 186q-100 154 -100 416v733h-141v-733zM522 1704l78 -43l174 129l174 -129l80 43l-203 174h-102z" />
<glyph unicode="&#xdc;" horiz-adv-x="1546" d="M162 721q0 -313 133 -504q160 -227 479 -227q313 0 475 219q137 190 137 512v733h-143v-733q0 -260 -96 -412q-123 -190 -375 -190q-250 0 -369 186q-100 154 -100 416v733h-141v-733zM563 1679h119v193h-119v-193zM868 1679h119v193h-119v-193z" />
<glyph unicode="&#xdd;" horiz-adv-x="1333" d="M33 1454l561 -909v-545h143v541l563 913h-155l-479 -782l-476 782h-157zM586 1688l92 -35l176 225h-147z" />
<glyph unicode="&#xde;" horiz-adv-x="1234" d="M182 0h144v248h434q90 0 168 38t135 103q55 63 85 146t30 174q0 84 -32 165.5t-89 147.5q-59 66 -139 104.5t-173 38.5h-419v289h-144v-1454zM326 377v661h415q59 0 113.5 -26.5t95.5 -71.5t63.5 -105.5t22.5 -125.5q0 -63 -19.5 -124t-55.5 -106q-82 -102 -207 -102 h-428z" />
<glyph unicode="&#xdf;" horiz-adv-x="1128" d="M154 0h133v1034q0 129 69 217q72 88 203 88q113 0 178 -57q74 -63 74 -168q0 -104 -68.5 -168.5t-179.5 -64.5h-37v-127h39q74 0 138.5 -23.5t109.5 -64.5q94 -90 94 -234q0 -154 -111.5 -233.5t-308.5 -81.5v-129q263 9 408 118q156 117 156 318q0 152 -85 260.5 t-237 140.5q88 20 152 111q63 90 63 199q0 72 -28.5 132t-79.5 103t-122 67.5t-151 24.5q-180 0 -293 -112q-117 -117 -116 -295v-1055z" />
<glyph unicode="&#xe0;" horiz-adv-x="1116" d="M68 311q0 -70 26.5 -130t75.5 -105t113.5 -70.5t138.5 -25.5q131 0 241.5 51t184.5 147l4 -84q2 -47 31.5 -73.5t83.5 -26.5q20 0 53 6v123q-51 0 -51 57v482q0 199 -115 311t-315 112q-195 0 -402 -139l49 -92q180 127 342 127q141 0 221 -83t80 -224v-96 q-66 27 -149.5 41t-165.5 14q-197 0 -321 -90q-59 -43 -92 -102.5t-33 -129.5zM201 322q0 100 92 161.5t239 61.5q152 0 297 -56v-174q0 -43 -36 -79q-47 -68 -138.5 -109t-199.5 -41q-107 0 -181 70q-35 31 -54 73.5t-19 92.5zM348 1495l178 -225l90 35l-122 190h-146z" />
<glyph unicode="&#xe1;" horiz-adv-x="1116" d="M68 311q0 -70 26.5 -130t75.5 -105t113.5 -70.5t138.5 -25.5q131 0 241.5 51t184.5 147l4 -84q2 -47 31.5 -73.5t83.5 -26.5q20 0 53 6v123q-51 0 -51 57v482q0 199 -115 311t-315 112q-195 0 -402 -139l49 -92q180 127 342 127q141 0 221 -83t80 -224v-96 q-66 27 -149.5 41t-165.5 14q-197 0 -321 -90q-59 -43 -92 -102.5t-33 -129.5zM201 322q0 100 92 161.5t239 61.5q152 0 297 -56v-174q0 -43 -36 -79q-47 -68 -138.5 -109t-199.5 -41q-107 0 -181 70q-35 31 -54 73.5t-19 92.5zM461 1305l92 -35l176 225h-147z" />
<glyph unicode="&#xe2;" horiz-adv-x="1116" d="M68 311q0 -70 26.5 -130t75.5 -105t113.5 -70.5t138.5 -25.5q131 0 241.5 51t184.5 147l4 -84q2 -47 31.5 -73.5t83.5 -26.5q20 0 53 6v123q-51 0 -51 57v482q0 199 -115 311t-315 112q-195 0 -402 -139l49 -92q180 127 342 127q141 0 221 -83t80 -224v-96 q-66 27 -149.5 41t-165.5 14q-197 0 -321 -90q-59 -43 -92 -102.5t-33 -129.5zM201 322q0 100 92 161.5t239 61.5q152 0 297 -56v-174q0 -43 -36 -79q-47 -68 -138.5 -109t-199.5 -41q-107 0 -181 70q-35 31 -54 73.5t-19 92.5zM287 1321l78 -43l174 129l174 -129l80 43 l-203 174h-103z" />
<glyph unicode="&#xe3;" horiz-adv-x="1116" d="M68 311q0 -70 26.5 -130t75.5 -105t113.5 -70.5t138.5 -25.5q131 0 241.5 51t184.5 147l4 -84q2 -47 31.5 -73.5t83.5 -26.5q20 0 53 6v123q-51 0 -51 57v482q0 199 -115 311t-315 112q-195 0 -402 -139l49 -92q180 127 342 127q141 0 221 -83t80 -224v-96 q-66 27 -149.5 41t-165.5 14q-197 0 -321 -90q-59 -43 -92 -102.5t-33 -129.5zM201 322q0 100 92 161.5t239 61.5q152 0 297 -56v-174q0 -43 -36 -79q-47 -68 -138.5 -109t-199.5 -41q-107 0 -181 70q-35 31 -54 73.5t-19 92.5zM215 1290h86l4 21q4 16 14 32q29 45 84 46 q25 0 48.5 -8.5t44 -18.5t26.5 -14q39 -20 70 -30.5t74 -10.5q57 0 98 23.5t65 60.5q18 29 27.5 58.5t9.5 45.5h-86l-2 -18q-2 -14 -16 -35q-31 -47 -98 -47q-35 0 -63 10t-64 33q-37 20 -67 31.5t-69 11.5q-53 0 -91 -23.5t-60 -60.5q-18 -29 -26.5 -59.5t-8.5 -47.5z" />
<glyph unicode="&#xe4;" horiz-adv-x="1116" d="M68 311q0 -70 26.5 -130t75.5 -105t113.5 -70.5t138.5 -25.5q131 0 241.5 51t184.5 147l4 -84q2 -47 31.5 -73.5t83.5 -26.5q20 0 53 6v123q-51 0 -51 57v482q0 199 -115 311t-315 112q-195 0 -402 -139l49 -92q180 127 342 127q141 0 221 -83t80 -224v-96 q-66 27 -149.5 41t-165.5 14q-197 0 -321 -90q-59 -43 -92 -102.5t-33 -129.5zM201 322q0 100 92 161.5t239 61.5q152 0 297 -56v-174q0 -43 -36 -79q-47 -68 -138.5 -109t-199.5 -41q-107 0 -181 70q-35 31 -54 73.5t-19 92.5zM328 1296h118v193h-118v-193zM633 1296h119 v193h-119v-193z" />
<glyph unicode="&#xe5;" horiz-adv-x="1116" d="M68 311q0 -70 26.5 -130t75.5 -105t113.5 -70.5t138.5 -25.5q131 0 241.5 51t184.5 147l4 -84q2 -47 31.5 -73.5t83.5 -26.5q20 0 53 6v123q-51 0 -51 57v482q0 199 -115 311t-315 112q-195 0 -402 -139l49 -92q180 127 342 127q141 0 221 -83t80 -224v-96 q-66 27 -149.5 41t-165.5 14q-197 0 -321 -90q-59 -43 -92 -102.5t-33 -129.5zM201 322q0 100 92 161.5t239 61.5q152 0 297 -56v-174q0 -43 -36 -79q-47 -68 -138.5 -109t-199.5 -41q-107 0 -181 70q-35 31 -54 73.5t-19 92.5zM387 1362q0 -62 42 -98.5t110 -36.5 t109.5 36.5t41.5 98.5q0 59 -42 96t-109 37q-68 0 -110 -37t-42 -96zM457 1362q0 35 23.5 56.5t58.5 21.5q36 0 60 -21.5t24 -56.5t-26 -57.5t-58 -22.5q-35 0 -58.5 22.5t-23.5 57.5z" />
<glyph unicode="&#xe6;" horiz-adv-x="1908" d="M68 311q0 -70 26.5 -130t75.5 -105t113.5 -70.5t136.5 -25.5q139 0 258 55q135 63 203 180q74 -109 188.5 -172t251.5 -63q154 0 281 75q127 74 174 191l-123 33q-37 -86 -129 -140q-92 -53 -197 -53q-80 0 -151.5 29.5t-126.5 83.5q-57 55 -91 127.5t-40 156.5h927l2 25 v24q0 111 -39 213.5t-110 178.5q-74 76 -172.5 118.5t-210.5 42.5q-127 0 -233.5 -57t-174.5 -156q-47 104 -141 158.5t-227 54.5q-190 0 -404 -139l49 -92q186 127 342 127q123 0 199 -61.5t96 -171.5q-14 -31 -21 -66t-14 -90q-133 41 -274 41q-197 0 -319 -90 q-59 -43 -92 -103.5t-33 -128.5zM199 322q0 100 92 161.5t239 61.5q129 0 256 -41q2 -51 13.5 -104.5t29.5 -92.5q-4 -35 -36 -71q-47 -68 -139.5 -109t-200.5 -41q-105 0 -181 70q-35 31 -54 73.5t-19 92.5zM918 578q4 86 35.5 159.5t84.5 126.5q113 113 275 113t274 -113 q115 -115 127 -286h-796z" />
<glyph unicode="&#xe7;" horiz-adv-x="1124" d="M80 537q0 -109 36 -206.5t103 -172.5q68 -78 158 -123t196 -53l-86 -160q27 12 75 20t89 8q51 0 77 -17t26 -56q0 -72 -117 -72q-51 0 -99.5 11.5t-80.5 25.5l-35 -64q97 -38 203 -38q102 0 155.5 36.5t53.5 106.5q0 61 -41 93t-115 32q-49 0 -78 -12l53 86 q141 10 252 80.5t154 181.5l-137 41q-25 -74 -117 -127q-90 -55 -195 -56q-78 0 -148.5 34t-125.5 93t-85 138t-30 170q0 90 30 168.5t83 136.5q53 57 123.5 89t150.5 32q98 0 179 -46.5t126 -128.5l136 43q-57 119 -171 186.5t-264 67.5q-115 0 -214 -42t-171 -117 q-72 -76 -110.5 -177.5t-38.5 -211.5z" />
<glyph unicode="&#xe8;" horiz-adv-x="1202" d="M80 537q0 -115 39 -214.5t112 -177.5q74 -80 171.5 -122.5t211.5 -42.5q158 -1 281 75q127 74 174 191l-121 33q-37 -86 -131 -140q-92 -53 -196 -53q-156 0 -269 113q-115 115 -127 284h914q2 4 2 23v33q0 109 -39 208t-109 175q-72 78 -169 120.5t-212 42.5 q-113 0 -210 -43t-171 -118q-72 -76 -111.5 -176.5t-39.5 -210.5zM223 590q6 84 38 155.5t85 122.5t122 80t146 29q78 0 146.5 -28.5t122.5 -80.5q53 -51 85.5 -122.5t39.5 -155.5h-785zM418 1495l178 -225l90 35l-123 190h-145z" />
<glyph unicode="&#xe9;" horiz-adv-x="1202" d="M80 537q0 -115 39 -214.5t112 -177.5q74 -80 171.5 -122.5t211.5 -42.5q158 -1 281 75q127 74 174 191l-121 33q-37 -86 -131 -140q-92 -53 -196 -53q-156 0 -269 113q-115 115 -127 284h914q2 4 2 23v33q0 109 -39 208t-109 175q-72 78 -169 120.5t-212 42.5 q-113 0 -210 -43t-171 -118q-72 -76 -111.5 -176.5t-39.5 -210.5zM223 590q6 84 38 155.5t85 122.5t122 80t146 29q78 0 146.5 -28.5t122.5 -80.5q53 -51 85.5 -122.5t39.5 -155.5h-785zM528 1305l93 -35l176 225h-148z" />
<glyph unicode="&#xea;" horiz-adv-x="1202" d="M80 537q0 -115 39 -214.5t112 -177.5q74 -80 171.5 -122.5t211.5 -42.5q158 -1 281 75q127 74 174 191l-121 33q-37 -86 -131 -140q-92 -53 -196 -53q-156 0 -269 113q-115 115 -127 284h914q2 4 2 23v33q0 109 -39 208t-109 175q-72 78 -169 120.5t-212 42.5 q-113 0 -210 -43t-171 -118q-72 -76 -111.5 -176.5t-39.5 -210.5zM223 590q6 84 38 155.5t85 122.5t122 80t146 29q78 0 146.5 -28.5t122.5 -80.5q53 -51 85.5 -122.5t39.5 -155.5h-785zM356 1321l78 -43l174 129l174 -129l80 43l-203 174h-102z" />
<glyph unicode="&#xeb;" horiz-adv-x="1202" d="M80 537q0 -115 39 -214.5t112 -177.5q74 -80 171.5 -122.5t211.5 -42.5q158 -1 281 75q127 74 174 191l-121 33q-37 -86 -131 -140q-92 -53 -196 -53q-156 0 -269 113q-115 115 -127 284h914q2 4 2 23v33q0 109 -39 208t-109 175q-72 78 -169 120.5t-212 42.5 q-113 0 -210 -43t-171 -118q-72 -76 -111.5 -176.5t-39.5 -210.5zM223 590q6 84 38 155.5t85 122.5t122 80t146 29q78 0 146.5 -28.5t122.5 -80.5q53 -51 85.5 -122.5t39.5 -155.5h-785zM395 1296h119v193h-119v-193zM700 1296h119v193h-119v-193z" />
<glyph unicode="&#xec;" horiz-adv-x="446" d="M33 1495l178 -225l90 35l-123 190h-145zM154 0h139v1067h-139v-1067z" />
<glyph unicode="&#xed;" horiz-adv-x="446" d="M143 1305l93 -35l176 225h-148zM154 0h139v1067h-139v-1067z" />
<glyph unicode="&#xee;" horiz-adv-x="446" d="M-29 1321l78 -43l174 129l174 -129l80 43l-203 174h-102zM154 0h139v1067h-139v-1067z" />
<glyph unicode="&#xef;" horiz-adv-x="446" d="M10 1296h119v193h-119v-193zM154 0h139v1067h-139v-1067zM315 1296h119v193h-119v-193z" />
<glyph unicode="&#xf0;" horiz-adv-x="1232" d="M86 477q0 -102 41 -192t113 -160t167 -107.5t199 -37.5q111 0 208 41.5t171 119.5q160 170 160 426q0 193 -62 363q-76 205 -237 364l168 105l-45 61l-178 -112q-94 82 -205 147h-197q178 -100 293 -201l-217 -133l45 -63l229 143q121 -119 181.5 -244t83.5 -266 q-55 109 -168 174.5t-248 65.5q-102 0 -193.5 -38t-161.5 -108t-108.5 -160t-38.5 -188zM227 475q0 76 31 146.5t84 121.5t125 81t149 30q80 0 151 -27.5t124 -76.5t83 -116t30 -140q0 -78 -30 -149t-85 -126t-127 -86t-152 -31q-78 0 -147.5 29t-122.5 80t-83 119.5 t-30 144.5z" />
<glyph unicode="&#xf1;" horiz-adv-x="1193" d="M154 0h139v653q35 125 153 219q53 41 114 63.5t122 22.5q117 0 173 -87t56 -275v-596h140v625q0 223 -70 336q-78 125 -248 124q-141 0 -263 -70.5t-189 -189.5v242h-127v-1067zM283 1290h86l4 21q4 16 14 32q29 45 84 46q25 0 48.5 -8.5t44 -18.5t26.5 -14 q39 -20 69.5 -30.5t73.5 -10.5q58 0 98.5 23.5t65.5 60.5q18 29 27.5 58.5t9.5 45.5h-86l-2 -18q-2 -14 -17 -35q-31 -47 -98 -47q-35 0 -62.5 10t-64.5 33q-37 20 -66.5 31.5t-68.5 11.5q-53 0 -91 -23.5t-61 -60.5q-18 -29 -26 -59.5t-8 -47.5z" />
<glyph unicode="&#xf2;" horiz-adv-x="1218" d="M80 530q0 -111 39 -211t110 -176q74 -78 170.5 -120.5t208.5 -42.5q115 0 213.5 43t169.5 120q72 76 110 176.5t38 210.5q0 111 -39 212.5t-111 177.5q-74 78 -171 121.5t-210 43.5t-208 -44t-169 -121q-72 -76 -111.5 -177.5t-39.5 -212.5zM221 528q0 88 30 167t85 141 q55 61 124.5 94t147.5 33t148.5 -33t126.5 -92q53 -59 83.5 -139.5t30.5 -166.5q0 -178 -114 -303q-55 -59 -126 -93t-149 -34t-148.5 33t-123.5 92q-115 129 -115 301zM420 1495l178 -225l90 35l-123 190h-145z" />
<glyph unicode="&#xf3;" horiz-adv-x="1218" d="M80 530q0 -111 39 -211t110 -176q74 -78 170.5 -120.5t208.5 -42.5q115 0 213.5 43t169.5 120q72 76 110 176.5t38 210.5q0 111 -39 212.5t-111 177.5q-74 78 -171 121.5t-210 43.5t-208 -44t-169 -121q-72 -76 -111.5 -177.5t-39.5 -212.5zM221 528q0 88 30 167t85 141 q55 61 124.5 94t147.5 33t148.5 -33t126.5 -92q53 -59 83.5 -139.5t30.5 -166.5q0 -178 -114 -303q-55 -59 -126 -93t-149 -34t-148.5 33t-123.5 92q-115 129 -115 301zM528 1305l93 -35l176 225h-148z" />
<glyph unicode="&#xf4;" horiz-adv-x="1218" d="M80 530q0 -111 39 -211t110 -176q74 -78 170.5 -120.5t208.5 -42.5q115 0 213.5 43t169.5 120q72 76 110 176.5t38 210.5q0 111 -39 212.5t-111 177.5q-74 78 -171 121.5t-210 43.5t-208 -44t-169 -121q-72 -76 -111.5 -177.5t-39.5 -212.5zM221 528q0 88 30 167t85 141 q55 61 124.5 94t147.5 33t148.5 -33t126.5 -92q53 -59 83.5 -139.5t30.5 -166.5q0 -178 -114 -303q-55 -59 -126 -93t-149 -34t-148.5 33t-123.5 92q-115 129 -115 301zM356 1321l78 -43l174 129l174 -129l80 43l-203 174h-102z" />
<glyph unicode="&#xf5;" horiz-adv-x="1218" d="M80 530q0 -111 39 -211t110 -176q74 -78 170.5 -120.5t208.5 -42.5q115 0 213.5 43t169.5 120q72 76 110 176.5t38 210.5q0 111 -39 212.5t-111 177.5q-74 78 -171 121.5t-210 43.5t-208 -44t-169 -121q-72 -76 -111.5 -177.5t-39.5 -212.5zM221 528q0 88 30 167t85 141 q55 61 124.5 94t147.5 33t148.5 -33t126.5 -92q53 -59 83.5 -139.5t30.5 -166.5q0 -178 -114 -303q-55 -59 -126 -93t-149 -34t-148.5 33t-123.5 92q-115 129 -115 301zM287 1290h86l4 21q4 16 14 32q29 45 84 46q25 0 48.5 -8.5t44 -18.5t26.5 -14q39 -20 69.5 -30.5 t73.5 -10.5q58 0 99 23.5t65 60.5q18 29 27.5 58.5t9.5 45.5h-86l-2 -18q-2 -14 -16 -35q-31 -47 -99 -47q-35 0 -62.5 10t-64.5 33q-37 20 -66.5 31.5t-68.5 11.5q-53 0 -91 -23.5t-60 -60.5q-18 -29 -26.5 -59.5t-8.5 -47.5z" />
<glyph unicode="&#xf6;" horiz-adv-x="1218" d="M80 530q0 -111 39 -211t110 -176q74 -78 170.5 -120.5t208.5 -42.5q115 0 213.5 43t169.5 120q72 76 110 176.5t38 210.5q0 111 -39 212.5t-111 177.5q-74 78 -171 121.5t-210 43.5t-208 -44t-169 -121q-72 -76 -111.5 -177.5t-39.5 -212.5zM221 528q0 88 30 167t85 141 q55 61 124.5 94t147.5 33t148.5 -33t126.5 -92q53 -59 83.5 -139.5t30.5 -166.5q0 -178 -114 -303q-55 -59 -126 -93t-149 -34t-148.5 33t-123.5 92q-115 129 -115 301zM397 1296h119v193h-119v-193zM702 1296h119v193h-119v-193z" />
<glyph unicode="&#xf7;" horiz-adv-x="1099" d="M137 520h826v117h-826v-117zM489 152h121v184h-121v-184zM489 817h121v187h-121v-187z" />
<glyph unicode="&#xf8;" horiz-adv-x="1218" d="M80 530q0 -129 49 -238.5t141 -189.5l-80 -104h95l45 59q127 -78 278 -77q115 0 213.5 43t169.5 120q72 76 110 176.5t38 210.5q0 129 -51.5 240t-143.5 191l84 110h-96l-47 -65q-125 80 -277 79q-113 0 -208 -44t-169 -121q-72 -76 -111.5 -177.5t-39.5 -212.5zM221 528 q0 88 30 167t85 141q55 61 124.5 94t147.5 33q111 0 201 -64l-459 -690q-129 129 -129 319zM408 164l458 688q61 -61 96 -143t35 -177q0 -178 -114 -303q-55 -59 -126 -93t-149 -34q-112 1 -200 62z" />
<glyph unicode="&#xf9;" horiz-adv-x="1216" d="M143 440q0 -461 344 -460q138 0 257.5 69.5t187.5 192.5v-123q0 -55 30.5 -88t79.5 -35h23q6 0 39 4v123q-49 0 -49 57v887h-140v-672q-47 -129 -153 -213q-104 -80 -232 -80q-248 0 -247 363v602h-140v-627zM406 1495l178 -225l90 35l-123 190h-145z" />
<glyph unicode="&#xfa;" horiz-adv-x="1216" d="M143 440q0 -461 344 -460q138 0 257.5 69.5t187.5 192.5v-123q0 -55 30.5 -88t79.5 -35h23q6 0 39 4v123q-49 0 -49 57v887h-140v-672q-47 -129 -153 -213q-104 -80 -232 -80q-248 0 -247 363v602h-140v-627zM516 1305l92 -35l176 225h-147z" />
<glyph unicode="&#xfb;" horiz-adv-x="1216" d="M143 440q0 -461 344 -460q138 0 257.5 69.5t187.5 192.5v-123q0 -55 30.5 -88t79.5 -35h23q6 0 39 4v123q-49 0 -49 57v887h-140v-672q-47 -129 -153 -213q-104 -80 -232 -80q-248 0 -247 363v602h-140v-627zM342 1321l78 -43l174 129l174 -129l80 43l-203 174h-102z" />
<glyph unicode="&#xfc;" horiz-adv-x="1216" d="M143 440q0 -461 344 -460q138 0 257.5 69.5t187.5 192.5v-123q0 -55 30.5 -88t79.5 -35h23q6 0 39 4v123q-49 0 -49 57v887h-140v-672q-47 -129 -153 -213q-104 -80 -232 -80q-248 0 -247 363v602h-140v-627zM383 1296h119v193h-119v-193zM688 1296h119v193h-119v-193z " />
<glyph unicode="&#xfd;" horiz-adv-x="1110" d="M31 1067l465 -1067q-53 -129 -72 -176q-35 -80 -47 -100q-18 -35 -40 -45.5t-61 -10.5q-16 0 -61 4v-123q35 -6 84 -6q84 0 138.5 41t78.5 107l553 1376h-133l-367 -938l-395 938h-143zM492 1305l92 -35l176 225h-148z" />
<glyph unicode="&#xfe;" horiz-adv-x="1234" d="M154 -436h141v588q51 -80 141 -132.5t197 -52.5q106 0 201.5 45t169.5 125q72 78 111.5 179.5t41.5 209.5q0 101 -35 202t-100 181q-70 84 -164 132.5t-207 48.5q-119 0 -204 -53.5t-152 -147.5v565h-141v-1890zM295 352v361q53 104 139 174q92 76 211 76q80 0 148.5 -35 t119.5 -97q47 -61 74 -140t27 -163q0 -82 -29 -159.5t-78 -139.5q-53 -61 -123.5 -97t-152.5 -36q-53 0 -112.5 21.5t-108.5 56.5q-51 37 -83 84t-32 94z" />
<glyph unicode="&#xff;" horiz-adv-x="1110" d="M31 1067l465 -1067q-53 -129 -72 -176q-35 -80 -47 -100q-18 -35 -40 -45.5t-61 -10.5q-16 0 -61 4v-123q35 -6 84 -6q84 0 138.5 41t78.5 107l553 1376h-133l-367 -938l-395 938h-143zM358 1296h119v193h-119v-193zM664 1296h118v193h-118v-193z" />
<glyph unicode="&#x152;" horiz-adv-x="2361" d="M86 727q0 -139 50 -272t140 -236q94 -109 220.5 -169t273.5 -60q180 0 328 108q139 102 213 271v-369h966v127h-823v551h694v127h-694v522h805v127h-948v-369q-78 172 -209 269q-152 111 -332 110q-143 0 -268 -58t-219 -165q-94 -104 -145.5 -237.5t-51.5 -276.5z M229 727q0 113 38 222.5t108 195.5q72 88 173 139t220 51q115 0 214 -48t173 -136q72 -86 112 -195.5t40 -226.5q0 -115 -38 -224.5t-108 -195.5q-72 -88 -173 -139t-220 -51t-217 49t-172 137q-72 84 -111 193.5t-39 228.5z" />
<glyph unicode="&#x153;" horiz-adv-x="2117" d="M80 528q0 -113 41 -213t112 -176q72 -76 168.5 -117.5t204.5 -41.5q152 0 273.5 88t189.5 245q66 -152 197 -241q127 -92 280 -92q147 0 277 73q127 76 178 193l-119 33q-35 -88 -125 -140q-96 -53 -205 -53q-78 0 -150.5 29.5t-127.5 85.5q-57 55 -91 127.5t-40 154.5 h913q0 133 -39 244t-108 193q-70 80 -167 122.5t-214 42.5q-164 0 -285 -89t-178 -248q-55 156 -177 246.5t-278 90.5q-111 0 -207 -42t-170 -117q-74 -76 -113.5 -179.5t-39.5 -218.5zM221 526q0 88 31 168t84 142q53 59 123.5 93t150.5 34t150.5 -33t124.5 -92 q53 -59 82.5 -139.5t29.5 -168.5t-29.5 -165.5t-82.5 -137.5q-53 -59 -125 -92t-152 -33q-78 0 -148.5 33t-123.5 90t-84 135t-31 166zM1141 578q4 84 35.5 157.5t83.5 128.5q106 113 266 113q78 0 146.5 -28.5t123.5 -84.5q113 -113 125 -286h-780z" />
<glyph unicode="&#x178;" horiz-adv-x="1333" d="M33 1454l561 -909v-545h143v541l563 913h-155l-479 -782l-476 782h-157zM453 1679h118v193h-118v-193zM758 1679h119v193h-119v-193z" />
<glyph unicode="&#x2c6;" horiz-adv-x="675" d="M86 1321l78 -43l174 129l174 -129l80 43l-203 174h-102z" />
<glyph unicode="&#x2dc;" horiz-adv-x="831" d="M90 1290h86l4 21q4 16 15 32q29 45 84 46q25 0 48 -8.5t43.5 -18.5t26.5 -14q39 -20 70 -30.5t74 -10.5q57 0 98 23.5t66 60.5q18 29 27 58.5t9 45.5h-86l-2 -18q-2 -14 -16 -35q-31 -47 -98 -47q-35 0 -62.5 10t-64.5 33q-37 20 -67 31.5t-69 11.5q-53 0 -91 -23.5 t-60 -60.5q-18 -29 -26.5 -59.5t-8.5 -47.5z" />
<glyph unicode="&#x2000;" horiz-adv-x="939" />
<glyph unicode="&#x2001;" horiz-adv-x="1878" />
<glyph unicode="&#x2002;" horiz-adv-x="939" />
<glyph unicode="&#x2003;" horiz-adv-x="1878" />
<glyph unicode="&#x2004;" horiz-adv-x="626" />
<glyph unicode="&#x2005;" horiz-adv-x="469" />
<glyph unicode="&#x2006;" horiz-adv-x="313" />
<glyph unicode="&#x2007;" horiz-adv-x="313" />
<glyph unicode="&#x2008;" horiz-adv-x="234" />
<glyph unicode="&#x2009;" horiz-adv-x="375" />
<glyph unicode="&#x200a;" horiz-adv-x="104" />
<glyph unicode="&#x2010;" horiz-adv-x="864" d="M133 494h598v129h-598v-129z" />
<glyph unicode="&#x2011;" horiz-adv-x="864" d="M133 494h598v129h-598v-129z" />
<glyph unicode="&#x2012;" horiz-adv-x="864" d="M133 494h598v129h-598v-129z" />
<glyph unicode="&#x2013;" horiz-adv-x="1167" d="M133 494h899v129h-899v-129z" />
<glyph unicode="&#x2014;" horiz-adv-x="1845" d="M133 494h1579v129h-1579v-129z" />
<glyph unicode="&#x2018;" horiz-adv-x="401" d="M131 1067h137v211h-49l35 217h-72l-51 -217v-211z" />
<glyph unicode="&#x2019;" horiz-adv-x="389" d="M131 1284h49l-35 -217h72l51 217v211h-137v-211z" />
<glyph unicode="&#x201a;" horiz-adv-x="460" d="M164 0h47l-35 -213h72l51 213v209h-135v-209z" />
<glyph unicode="&#x201c;" horiz-adv-x="647" d="M131 1067h137v211h-49l35 217h-72l-51 -217v-211zM379 1067h137v211h-49l35 217h-72l-51 -217v-211z" />
<glyph unicode="&#x201d;" horiz-adv-x="636" d="M131 1284h49l-35 -217h72l51 217v211h-137v-211zM379 1284h49l-35 -217h72l51 217v211h-137v-211z" />
<glyph unicode="&#x201e;" horiz-adv-x="702" d="M164 0h47l-35 -213h72l51 213v209h-135v-209zM406 0h47l-35 -213h71l52 213v209h-135v-209z" />
<glyph unicode="&#x2022;" horiz-adv-x="718" d="M176 709q0 -78 54.5 -131.5t129.5 -53.5q76 0 129.5 53.5t53.5 131.5q-1 72 -54 129q-25 25 -58.5 39t-70.5 14t-70.5 -14.5t-58.5 -38.5q-55 -55 -55 -129z" />
<glyph unicode="&#x2026;" horiz-adv-x="935" d="M133 0h121v201h-121v-201zM410 0h116v201h-116v-201zM684 0h119v201h-119v-201z" />
<glyph unicode="&#x202f;" horiz-adv-x="375" />
<glyph unicode="&#x2039;" horiz-adv-x="720" d="M84 489l508 -354v121l-395 274l395 279v121l-508 -365v-76z" />
<glyph unicode="&#x203a;" horiz-adv-x="720" d="M129 135l510 354v76l-510 365v-121l395 -279l-395 -274v-121z" />
<glyph unicode="&#x205f;" horiz-adv-x="469" />
<glyph unicode="&#x20ac;" horiz-adv-x="1640" d="M68 549h233q29 -115 89.5 -215.5t144.5 -175.5q88 -80 195.5 -125t227.5 -45q176 0 336 88q172 94 240 250l-119 61q-63 -129 -196 -205q-119 -66 -252 -65q-182 0 -328 125q-143 125 -193 307h566l39 88h-623q-6 47 -6 92v35h665l37 88h-692q16 96 60.5 183t109.5 153 q145 145 359 145q133 0 239 -57q129 -70 193 -201l112 70q-68 145 -207 231t-329 86q-143 0 -261 -49t-208 -139q-86 -84 -140.5 -193.5t-72.5 -228.5h-123l-37 -88h152v-27q0 -51 6 -100h-181z" />
<glyph unicode="&#x2122;" horiz-adv-x="1488" d="M127 1360h195v-492h98v492h194v98h-487v-98zM709 868h98v445l172 -359h82l172 359v-445h98v586h-137l-176 -383l-174 383h-135v-586z" />
<glyph unicode="&#x25fc;" horiz-adv-x="1064" d="M0 0v1065h1065v-1065h-1065z" />
</font>
</defs>
</svg>
