<?xml version="1.0" standalone="no"?>
<!DOCTYPE svg PUBLIC "-//W3C//DTD SVG 1.1//EN" "http://www.w3.org/Graphics/SVG/1.1/DTD/svg11.dtd" >
<svg xmlns="http://www.w3.org/2000/svg">
<metadata></metadata>
<defs>
<font id="rt_ralewaybold" horiz-adv-x="1241" >
<font-face units-per-em="2048" ascent="1638" descent="-410" />
<missing-glyph horiz-adv-x="491" />
<glyph unicode="&#xfb01;" horiz-adv-x="1163" d="M49 807h141v-807h275v807h301v-807h274v1016h-575v76q0 80 46 135t134 55q74 0 144.5 -27.5t125.5 -76.5l109 204q-96 63 -192.5 98.5t-204.5 35.5q-100 0 -181 -34t-139 -93q-55 -57 -86 -138.5t-31 -169.5v-65h-141v-209z" />
<glyph unicode="&#xfb02;" horiz-adv-x="1345" d="M49 807h141v-807h275v807h178v209h-178v37q4 229 182 229q96 0 139 -65q33 -55 33 -158v-846q0 -98 72 -160q76 -70 201 -69q51 0 92 8q72 10 141 33l25 10l-39 221l-13 -4l-28 -8q-43 -14 -78 -15q-49 0 -76 41q-23 31 -22 80v764q0 186 -114 294t-341 108 q-213 0 -331 -106.5t-118 -303.5v-90h-141v-209z" />
<glyph unicode="&#xfb03;" horiz-adv-x="1701" d="M49 807h141v-807h275v807h262v-807h274v807h302v-807h276v1016h-578v76q0 82 47.5 136t139.5 54q66 0 139.5 -29.5t124.5 -74.5l109 204q-205 133 -400 134q-113 0 -198.5 -35t-143.5 -99q-139 59 -264 60q-84 0 -152.5 -31t-115.5 -86t-72 -128t-25 -155v-26h-141v-209z M465 1016v35q0 72 36 114.5t109 42.5q84 0 135 -28q-10 -25 -14 -80l-4 -84h-262z" />
<glyph unicode="&#xfb04;" horiz-adv-x="1884" d="M49 807h141v-807h275v807h264v-807h275v807h178v209h-178v33q0 102 40 163q47 70 136 70q100 0 143 -63q35 -57 35 -152v-854q0 -98 74 -160q76 -70 198 -69q51 0 92 8q72 10 142 33q25 10 24 10l-37 221l-14 -4l-29 -8q-43 -14 -77 -15q-49 0 -76 41q-23 31 -23 80v764 q0 186 -114.5 294t-339.5 108q-242 0 -359 -134q-139 59 -260 60q-82 0 -150.5 -30t-117.5 -85q-100 -113 -101 -285v-26h-141v-209zM465 1016v37q0 66 40 110.5t111 44.5q78 0 127 -26q-10 -16 -10 -78q-2 -18 -2 -51q-2 -16 -2 -37h-264z" />
<glyph horiz-adv-x="0" />
<glyph unicode="&#xd;" horiz-adv-x="0" />
<glyph unicode=" "  horiz-adv-x="491" />
<glyph unicode="&#x09;" horiz-adv-x="491" />
<glyph unicode="&#xa0;" horiz-adv-x="491" />
<glyph unicode="!" horiz-adv-x="628" d="M178 0h275v309h-275v-309zM178 547h275v921h-275v-921z" />
<glyph unicode="&#x22;" horiz-adv-x="804" d="M125 1022h233v459h-233v-459zM446 1022h234v459h-234v-459z" />
<glyph unicode="#" horiz-adv-x="1476" d="M76 383h229l-94 -383h221l92 383h246l-96 -383h221l94 383h318v205h-269l66 280h299v193h-250l96 393h-221l-94 -393h-246l98 393h-221l-96 -393h-297v-193h250l-68 -280h-278v-205zM573 588l68 280h244l-66 -280h-246z" />
<glyph unicode="$" horiz-adv-x="1298" d="M70 172q111 -78 247 -126t279 -58v-228h123v226q221 10 352 106q147 111 148 324q0 96 -32 165.5t-93 120.5q-57 45 -138.5 77t-203.5 67l-52 12v354q109 -10 218 -61q96 -45 124 -78l125 230q-200 139 -448 159v207h-123v-209q-100 -8 -185 -42t-147 -89 q-135 -123 -135 -321q0 -82 25.5 -142.5t76.5 -107.5q90 -82 310 -144q25 -8 73 -20v-352q-125 12 -266 80q-53 23 -94 49t-59 45zM420 1053q-1 149 194 161v-331q-104 31 -149 67.5t-45 102.5zM700 238v329q113 -35 165.5 -74.5t52.5 -105.5q-1 -143 -218 -149z" />
<glyph unicode="%" horiz-adv-x="1609" d="M72 1165q0 -127 98 -219q45 -43 106.5 -67.5t133.5 -24.5q69 0 131.5 24.5t107.5 67.5q98 92 99 219q0 61 -27 118.5t-72 100.5t-108.5 67t-130.5 24q-70 0 -132.5 -24t-107.5 -67t-71.5 -100t-26.5 -119zM186 96l125 -110l551 712l559 662l-125 110l-532 -700zM264 1165 q0 68 43 121q45 51 103 51q59 0 102 -50t43 -122t-43 -121q-43 -53 -102 -53q-60 0 -103 51.5t-43 122.5zM862 289q0 -127 99 -219q45 -43 107 -66.5t132 -23.5q142 0 242 90q96 86 96 219q0 131 -96 221q-100 90 -242 90q-70 0 -132 -23.5t-107 -66.5q-98 -94 -99 -221z M1055 289q0 70 43 123q45 51 102 51q59 0 103 -49q43 -57 43 -125q0 -70 -43 -119q-43 -53 -103 -53q-59 0 -102 50t-43 122z" />
<glyph unicode="&#x26;" horiz-adv-x="1458" d="M82 412q0 -86 35 -165t98 -138q63 -61 155.5 -95t202.5 -34q225 0 410 141l115 -121h360l-301 315q125 203 127 482h-223q0 -170 -66 -312l-278 291q121 86 184.5 175t63.5 200q0 78 -32 139.5t-87 102.5q-109 80 -268 80q-174 0 -285 -95q-55 -47 -85 -111.5t-30 -142.5 t36 -148.5t124 -168.5q-117 -82 -178 -164q-78 -104 -78 -231zM346 410q0 63 39 116.5t115 106.5l336 -354q-109 -84 -236 -84q-108 0 -182 63q-35 29 -53.5 69t-18.5 83zM428 1133q0 57 42 97t108 40q59 0 97 -34t38 -89q0 -53 -38 -98t-122 -103q-74 76 -98 113 q-27 39 -27 74z" />
<glyph unicode="'" horiz-adv-x="481" d="M125 1022h233v459h-233v-459z" />
<glyph unicode="(" horiz-adv-x="634" d="M70 711q0 -191 90 -418q76 -193 217 -402l201 101q-121 209 -186.5 383t-65.5 330q0 178 98 436q74 190 160 321l-209 88q-150 -258 -215 -424q-90 -219 -90 -415z" />
<glyph unicode=")" horiz-adv-x="632" d="M49 1462q90 -137 162 -321q96 -252 96 -436q0 -156 -65.5 -331t-186.5 -382l201 -101q141 209 217 402q90 227 90 418q0 194 -88 415q-66 166 -215 424z" />
<glyph unicode="*" horiz-adv-x="706" d="M104 1255l146 -45l-96 -145l106 -70l94 154l92 -154l107 70l-96 145l143 45l-37 119l-147 -63l10 157h-145l10 -157l-150 63z" />
<glyph unicode="+" horiz-adv-x="862" d="M96 616h211v-231h248v231h211v222h-211v231h-248v-231h-211v-222z" />
<glyph unicode="," horiz-adv-x="475" d="M119 8h86l-55 -244h122l84 244v287h-237v-287z" />
<glyph unicode="-" horiz-adv-x="856" d="M119 438h620v248h-620v-248z" />
<glyph unicode="." horiz-adv-x="460" d="M119 0h225v295h-225v-295z" />
<glyph unicode="/" horiz-adv-x="1429" d="M55 0h303l1016 1454h-305z" />
<glyph unicode="0" horiz-adv-x="1435" d="M86 717q0 -127 41 -256t119 -234q84 -115 202.5 -180t268.5 -67q141 0 259 63t204 174q82 104 126 235.5t44 264.5q0 123 -41 252t-119 235q-84 115 -205 182.5t-268 67.5q-141 0 -258 -63.5t-203 -171.5q-80 -104 -125 -237.5t-45 -264.5zM371 717q0 80 21.5 165 t62.5 156q45 78 110.5 122t151.5 44q84 0 149.5 -42t110.5 -115q43 -70 65.5 -156t22.5 -174q0 -82 -20.5 -166t-61.5 -154q-98 -168 -266 -168q-84 0 -149.5 43t-108.5 117q-41 70 -63.5 155t-24.5 173z" />
<glyph unicode="1" horiz-adv-x="1003" d="M88 1018q74 0 191 65q104 61 139 111v-946h-283v-248h823v248h-260v1220h-280l-33 -34q-33 -31 -78 -66q-129 -96 -219 -96v-254z" />
<glyph unicode="2" horiz-adv-x="1245" d="M86 0h1057v248h-697q0 98 93 178q72 63 245 149q84 41 145.5 80t106.5 88q104 119 105 285q0 98 -32 181t-93 141q-133 123 -365 123q-190 0 -358 -89q-66 -35 -119 -76.5t-82 -76.5l172 -180q59 66 146 116q104 57 206 58q102 0 158.5 -54.5t56.5 -146.5q0 -74 -32 -121 q-59 -94 -205 -158l-133 -63q-106 -51 -177 -111.5t-114 -138.5t-63.5 -183.5t-20.5 -248.5z" />
<glyph unicode="3" horiz-adv-x="1196" d="M80 1264l176 -199q39 66 111 113q88 53 202 53q80 0 144 -41q33 -20 51 -54t18 -77q0 -98 -108 -148q-96 -47 -273 -47h-67v-229h67q201 0 310.5 -52.5t109.5 -154.5q0 -90 -80 -143q-76 -51 -186 -52q-139 0 -233 80q-78 66 -93 133l-145 -180q49 -137 173 -210.5 t302 -73.5q105 0 203 26.5t174 75.5q80 51 125 129t45 178q0 139 -82 244q-84 104 -223 129q129 31 201.5 109.5t72.5 199.5q0 84 -37 157t-106 128q-70 55 -163 85t-202 30q-141 0 -280 -56q-135 -53 -207 -153z" />
<glyph unicode="4" horiz-adv-x="1200" d="M49 330h613v-330h274v330h180v248h-180v876h-188l-699 -879v-245zM326 578l366 462v-462h-366z" />
<glyph unicode="5" horiz-adv-x="1171" d="M72 233q68 -119 193.5 -186t283.5 -67q117 0 214 34.5t171 102.5q152 139 151 356q0 102 -34.5 188.5t-100.5 147.5t-153.5 96t-190.5 35q-137 0 -188 -61l57 325h518v250h-717l-81 -420l-31 -155q-14 -86 -35 -181l-12 -61q-8 -35 -8 -47h239q35 53 94.5 84t124.5 31 q100 0 170 -66q66 -70 66 -172q0 -111 -70.5 -177.5t-181.5 -66.5q-90 0 -175 47t-147 127z" />
<glyph unicode="6" horiz-adv-x="1243" d="M94 647q0 -313 144 -491q70 -86 169 -131t222 -45q111 0 208 38.5t171 108.5q74 68 113.5 161t39.5 197q0 101 -38 190t-107 156q-70 66 -164 103t-199 37q-102 0 -182 -42t-123 -118q4 197 86 306.5t219 109.5q90 0 168 -43t127 -121l158 172q-80 111 -195.5 170 t-253.5 59q-129 0 -233.5 -53t-177.5 -156q-152 -215 -152 -608zM362 485q0 111 78 189q37 37 86 57.5t105 20.5q111 0 188 -78q80 -80 80 -189q0 -55 -21.5 -105t-58.5 -87q-37 -39 -86 -60.5t-102 -21.5q-107 0 -189 82q-37 37 -58.5 87t-21.5 105z" />
<glyph unicode="7" horiz-adv-x="1163" d="M70 1204h659l-600 -1204h311l723 1454h-1093v-250z" />
<glyph unicode="8" horiz-adv-x="1236" d="M90 440q0 -98 40 -182t114 -147q74 -61 169 -95t203 -34q109 0 205.5 31.5t169.5 90.5q156 129 156 326q0 117 -72 215q-61 82 -160 133q84 41 136 113q53 76 53 162q0 94 -43 169.5t-117 129.5q-68 49 -155 75.5t-171 26.5t-168.5 -26.5t-154.5 -77.5q-74 -53 -117 -129 t-43 -170q0 -84 52.5 -159t129.5 -114q-88 -43 -153 -129q-74 -98 -74 -209zM369 446q0 92 75 158q70 59 172 60q100 0 175 -56q37 -29 57 -70.5t20 -91.5q1 -92 -75 -155q-74 -61 -175 -62q-100 0 -172 60q-78 63 -77 157zM414 1042q0 74 58 121t144 47q88 0 147.5 -46 t59.5 -120q0 -78 -65 -129q-59 -45 -140 -45q-76 0 -137 45q-68 47 -67 127z" />
<glyph unicode="9" d="M82 958q0 -100 39 -188t108 -156q68 -68 160 -103.5t201 -35.5q102 0 182 43t123 117q-4 -197 -86 -306.5t-219 -109.5q-92 0 -169 43t-126 121l-158 -172q80 -111 197 -171t252 -60q129 0 233.5 53t177.5 157q152 219 152 609q0 309 -143 491q-70 84 -169.5 129 t-222.5 45q-111 0 -208 -37.5t-170 -107.5q-74 -70 -114 -163t-40 -198zM346 961q0 55 21.5 105t58.5 87q37 39 85 60.5t101 21.5q54 0 103 -21.5t88 -60.5q37 -39 58.5 -89t21.5 -106q0 -53 -20.5 -101t-57.5 -85t-86 -57.5t-105 -20.5q-55 0 -104 20.5t-84 57.5 q-80 80 -80 189z" />
<glyph unicode=":" horiz-adv-x="505" d="M141 0h224v295h-224v-295zM141 766h224v295h-224v-295z" />
<glyph unicode=";" horiz-adv-x="530" d="M145 8h86l-55 -244h125l84 244v287h-240v-287zM147 766h226v295h-226v-295z" />
<glyph unicode="&#x3c;" horiz-adv-x="1054" d="M66 457l864 -512v307l-465 278l465 291v291l-864 -522v-133z" />
<glyph unicode="=" horiz-adv-x="892" d="M127 295h641v178h-641v-178zM127 657h641v179h-641v-179z" />
<glyph unicode="&#x3e;" horiz-adv-x="1054" d="M125 -55l864 512v133l-864 522v-291l465 -291l-465 -278v-307z" />
<glyph unicode="?" horiz-adv-x="995" d="M70 1208l178 -123q47 74 94 111q68 53 147 53q84 0 136 -45q59 -53 59 -131q0 -55 -29 -100q-53 -78 -161 -133l-76 -43q-96 -55 -132 -132t-36 -188h225q0 49 23 88q37 61 129 113l82 47q106 66 155 137q59 84 60 207q0 102 -36 180t-100 129q-117 94 -290 95 q-145 0 -256 -68q-121 -72 -172 -197zM254 0h227v283h-227v-283z" />
<glyph unicode="@" horiz-adv-x="1730" d="M86 471q0 -168 57.5 -310.5t161.5 -246.5q102 -102 237.5 -157.5t286.5 -55.5q186 0 357 82l-33 106q-90 -41 -159.5 -59t-159.5 -18q-139 0 -256 51t-203 143q-84 90 -129 210t-45 255q0 139 48 260t136 209t208 136t263 48q145 0 266 -49t209 -139t135 -213t47 -264 q0 -129 -30 -228q-49 -141 -144 -141q-63 0 -88 72q-16 47 -16 160v196q0 88 -10.5 157.5t-40.5 127.5q-86 143 -320 143q-195 0 -352 -102l53 -146q51 43 121 66.5t152 23.5q129 0 186 -69q47 -57 47 -182q-100 45 -231 45q-160 0 -260 -66q-123 -78 -123 -233 q0 -131 82 -209t231 -78q102 0 192.5 37t155.5 102q12 -72 47 -112q49 -55 148 -56q133 0 213 101q59 74 86 208q16 82 16 179q0 184 -60.5 330.5t-170.5 248.5q-104 98 -243.5 149.5t-289.5 51.5q-153 0 -294.5 -51t-247.5 -148q-111 -102 -173.5 -244.5t-62.5 -320.5z M621 289q0 84 58 123t161 39q113 0 229 -43v-78q0 -102 -104 -152q-37 -18 -86.5 -29.5t-92.5 -11.5q-78 0 -121.5 41t-43.5 111z" />
<glyph unicode="A" horiz-adv-x="1376" d="M10 0h291l133 362h508l135 -362h291l-553 1454h-250zM481 561l209 572l201 -572h-410z" />
<glyph unicode="B" horiz-adv-x="1392" d="M152 0h702q201 0 332 96q137 100 137 279q0 141 -71.5 237.5t-198.5 132.5q100 43 154.5 135.5t54.5 202.5q0 68 -24 135.5t-67 118.5q-45 55 -106 86t-135 31h-778v-1454zM434 240v383h434q70 0 121 -58q23 -27 36 -62.5t13 -74.5t-14 -74t-39 -59q-51 -55 -131 -55 h-420zM434 846v366h389q70 0 115 -50t45 -132q0 -84 -49 -134t-123 -50h-377z" />
<glyph unicode="C" horiz-adv-x="1404" d="M63 737q0 -139 52.5 -273t146.5 -239q96 -111 226 -174t280 -63q88 0 181 22.5t173 65.5q176 94 244 250l-231 133q-45 -111 -154 -170q-96 -51 -205 -51q-92 0 -171 39.5t-136 109.5q-57 68 -88 157t-31 185q0 88 28 175t79 155q55 72 134 112.5t181 40.5q106 0 199 -47 q102 -53 157 -170l218 150q-74 145 -221.5 231t-344.5 86q-164 0 -298 -60.5t-230 -168.5q-92 -102 -140.5 -231.5t-48.5 -264.5z" />
<glyph unicode="D" horiz-adv-x="1466" d="M152 0h528q162 0 294 52t228 149q94 96 144.5 230t50.5 298q0 152 -45 284t-135 228q-94 102 -228.5 157.5t-308.5 55.5h-528v-1454zM434 248v958h246q203 0 319 -133q55 -63 84 -151t29 -193q0 -209 -111 -342q-57 -66 -138 -102.5t-183 -36.5h-246z" />
<glyph unicode="E" horiz-adv-x="1230" d="M152 0h1009v248h-727v379h613v229h-613v350h709v248h-991v-1454z" />
<glyph unicode="F" horiz-adv-x="1175" d="M152 0h282v602h578v229h-578v375h694v248h-976v-1454z" />
<glyph unicode="G" horiz-adv-x="1484" d="M66 735q0 -156 53 -292t149 -238q94 -102 220 -158.5t268 -56.5q231 0 405 174v-164h234v748h-527v-207h293v-103q-167 -198 -379 -198h-2q-90 0 -170 36.5t-137 104.5t-90 157t-33 189q0 98 30 186t85 156q55 70 132 107.5t167 37.5q119 0 217 -58t154 -165l211 156 q-76 150 -223.5 233.5t-348.5 83.5q-147 0 -276 -56t-228 -159q-96 -102 -150 -234t-54 -280z" />
<glyph unicode="H" horiz-adv-x="1525" d="M152 0h282v621h660v-621h280v1454h-280v-588h-660v588h-282v-1454z" />
<glyph unicode="I" horiz-adv-x="585" d="M152 0h282v1454h-282v-1454z" />
<glyph unicode="J" horiz-adv-x="1005" d="M14 68q134 -91 316 -91q174 0 282.5 51.5t167.5 151.5q51 90 70.5 220t19.5 315v739h-282v-739q0 -133 -9.5 -221t-33.5 -146q-27 -61 -78 -91t-137 -30q-78 0 -146.5 22.5t-105.5 47.5z" />
<glyph unicode="K" horiz-adv-x="1370" d="M152 0h282v434l187 195l452 -629h318l-592 809l557 645h-312l-610 -692v690h-282v-1452z" />
<glyph unicode="L" horiz-adv-x="1196" d="M152 0h1024v248h-742v1206h-282v-1454z" />
<glyph unicode="M" horiz-adv-x="1771" d="M152 0h282v963l375 -717h154l374 717v-963h283v1454h-301l-434 -827l-430 827h-303v-1454z" />
<glyph unicode="N" horiz-adv-x="1562" d="M152 0h282v932l748 -932h229v1452h-283v-952l-757 954h-219v-1454z" />
<glyph unicode="O" horiz-adv-x="1548" d="M63 727q0 -139 51.5 -272t145.5 -236q96 -109 226 -169t286 -60q150 0 282 59.5t228 163.5q96 102 148.5 234.5t52.5 275.5q0 137 -51.5 270t-143.5 238q-96 109 -226 171t-284 62q-150 0 -280.5 -59t-229.5 -164q-96 -104 -150.5 -237.5t-54.5 -276.5zM350 727 q0 92 28 179t81 155q55 72 136 111.5t179 39.5q96 0 175 -38.5t136 -108.5q53 -68 83 -156t30 -182q0 -92 -27.5 -179t-80.5 -155q-122 -153 -314 -153h-2q-96 0 -176 39.5t-135 109.5q-55 68 -84 156t-29 182z" />
<glyph unicode="P" horiz-adv-x="1275" d="M152 0h282v487h344q96 0 181 40t147 110q59 68 92 155t33 179q0 88 -35 175t-96 157q-63 70 -149.5 110.5t-182.5 40.5h-616v-1454zM434 735v471h316q39 0 74.5 -15t60.5 -46q59 -70 59 -174q0 -106 -51 -171t-131 -65h-328z" />
<glyph unicode="Q" horiz-adv-x="1546" d="M63 727q0 -139 51.5 -272t145.5 -236q96 -106 227 -167.5t285 -61.5q199 0 369 104l84 -94h266l-199 223q92 100 141.5 229.5t49.5 270.5q0 137 -51.5 270t-143.5 238q-96 109 -226 171t-284 62q-150 0 -280.5 -59t-229.5 -164q-96 -104 -150.5 -237.5t-54.5 -276.5z M350 727q0 92 28 179t81 155q55 72 135 112.5t180 40.5q96 0 175 -39.5t136 -109.5q53 -68 83 -156t30 -182q0 -164 -86 -301l-100 113h-267l222 -250q-88 -49 -193 -49q-96 0 -176 39.5t-135 109.5q-55 68 -84 156t-29 182z" />
<glyph unicode="R" horiz-adv-x="1361" d="M152 0h282v487h279l297 -487h317l-332 547q121 51 191.5 166.5t70.5 257.5q0 88 -34.5 175t-96.5 157q-63 70 -149 110.5t-182 40.5h-643v-1454zM434 735v471h342q37 0 73 -17.5t64 -47.5q59 -70 60 -170q0 -98 -53 -166q-25 -33 -60 -51.5t-72 -18.5h-354z" />
<glyph unicode="S" horiz-adv-x="1255" d="M45 172q127 -90 287 -139t323 -49q231 0 377 98q76 53 119 137t43 197q0 96 -32 165.5t-93 120.5q-57 45 -138 77t-204 67q-94 23 -151.5 41t-96.5 39q-43 25 -63.5 54.5t-20.5 72.5q0 80 58.5 122t173.5 42t247 -56q49 -23 88 -47t56 -41l125 230q-107 73 -236 117 t-272 44q-111 0 -207 -29.5t-168 -86.5q-76 -57 -116 -144.5t-40 -195.5q0 -82 26 -142.5t77 -107.5q90 -82 309 -144l43 -12q170 -47 232 -78q51 -25 76.5 -58.5t25.5 -78.5q0 -149 -231 -149h-3q-156 0 -309 71q-63 29 -111.5 57.5t-68.5 49.5z" />
<glyph unicode="T" horiz-adv-x="1267" d="M29 1206h465v-1206h280v1206h465v248h-1210v-248z" />
<glyph unicode="U" horiz-adv-x="1536" d="M131 713q0 -147 36 -277.5t107 -224.5q78 -104 202 -162.5t292 -58.5q162 0 285 55t202 158q147 188 148 510v741h-281v-741q0 -205 -75 -326q-96 -147 -281 -147q-182 0 -274 145q-78 119 -78 328v741h-283v-741z" />
<glyph unicode="V" horiz-adv-x="1384" d="M4 1454l571 -1454h238l567 1454h-297l-389 -1100l-393 1100h-297z" />
<glyph unicode="W" horiz-adv-x="2273" d="M20 1454l455 -1454h293l365 993l372 -993h291l457 1454h-322l-307 -1030l-340 1030h-305l-330 -1032l-311 1032h-318z" />
<glyph unicode="X" horiz-adv-x="1323" d="M-6 1454l518 -737l-502 -717h307l347 520l344 -520h305l-502 717l518 737h-305l-360 -541l-363 541h-307z" />
<glyph unicode="Y" horiz-adv-x="1351" d="M8 1454l527 -942v-512h280v508l528 946h-305l-364 -700l-359 700h-307z" />
<glyph unicode="Z" horiz-adv-x="1284" d="M61 0h1153v248h-800l794 993v213h-1124v-248h799l-822 -993v-213z" />
<glyph unicode="[" horiz-adv-x="647" d="M168 -82h383v219h-129v1159h129v220h-383v-1598z" />
<glyph unicode="\" horiz-adv-x="1304" d="M55 1454l893 -1454h303l-891 1454h-305z" />
<glyph unicode="]" horiz-adv-x="647" d="M94 -82h385v1598h-385v-220h131v-1159h-131v-219z" />
<glyph unicode="^" horiz-adv-x="1198" d="M80 621h221l299 602l293 -602h225l-403 833h-230z" />
<glyph unicode="_" horiz-adv-x="972" d="M111 0v-248h751v248h-751z" />
<glyph unicode="`" horiz-adv-x="522" d="M96 1495l191 -297l176 53l-113 244h-254z" />
<glyph unicode="a" horiz-adv-x="1300" d="M59 537q0 -115 38 -217.5t106 -178.5q70 -78 163 -119.5t201 -41.5h2q221 0 334 194v-174h275v1059h-275v-176q-55 98 -149.5 153.5t-212.5 55.5q-100 0 -188.5 -42t-153.5 -118q-66 -78 -103 -179.5t-37 -215.5zM344 530q0 63 20.5 123t59.5 105q37 47 90 73.5t113 26.5 q90 0 164.5 -58.5t111.5 -152.5v-254q-43 -84 -110.5 -132t-155.5 -48q-61 0 -116.5 24.5t-94.5 67.5t-60.5 101.5t-21.5 123.5z" />
<glyph unicode="b" horiz-adv-x="1298" d="M125 0h240v186q55 -98 152 -152t218 -54q105 0 197 43t162 118q68 74 105.5 175.5t37.5 215.5q0 113 -34 215.5t-95 178.5q-66 78 -153 122t-187 44q-123 0 -217 -53.5t-152 -153.5v610h-274v-1495zM399 393v256q41 92 115 150.5t162 58.5q119 0 203 -98 q37 -45 57 -104.5t20 -125.5q0 -131 -82 -223q-39 -45 -94 -69.5t-121 -24.5q-81 0 -155 51q-78 51 -105 129z" />
<glyph unicode="c" horiz-adv-x="1155" d="M57 537q0 -111 40 -211.5t114 -178.5q76 -80 181.5 -123.5t232.5 -43.5q174 0 302 75.5t185 202.5l-268 82q-25 -55 -87.5 -91t-135.5 -36q-57 0 -108.5 23.5t-88.5 66.5q-84 94 -84 234q0 141 82 233q37 43 88 65.5t111 22.5q70 0 127 -31.5t92 -91.5l268 82 q-63 127 -188 201t-297 74q-127 0 -232.5 -44t-181.5 -122q-74 -76 -113 -176.5t-39 -212.5z" />
<glyph unicode="d" horiz-adv-x="1320" d="M59 537q0 -115 38 -217.5t106 -178.5q70 -76 164 -118.5t202 -42.5q115 0 215.5 53t157.5 153l6 -67q6 -59 53.5 -96t120.5 -37q51 0 117 14v233q-35 2 -49 20.5t-14 61.5v1180h-275v-610q-55 94 -150.5 150.5t-211.5 56.5q-102 0 -191.5 -43t-152.5 -119 q-63 -78 -99.5 -178.5t-36.5 -214.5zM344 530q0 63 20.5 123t57.5 107t89 72.5t114 25.5q82 0 163 -59q78 -59 113 -150v-256q-27 -76 -104 -129q-74 -51 -156 -51q-131 0 -213 92q-84 94 -84 225z" />
<glyph unicode="e" horiz-adv-x="1226" d="M57 530q0 -111 40 -211t114 -176q76 -78 181.5 -120.5t230.5 -42.5q174 0 306 76.5t193 203.5l-235 66q-25 -66 -97.5 -106t-156.5 -40q-113 0 -191 72q-82 76 -94 197h830q6 23 6 92q0 111 -38 211t-110 174q-76 78 -180 122t-231 44t-233.5 -44t-182.5 -122 q-74 -76 -113 -178.5t-39 -217.5zM344 627q8 116 88 192q78 74 189 74q113 0 191.5 -72.5t88.5 -193.5h-557z" />
<glyph unicode="f" horiz-adv-x="757" d="M49 807h141v-807h275v807h262v209h-262v76q0 192 142 192h1q35 0 77 -11t73 -28l55 207q-129 63 -264 64q-166 0 -262.5 -117t-96.5 -318v-65h-141v-209z" />
<glyph unicode="g" horiz-adv-x="1298" d="M61 537q0 -111 35 -209.5t101 -171.5q139 -162 348 -162q112 0 207.5 51t148.5 141v-135q0 -150 -96 -229q-86 -72 -225 -72q-104 0 -197.5 43t-155.5 119l-149 -145q90 -111 211 -167.5t291 -56.5q129 0 238.5 35t189.5 100q80 68 124 162t44 211v1022h-240v-188 q-63 96 -158.5 151.5t-216.5 55.5q-109 0 -201 -42t-159 -120q-68 -76 -104 -177.5t-36 -215.5zM342 528q0 63 19.5 124t56.5 106q80 100 203 100q86 0 164.5 -58.5t115.5 -150.5v-256q-29 -76 -102 -127q-76 -53 -162 -53q-123 0 -209 92t-86 223z" />
<glyph unicode="h" horiz-adv-x="1236" d="M125 0h274v627q25 88 113 161q37 29 78 45.5t78 16.5q180 0 180 -248v-602h274v670v6q0 181 -65 285q-80 131 -273 131q-123 0 -224 -56.5t-161 -161.5v621h-274v-1495z" />
<glyph unicode="i" horiz-adv-x="522" d="M125 0h274v1073h-274v-1073zM125 1223h274v272h-274v-272z" />
<glyph unicode="j" horiz-adv-x="534" d="M-236 -305q109 -96 273 -96q78 0 146.5 28.5t119.5 81.5t79 126t28 157v1081h-275v-1102q0 -59 -38 -97t-93 -38q-35 0 -66.5 11.5t-54.5 33.5zM135 1223h275v272h-275v-272z" />
<glyph unicode="k" horiz-adv-x="1142" d="M125 0h274v319l148 146l311 -465h293l-428 616l399 455h-293l-430 -483v907h-274v-1495z" />
<glyph unicode="l" horiz-adv-x="649" d="M123 248q0 -127 70.5 -195.5t199.5 -68.5q61 0 135 15t127 40l-37 209q-61 -29 -110 -29q-53 0 -82 33t-29 92v1151h-274v-1247z" />
<glyph unicode="m" horiz-adv-x="1906" d="M125 0h274v627q31 98 103.5 160.5t152.5 62.5q166 0 166 -248v-602h275v625q31 100 102.5 162.5t153.5 62.5q166 0 166 -248v-602h274v670q0 184 -61 288q-78 133 -261 134q-129 0 -229 -58.5t-166 -169.5q-20 102 -97 165t-206 63q-133 0 -236.5 -56.5t-162.5 -161.5 v199h-248v-1073z" />
<glyph unicode="n" horiz-adv-x="1236" d="M125 0h274v627q25 90 115 161q78 61 164 62q170 0 170 -248v-602h274v670q0 184 -61 288q-78 133 -262 134q-141 0 -254 -57.5t-172 -160.5v199h-248v-1073z" />
<glyph unicode="o" d="M57 535q0 -111 39 -211.5t113 -176.5q74 -80 179.5 -123.5t232.5 -43.5t232 44t179 123q72 78 111 177.5t39 210.5q0 113 -39 213t-111 178q-76 80 -180 123t-231 43t-232.5 -44t-179.5 -122q-74 -76 -113 -177.5t-39 -213.5zM340 535q0 67 21.5 127.5t60.5 103.5 q37 43 88 67.5t111 24.5q121 0 200 -90q37 -43 58.5 -103.5t21.5 -127.5q0 -139 -80 -234q-80 -90 -200 -90q-121 0 -199 90q-82 92 -82 232z" />
<glyph unicode="p" horiz-adv-x="1298" d="M125 -436h274v624q55 -98 149.5 -153t219.5 -55q100 0 187 41.5t151 119.5q61 76 96 179.5t35 218.5q0 111 -37 213t-104 178q-70 76 -162 119t-199 43q-121 0 -215 -53.5t-155 -149.5v184h-240v-1509zM399 426v252q27 76 105 129q74 51 155 51q61 0 116.5 -24.5 t96.5 -67.5q84 -90 84 -227q0 -63 -20.5 -123t-56.5 -105q-39 -45 -91.5 -71.5t-111.5 -26.5q-86 0 -163 59.5t-114 153.5z" />
<glyph unicode="q" horiz-adv-x="1298" d="M61 539q0 -115 35 -217.5t99 -178.5q63 -78 149 -120.5t186 -42.5q123 0 216.5 52t152.5 156v-436q0 -78 59 -133q57 -53 140 -53q80 0 149 12v234q-41 2 -57 19t-16 63v1179h-240v-186q-61 96 -156.5 150.5t-214.5 54.5q-104 0 -196.5 -42t-161.5 -118 q-68 -76 -106 -177.5t-38 -215.5zM342 530q0 63 21.5 123t60.5 107q37 47 90 72.5t115 25.5q88 0 166 -61q80 -68 104 -154v-254q-106 -176 -266 -176q-129 0 -209 92q-82 92 -82 225z" />
<glyph unicode="r" horiz-adv-x="792" d="M125 0h274v649q41 90 138.5 137.5t226.5 49.5v249q-7 2 -21 2h-34q-86 0 -181 -67q-94 -70 -151 -176v229h-252v-1073z" />
<glyph unicode="s" horiz-adv-x="1017" d="M45 145q92 -80 220 -122.5t265 -42.5q201 0 318 91t117 248q0 68 -23.5 116t-73.5 85q-47 35 -122.5 63.5t-196.5 59.5q-111 27 -164 55q-25 14 -36 33t-11 47q0 59 45 90t119 31q154 0 311 -119l111 166q-164 147 -420 148q-184 0 -301 -95q-57 -47 -89 -113.5 t-32 -146.5q0 -61 20.5 -104t65.5 -78q41 -31 111.5 -57.5t185.5 -59.5q123 -33 180 -61q55 -27 55 -84t-47 -88t-129 -31q-176 0 -377 141z" />
<glyph unicode="t" horiz-adv-x="786" d="M45 862h141v-616q0 -135 84 -203q70 -61 195 -61q137 0 303 73l-55 217q-89 -39 -150 -39q-47 0 -74.5 26t-27.5 79v524h225v211h-225v348h-275v-348h-141v-211z" />
<glyph unicode="u" horiz-adv-x="1265" d="M115 401q0 -209 86 -315t252 -106q137 0 248.5 56t183.5 165l6 -86q8 -59 54 -93t120 -34q53 0 119 12v233q-35 2 -50.5 20.5t-15.5 61.5v758h-274v-665q-47 -96 -121 -145.5t-156 -49.5q-178 0 -178 248v612h-274v-672z" />
<glyph unicode="v" horiz-adv-x="1124" d="M18 1073l396 -1073h297l395 1073h-258l-275 -850l-272 850h-283z" />
<glyph unicode="w" horiz-adv-x="1783" d="M20 1073l371 -1073h295l205 647l207 -647h297l366 1073h-280l-246 -745l-213 745h-258l-213 -745l-246 745h-285z" />
<glyph unicode="x" horiz-adv-x="1087" d="M8 0h283l235 334l17 35l18 -35l238 -334h282l-389 535l383 538h-282l-230 -336l-20 -37l-17 37l-231 336h-281l381 -538z" />
<glyph unicode="y" horiz-adv-x="1126" d="M12 1073l424 -1073q-39 -133 -76 -182q-33 -47 -90 -47q-55 0 -123 20v-237q68 -23 138 -23q135 0 231 69.5t135 186.5l451 1286h-258l-258 -835l-291 835h-283z" />
<glyph unicode="z" horiz-adv-x="1009" d="M53 0h897v193h-604l594 712v168h-862v-192h573l-598 -713v-168z" />
<glyph unicode="{" horiz-adv-x="649" d="M86 643q43 -8 72.5 -46t29.5 -91v-508q0 -33 14.5 -47t33.5 -14h311v219h-113v440q0 76 -69 141q70 63 69 142v417h113v220h-311q-16 0 -32 -13.5t-16 -48.5v-485q0 -41 -28 -88q-14 -20 -34 -32.5t-40 -12.5v-193z" />
<glyph unicode="|" horiz-adv-x="557" d="M162 -266h233v1853h-233v-1853z" />
<glyph unicode="}" horiz-adv-x="649" d="M102 -63h314q16 0 31.5 14t15.5 47v508q0 53 29.5 91t72.5 46v193q-43 0 -71 45q-31 45 -31 88v485q0 39 -19 51q-20 10 -28 11h-314v-220h113v-417q0 -76 72 -142q-72 -66 -72 -141v-440h-113v-219z" />
<glyph unicode="~" horiz-adv-x="1161" d="M115 467h151l6 18q4 16 19 37q35 51 106 51q37 0 72 -12t96 -41q55 -27 99.5 -40t93.5 -13q84 0 141 39q53 35 89 81t50 93q14 41 15 53h-152l-6 -20q-6 -20 -21 -37q-41 -49 -114 -49q-39 0 -72 11t-61.5 25.5t-36.5 18.5q-59 29 -100 42t-91 13q-74 0 -130 -32.5 t-93 -83.5q-29 -41 -45 -86.5t-16 -67.5z" />
<glyph unicode="&#xa1;" horiz-adv-x="624" d="M176 -10h275v921h-275v-921zM176 1149h275v309h-275v-309z" />
<glyph unicode="&#xa2;" horiz-adv-x="1212" d="M80 528q0 -98 36 -192t101 -170q68 -78 157 -127t191 -57v-228h123v226q55 0 120.5 17t127.5 52q143 80 201 209l-269 82q-16 -45 -67 -77t-113 -44v631q55 -4 101.5 -34t74.5 -81l266 82q-66 127 -181 197.5t-261 75.5v231h-123v-231q-113 -16 -204 -66.5t-154 -126.5 q-63 -74 -95 -169t-32 -200zM362 528q1 113 54 201q55 88 149 109v-607q-88 27 -147 113q-55 82 -56 184z" />
<glyph unicode="&#xa3;" horiz-adv-x="1116" d="M104 178l60 -194q68 20 138.5 32.5t123.5 12.5q43 0 94 -9.5t98 -19.5q119 -31 187 -31q59 0 121.5 16.5t113.5 45.5l-67 205q-49 -18 -84 -25.5t-70 -7.5q-70 0 -135 18q-72 16 -143 17q-76 0 -156 -25q94 96 133 179t39 181h332v207h-377q-10 27 -35 80q-20 37 -37 74 q-39 82 -39 139q0 72 48.5 120t123.5 48q76 0 155 -44t130 -116l143 168q-76 100 -188.5 157.5t-234.5 57.5q-86 0 -164 -28.5t-135 -77.5t-90 -116.5t-33 -141.5q0 -63 21.5 -125t64.5 -146q6 -16 22 -49h-147v-207h207q0 -113 -53.5 -207t-166.5 -188z" />
<glyph unicode="&#xa4;" horiz-adv-x="1130" d="M94 332l101 -103l149 142q94 -61 223 -62q129 0 219 60l148 -140l102 103l-141 139q66 96 66 219q0 125 -64 221l139 138l-112 112l-142 -145q-90 59 -215 59t-219 -61l-143 147l-111 -112l139 -142q-61 -92 -61 -217q0 -121 64 -217zM375 690q0 92 55 151.5t137 59.5 t136.5 -58.5t54.5 -150.5t-54.5 -151.5t-136.5 -59.5t-137 58.5t-55 150.5z" />
<glyph unicode="&#xa5;" horiz-adv-x="1458" d="M59 1454l361 -631h-152v-178h246l70 -133v-66h-318v-178h318v-268h280v268h322v178h-322v62l74 137h246v178h-150l361 631h-308l-362 -700l-360 700h-306z" />
<glyph unicode="&#xa6;" horiz-adv-x="563" d="M166 -266h233v807h-233v-807zM166 780h233v807h-233v-807z" />
<glyph unicode="&#xa7;" horiz-adv-x="1089" d="M88 1075q0 -74 24.5 -132t59.5 -93q-16 -31 -27.5 -65.5t-11.5 -86.5q0 -160 110.5 -255t313.5 -109q72 -4 111 -21q53 -29 53 -92t-55 -104q-51 -37 -127 -37q-70 0 -132.5 28.5t-121.5 92.5l-176 -168q66 -78 165 -135q133 -78 277 -78q74 0 153.5 23.5t143.5 70.5 q72 53 115 133t43 184q0 143 -72 209q18 21 30.5 66t12.5 102q0 90 -39 156.5t-104 109.5q-59 37 -137.5 56.5t-159.5 21.5q-82 2 -127 30t-45 97q0 66 48 104t124 38q70 0 124 -28t82 -81l211 100q-76 106 -153 164q-125 88 -281 88q-178 0 -305 -114q-61 -55 -94 -125 t-33 -150zM399 662q0 24 9.5 48.5t23.5 39.5q51 -18 115 -19q68 0 112 -26q57 -35 58 -105q0 -25 -10.5 -50.5t-26.5 -41.5q-37 14 -80 16q-49 4 -92 13q-51 12 -80 40.5t-29 84.5z" />
<glyph unicode="&#xa8;" horiz-adv-x="935" d="M158 1237h227v244h-227v-244zM551 1237h227v244h-227v-244z" />
<glyph unicode="&#xa9;" horiz-adv-x="1722" d="M88 727q0 -158 56.5 -293t160.5 -235q104 -102 244.5 -157.5t304.5 -55.5q166 0 309.5 55t249.5 158q106 100 163.5 235t57.5 293q0 156 -57 291t-164 235q-106 100 -250.5 155.5t-308.5 55.5q-162 0 -303 -55t-246 -156q-104 -100 -160.5 -235t-56.5 -291zM197 725 q0 133 49 249t139 204t210 136t259 48q141 0 264 -48t215 -136q92 -86 141.5 -203t49.5 -250q0 -139 -50.5 -256t-142.5 -203t-214 -132t-263 -46q-139 0 -260 48t-209 136q-90 88 -139 204t-49 249zM356 727q0 -102 37 -191.5t107 -156.5q70 -68 165 -104.5t207 -36.5 q164 -1 293 81q111 70 164 187l-268 80q-29 -53 -81 -84t-112 -31q-43 0 -84 17.5t-73 50.5q-35 33 -54.5 81t-19.5 107q0 109 61 178q63 76 168 76q57 0 108.5 -26.5t80.5 -84.5l266 82q-55 123 -173 192.5t-280 69.5q-240 0 -383 -149q-63 -68 -96 -156t-33 -182z" />
<glyph unicode="&#xaa;" horiz-adv-x="909" d="M82 928q0 -49 18.5 -92t53.5 -74q72 -68 174 -68q80 0 146.5 34t115.5 99l4 -39q16 -90 127 -90q43 0 90 9v174q-29 2 -40 15t-11 44v213q0 152 -87 229.5t-249 77.5t-305 -96l61 -125q61 43 113.5 62.5t112.5 19.5q78 0 115.5 -37t37.5 -106v-39q-68 33 -170 32 q-129 0 -221 -67q-86 -68 -86 -176zM270 946q0 49 43 79t111 30q74 0 135 -25v-80q0 -29 -29 -53q-23 -25 -62.5 -40t-80.5 -15q-49 0 -83 29.5t-34 74.5z" />
<glyph unicode="&#xab;" horiz-adv-x="1329" d="M72 457l540 -363v225l-321 211l321 224v223l-540 -387v-133zM670 457l538 -363v225l-321 211l321 224v223l-538 -387v-133z" />
<glyph unicode="&#xac;" horiz-adv-x="1253" d="M121 573h766v-356h233v602h-999v-246z" />
<glyph unicode="&#xad;" horiz-adv-x="1234" d="M119 438h999v248h-999v-248z" />
<glyph unicode="&#xae;" horiz-adv-x="1722" d="M88 727q0 -158 56.5 -294t162.5 -234q104 -102 245.5 -157.5t305.5 -55.5t306.5 55t248.5 158q106 100 163.5 235t57.5 293q0 156 -57 291t-164 235q-106 100 -248.5 155.5t-306.5 55.5t-305 -55t-246 -156q-104 -98 -161.5 -233t-57.5 -293zM203 727q0 131 49 247 t137 204t208 136t261 48t262 -48t211 -136t139.5 -205t49.5 -250q0 -137 -50.5 -255t-140.5 -204t-211 -132t-260 -46q-141 0 -261 49t-208 137t-137 205t-49 250zM526 279h195v303h131l188 -303h220l-211 339q74 29 118.5 102t44.5 159q0 55 -21.5 108t-57.5 96 q-39 45 -93.5 71t-113.5 26h-400v-901zM721 750v258h184q51 0 83 -33t32 -96q0 -61 -29.5 -95t-81.5 -34h-188z" />
<glyph unicode="&#xaf;" horiz-adv-x="858" d="M123 1296h614v170h-614v-170z" />
<glyph unicode="&#xb0;" horiz-adv-x="583" d="M82 1280q0 -96 58.5 -156.5t150.5 -60.5t151.5 59.5t59.5 157.5q0 86 -59.5 144.5t-151.5 58.5t-150.5 -58.5t-58.5 -144.5zM215 1272q0 33 21 55q28 23 55 23q33 0 55 -23q20 -23 21 -55q0 -33 -20.5 -54.5t-55.5 -21.5q-27 0 -51.5 22.5t-24.5 53.5z" />
<glyph unicode="&#xb1;" horiz-adv-x="966" d="M121 57h725v222h-725v-222zM121 662h239v-261h246v261h240v219h-240v260h-246v-260h-239v-219z" />
<glyph unicode="&#xb2;" horiz-adv-x="851" d="M61 797h699v159h-473q0 47 60.5 89t166.5 75q115 37 176 86q94 72 94 193q0 129 -86 200.5t-249 71.5q-141 0 -250 -49q-84 -37 -131 -92l104 -119q43 43 106.5 71.5t145.5 28.5q86 0 131 -28.5t45 -81.5q0 -41 -25 -70q-43 -51 -149 -92l-96 -37q-152 -63 -207 -149 q-61 -90 -62 -256z" />
<glyph unicode="&#xb3;" horiz-adv-x="833" d="M57 946q29 -78 117 -120t219 -42q72 0 139.5 15.5t116.5 44.5q115 66 115 184q0 86 -58.5 147.5t-156.5 75.5q92 16 143 63.5t51 119.5q0 102 -100 170q-104 68 -250 67q-106 0 -196.5 -31.5t-137.5 -91.5l105 -131q80 102 231 103q66 0 117 -23q57 -29 57 -74 q0 -55 -75 -80q-74 -27 -201 -26h-47v-150h49q143 0 223 -26q80 -27 80 -86q0 -51 -59.5 -79t-149.5 -28q-94 0 -166 43q-59 33 -78 76z" />
<glyph unicode="&#xb4;" horiz-adv-x="522" d="M96 1251l176 -53l191 297h-256z" />
<glyph unicode="&#xb5;" horiz-adv-x="1359" d="M158 -434h274l-18 534q14 -45 59 -77q53 -43 125 -43q100 0 203 73q88 66 129 148l4 -78q4 -61 51 -98t123 -37q59 0 129 12v233q-41 2 -57.5 20.5t-16.5 61.5v758h-274v-665q-45 -94 -119 -144.5t-154 -50.5q-184 0 -184 248v612h-274v-1507z" />
<glyph unicode="&#xb6;" horiz-adv-x="1345" d="M72 934q0 -230 127 -367q61 -68 148 -104.5t192 -36.5v-590h233v590h105v-590h231v1413h143v205h-602q-276 0 -426.5 -136t-150.5 -384zM301 940q0 137 62.5 220t175.5 89v-618q-102 12 -170 93t-68 216zM772 631v618h105v-618h-105z" />
<glyph unicode="&#xb7;" horiz-adv-x="460" d="M119 496h225v309h-225v-309z" />
<glyph unicode="&#xb8;" horiz-adv-x="667" d="M43 -360q100 -41 219 -41q129 0 195.5 49t66.5 131q0 72 -48 107.5t-126 35.5q-41 0 -65 -8l71 111l-106 32l-125 -245q98 25 164 24q106 0 106 -67q0 -68 -114 -68q-51 0 -103.5 12.5t-79.5 26.5z" />
<glyph unicode="&#xb9;" horiz-adv-x="610" d="M66 1391q47 0 110 39q59 37 82 65v-534h-160v-162h469v162h-143v710h-166q0 -2 -18 -20q-14 -18 -45 -41q-74 -57 -129 -58v-161z" />
<glyph unicode="&#xba;" horiz-adv-x="907" d="M74 1077q0 -76 25.5 -145.5t74.5 -120.5q111 -117 281 -117q169 0 280 117q49 51 75 120.5t26 145.5q0 78 -27 147.5t-76 123.5q-51 53 -121.5 82.5t-156.5 29.5q-174 0 -281 -112q-49 -51 -74.5 -122t-25.5 -149zM276 1075q0 92 51.5 151.5t127.5 59.5t126 -58.5 t50 -150.5t-50.5 -151.5t-125.5 -59.5q-76 0 -127.5 58.5t-51.5 150.5z" />
<glyph unicode="&#xbb;" horiz-adv-x="1329" d="M119 94l540 363v133l-540 387v-223l323 -224l-323 -211v-225zM715 94l540 363v133l-540 387v-223l323 -224l-323 -211v-225z" />
<glyph unicode="&#xbc;" horiz-adv-x="1906" d="M86 1217q47 0 111 38q59 37 82 66v-535h-160v-159h469v159h-144v711h-165q0 -2 -19 -20q-16 -16 -45 -39q-74 -57 -129 -58v-163zM362 96l125 -110l551 712l559 662l-124 110l-533 -700zM1096 190h452v-190h162v190h125v160h-125v514h-111l-503 -516v-158zM1253 350 l301 314v-314h-301z" />
<glyph unicode="&#xbd;" horiz-adv-x="1957" d="M84 1217q47 0 111 38q59 37 81 66v-535h-159v-159h469v159h-144v711h-166q0 -2 -18 -20q-18 -16 -45 -39q-74 -57 -129 -58v-163zM281 96l125 -110l550 712l560 662l-125 110l-533 -700zM1165 0h711v160h-481q8 49 61 93t154 75q117 37 172 84q92 74 92 188 q0 131 -84 201.5t-244 70.5q-137 0 -246 -49q-82 -35 -129 -92l103 -119q43 43 105.5 73t142.5 30q84 0 128 -30t44 -83q0 -39 -23 -67q-47 -53 -147 -93l-92 -36q-152 -63 -207 -150q-59 -92 -60 -256z" />
<glyph unicode="&#xbe;" horiz-adv-x="1923" d="M80 772q29 -78 117 -120t219 -42q71 0 139 15.5t117 44.5q115 70 114 186q0 86 -58 146.5t-157 74.5q92 16 143.5 63.5t51.5 119.5q0 102 -100 170q-104 68 -250 67q-106 0 -196.5 -31.5t-137.5 -89.5l104 -131q84 100 232 101q66 0 117 -23q57 -29 57 -72q0 -57 -76 -82 q-78 -25 -201 -24h-47v-150h49q143 0 224 -26q80 -27 80 -88q0 -51 -58.5 -78t-150.5 -27q-90 0 -153.5 35t-90.5 82zM424 96l125 -110l551 712l559 662l-125 110l-533 -700zM1110 190h453v-190h161v190h125v160h-125v514h-110l-504 -516v-158zM1268 350l301 314v-314h-301z " />
<glyph unicode="&#xbf;" horiz-adv-x="980" d="M63 -33q0 -102 37 -180t101 -129q115 -94 288 -94q141 0 259 69q119 74 170 195l-179 123q-39 -66 -92 -109q-70 -55 -149 -55q-84 0 -136 45q-59 53 -59 131q0 57 31 103q49 72 160 133q33 16 75 41q96 55 132 132t36 187h-225q0 -55 -20 -88q-37 -59 -132 -113l-81 -47 q-106 -66 -156 -137q-59 -84 -60 -207zM506 754h227v282h-227v-282z" />
<glyph unicode="&#xc0;" horiz-adv-x="1376" d="M10 0h291l133 362h508l135 -362h291l-553 1454h-250zM428 1876l190 -297l177 53l-113 244h-254zM481 561l209 572l201 -572h-410z" />
<glyph unicode="&#xc1;" horiz-adv-x="1376" d="M10 0h291l133 362h508l135 -362h291l-553 1454h-250zM481 561l209 572l201 -572h-410zM586 1630l176 -53l190 297h-256z" />
<glyph unicode="&#xc2;" horiz-adv-x="1376" d="M10 0h291l133 362h508l135 -362h291l-553 1454h-250zM373 1667l143 -65l174 129l174 -129l142 65l-218 207h-198zM481 561l209 572l201 -572h-410z" />
<glyph unicode="&#xc3;" horiz-adv-x="1376" d="M10 0h291l133 362h508l135 -362h291l-553 1454h-250zM301 1606h152l2 18q2 14 12 33q27 47 84 47q29 0 54.5 -11.5t68.5 -33.5q35 -23 68.5 -35t76.5 -12q119 0 199 117q27 39 40 82.5t13 62.5h-151l-2 -21q-2 -10 -15 -34q-31 -47 -92 -47q-33 0 -58.5 12t-66.5 37 q-45 25 -74.5 36t-70.5 11q-115 0 -187 -111q-25 -41 -39 -85t-14 -66zM481 561l209 572l201 -572h-410z" />
<glyph unicode="&#xc4;" horiz-adv-x="1376" d="M10 0h291l133 362h508l135 -362h291l-553 1454h-250zM379 1618h227v244h-227v-244zM481 561l209 572l201 -572h-410zM772 1618h227v244h-227v-244z" />
<glyph unicode="&#xc5;" horiz-adv-x="1376" d="M10 0h291l133 362h508l135 -362h291l-553 1454h-250zM481 561l209 572l201 -572h-410zM489 1716q0 -74 53.5 -115.5t145.5 -41.5t145.5 41.5t53.5 115.5t-53.5 116t-145.5 42t-145.5 -42t-53.5 -116zM606 1716q0 35 22.5 54.5t59.5 19.5t60.5 -19.5t23.5 -54.5 q0 -31 -25.5 -52.5t-58.5 -21.5q-35 0 -58.5 22t-23.5 52z" />
<glyph unicode="&#xc6;" horiz-adv-x="1978" d="M-51 0h299l215 362h467v-362h979v248h-701v368h572v248h-572v342h682v248h-1034zM584 608l325 529v-529h-325z" />
<glyph unicode="&#xc7;" horiz-adv-x="1400" d="M59 737q0 -131 47.5 -259t131.5 -230q88 -109 206.5 -176.5t255.5 -79.5l-90 -180q98 25 164 24q106 0 107 -67q0 -68 -115 -68q-51 0 -103.5 12.5t-78.5 26.5l-56 -100q101 -41 220 -41q129 0 195.5 49t66.5 131q0 72 -48.5 107.5t-125.5 35.5q-41 0 -66 -8l49 76 q178 14 324 98q162 96 219 238l-232 133q-45 -111 -153 -170q-96 -51 -205 -51q-92 0 -171 39.5t-136 109.5q-57 68 -88 157t-31 185q0 88 27.5 175t79.5 155q55 72 134 112.5t181 40.5q106 0 199 -47q102 -53 157 -170l217 150q-74 145 -221 231t-344 86q-164 0 -298 -60.5 t-230 -168.5q-92 -102 -140.5 -231.5t-48.5 -264.5z" />
<glyph unicode="&#xc8;" horiz-adv-x="1230" d="M152 0h1009v248h-727v379h613v229h-613v350h709v248h-991v-1454zM406 1876l190 -297l176 53l-113 244h-253z" />
<glyph unicode="&#xc9;" horiz-adv-x="1230" d="M152 0h1009v248h-727v379h613v229h-613v350h709v248h-991v-1454zM563 1630l176 -53l191 297h-256z" />
<glyph unicode="&#xca;" horiz-adv-x="1230" d="M152 0h1009v248h-727v379h613v229h-613v350h709v248h-991v-1454zM350 1667l144 -65l174 129l174 -129l141 65l-217 207h-199z" />
<glyph unicode="&#xcb;" horiz-adv-x="1230" d="M152 0h1009v248h-727v379h613v229h-613v350h709v248h-991v-1454zM356 1618h228v244h-228v-244zM750 1618h227v244h-227v-244z" />
<glyph unicode="&#xcc;" horiz-adv-x="585" d="M31 1876l190 -297l176 53l-112 244h-254zM152 0h282v1454h-282v-1454z" />
<glyph unicode="&#xcd;" horiz-adv-x="585" d="M152 0h282v1454h-282v-1454zM186 1630l176 -53l191 297h-256z" />
<glyph unicode="&#xce;" horiz-adv-x="585" d="M-25 1667l144 -65l174 129l174 -129l141 65l-217 207h-198zM152 0h282v1454h-282v-1454z" />
<glyph unicode="&#xcf;" horiz-adv-x="585" d="M-18 1618h227v244h-227v-244zM152 0h282v1454h-282v-1454zM375 1618h227v244h-227v-244z" />
<glyph unicode="&#xd0;" horiz-adv-x="1476" d="M63 629h99v-629h528q162 0 294 52t228 149q94 96 144.5 230t50.5 298q0 152 -45 284t-135 228q-94 102 -228.5 157.5t-308.5 55.5h-528v-620h-99v-205zM444 248v381h285v205h-285v372h246q203 0 320 -133q55 -63 83.5 -151t28.5 -193q1 -209 -110 -342 q-57 -66 -138 -102.5t-184 -36.5h-246z" />
<glyph unicode="&#xd1;" horiz-adv-x="1562" d="M152 0h282v932l748 -932h229v1452h-283v-952l-757 954h-219v-1454zM391 1606h152l2 18q2 14 12 33q27 47 84 47q29 0 54.5 -11.5t68.5 -33.5q35 -23 68.5 -35t76.5 -12q119 0 199 117q27 39 40 82.5t13 62.5h-151l-2 -21q-2 -10 -15 -34q-31 -47 -92 -47q-33 0 -58.5 12 t-66.5 37q-45 25 -74.5 36t-70.5 11q-115 0 -187 -111q-25 -41 -39 -85t-14 -66z" />
<glyph unicode="&#xd2;" horiz-adv-x="1548" d="M63 727q0 -139 51.5 -272t145.5 -236q96 -109 226 -169t286 -60q150 0 282 59.5t228 163.5q96 102 148.5 234.5t52.5 275.5q0 137 -51.5 270t-143.5 238q-96 109 -226 171t-284 62q-150 0 -280.5 -59t-229.5 -164q-96 -104 -150.5 -237.5t-54.5 -276.5zM350 727 q0 92 28 179t81 155q55 72 136 111.5t179 39.5q96 0 175 -38.5t136 -108.5q53 -68 83 -156t30 -182q0 -92 -27.5 -179t-80.5 -155q-123 -154 -316 -153q-96 0 -176 39.5t-135 109.5q-55 68 -84 156t-29 182zM520 1876l191 -297l176 53l-113 244h-254z" />
<glyph unicode="&#xd3;" horiz-adv-x="1548" d="M63 727q0 -139 51.5 -272t145.5 -236q96 -109 226 -169t286 -60q150 0 282 59.5t228 163.5q96 102 148.5 234.5t52.5 275.5q0 137 -51.5 270t-143.5 238q-96 109 -226 171t-284 62q-150 0 -280.5 -59t-229.5 -164q-96 -104 -150.5 -237.5t-54.5 -276.5zM350 727 q0 92 28 179t81 155q55 72 136 111.5t179 39.5q96 0 175 -38.5t136 -108.5q53 -68 83 -156t30 -182q0 -92 -27.5 -179t-80.5 -155q-123 -154 -316 -153q-96 0 -176 39.5t-135 109.5q-55 68 -84 156t-29 182zM680 1630l176 -53l191 297h-256z" />
<glyph unicode="&#xd4;" horiz-adv-x="1548" d="M63 727q0 -139 51.5 -272t145.5 -236q96 -109 226 -169t286 -60q150 0 282 59.5t228 163.5q96 102 148.5 234.5t52.5 275.5q0 137 -51.5 270t-143.5 238q-96 109 -226 171t-284 62q-150 0 -280.5 -59t-229.5 -164q-96 -104 -150.5 -237.5t-54.5 -276.5zM350 727 q0 92 28 179t81 155q55 72 136 111.5t179 39.5q96 0 175 -38.5t136 -108.5q53 -68 83 -156t30 -182q0 -92 -27.5 -179t-80.5 -155q-123 -154 -316 -153q-96 0 -176 39.5t-135 109.5q-55 68 -84 156t-29 182zM461 1667l143 -65l174 129l174 -129l142 65l-217 207h-199z" />
<glyph unicode="&#xd5;" horiz-adv-x="1548" d="M63 727q0 -139 51.5 -272t145.5 -236q96 -109 226 -169t286 -60q150 0 282 59.5t228 163.5q96 102 148.5 234.5t52.5 275.5q0 137 -51.5 270t-143.5 238q-96 109 -226 171t-284 62q-150 0 -280.5 -59t-229.5 -164q-96 -104 -150.5 -237.5t-54.5 -276.5zM350 727 q0 92 28 179t81 155q55 72 136 111.5t179 39.5q96 0 175 -38.5t136 -108.5q53 -68 83 -156t30 -182q0 -92 -27.5 -179t-80.5 -155q-123 -154 -316 -153q-96 0 -176 39.5t-135 109.5q-55 68 -84 156t-29 182zM391 1606h152l2 18q2 14 12 33q27 47 84 47q29 0 54.5 -11.5 t68.5 -33.5q35 -23 68.5 -35t76.5 -12q119 0 199 117q27 39 40 82.5t13 62.5h-151l-2 -21q-2 -10 -15 -34q-31 -47 -92 -47q-33 0 -58.5 12t-66.5 37q-45 25 -74.5 36t-70.5 11q-115 0 -187 -111q-25 -41 -39 -85t-14 -66z" />
<glyph unicode="&#xd6;" horiz-adv-x="1548" d="M63 727q0 -139 51.5 -272t145.5 -236q96 -109 226 -169t286 -60q150 0 282 59.5t228 163.5q96 102 148.5 234.5t52.5 275.5q0 137 -51.5 270t-143.5 238q-96 109 -226 171t-284 62q-150 0 -280.5 -59t-229.5 -164q-96 -104 -150.5 -237.5t-54.5 -276.5zM350 727 q0 92 28 179t81 155q55 72 136 111.5t179 39.5q96 0 175 -38.5t136 -108.5q53 -68 83 -156t30 -182q0 -92 -27.5 -179t-80.5 -155q-123 -154 -316 -153q-96 0 -176 39.5t-135 109.5q-55 68 -84 156t-29 182zM465 1618h227v244h-227v-244zM858 1618h227v244h-227v-244z" />
<glyph unicode="&#xd7;" horiz-adv-x="976" d="M106 354l170 -172l211 211l211 -211l172 170l-211 211l201 203l-170 172l-203 -203l-200 201l-172 -170l200 -203z" />
<glyph unicode="&#xd8;" horiz-adv-x="1546" d="M63 727q0 -141 52.5 -275.5t148.5 -238.5l-149 -213h303l43 61q139 -72 311 -71q150 0 282 59.5t228 163.5q96 102 148.5 234.5t52.5 275.5q0 141 -52.5 275.5t-148.5 238.5l152 217h-306l-45 -63q-141 74 -305 73q-150 0 -280.5 -59t-229.5 -164q-96 -104 -150.5 -237.5 t-54.5 -276.5zM350 727q0 92 28 179t81 155q55 72 136 111.5t179 39.5q86 0 162 -34l-512 -736q-74 123 -74 285zM608 272l514 736q76 -125 76 -281q0 -92 -27.5 -179t-80.5 -155q-123 -154 -316 -153q-92 0 -166 32z" />
<glyph unicode="&#xd9;" horiz-adv-x="1536" d="M131 713q0 -147 36 -277.5t107 -224.5q78 -104 202 -162.5t292 -58.5q162 0 285 55t202 158q147 188 148 510v741h-281v-741q0 -205 -75 -326q-96 -147 -281 -147q-182 0 -274 145q-78 119 -78 328v741h-283v-741zM506 1876l190 -297l176 53l-112 244h-254z" />
<glyph unicode="&#xda;" horiz-adv-x="1536" d="M131 713q0 -147 36 -277.5t107 -224.5q78 -104 202 -162.5t292 -58.5q162 0 285 55t202 158q147 188 148 510v741h-281v-741q0 -205 -75 -326q-96 -147 -281 -147q-182 0 -274 145q-78 119 -78 328v741h-283v-741zM664 1630l176 -53l190 297h-256z" />
<glyph unicode="&#xdb;" horiz-adv-x="1536" d="M131 713q0 -147 36 -277.5t107 -224.5q78 -104 202 -162.5t292 -58.5q162 0 285 55t202 158q147 188 148 510v741h-281v-741q0 -205 -75 -326q-96 -147 -281 -147q-182 0 -274 145q-78 119 -78 328v741h-283v-741zM451 1667l143 -65l174 129l174 -129l141 65l-217 207 h-198z" />
<glyph unicode="&#xdc;" horiz-adv-x="1536" d="M131 713q0 -147 36 -277.5t107 -224.5q78 -104 202 -162.5t292 -58.5q162 0 285 55t202 158q147 188 148 510v741h-281v-741q0 -205 -75 -326q-96 -147 -281 -147q-182 0 -274 145q-78 119 -78 328v741h-283v-741zM457 1618h227v244h-227v-244zM850 1618h227v244h-227 v-244z" />
<glyph unicode="&#xdd;" horiz-adv-x="1351" d="M8 1454l527 -942v-512h280v508l528 946h-305l-364 -700l-359 700h-307zM569 1630l176 -53l191 297h-256z" />
<glyph unicode="&#xde;" horiz-adv-x="1236" d="M152 0h282v225h311q98 0 181.5 39t144.5 109q59 68 92 154.5t33 181.5q0 90 -35 177t-96 154q-63 70 -149.5 111t-182.5 41h-299v262h-282v-1454zM434 473v471h285q78 0 137 -65q59 -70 59 -170q0 -96 -53 -166q-25 -33 -59.5 -51.5t-71.5 -18.5h-297z" />
<glyph unicode="&#xdf;" horiz-adv-x="1142" d="M125 0h260v1022q0 82 37 139q47 68 135 68q61 0 107 -31q55 -45 55 -119q0 -68 -42 -109.5t-116 -41.5h-39v-246h43q98 0 162 -57q72 -66 72 -164q0 -104 -84 -166q-76 -55 -209 -55v-252q249 4 403 106q176 119 176 336q0 147 -75.5 251.5t-208.5 141.5q70 23 125 113 q53 86 53 190q0 154 -115 246q-113 90 -284 90q-96 0 -179.5 -28.5t-144.5 -81.5q-63 -53 -97 -126t-34 -157v-1069z" />
<glyph unicode="&#xe0;" horiz-adv-x="1175" d="M51 319q0 -143 105 -241q49 -47 116.5 -72.5t145.5 -25.5q117 0 219 49t174 143l6 -59q10 -59 53 -93t119 -34q55 0 121 14v233q-35 2 -50.5 20.5t-15.5 61.5v334q0 213 -126.5 328t-360.5 115q-242 0 -446 -138l84 -174q174 121 335 121q117 0 178.5 -57.5t61.5 -163.5 v-62q-111 47 -262 48q-98 0 -182 -26t-146 -71q-61 -45 -95 -109.5t-34 -140.5zM297 1495l190 -297l177 53l-113 244h-254zM311 342q0 74 67.5 122t174.5 48q109 0 217 -41v-123q0 -45 -45 -78q-35 -41 -97.5 -65.5t-131.5 -24.5q-78 0 -131.5 46t-53.5 116z" />
<glyph unicode="&#xe1;" horiz-adv-x="1175" d="M51 319q0 -143 105 -241q49 -47 116.5 -72.5t145.5 -25.5q117 0 219 49t174 143l6 -59q10 -59 53 -93t119 -34q55 0 121 14v233q-35 2 -50.5 20.5t-15.5 61.5v334q0 213 -126.5 328t-360.5 115q-242 0 -446 -138l84 -174q174 121 335 121q117 0 178.5 -57.5t61.5 -163.5 v-62q-111 47 -262 48q-98 0 -182 -26t-146 -71q-61 -45 -95 -109.5t-34 -140.5zM311 342q0 74 67.5 122t174.5 48q109 0 217 -41v-123q0 -45 -45 -78q-35 -41 -97.5 -65.5t-131.5 -24.5q-78 0 -131.5 46t-53.5 116zM453 1251l176 -53l190 297h-256z" />
<glyph unicode="&#xe2;" horiz-adv-x="1175" d="M51 319q0 -143 105 -241q49 -47 116.5 -72.5t145.5 -25.5q117 0 219 49t174 143l6 -59q10 -59 53 -93t119 -34q55 0 121 14v233q-35 2 -50.5 20.5t-15.5 61.5v334q0 213 -126.5 328t-360.5 115q-242 0 -446 -138l84 -174q174 121 335 121q117 0 178.5 -57.5t61.5 -163.5 v-62q-111 47 -262 48q-98 0 -182 -26t-146 -71q-61 -45 -95 -109.5t-34 -140.5zM242 1288l143 -65l174 129l174 -129l141 65l-217 207h-198zM311 342q0 74 67.5 122t174.5 48q109 0 217 -41v-123q0 -45 -45 -78q-35 -41 -97.5 -65.5t-131.5 -24.5q-78 0 -131.5 46t-53.5 116 z" />
<glyph unicode="&#xe3;" horiz-adv-x="1175" d="M51 319q0 -143 105 -241q49 -47 116.5 -72.5t145.5 -25.5q117 0 219 49t174 143l6 -59q10 -59 53 -93t119 -34q55 0 121 14v233q-35 2 -50.5 20.5t-15.5 61.5v334q0 213 -126.5 328t-360.5 115q-242 0 -446 -138l84 -174q174 121 335 121q117 0 178.5 -57.5t61.5 -163.5 v-62q-111 47 -262 48q-98 0 -182 -26t-146 -71q-61 -45 -95 -109.5t-34 -140.5zM168 1227h151l3 18q2 14 12 33q27 47 84 47q29 0 54.5 -11t68.5 -34q35 -23 68.5 -35t76.5 -12q119 0 199 117q27 39 40 83t13 62h-152l-2 -20q-2 -10 -14 -35q-31 -47 -92 -47q-33 0 -58.5 12 t-66.5 37q-45 25 -74.5 36t-70.5 11q-115 0 -187 -111q-25 -41 -39 -85t-14 -66zM311 342q0 74 67.5 122t174.5 48q109 0 217 -41v-123q0 -45 -45 -78q-35 -41 -97.5 -65.5t-131.5 -24.5q-78 0 -131.5 46t-53.5 116z" />
<glyph unicode="&#xe4;" horiz-adv-x="1175" d="M51 319q0 -143 105 -241q49 -47 116.5 -72.5t145.5 -25.5q117 0 219 49t174 143l6 -59q10 -59 53 -93t119 -34q55 0 121 14v233q-35 2 -50.5 20.5t-15.5 61.5v334q0 213 -126.5 328t-360.5 115q-242 0 -446 -138l84 -174q174 121 335 121q117 0 178.5 -57.5t61.5 -163.5 v-62q-111 47 -262 48q-98 0 -182 -26t-146 -71q-61 -45 -95 -109.5t-34 -140.5zM248 1237h227v244h-227v-244zM311 342q0 74 67.5 122t174.5 48q109 0 217 -41v-123q0 -45 -45 -78q-35 -41 -97.5 -65.5t-131.5 -24.5q-78 0 -131.5 46t-53.5 116zM641 1237h227v244h-227v-244 z" />
<glyph unicode="&#xe5;" horiz-adv-x="1175" d="M51 319q0 -143 105 -241q49 -47 116.5 -72.5t145.5 -25.5q117 0 219 49t174 143l6 -59q10 -59 53 -93t119 -34q55 0 121 14v233q-35 2 -50.5 20.5t-15.5 61.5v334q0 213 -126.5 328t-360.5 115q-242 0 -446 -138l84 -174q174 121 335 121q117 0 178.5 -57.5t61.5 -163.5 v-62q-111 47 -262 48q-98 0 -182 -26t-146 -71q-61 -45 -95 -109.5t-34 -140.5zM311 342q0 74 67.5 122t174.5 48q109 0 217 -41v-123q0 -45 -45 -78q-35 -41 -97.5 -65.5t-131.5 -24.5q-78 0 -131.5 46t-53.5 116zM358 1337q0 -73 53.5 -115t145.5 -42t145.5 42t53.5 115 q0 74 -53.5 116t-145.5 42t-145.5 -42t-53.5 -116zM475 1337q0 35 22.5 54.5t59.5 19.5t60.5 -19.5t23.5 -54.5q0 -31 -25.5 -52t-58.5 -21q-35 0 -58.5 21.5t-23.5 51.5z" />
<glyph unicode="&#xe6;" horiz-adv-x="1918" d="M51 319q0 -143 105 -241q49 -47 116.5 -72.5t145.5 -25.5q126 0 239 53q131 61 197 168q74 -102 192.5 -161.5t268.5 -59.5q174 0 306 76.5t194 203.5l-236 66q-25 -66 -97.5 -106t-156.5 -40q-119 0 -202 72t-93 197h840q6 68 6 88q0 113 -39 213t-111 176 q-76 78 -181 122t-232 44q-117 0 -214.5 -40t-166.5 -112q-125 152 -375 152q-238 0 -448 -138l84 -174q90 61 171.5 91t165.5 30q217 0 236 -186q-12 -31 -16 -90q-100 41 -242 41q-98 0 -182 -26t-146 -71q-61 -45 -95 -109.5t-34 -140.5zM309 342q0 74 68.5 122t175.5 48 q104 0 197 -35q0 -16 2 -34.5t4 -32.5q4 -47 14 -66q0 -35 -45 -74q-37 -41 -98.5 -65.5t-130.5 -24.5q-78 0 -132.5 46t-54.5 116zM1026 618q10 123 88 199t195 76t195.5 -76t88.5 -199h-567z" />
<glyph unicode="&#xe7;" horiz-adv-x="1155" d="M57 537q0 -106 36 -202.5t104 -172.5q70 -78 165 -125t211 -55l-86 -170q98 25 164 24q106 0 107 -67q0 -68 -115 -68q-51 0 -103.5 12.5t-78.5 26.5l-55 -100q100 -41 219 -41q129 0 195.5 49t66.5 131q0 72 -48 107.5t-126 35.5q-41 0 -66 -8l43 70q150 14 260.5 87.5 t161.5 186.5l-268 82q-25 -55 -87.5 -91t-135.5 -36q-57 0 -108.5 23.5t-88.5 66.5q-84 94 -84 234q0 141 82 233q37 43 88 65.5t111 22.5q70 0 127 -31.5t92 -91.5l268 82q-63 127 -188 201t-297 74q-127 0 -232.5 -44t-181.5 -122q-74 -76 -113 -176.5t-39 -212.5z" />
<glyph unicode="&#xe8;" horiz-adv-x="1226" d="M57 530q0 -111 40 -211t114 -176q76 -78 181.5 -120.5t230.5 -42.5q174 0 306 76.5t193 203.5l-235 66q-25 -66 -97.5 -106t-156.5 -40q-113 0 -191 72q-82 76 -94 197h830q6 23 6 92q0 111 -38 211t-110 174q-76 78 -180 122t-231 44t-233.5 -44t-182.5 -122 q-74 -76 -113 -178.5t-39 -217.5zM344 627q8 116 88 192q78 74 189 74q113 0 191.5 -72.5t88.5 -193.5h-557zM358 1495l191 -297l176 53l-113 244h-254z" />
<glyph unicode="&#xe9;" horiz-adv-x="1226" d="M57 530q0 -111 40 -211t114 -176q76 -78 181.5 -120.5t230.5 -42.5q174 0 306 76.5t193 203.5l-235 66q-25 -66 -97.5 -106t-156.5 -40q-113 0 -191 72q-82 76 -94 197h830q6 23 6 92q0 111 -38 211t-110 174q-76 78 -180 122t-231 44t-233.5 -44t-182.5 -122 q-74 -76 -113 -178.5t-39 -217.5zM344 627q8 116 88 192q78 74 189 74q113 0 191.5 -72.5t88.5 -193.5h-557zM514 1251l176 -53l191 297h-256z" />
<glyph unicode="&#xea;" horiz-adv-x="1226" d="M57 530q0 -111 40 -211t114 -176q76 -78 181.5 -120.5t230.5 -42.5q174 0 306 76.5t193 203.5l-235 66q-25 -66 -97.5 -106t-156.5 -40q-113 0 -191 72q-82 76 -94 197h830q6 23 6 92q0 111 -38 211t-110 174q-76 78 -180 122t-231 44t-233.5 -44t-182.5 -122 q-74 -76 -113 -178.5t-39 -217.5zM303 1288l143 -65l175 129l174 -129l141 65l-217 207h-199zM344 627q8 116 88 192q78 74 189 74q113 0 191.5 -72.5t88.5 -193.5h-557z" />
<glyph unicode="&#xeb;" horiz-adv-x="1226" d="M57 530q0 -111 40 -211t114 -176q76 -78 181.5 -120.5t230.5 -42.5q174 0 306 76.5t193 203.5l-235 66q-25 -66 -97.5 -106t-156.5 -40q-113 0 -191 72q-82 76 -94 197h830q6 23 6 92q0 111 -38 211t-110 174q-76 78 -180 122t-231 44t-233.5 -44t-182.5 -122 q-74 -76 -113 -178.5t-39 -217.5zM309 1237h228v244h-228v-244zM344 627q8 116 88 192q78 74 189 74q113 0 191.5 -72.5t88.5 -193.5h-557zM702 1237h228v244h-228v-244z" />
<glyph unicode="&#xec;" horiz-adv-x="522" d="M0 1495l190 -297l177 53l-113 244h-254zM125 0h274v1073h-274v-1073z" />
<glyph unicode="&#xed;" horiz-adv-x="522" d="M125 0h274v1073h-274v-1073zM156 1251l176 -53l190 297h-256z" />
<glyph unicode="&#xee;" horiz-adv-x="522" d="M-55 1288l143 -65l174 129l174 -129l142 65l-218 207h-198zM125 0h274v1073h-274v-1073z" />
<glyph unicode="&#xef;" horiz-adv-x="522" d="M-49 1237h227v244h-227v-244zM125 0h274v1073h-274v-1073zM344 1237h227v244h-227v-244z" />
<glyph unicode="&#xf0;" horiz-adv-x="1255" d="M63 477q0 -104 43.5 -195.5t118.5 -158.5q74 -68 176.5 -105.5t219.5 -37.5q123 0 227 41.5t180 121.5q76 82 118 197t42 254q0 176 -65.5 354t-190.5 324l145 80l-80 108l-161 -92q-90 76 -185 127h-352q182 -98 328 -223l-174 -96l79 -107l191 107q133 -154 184 -369 q-57 74 -150 117t-198 43q-102 0 -192.5 -38t-157.5 -106q-68 -68 -107 -158t-39 -188zM346 479q0 113 82 191q80 76 201 75q121 0 198 -73q80 -76 80 -187q0 -113 -80 -192q-84 -80 -202 -80q-121 0 -199 78q-80 76 -80 188z" />
<glyph unicode="&#xf1;" horiz-adv-x="1236" d="M125 0h274v627q25 90 115 161q78 61 164 62q170 0 170 -248v-602h274v670q0 184 -61 288q-78 133 -262 134q-141 0 -254 -57.5t-172 -160.5v199h-248v-1073zM258 1227h152l2 18q2 14 12 33q27 47 84 47q29 0 54.5 -11t68.5 -34q35 -23 68.5 -35t76.5 -12q119 0 199 117 q27 39 40 83t13 62h-151l-3 -20q-2 -10 -14 -35q-31 -47 -92 -47q-33 0 -58.5 12t-66.5 37q-45 25 -74.5 36t-70.5 11q-115 0 -187 -111q-25 -41 -39 -85t-14 -66z" />
<glyph unicode="&#xf2;" d="M57 535q0 -111 39 -211.5t113 -176.5q74 -80 179.5 -123.5t232.5 -43.5t232 44t179 123q72 78 111 177.5t39 210.5q0 113 -39 213t-111 178q-76 80 -180 123t-231 43t-232.5 -44t-179.5 -122q-74 -76 -113 -177.5t-39 -213.5zM340 535q0 67 21.5 127.5t60.5 103.5 q37 43 88 67.5t111 24.5q121 0 200 -90q37 -43 58.5 -103.5t21.5 -127.5q0 -139 -80 -234q-80 -90 -200 -90q-121 0 -199 90q-82 92 -82 232zM360 1495l191 -297l176 53l-113 244h-254z" />
<glyph unicode="&#xf3;" d="M57 535q0 -111 39 -211.5t113 -176.5q74 -80 179.5 -123.5t232.5 -43.5t232 44t179 123q72 78 111 177.5t39 210.5q0 113 -39 213t-111 178q-76 80 -180 123t-231 43t-232.5 -44t-179.5 -122q-74 -76 -113 -177.5t-39 -213.5zM340 535q0 67 21.5 127.5t60.5 103.5 q37 43 88 67.5t111 24.5q121 0 200 -90q37 -43 58.5 -103.5t21.5 -127.5q0 -139 -80 -234q-80 -90 -200 -90q-121 0 -199 90q-82 92 -82 232zM514 1251l176 -53l191 297h-256z" />
<glyph unicode="&#xf4;" d="M57 535q0 -111 39 -211.5t113 -176.5q74 -80 179.5 -123.5t232.5 -43.5t232 44t179 123q72 78 111 177.5t39 210.5q0 113 -39 213t-111 178q-76 80 -180 123t-231 43t-232.5 -44t-179.5 -122q-74 -76 -113 -177.5t-39 -213.5zM303 1288l143 -65l175 129l174 -129l141 65 l-217 207h-199zM340 535q0 67 21.5 127.5t60.5 103.5q37 43 88 67.5t111 24.5q121 0 200 -90q37 -43 58.5 -103.5t21.5 -127.5q0 -139 -80 -234q-80 -90 -200 -90q-121 0 -199 90q-82 92 -82 232z" />
<glyph unicode="&#xf5;" d="M57 535q0 -111 39 -211.5t113 -176.5q74 -80 179.5 -123.5t232.5 -43.5t232 44t179 123q72 78 111 177.5t39 210.5q0 113 -39 213t-111 178q-76 80 -180 123t-231 43t-232.5 -44t-179.5 -122q-74 -76 -113 -177.5t-39 -213.5zM231 1227h152l2 18q2 14 12 33q27 47 84 47 q29 0 54.5 -11t68.5 -34q35 -23 69 -35t77 -12q118 0 198 117q27 39 40 83t13 62h-151l-2 -20q-2 -10 -14 -35q-31 -47 -93 -47q-33 0 -58.5 12t-66.5 37q-45 25 -74.5 36t-70.5 11q-115 0 -186 -111q-25 -41 -39.5 -85t-14.5 -66zM340 535q0 67 21.5 127.5t60.5 103.5 q37 43 88 67.5t111 24.5q121 0 200 -90q37 -43 58.5 -103.5t21.5 -127.5q0 -139 -80 -234q-80 -90 -200 -90q-121 0 -199 90q-82 92 -82 232z" />
<glyph unicode="&#xf6;" d="M57 535q0 -111 39 -211.5t113 -176.5q74 -80 179.5 -123.5t232.5 -43.5t232 44t179 123q72 78 111 177.5t39 210.5q0 113 -39 213t-111 178q-76 80 -180 123t-231 43t-232.5 -44t-179.5 -122q-74 -76 -113 -177.5t-39 -213.5zM309 1237h228v244h-228v-244zM340 535 q0 67 21.5 127.5t60.5 103.5q37 43 88 67.5t111 24.5q121 0 200 -90q37 -43 58.5 -103.5t21.5 -127.5q0 -139 -80 -234q-80 -90 -200 -90q-121 0 -199 90q-82 92 -82 232zM702 1237h228v244h-228v-244z" />
<glyph unicode="&#xf7;" horiz-adv-x="1046" d="M111 500h827v219h-827v-219zM410 98h231v264h-231v-264zM410 858h231v262h-231v-262z" />
<glyph unicode="&#xf8;" d="M57 535q0 -117 42 -221.5t122 -182.5l-119 -139h156l57 67q131 -80 306 -79q127 0 232 44t179 123q72 78 111 177.5t39 210.5q0 121 -44 225t-126 184l114 137h-155l-56 -65q-131 76 -294 76q-127 0 -232.5 -44t-179.5 -122q-74 -76 -113 -177.5t-39 -213.5zM340 535 q0 67 21.5 127.5t60.5 103.5q37 43 88 67.5t111 24.5q76 0 141 -41l-367 -483q-55 84 -55 201zM471 258l371 483q59 -84 59 -204q0 -139 -80 -234q-80 -90 -200 -90q-84 0 -150 45z" />
<glyph unicode="&#xf9;" horiz-adv-x="1265" d="M115 401q0 -209 86 -315t252 -106q137 0 248.5 56t183.5 165l6 -86q8 -59 54 -93t120 -34q53 0 119 12v233q-35 2 -50.5 20.5t-15.5 61.5v758h-274v-665q-47 -96 -121 -145.5t-156 -49.5q-178 0 -178 248v612h-274v-672zM354 1495l191 -297l176 53l-113 244h-254z" />
<glyph unicode="&#xfa;" horiz-adv-x="1265" d="M115 401q0 -209 86 -315t252 -106q137 0 248.5 56t183.5 165l6 -86q8 -59 54 -93t120 -34q53 0 119 12v233q-35 2 -50.5 20.5t-15.5 61.5v758h-274v-665q-47 -96 -121 -145.5t-156 -49.5q-178 0 -178 248v612h-274v-672zM510 1251l176 -53l191 297h-256z" />
<glyph unicode="&#xfb;" horiz-adv-x="1265" d="M115 401q0 -209 86 -315t252 -106q137 0 248.5 56t183.5 165l6 -86q8 -59 54 -93t120 -34q53 0 119 12v233q-35 2 -50.5 20.5t-15.5 61.5v758h-274v-665q-47 -96 -121 -145.5t-156 -49.5q-178 0 -178 248v612h-274v-672zM299 1288l143 -65l174 129l175 -129l141 65 l-217 207h-199z" />
<glyph unicode="&#xfc;" horiz-adv-x="1265" d="M115 401q0 -209 86 -315t252 -106q137 0 248.5 56t183.5 165l6 -86q8 -59 54 -93t120 -34q53 0 119 12v233q-35 2 -50.5 20.5t-15.5 61.5v758h-274v-665q-47 -96 -121 -145.5t-156 -49.5q-178 0 -178 248v612h-274v-672zM305 1237h227v244h-227v-244zM698 1237h228v244 h-228v-244z" />
<glyph unicode="&#xfd;" horiz-adv-x="1126" d="M12 1073l424 -1073q-39 -133 -76 -182q-33 -47 -90 -47q-55 0 -123 20v-237q68 -23 138 -23q135 0 231 69.5t135 186.5l451 1286h-258l-258 -835l-291 835h-283zM481 1251l176 -53l191 297h-256z" />
<glyph unicode="&#xfe;" horiz-adv-x="1230" d="M125 -436h281v491q27 -41 86 -72.5t145 -31.5q109 0 206 46t173 128q76 80 118 183.5t42 215.5q0 105 -37 209.5t-105 186.5q-70 86 -168 135t-213 49q-160 0 -247 -115v465h-281v-1890zM406 360v328q86 168 231 168q57 0 106.5 -25.5t83.5 -72.5q68 -88 68 -230 q0 -67 -20.5 -127.5t-55.5 -103.5q-37 -45 -86 -71.5t-104 -26.5q-39 0 -79 14t-71 39q-74 53 -73 108z" />
<glyph unicode="&#xff;" horiz-adv-x="1126" d="M12 1073l424 -1073q-39 -133 -76 -182q-33 -47 -90 -47q-55 0 -123 20v-237q68 -23 138 -23q135 0 231 69.5t135 186.5l451 1286h-258l-258 -835l-291 835h-283zM276 1237h228v244h-228v-244zM670 1237h227v244h-227v-244z" />
<glyph unicode="&#x152;" horiz-adv-x="2222" d="M63 727q0 -139 50.5 -272t140.5 -236q94 -109 222 -169t278 -60q127 0 236.5 61.5t180.5 163.5v-215h983v248h-700v368h571v248h-571v342h682v248h-965v-213q-72 102 -178 162.5t-235 60.5q-145 0 -273.5 -59t-222.5 -164q-94 -104 -146.5 -237.5t-52.5 -276.5zM350 727 q0 92 26.5 178t78.5 156q53 72 130 112.5t171 40.5q90 0 166.5 -39.5t130.5 -109.5q51 -68 78.5 -155t27.5 -181q0 -90 -26.5 -178t-75.5 -158q-53 -72 -130 -112.5t-171 -40.5q-182 -1 -297 149q-51 68 -80 156t-29 182z" />
<glyph unicode="&#x153;" horiz-adv-x="2070" d="M57 535q0 -119 42 -220.5t118 -177.5t178.5 -116.5t220.5 -40.5q127 0 229.5 58t196.5 183q94 -121 201 -181t234 -60q168 0 301 75q135 78 194 205l-227 66q-27 -66 -99.5 -109t-158.5 -43q-119 0 -201 78q-84 80 -92 197h827q6 23 7 88q-4 123 -46.5 225t-115.5 176 q-74 74 -176.5 114t-219.5 40q-276 0 -430 -250q-150 250 -424 250q-119 0 -221 -41t-178 -117t-118 -178.5t-42 -220.5zM340 532q0 139 82 234q37 43 88 67.5t111 24.5q121 0 200 -92q37 -43 58.5 -103.5t21.5 -127.5q0 -135 -80 -230q-80 -92 -200 -92q-123 0 -201 90 q-80 94 -80 229zM1186 618q8 123 85 199t191 76q115 0 195 -76q78 -78 90 -199h-561z" />
<glyph unicode="&#x178;" horiz-adv-x="1351" d="M8 1454l527 -942v-512h280v508l528 946h-305l-364 -700l-359 700h-307zM365 1618h227v244h-227v-244zM758 1618h227v244h-227v-244z" />
<glyph unicode="&#x2c6;" horiz-adv-x="755" d="M61 1288l144 -65l174 129l174 -129l141 65l-217 207h-198z" />
<glyph unicode="&#x2dc;" horiz-adv-x="894" d="M63 1227h152l2 18q2 14 12 33q27 47 84 47q29 0 54.5 -11t68.5 -34q35 -23 69 -35t77 -12q118 0 198 117q27 39 40.5 83t13.5 62h-152l-2 -20q-2 -10 -14 -35q-31 -47 -93 -47q-33 0 -58.5 12t-65.5 37q-45 25 -75 36t-71 11q-115 0 -186 -111q-25 -41 -39.5 -85 t-14.5 -66z" />
<glyph unicode="&#x2000;" horiz-adv-x="938" />
<glyph unicode="&#x2001;" horiz-adv-x="1876" />
<glyph unicode="&#x2002;" horiz-adv-x="938" />
<glyph unicode="&#x2003;" horiz-adv-x="1876" />
<glyph unicode="&#x2004;" horiz-adv-x="625" />
<glyph unicode="&#x2005;" horiz-adv-x="469" />
<glyph unicode="&#x2006;" horiz-adv-x="312" />
<glyph unicode="&#x2007;" horiz-adv-x="312" />
<glyph unicode="&#x2008;" horiz-adv-x="234" />
<glyph unicode="&#x2009;" horiz-adv-x="375" />
<glyph unicode="&#x200a;" horiz-adv-x="104" />
<glyph unicode="&#x2010;" horiz-adv-x="856" d="M119 438h620v248h-620v-248z" />
<glyph unicode="&#x2011;" horiz-adv-x="856" d="M119 438h620v248h-620v-248z" />
<glyph unicode="&#x2012;" horiz-adv-x="856" d="M119 438h620v248h-620v-248z" />
<glyph unicode="&#x2013;" horiz-adv-x="1234" d="M119 438h999v248h-999v-248z" />
<glyph unicode="&#x2014;" horiz-adv-x="1900" d="M119 438h1663v248h-1663v-248z" />
<glyph unicode="&#x2018;" horiz-adv-x="503" d="M115 969h276v276h-82l45 250h-166l-73 -246v-280z" />
<glyph unicode="&#x2019;" horiz-adv-x="485" d="M106 1231h82l-45 -250h166l74 246v280h-277v-276z" />
<glyph unicode="&#x201a;" horiz-adv-x="512" d="M119 0h82l-47 -268h168l71 264v303h-274v-299z" />
<glyph unicode="&#x201c;" horiz-adv-x="888" d="M115 969h276v276h-82l45 250h-166l-73 -246v-280zM500 969h276v276h-82l45 250h-166l-73 -246v-280z" />
<glyph unicode="&#x201d;" horiz-adv-x="870" d="M106 1231h82l-45 -250h166l74 246v280h-277v-276zM492 1231h81l-45 -250h166l74 246v280h-276v-276z" />
<glyph unicode="&#x201e;" horiz-adv-x="884" d="M119 0h82l-47 -268h168l71 264v303h-274v-299zM492 0h81l-45 -268h166l74 264v303h-276v-299z" />
<glyph unicode="&#x2022;" horiz-adv-x="743" d="M158 717q0 -92 63 -152q59 -63 150 -63q92 0 151 63q63 63 64 152q-1 83 -64 151q-61 61 -151 62q-88 0 -150 -62q-63 -63 -63 -151z" />
<glyph unicode="&#x2026;" horiz-adv-x="1232" d="M119 0h225v295h-225v-295zM504 0h225v295h-225v-295zM889 0h225v295h-225v-295z" />
<glyph unicode="&#x202f;" horiz-adv-x="375" />
<glyph unicode="&#x2039;" horiz-adv-x="733" d="M72 457l540 -363v225l-321 211l321 224v223l-540 -387v-133z" />
<glyph unicode="&#x203a;" horiz-adv-x="733" d="M119 94l540 363v133l-540 387v-223l323 -224l-323 -211v-225z" />
<glyph unicode="&#x205f;" horiz-adv-x="469" />
<glyph unicode="&#x20ac;" horiz-adv-x="1634" d="M68 496h213q37 -106 99 -198.5t146 -158.5q188 -152 418 -151q88 0 181.5 22.5t172.5 65.5q176 94 244 250l-231 133q-45 -111 -154 -170q-96 -51 -205 -51q-125 0 -223 69.5t-154 188.5h375l62 151h-480q-6 41 -6 82v23h490l61 151h-524q39 133 137 219q106 90 258 90 q106 0 199 -47q102 -53 158 -170l217 150q-74 145 -221.5 231t-344.5 86q-139 0 -256.5 -44t-210.5 -124q-88 -76 -147 -177t-84 -214h-100l-62 -151h144v-15q0 -47 6 -90h-115z" />
<glyph unicode="&#x2122;" horiz-adv-x="1697" d="M127 1280h195v-438h178v438h194v178h-567v-178zM788 842h179v383l131 -297h145l131 297v-383h178v612h-264l-119 -321l-118 321h-263v-612z" />
<glyph unicode="&#x25fc;" horiz-adv-x="1075" d="M0 0v1075h1075v-1075h-1075z" />
</font>
</defs>
</svg>
