<?xml version="1.0" standalone="no"?>
<!DOCTYPE svg PUBLIC "-//W3C//DTD SVG 1.1//EN" "http://www.w3.org/Graphics/SVG/1.1/DTD/svg11.dtd" >
<svg xmlns="http://www.w3.org/2000/svg">
<metadata></metadata>
<defs>
<font id="rt_ralewaymedium" horiz-adv-x="1134" >
<font-face units-per-em="2048" ascent="1638" descent="-410" />
<missing-glyph horiz-adv-x="518" />
<glyph unicode="&#xfb01;" horiz-adv-x="1075" d="M57 928h146v-928h180v928h367v-928h180v1069h-547v29q0 104 55 178q63 84 170 84q72 0 138.5 -23.5t109.5 -60.5l78 133q-154 106 -336 107q-188 0 -297 -134q-49 -59 -73.5 -133.5t-24.5 -156.5v-23h-146v-141z" />
<glyph unicode="&#xfb02;" horiz-adv-x="1241" d="M57 928h146v-928h180v928h211v141h-211v18q10 272 215 273q111 0 166 -74q43 -59 43 -153v-943q0 -88 60.5 -146t166.5 -58q39 0 76 6q70 8 117 24q18 6 20 9l-30 147l-41 -12q-39 -12 -80 -13q-51 0 -82 41q-27 35 -27 84v899q0 156 -96 248q-102 96 -295 97 q-190 0 -291.5 -110t-101.5 -300v-37h-146v-141z" />
<glyph unicode="&#xfb03;" horiz-adv-x="1566" d="M57 928h146v-928h180v928h311v-928h180v928h367v-928h180v1069h-547v29q0 106 54 178q63 84 176 84q70 0 137.5 -23.5t106.5 -60.5l77 133q-166 106 -338 107q-100 0 -178 -35t-129 -99q-115 55 -241 56q-152 0 -250 -115q-43 -49 -64.5 -113.5t-21.5 -132.5v-8h-146 v-141zM383 1069v10q0 84 43 140q49 63 145 63q104 0 156 -37q-16 -31 -24.5 -82t-8.5 -94h-311z" />
<glyph unicode="&#xfb04;" horiz-adv-x="1738" d="M57 928h146v-928h180v928h317v-928h181v928h209v141h-209v8q0 127 49 199q57 84 166 84t164 -74q43 -59 43 -153v-943q0 -88 61 -146t168 -58q37 0 76 6q61 8 116 24q18 6 19 9l-29 147l-43 -12q-39 -12 -80 -13q-51 0 -82 41q-27 35 -26 84v899q0 156 -97 248 q-102 96 -292 97q-211 0 -314 -134q-55 27 -108.5 41.5t-122.5 14.5q-78 0 -143.5 -29t-110.5 -80t-68.5 -116.5t-23.5 -135.5v-8h-146v-141zM383 1069v14q0 78 51 136q53 63 150 63q92 0 141 -35q-25 -51 -25 -178h-317z" />
<glyph horiz-adv-x="0" />
<glyph unicode="&#xd;" horiz-adv-x="0" />
<glyph unicode=" "  horiz-adv-x="518" />
<glyph unicode="&#x09;" horiz-adv-x="518" />
<glyph unicode="&#xa0;" horiz-adv-x="518" />
<glyph unicode="!" horiz-adv-x="536" d="M178 0h180v254h-180v-254zM178 492h180v976h-180v-976z" />
<glyph unicode="&#x22;" horiz-adv-x="663" d="M137 1028h156v442h-156v-442zM371 1028h155v442h-155v-442z" />
<glyph unicode="#" horiz-adv-x="1417" d="M76 412h231l-102 -412h149l101 412h344l-103 -412h150l100 412h305v139h-272l88 364h274v132h-241l100 407h-149l-99 -407h-344l101 407h-150l-98 -407h-295v-132h262l-88 -364h-264v-139zM487 551l88 364h345l-89 -364h-344z" />
<glyph unicode="$" horiz-adv-x="1273" d="M72 190q223 -184 524 -202v-207h90v205q106 2 199.5 27.5t161.5 74.5q145 106 145 303q0 96 -33 164t-98 117q-61 45 -149.5 76.5t-211.5 58.5l-26 6v485q115 -2 221 -49q88 -41 145 -100l86 149q-180 152 -440 164v207h-90v-207q-213 -12 -336 -121q-133 -117 -133 -307 q0 -166 115 -252q96 -76 333 -131l31 -8v-489q-131 10 -266 71q-106 47 -180 121zM317 1063q0 106 72 166.5t217 68.5v-471q-160 39 -219 84q-70 51 -70 152zM674 152v475q162 -41 237 -95q43 -31 63.5 -68.5t20.5 -90.5q0 -109 -83 -165t-238 -56z" />
<glyph unicode="%" horiz-adv-x="1501" d="M76 1176q0 -61 24.5 -115.5t67.5 -95.5q94 -88 223 -88t223 88q43 41 68 95t25 116q0 61 -25 116.5t-68 96.5q-92 86 -223 86t-223 -86q-43 -41 -67.5 -96.5t-24.5 -116.5zM145 68l86 -78l557 712l568 687l-88 75l-549 -706zM207 1176q0 39 14.5 75.5t38.5 65.5 q53 59 131 59t129 -57q55 -61 55 -143q0 -80 -53 -140q-25 -29 -59.5 -45t-71.5 -16t-70.5 15.5t-58.5 43.5q-55 59 -55 142zM795 279q0 -61 24.5 -115.5t67.5 -95.5q94 -88 223 -88t223 88q43 41 67.5 95t24.5 116q0 61 -24.5 116.5t-67.5 96.5q-92 86 -223 86t-223 -86 q-43 -41 -67.5 -96.5t-24.5 -116.5zM926 279q0 39 14 75.5t39 65.5q53 59 131 59t129 -57q55 -61 55 -143q0 -80 -53 -140q-25 -29 -59.5 -45t-71.5 -16t-70.5 15.5t-58.5 43.5q-55 59 -55 142z" />
<glyph unicode="&#x26;" horiz-adv-x="1394" d="M92 385q0 -86 36 -159.5t99 -129.5q63 -55 150.5 -85.5t185.5 -30.5q123 0 233.5 46t198.5 132l152 -158h237l-280 293q123 190 125 457h-150q0 -188 -82 -347l-370 390q80 53 129 91t84 79q86 98 86 213q0 66 -27 122t-76 95q-102 80 -252 80q-78 0 -147.5 -25 t-118.5 -68q-51 -45 -79.5 -106.5t-28.5 -128.5q0 -70 43 -150q41 -76 139 -186q-125 -84 -199 -178q-88 -113 -88 -246zM266 383q0 90 55.5 165t161.5 150l414 -436q-63 -68 -144 -103.5t-171 -35.5q-127 -1 -217 67q-45 33 -72 83.5t-27 109.5zM362 1149q0 80 58.5 133 t150.5 53q82 0 135.5 -46t53.5 -118t-58.5 -132t-179.5 -138q-86 88 -127 156q-33 49 -33 92z" />
<glyph unicode="'" horiz-adv-x="430" d="M137 1026h156v444h-156v-444z" />
<glyph unicode="(" horiz-adv-x="579" d="M86 709q0 -359 293 -795l133 70q-123 193 -190.5 377t-67.5 341q0 174 92 422q66 174 170 338l-139 62q-135 -225 -205 -404q-86 -219 -86 -411z" />
<glyph unicode=")" horiz-adv-x="579" d="M63 1462q104 -164 170 -338q92 -248 93 -422q0 -158 -68 -342t-190 -376l133 -70q293 436 293 795q0 198 -84 411q-66 168 -207 404z" />
<glyph unicode="*" horiz-adv-x="673" d="M121 1280l141 -45l-90 -133l76 -51l90 137l88 -137l78 51l-92 133l141 45l-27 86l-143 -55l6 151h-104l6 -151l-144 55z" />
<glyph unicode="+" horiz-adv-x="851" d="M102 653h242v-262h164v262h242v148h-242v262h-164v-262h-242v-148z" />
<glyph unicode="," horiz-adv-x="432" d="M131 16h62l-41 -182h88l61 182v213h-170v-213z" />
<glyph unicode="-" horiz-adv-x="866" d="M131 477h604v164h-604v-164z" />
<glyph unicode="." horiz-adv-x="413" d="M131 0h152v229h-152v-229z" />
<glyph unicode="/" horiz-adv-x="1296" d="M55 0h201l983 1454h-203z" />
<glyph unicode="0" horiz-adv-x="1413" d="M96 717q0 -125 40 -253t116 -235q82 -115 195.5 -181t259.5 -68q135 2 248.5 65.5t197.5 171.5q80 104 122 234.5t42 265.5q0 123 -40 252t-114 235q-82 117 -196.5 183.5t-259.5 66.5q-135 0 -249 -62.5t-198 -172.5q-78 -104 -121 -236.5t-43 -265.5zM283 717 q0 94 26.5 193.5t77.5 183.5q55 90 135 142t185 52q96 0 176 -50t137 -136q53 -80 81.5 -182.5t28.5 -202.5q0 -94 -25.5 -194.5t-76.5 -182.5q-55 -90 -136 -142.5t-185 -52.5q-190 0 -314 187q-53 80 -80.5 181t-29.5 204z" />
<glyph unicode="1" horiz-adv-x="903" d="M88 1104q80 0 188 65q104 63 138 111v-1116h-279v-164h723v164h-260v1306h-184l-33 -34q-27 -27 -78 -68q-125 -96 -215 -96v-168z" />
<glyph unicode="2" horiz-adv-x="1208" d="M94 0h1004v164h-774q0 72 17 127t58 102q78 90 283 187q100 47 165.5 83.5t117.5 84.5q131 121 131 301q0 88 -30 165.5t-87 133.5q-129 125 -346 125q-197 0 -361 -103q-98 -61 -168 -145l117 -117q57 72 150 129q115 68 243 68q135 0 211 -76q70 -72 70 -185 q0 -88 -39 -141q-68 -100 -231 -168l-39 -18q-74 -33 -103 -47q-100 -49 -171.5 -106.5t-118.5 -133.5q-98 -156 -99 -430z" />
<glyph unicode="3" horiz-adv-x="1198" d="M94 303q27 -145 162 -233q129 -88 319 -88q103 0 197 26.5t166 77.5q158 111 158 295q0 137 -86 240q-94 109 -232 131q137 33 210 114.5t73 204.5q0 170 -139 287q-68 55 -158 85t-195 30q-152 0 -276 -60q-133 -68 -193 -170l121 -125q41 88 127 137q98 57 223 58 q57 0 111.5 -17.5t97.5 -48.5q43 -33 66.5 -81t23.5 -103q0 -121 -109.5 -181.5t-303.5 -60.5h-70v-153h70q213 0 332.5 -69t119.5 -196q0 -57 -24.5 -104t-71.5 -80t-109.5 -51t-130.5 -18q-160 0 -266 86q-47 37 -76.5 84t-33.5 92z" />
<glyph unicode="4" horiz-adv-x="1181" d="M55 371h684v-371h181v371h180v164h-180v919h-125l-740 -922v-161zM244 535l514 643v-643h-514z" />
<glyph unicode="5" horiz-adv-x="1163" d="M98 252q68 -125 192 -198.5t277 -73.5q109 0 203 34.5t164 100.5q70 68 108.5 155.5t38.5 194.5q0 100 -35.5 185t-101.5 149q-63 61 -150 95t-188 34q-174 -1 -266 -103l88 463h573v166h-706l-78 -393q-23 -125 -55 -283l-21 -102l-10 -53h164q47 72 124 110.5t165 38.5 q133 0 223 -86q90 -94 90 -225q0 -141 -92 -230q-45 -43 -105.5 -66.5t-130.5 -23.5q-111 0 -206 56.5t-152 152.5z" />
<glyph unicode="6" horiz-adv-x="1241" d="M104 606q0 -145 38 -261t108 -198t167 -124.5t214 -42.5q109 0 204 38.5t166 108.5q72 68 111 160t39 194q0 101 -38 190t-107 158q-68 68 -161 105t-196 37q-129 0 -229.5 -63.5t-145.5 -170.5q2 268 105 420q100 150 268 150q109 0 197 -56.5t133 -152.5l110 108 q-66 123 -181 190.5t-257 67.5q-252 0 -395 -213q-150 -223 -150 -645zM287 481q0 70 27.5 133.5t74.5 110.5q104 100 244 100q68 0 131 -26.5t113 -73.5q47 -47 74.5 -110.5t27.5 -133.5q0 -141 -102 -243q-49 -49 -113 -76t-131 -27q-142 1 -244 103t-102 243z" />
<glyph unicode="7" horiz-adv-x="1095" d="M66 1288h745l-649 -1288h203l733 1454h-1032v-166z" />
<glyph unicode="8" horiz-adv-x="1224" d="M100 420q0 -90 38 -170t108 -139t163 -93t199 -34q104 0 197.5 30.5t165.5 85.5q74 57 113.5 136t39.5 176q0 127 -82 229q-68 86 -192 137q98 41 162.5 120t64.5 177q0 172 -149 283q-66 47 -149 71.5t-167 24.5t-164.5 -25.5t-146.5 -72.5q-152 -111 -151 -283 q0 -100 65 -178q61 -78 158 -117q-51 -18 -99.5 -53t-85.5 -78q-88 -102 -88 -227zM285 422q0 61 27.5 113.5t74.5 91.5q94 76 223 75q61 0 119.5 -18t106.5 -53q106 -82 106 -207q0 -59 -27.5 -110.5t-74.5 -90.5q-47 -37 -105.5 -57.5t-120.5 -20.5q-123 0 -223 74 q-106 80 -106 203zM332 1067q0 96 86 166q76 59 192 59q119 0 197 -59q86 -66 86 -162q0 -104 -92 -170q-84 -59 -189 -59q-106 0 -188 57q-92 66 -92 168z" />
<glyph unicode="9" horiz-adv-x="1239" d="M90 963q0 -101 38 -190t108 -157q68 -68 159.5 -105.5t196.5 -37.5q129 0 229.5 63.5t145.5 170.5q-2 -266 -102.5 -417t-270.5 -151q-109 0 -197 56.5t-133 152.5l-110 -108q66 -123 181.5 -191.5t256.5 -68.5q252 0 395 215q150 223 150 645q0 145 -38 261t-108 197 q-70 80 -167 123t-214 43q-109 0 -203 -37.5t-165 -107.5q-72 -68 -112 -161t-40 -195zM264 965q0 68 27.5 131t75.5 112q47 49 108.5 76t132.5 27q68 0 132.5 -27t113.5 -76t75.5 -113.5t26.5 -131.5q0 -68 -26.5 -130.5t-75.5 -109.5t-112.5 -74.5t-131.5 -27.5 q-137 0 -243 102q-49 47 -76 108.5t-27 133.5z" />
<glyph unicode=":" horiz-adv-x="411" d="M131 0h150v229h-150v-229zM131 831h150v230h-150v-230z" />
<glyph unicode=";" horiz-adv-x="452" d="M141 16h62l-41 -182h88l61 182v213h-170v-213zM141 831h150v230h-150v-230z" />
<glyph unicode="&#x3c;" horiz-adv-x="1044" d="M68 479l860 -512v201l-598 362l598 369v193l-860 -519v-94z" />
<glyph unicode="=" horiz-adv-x="899" d="M137 367h625v122h-625v-122zM137 641h625v123h-625v-123z" />
<glyph unicode="&#x3e;" horiz-adv-x="1044" d="M117 -33l860 512v94l-860 519v-193l598 -369l-598 -362v-201z" />
<glyph unicode="?" horiz-adv-x="980" d="M70 1208l120 -80q45 86 121 138q84 57 183 57q102 0 174 -59q78 -68 77 -177q0 -68 -28 -118q-53 -90 -164 -150q-59 -33 -86 -51q-92 -59 -132 -140t-40 -196h151q1 117 64 191q25 27 57.5 48t79.5 48q70 39 110 66.5t70 64.5q78 92 78 229q0 186 -127 297 q-55 47 -129 72t-151 25q-139 0 -254 -68q-123 -74 -174 -197zM299 0h152v238h-152v-238z" />
<glyph unicode="@" horiz-adv-x="1720" d="M94 471q0 -164 57.5 -306t161.5 -247q102 -104 237.5 -160.5t287.5 -56.5q180 0 346 82l-29 78q-82 -39 -155.5 -58.5t-159.5 -19.5q-139 0 -261 53t-212 150q-88 94 -137.5 219t-49.5 266q0 145 51.5 271t145.5 219q92 92 215 142t262 50q141 0 264 -52t215 -149 q92 -94 141.5 -221t49.5 -272q0 -147 -39 -252q-57 -150 -164 -150q-66 0 -88 62q-16 45 -16 151v244q0 88 -10.5 157.5t-43.5 125.5q-80 139 -293 139q-182 0 -340 -105l41 -100q125 94 283 94q141 0 199 -84q49 -72 49 -221q-123 47 -252 47q-156 0 -260 -61 q-57 -33 -90 -89.5t-33 -133.5q0 -125 83 -202t228 -77q104 0 194.5 40t153.5 106q6 -43 14.5 -73t26.5 -52q41 -57 138 -58q125 0 204 101q57 72 84 208q16 82 17 179q0 174 -58.5 319.5t-165.5 249.5q-104 102 -240 156.5t-288 54.5q-149 0 -287.5 -53.5t-242.5 -151.5 q-111 -104 -172.5 -245.5t-61.5 -313.5zM584 291q0 94 80 141q68 39 184 39q96 0 160 -20q66 -20 92 -25v-76q0 -63 -25.5 -112.5t-99.5 -81.5q-41 -21 -91 -33t-98 -12q-92 0 -147 50t-55 130z" />
<glyph unicode="A" horiz-adv-x="1386" d="M20 0h197l170 426h610l172 -426h197l-594 1454h-156zM424 569l270 672l262 -672h-532z" />
<glyph unicode="B" horiz-adv-x="1374" d="M174 0h690q88 0 165 26.5t136 75.5t92 120t33 153q0 135 -72.5 234.5t-197.5 135.5q98 43 153.5 135.5t55.5 202.5q0 68 -23.5 135.5t-66.5 118.5q-45 55 -106.5 86t-135.5 31h-723v-1454zM358 160v499h521q96 0 161 -75q31 -37 47.5 -82t16.5 -94q0 -50 -18.5 -94 t-51.5 -78q-72 -76 -170 -76h-506zM358 809v485h476q45 0 84.5 -18.5t68.5 -50.5q29 -33 44.5 -78t15.5 -96q0 -49 -16.5 -93.5t-47.5 -76.5q-68 -72 -162 -72h-463z" />
<glyph unicode="C" horiz-adv-x="1396" d="M80 737q0 -139 50 -273t142 -239q94 -111 220 -174t270 -63q176 0 340 88q170 92 237 250l-153 84q-57 -125 -182 -195q-104 -61 -234 -61q-106 0 -198.5 46t-161.5 128q-68 82 -106 184t-38 217q0 104 33 205.5t94 181.5q66 84 160 132t211 48q125 0 225 -53 q119 -63 178 -192l146 94q-70 145 -210 231t-331 86q-158 0 -288 -60.5t-222 -168.5q-88 -102 -135 -232.5t-47 -263.5z" />
<glyph unicode="D" horiz-adv-x="1466" d="M174 0h504q158 0 288 52t224 149q92 96 141 230t49 298q0 152 -45 284t-131 228q-90 100 -223 156.5t-303 56.5h-504v-1454zM358 164v1126h320q121 0 217 -41t166 -116q66 -74 99.5 -177.5t33.5 -226.5q0 -121 -34 -224.5t-97 -178.5q-66 -78 -164 -120t-221 -42h-320z " />
<glyph unicode="E" horiz-adv-x="1239" d="M174 0h987v164h-803v502h682v153h-682v471h785v164h-969v-1454z" />
<glyph unicode="F" horiz-adv-x="1193" d="M174 0h184v651h654v154h-654v485h777v164h-961v-1454z" />
<glyph unicode="G" horiz-adv-x="1462" d="M80 731q0 -139 51 -272t143 -238q94 -109 218 -170t266 -61q248 0 442 207v-197h156v725h-469v-139h313v-201q-190 -229 -428 -229q-106 0 -198.5 44t-161.5 126q-70 80 -108 183t-38 218q0 111 35 214t98 183q66 82 157 128t198 46q137 0 244.5 -62t172.5 -187l142 98 q-76 150 -214 233.5t-341 83.5q-143 0 -268 -57t-218 -162q-92 -102 -142 -235t-50 -279z" />
<glyph unicode="H" horiz-adv-x="1517" d="M174 0h184v662h801v-662h184v1454h-184v-629h-801v629h-184v-1454z" />
<glyph unicode="I" horiz-adv-x="532" d="M174 0h184v1454h-184v-1454z" />
<glyph unicode="J" horiz-adv-x="993" d="M25 68q133 -91 315 -91q162 0 261 51.5t153 151.5q49 90 65.5 218t16.5 317v739h-185v-739q0 -152 -11 -254.5t-40 -169.5q-33 -76 -95.5 -112t-164.5 -36q-82 0 -152.5 20.5t-115.5 53.5z" />
<glyph unicode="K" horiz-adv-x="1335" d="M174 0h184v444l252 263l529 -707h200l-616 813l584 641h-199l-750 -805v803h-184v-1452z" />
<glyph unicode="L" horiz-adv-x="1196" d="M174 0h995v164h-811v1290h-184v-1454z" />
<glyph unicode="M" horiz-adv-x="1789" d="M174 0h184v1124l486 -862h104l484 862v-1124h184v1454h-193l-528 -944l-526 944h-195v-1454z" />
<glyph unicode="N" horiz-adv-x="1576" d="M174 0h184v1110l889 -1110h156v1452h-184v-1130l-902 1132h-143v-1454z" />
<glyph unicode="O" horiz-adv-x="1531" d="M80 727q0 -139 49 -272t139 -236q94 -109 220 -169t276 -60q143 0 270 59.5t221 163.5q92 102 143.5 235.5t51.5 276.5q0 137 -49 269t-139 237q-94 109 -220.5 171t-273.5 62q-143 0 -270 -59t-222 -164q-94 -104 -145 -237.5t-51 -276.5zM266 727q0 107 36 209t99 182 q68 84 160 131t205 47q106 0 198.5 -45t161.5 -127q66 -80 102 -183t36 -214q0 -106 -34 -208.5t-97 -180.5q-68 -86 -161 -134t-206 -48q-109 0 -202 46t-161 128q-66 80 -101.5 183t-35.5 214z" />
<glyph unicode="P" horiz-adv-x="1275" d="M174 0h184v522h435q94 0 172.5 38t138.5 106q55 68 86 150.5t31 172.5q0 86 -32 169t-91 151t-141.5 106.5t-176.5 38.5h-606v-1454zM358 686v604h412q111 0 186 -86q37 -43 57.5 -98t20.5 -117q0 -59 -18.5 -114.5t-50.5 -98.5q-68 -90 -183 -90h-424z" />
<glyph unicode="Q" horiz-adv-x="1527" d="M80 727q0 -139 49 -272t139 -236q94 -106 221 -167.5t275 -61.5q213 0 389 129l102 -119h181l-183 211q94 104 145.5 236.5t51.5 277.5q0 137 -49 269t-139 237q-94 109 -220.5 171t-273.5 62q-143 0 -270 -59t-222 -164q-94 -104 -145 -237.5t-51 -276.5zM266 727 q0 106 36 208.5t99 184.5q68 84 160 131t205 47q109 0 200 -46t160 -128q66 -80 102 -183t36 -214q0 -104 -33 -202.5t-92 -178.5l-111 129h-180l194 -227q-121 -92 -276 -92q-109 0 -202 46t-161 128q-66 80 -101.5 183t-35.5 214z" />
<glyph unicode="R" horiz-adv-x="1345" d="M174 0h184v522h385l332 -522h209l-352 557q139 37 223 158q39 57 60.5 127.5t21.5 146.5q0 86 -31.5 169t-91.5 151q-59 68 -141 106.5t-176 38.5h-623v-1454zM358 686v604h428q109 0 187 -88q78 -94 78 -213q0 -59 -18.5 -113.5t-51.5 -97.5t-80 -67.5t-102 -24.5h-441z " />
<glyph unicode="S" horiz-adv-x="1247" d="M59 190q123 -100 273.5 -152t318.5 -52q240 0 377 98q152 104 152 307q0 96 -33 164t-98 117q-61 45 -149.5 76.5t-211.5 58.5q-113 27 -179.5 47t-109.5 45q-49 29 -71.5 67t-22.5 97q0 115 81 176t247 61q127 0 237 -47q109 -45 158 -104l86 149q-203 166 -477 166 q-115 0 -211 -27.5t-164 -82.5q-147 -119 -147 -320q0 -166 114 -252q96 -76 334 -131q117 -29 189.5 -51t121.5 -51q55 -31 82 -74t27 -102q0 -109 -85 -165t-243 -56q-152 0 -303 63q-135 55 -205 131z" />
<glyph unicode="T" horiz-adv-x="1257" d="M35 1290h502v-1290h184v1290h502v164h-1188v-164z" />
<glyph unicode="U" horiz-adv-x="1546" d="M154 719q0 -315 137 -504q160 -225 483 -225q317 0 477 217q72 96 107 228t35 284v735h-185v-735q0 -242 -90 -385q-113 -178 -346 -178q-231 0 -340 174q-94 145 -94 389v735h-184v-735z" />
<glyph unicode="V" horiz-adv-x="1392" d="M20 1454l596 -1454h160l594 1454h-194l-480 -1223l-481 1223h-195z" />
<glyph unicode="W" horiz-adv-x="2205" d="M37 1454l461 -1454h192l408 1153l418 -1153h192l461 1454h-209l-365 -1182l-399 1182h-201l-385 -1182l-366 1182h-207z" />
<glyph unicode="X" horiz-adv-x="1304" d="M6 1454l547 -737l-530 -717h204l426 586l426 -586h203l-530 717l546 737h-202l-443 -606l-442 606h-205z" />
<glyph unicode="Y" horiz-adv-x="1341" d="M27 1454l551 -919v-535h184v530l553 924h-201l-444 -758l-441 758h-202z" />
<glyph unicode="Z" horiz-adv-x="1292" d="M66 0h1153v164h-922l922 1147v143h-1135v-164h920l-938 -1147v-143z" />
<glyph unicode="[" horiz-adv-x="552" d="M172 -82h287v148h-119v1302h119v148h-287v-1598z" />
<glyph unicode="\" horiz-adv-x="1208" d="M57 1454l893 -1454h201l-891 1454h-203z" />
<glyph unicode="]" horiz-adv-x="552" d="M94 66v-148h287v1598h-287v-148h119v-1302h-119z" />
<glyph unicode="^" horiz-adv-x="1132" d="M86 621h150l331 671l326 -671h154l-404 833h-151z" />
<glyph unicode="_" horiz-adv-x="1030" d="M129 0v-164h772v164h-772z" />
<glyph unicode="`" horiz-adv-x="475" d="M98 1495l183 -248l116 41l-121 207h-178z" />
<glyph unicode="a" horiz-adv-x="1277" d="M76 532q0 -111 37 -211t104 -176q70 -78 164 -121.5t203 -43.5q123 0 219 59t153 164v-203h181v1059h-181v-205q-57 106 -159.5 169.5t-229.5 63.5q-102 0 -191 -43t-157 -118q-68 -76 -105.5 -177.5t-37.5 -216.5zM262 530q0 74 25.5 146t72.5 129q49 59 115 93t143 34 q111 0 203 -72t135 -184v-303q-47 -107 -133 -172.5t-198 -65.5q-78 0 -144.5 31t-115.5 88q-49 53 -76 125t-27 151z" />
<glyph unicode="b" horiz-adv-x="1275" d="M145 0h160v201q61 -100 164.5 -160.5t224.5 -60.5q105 0 198 44t163 119q68 74 106.5 175.5t38.5 211.5q0 106 -33.5 209t-95.5 179q-66 80 -155 124.5t-195 44.5q-125 0 -224.5 -61t-170.5 -170v639h-181v-1495zM326 373v309q55 115 137 176q94 74 203 74q76 0 141 -33 t113 -90q47 -55 71.5 -128t24.5 -151t-26.5 -148.5t-76.5 -125.5q-51 -57 -118.5 -89t-145.5 -32q-98 0 -198 70q-47 33 -81 76t-44 92z" />
<glyph unicode="c" d="M74 537q0 -113 40 -214.5t111 -177.5q76 -78 176.5 -121.5t216.5 -43.5q156 0 285 75q123 72 172 193l-176 53q-23 -63 -106 -117q-82 -49 -179 -49q-74 0 -138 31t-111 86q-51 55 -79 129t-28 156q0 168 102 282q47 53 113 83t139 30q90 0 164 -42t115 -118l176 55 q-61 121 -178 190.5t-273 69.5q-119 0 -218 -43t-175 -118q-72 -76 -110.5 -176.5t-38.5 -212.5z" />
<glyph unicode="d" horiz-adv-x="1288" d="M76 532q0 -111 38 -211t105 -176q70 -78 164 -121.5t203 -43.5q119 0 224 59t167 162v-90q0 -47 40 -83t93 -36q29 0 80 8v156q-57 2 -57 65v1274h-181v-639q-63 102 -165.5 166.5t-225.5 64.5q-104 0 -193 -43t-155 -120q-66 -76 -101.5 -178.5t-35.5 -213.5zM262 530 q0 76 25.5 149t70.5 130q102 123 254 123q51 0 103.5 -18.5t99.5 -53.5t83 -81t54 -97v-307q-10 -49 -42.5 -93t-80.5 -77q-47 -33 -99 -51.5t-101 -18.5q-76 0 -142.5 31t-117.5 86q-49 55 -78 128t-29 150z" />
<glyph unicode="e" horiz-adv-x="1210" d="M74 535q0 -113 40 -214.5t111 -177.5q74 -78 174.5 -120.5t218.5 -42.5h4q158 0 285 77q127 76 178 193l-155 43q-33 -80 -121 -129t-184 -49q-68 0 -131.5 26.5t-112.5 73.5q-104 102 -117 258h887q4 29 4 70q0 106 -38 205.5t-107 175.5q-72 76 -172.5 119.5 t-216.5 43.5q-119 0 -219.5 -43t-174.5 -120q-74 -76 -113.5 -176.5t-39.5 -212.5zM260 606q6 76 36 139.5t79 110.5q100 96 246 96q141 0 247 -96q49 -45 80 -110.5t37 -139.5h-725z" />
<glyph unicode="f" horiz-adv-x="702" d="M57 928h146v-928h180v928h285v141h-285v29q0 129 47 196.5t137 67.5q41 0 83 -12.5t71 -32.5l45 133q-49 31 -110.5 48.5t-125.5 17.5q-152 0 -239.5 -113t-87.5 -311v-23h-146v-141z" />
<glyph unicode="g" horiz-adv-x="1277" d="M78 532q0 -106 36 -204.5t101 -173.5q68 -78 159 -122t197 -44q115 0 217 57t164 156v-189q0 -156 -108 -248q-95 -81 -252 -81h-4q-119 0 -219.5 48t-161.5 140l-105 -92q80 -117 195 -176.5t291 -59.5q113 0 212 31t173 90q160 129 160 348v1057h-160v-213 q-156 231 -400 231q-109 0 -199.5 -43t-158.5 -120q-66 -76 -101.5 -177.5t-35.5 -214.5zM260 528q0 74 24.5 147t69.5 130q47 59 112.5 93t143.5 34q111 0 203 -70q94 -72 139 -180v-307q-10 -45 -40.5 -87t-75.5 -77q-100 -76 -209 -76q-76 0 -142.5 31t-117.5 86 q-49 55 -78 127t-29 149z" />
<glyph unicode="h" horiz-adv-x="1208" d="M145 0h181v645q37 119 137 201q100 80 205 80q225 0 225 -328v-598h180v639q0 204 -74 319q-82 129 -264 129q-129 0 -237.5 -65.5t-171.5 -181.5v655h-181v-1495z" />
<glyph unicode="i" horiz-adv-x="471" d="M145 0h181v1069h-181v-1069zM145 1270h181v225h-181v-225z" />
<glyph unicode="j" horiz-adv-x="485" d="M-238 -295q94 -86 246 -86q66 0 125.5 25.5t106.5 72.5t73.5 110.5t26.5 137.5v1104h-180v-1116q0 -76 -54 -125q-53 -49 -118 -49q-88 0 -142 47zM160 1270h180v225h-180v-225z" />
<glyph unicode="k" horiz-adv-x="1103" d="M145 0h181v330l204 192l369 -522h195l-447 625l426 442h-199l-548 -555v983h-181v-1495z" />
<glyph unicode="l" horiz-adv-x="585" d="M150 211q0 -107 60 -166t165 -59q47 0 108.5 12t106.5 31l-29 145q-57 -24 -106 -24h-4q-57 0 -89 33.5t-32 92.5v1219h-180v-1284z" />
<glyph unicode="m" horiz-adv-x="1892" d="M145 0h181v645q37 127 125 204t196 77q106 0 159.5 -79t53.5 -249v-598h180v643q37 127 125 205t197 78q215 0 215 -328v-598h180v639v6q0 201 -69 316q-77 126 -251 126h-3q-264 0 -408 -260q-18 119 -99 189.5t-212 70.5q-129 0 -234.5 -64.5t-171.5 -182.5v229h-164 v-1069z" />
<glyph unicode="n" horiz-adv-x="1208" d="M145 0h181v645q37 123 141 201q106 80 215 80q106 0 158.5 -79t52.5 -249v-598h180v639v6q0 205 -67 316q-77 126 -249 126h-3q-141 0 -261 -67.5t-184 -179.5v229h-164v-1069z" />
<glyph unicode="o" horiz-adv-x="1226" d="M74 532q0 -111 39 -211t110 -176q74 -78 173.5 -121.5t215.5 -43.5q117 0 216.5 44t175.5 121q72 76 110.5 176.5t38.5 210.5q0 111 -39 212.5t-110 177.5q-72 78 -174.5 121.5t-217.5 43.5t-214 -44t-173 -121q-72 -76 -111.5 -177.5t-39.5 -212.5zM258 530 q0 168 104 285q49 55 114 86t136 31q72 0 137.5 -30t114.5 -85t77 -129t28 -153q0 -84 -28 -156t-77 -127t-113.5 -86t-138.5 -31q-72 0 -136 30t-114 85q-104 115 -104 280z" />
<glyph unicode="p" horiz-adv-x="1275" d="M145 -436h181v647q63 -104 164.5 -167.5t230.5 -63.5q104 0 192 43t154 120q63 74 98 175.5t35 216.5q0 109 -38 209t-105 178q-70 78 -162 121.5t-201 43.5q-121 0 -222 -59t-167 -160v201h-160v-1505zM326 387v305q10 47 43.5 92t81.5 78q104 70 198 70q76 0 142.5 -31 t117.5 -86q49 -57 78 -130t29 -150q0 -76 -24.5 -148t-69.5 -127q-47 -59 -113 -92t-143 -33q-107 0 -203 74q-90 68 -137 178z" />
<glyph unicode="q" horiz-adv-x="1275" d="M76 535q0 -109 34.5 -209.5t98.5 -178.5q66 -80 155 -123.5t191 -43.5q248 0 395 231v-502q0 -59 42 -101t100 -42q47 0 96 6v156q-57 2 -58 65v1276h-159v-203q-61 100 -165 160.5t-224 60.5q-104 0 -196.5 -43t-162.5 -120q-70 -76 -108.5 -177.5t-38.5 -211.5z M260 530q0 76 26.5 149t75.5 130t115 90t144 33q53 0 107 -20.5t101 -57.5q47 -35 79 -83t42 -99v-307q-59 -104 -142 -167t-192 -63q-75 0 -140.5 31t-115.5 86q-47 53 -73.5 126t-26.5 152z" />
<glyph unicode="r" horiz-adv-x="743" d="M145 0h181v659q43 115 145 181.5t240 70.5v164q-7 2 -25 2h-35q-102 -8 -192 -76.5t-146 -179.5v248h-168v-1069z" />
<glyph unicode="s" horiz-adv-x="1011" d="M51 135q90 -74 214 -114.5t255 -40.5q195 0 309.5 88t114.5 237q0 68 -24.5 115t-77.5 82q-49 33 -125 58.5t-193 51.5q-82 20 -124 33.5t-70 30.5q-31 18 -44.5 42.5t-13.5 61.5q0 88 65.5 132t170.5 44q90 0 174 -29.5t149 -88.5l82 108q-74 66 -178 103.5t-223 37.5 q-178 0 -291 -83q-119 -92 -119 -248q0 -63 20.5 -106.5t65.5 -74.5q41 -29 105.5 -50t175.5 -50q88 -23 141.5 -38t85.5 -34q74 -41 74 -114q0 -84 -67.5 -130t-186.5 -46q-104 0 -198.5 34.5t-188.5 108.5z" />
<glyph unicode="t" horiz-adv-x="720" d="M51 928h146v-719q0 -111 68.5 -167t172.5 -56q84 0 158 26q41 12 102 41l-43 144q-24 -17 -67 -31t-90 -14q-51 0 -84 27.5t-37 84.5v664h239v141h-239v356h-180v-356h-146v-141z" />
<glyph unicode="u" horiz-adv-x="1230" d="M135 428q0 -223 86 -335.5t254 -112.5q141 0 257 64.5t188 184.5l4 -125q2 -47 37.5 -78.5t89.5 -31.5q41 0 82 6v156q-57 2 -58 65v848h-180v-670q-47 -121 -143.5 -192.5t-208.5 -71.5q-227 0 -228 328v606h-180v-641z" />
<glyph unicode="v" horiz-adv-x="1101" d="M33 1069l422 -1069h192l422 1069h-172l-340 -911l-338 911h-186z" />
<glyph unicode="w" horiz-adv-x="1722" d="M37 1069l375 -1069h190l260 793l258 -793h193l373 1069h-187l-289 -848l-262 848h-172l-262 -848l-289 848h-188z" />
<glyph unicode="x" horiz-adv-x="1050" d="M25 0h190l293 391l16 31l19 -31l293 -391h190l-401 532l399 537h-190l-291 -393l-19 -33l-16 33l-293 393h-188l399 -537z" />
<glyph unicode="y" horiz-adv-x="1116" d="M25 1069l452 -1069q-78 -197 -104 -244q-18 -31 -38 -43t-46 -12q-47 0 -94 8v-160q49 -10 86 -10q109 0 177 50.5t101 129.5l520 1350h-172l-332 -907l-364 907h-186z" />
<glyph unicode="z" horiz-adv-x="1009" d="M61 0h879v131h-682l680 821v117h-858v-131h665l-684 -821v-117z" />
<glyph unicode="{" horiz-adv-x="555" d="M96 674q37 -6 61.5 -41t24.5 -80v-555q0 -33 13.5 -47t33.5 -14h230v147h-113v522q0 31 -15.5 68t-43.5 63q31 27 45 63t14 68v500h113v148h-230q-8 0 -28 -11q-18 -12 -19 -51v-532q0 -39 -20 -74q-29 -43 -66 -43v-131z" />
<glyph unicode="|" horiz-adv-x="491" d="M168 -266h156v1853h-156v-1853z" />
<glyph unicode="}" horiz-adv-x="555" d="M96 -63h230q18 0 32.5 14t14.5 47v555q0 47 22.5 81t63.5 40v131q-39 0 -64 43q-23 35 -22 74v532q0 39 -19 51q-20 10 -28 11h-230v-148h113v-500q0 -33 14.5 -68.5t44.5 -62.5q-31 -27 -45 -62.5t-14 -68.5v-522h-113v-147z" />
<glyph unicode="~" horiz-adv-x="1089" d="M133 485h107l6 21q6 16 22 39q39 55 103 55q33 0 63.5 -12.5t91.5 -44.5q55 -29 95.5 -43.5t87.5 -14.5q74 0 120 33q86 55 117 146q12 35 12 41h-106l-6 -21q-8 -18 -25 -37q-45 -49 -110 -49q-37 0 -70 13.5t-92 45.5q-51 27 -92 42.5t-84 15.5q-111 0 -187 -103 q-27 -35 -40 -72.5t-13 -54.5z" />
<glyph unicode="&#xa1;" horiz-adv-x="532" d="M176 -6h180v977h-180v-977zM176 1208h180v254h-180v-254z" />
<glyph unicode="&#xa2;" horiz-adv-x="1167" d="M86 528q0 -96 36 -191t99 -171q66 -78 155 -127t189 -57v-228h90v226q57 0 122 17t124 50q141 78 189 201l-177 53q-20 -68 -104 -113q-86 -47 -154 -49v787q80 -4 144.5 -43t105.5 -111l174 55q-61 121 -168.5 187.5t-255.5 70.5v236h-90v-236q-109 -12 -199 -61 t-153 -125q-61 -76 -94 -171t-33 -200zM270 528q0 68 19.5 134.5t58.5 121.5t94.5 91t122.5 45v-773q-123 23 -211 136q-41 51 -62.5 114.5t-21.5 130.5z" />
<glyph unicode="&#xa3;" horiz-adv-x="1048" d="M109 115l45 -131q55 16 118.5 26t114.5 10q63 0 178 -24q12 -2 66.5 -14.5t107.5 -12.5q113 0 228 56l-45 137q-57 -20 -96.5 -28.5t-77.5 -8.5q-72 0 -138 18q-68 18 -149 19q-78 0 -152 -21q111 117 156 208t45 192q0 47 -8 88h321v139h-366l-43 86q-20 35 -43 82 q-47 94 -47 160q0 45 16 86t47 69q63 63 154 64q82 0 161.5 -48t128.5 -128l101 110q-66 100 -168 157.5t-219 57.5q-78 0 -148.5 -26.5t-124.5 -75.5q-53 -51 -83.5 -115.5t-30.5 -136.5q0 -47 12 -90q18 -70 74 -168l43 -84h-178v-139h231q12 -45 12 -97q0 -100 -56 -196 t-187 -221z" />
<glyph unicode="&#xa4;" horiz-adv-x="1101" d="M98 322l74 -74l150 141q100 -74 229 -74q135 0 227 74l152 -141l74 74l-150 147q70 96 70 221q0 127 -68 221l148 148l-84 84l-146 -148q-96 72 -223 72q-133 0 -223 -72l-146 148l-84 -84l146 -148q-66 -96 -66 -221q0 -121 68 -221zM326 688q-1 108 65 180t160 72 q96 0 160 -70q66 -72 65 -178q0 -106 -65 -178q-68 -74 -160 -74t-160 72q-66 70 -65 176z" />
<glyph unicode="&#xa5;" horiz-adv-x="1406" d="M59 1454l418 -682h-170v-123h236l65 -114v-62h-301v-123h301v-350h185v350h305v123h-305v57l69 119h234v123h-166l418 682h-203l-445 -758l-440 758h-201z" />
<glyph unicode="&#xa6;" horiz-adv-x="495" d="M170 -266h156v825h-156v-825zM170 762h156v825h-156v-825z" />
<glyph unicode="&#xa7;" horiz-adv-x="1058" d="M96 1102q0 -78 29 -140.5t70 -95.5q-20 -29 -35 -71.5t-15 -96.5q0 -156 113 -245q104 -84 295 -97q98 -4 156 -32q74 -37 73 -131q0 -47 -20.5 -85t-56.5 -63q-72 -53 -168 -53q-82 0 -153 31.5t-142 101.5l-117 -111q76 -80 164 -129q117 -66 254 -65q72 0 146.5 23.5 t135.5 68.5q66 49 105 120.5t39 166.5q0 156 -88 213q24 28 40.5 76.5t16.5 105.5q0 166 -135 252q-57 37 -132 55.5t-153 18.5q-111 0 -170 41q-70 47 -69 143q0 43 19 81t54 64q70 53 164 54q78 0 145.5 -29t100.5 -88l139 65q-61 92 -141 144q-111 70 -254 69 q-80 0 -153.5 -26.5t-129.5 -75.5q-59 -51 -93 -117.5t-34 -142.5zM322 676q0 35 12 68.5t33 54.5q61 -27 157 -27q90 0 160 -39q37 -20 59.5 -57t22.5 -86q0 -37 -14.5 -73t-38.5 -56q-49 20 -111 22q-68 4 -129 19q-72 18 -111.5 56t-39.5 118z" />
<glyph unicode="&#xa8;" horiz-adv-x="753" d="M135 1278h152v209h-152v-209zM467 1278h151v209h-151v-209z" />
<glyph unicode="&#xa9;" horiz-adv-x="1712" d="M96 727q0 -158 56.5 -293t158.5 -235q102 -102 240.5 -157.5t300.5 -55.5t302 55t245 158q104 100 160.5 235t56.5 293q0 156 -56.5 291t-160.5 235t-244.5 155.5t-302.5 55.5t-300 -55t-241 -156q-102 -100 -158.5 -235t-56.5 -291zM178 725q0 139 50.5 261t142.5 212 t215 139t266 49q145 0 269 -49t218 -139q92 -90 142.5 -213t50.5 -262q0 -145 -51 -266t-146 -209q-92 -88 -217 -136.5t-266 -48.5q-143 0 -266 50.5t-215 140.5t-142.5 211t-50.5 260zM379 727q0 -104 38 -193.5t107 -152.5q68 -63 157 -98t187 -35q152 0 271 82 q51 35 88 78t55 86l-174 53q-31 -66 -100.5 -105t-145.5 -39q-51 0 -104 21.5t-96 62.5q-98 94 -99 240q0 63 18.5 121.5t55.5 103.5q80 100 221 101q74 0 129 -27q76 -39 109 -111l174 56q-49 115 -157.5 176t-254.5 61q-225 0 -360 -151q-59 -68 -89 -154t-30 -176z" />
<glyph unicode="&#xaa;" horiz-adv-x="897" d="M94 932q0 -96 70 -162q33 -31 78 -48t96 -17q86 0 158.5 33.5t121.5 99.5l3 -47q4 -37 30.5 -58.5t69.5 -21.5q37 0 63 6v127q-43 4 -43 49v268q0 141 -83 218t-232 77q-147 0 -291 -94l47 -92q125 84 232 84q86 0 134 -47t48 -129v-52q-86 35 -197 35q-135 0 -220 -63.5 t-85 -165.5zM231 944q0 59 53.5 94t139.5 35q102 0 172 -31v-98q0 -29 -27 -53q-29 -35 -80 -56.5t-110 -21.5q-64 0 -106 38t-42 93z" />
<glyph unicode="&#xab;" horiz-adv-x="1220" d="M82 479l518 -356v151l-373 256l373 263v151l-518 -371v-94zM578 479l518 -356v151l-373 256l373 263v151l-518 -371v-94z" />
<glyph unicode="&#xac;" horiz-adv-x="1210" d="M137 604h774v-358h156v522h-930v-164z" />
<glyph unicode="&#xad;" horiz-adv-x="1191" d="M131 477h930v164h-930v-164z" />
<glyph unicode="&#xae;" horiz-adv-x="1712" d="M96 727q0 -158 57.5 -293t159.5 -235q104 -102 241.5 -157.5t299.5 -55.5t301 55t244 158q104 100 160.5 235t56.5 293q0 156 -56.5 291t-160.5 235t-243.5 155.5t-301.5 55.5t-299 -55t-242 -156q-102 -100 -159.5 -235t-57.5 -291zM182 727q0 137 50.5 259t140.5 212 t214 139t267 49t267 -49t216 -139t142.5 -212t50.5 -261q0 -145 -51.5 -267t-143.5 -212q-94 -88 -217 -136.5t-264 -48.5q-143 0 -266 50.5t-215 142.5q-90 90 -140.5 212t-50.5 261zM537 266h133v332h207l208 -332h150l-223 352q88 23 142 100t54 173q0 53 -20.5 106.5 t-57.5 96.5q-39 43 -90 67.5t-110 24.5h-393v-920zM670 715v350h248q70 0 114.5 -48t44.5 -126q0 -80 -41 -128t-112 -48h-254z" />
<glyph unicode="&#xaf;" horiz-adv-x="825" d="M115 1339h598v119h-598v-119z" />
<glyph unicode="&#xb0;" horiz-adv-x="557" d="M96 1305q0 -80 52.5 -133.5t130.5 -53.5t130 52.5t52 134.5q0 76 -52.5 127t-129.5 51q-78 0 -130.5 -51.5t-52.5 -126.5zM193 1300q0 35 24 62q25 24 62 24t61.5 -26.5t24.5 -59.5q0 -37 -25 -61.5t-61 -24.5q-35 0 -60.5 26t-25.5 60z" />
<glyph unicode="&#xb1;" horiz-adv-x="954" d="M137 104h680v148h-680v-148zM137 680h258v-279h164v279h258v147h-258v279h-164v-279h-258v-147z" />
<glyph unicode="&#xb2;" horiz-adv-x="811" d="M70 819h651v111h-473q0 66 39 114q53 66 166 103q121 35 182 80q100 68 100 182q0 115 -80 183.5t-229 68.5q-137 0 -240 -55q-72 -37 -108 -84l74 -80q41 45 105.5 76.5t152.5 31.5q96 0 147 -38.5t51 -100.5q0 -45 -24 -76q-49 -57 -156 -94l-98 -37 q-137 -53 -197 -139q-63 -88 -63 -246z" />
<glyph unicode="&#xb3;" horiz-adv-x="806" d="M66 983q20 -82 107 -129t216 -47q140 0 240 59q49 31 75.5 75t26.5 97q0 82 -57.5 140.5t-153.5 72.5q188 37 189 181q0 49 -25 91t-68 72q-94 66 -233 66q-100 0 -185 -34t-126 -93l75 -88q33 51 93.5 80.5t142.5 29.5q84 0 144.5 -35.5t60.5 -95.5q0 -127 -277 -127 h-47v-104h47q143 0 224 -36t81 -103q0 -59 -65.5 -96t-163.5 -37q-102 0 -180 49q-74 47 -76 90z" />
<glyph unicode="&#xb4;" horiz-adv-x="475" d="M98 1288l119 -41l180 248h-180z" />
<glyph unicode="&#xb5;" horiz-adv-x="1286" d="M160 -434h170v571q25 -70 83 -113.5t148 -43.5q121 0 230 75q106 78 155 174v-112q0 -49 37 -86t92 -37q43 0 84 6v156q-57 2 -57 65v848h-180v-670q-49 -123 -144 -192q-98 -72 -207 -72q-231 0 -231 328v606h-180v-1503z" />
<glyph unicode="&#xb6;" horiz-adv-x="1265" d="M72 952q0 -112 35.5 -203.5t103.5 -154.5t163 -98t210 -37v-623h155v623h138v-623h155v1479h144v139h-527q-274 0 -425.5 -132t-151.5 -370zM225 956q0 166 93.5 260.5t265.5 98.5v-717q-156 10 -252 96q-106 96 -107 262zM739 598v717h138v-717h-138z" />
<glyph unicode="&#xb7;" horiz-adv-x="413" d="M131 502h152v254h-152v-254z" />
<glyph unicode="&#xb8;" horiz-adv-x="606" d="M45 -334q96 -39 207 -39q109 0 167 40t58 114q0 63 -44 97t-118 34q-45 0 -73 -10l71 112l-80 29l-118 -223q90 27 164 26q51 0 77.5 -16t26.5 -55q0 -72 -117 -72q-51 0 -101 12.5t-79 26.5z" />
<glyph unicode="&#xb9;" horiz-adv-x="573" d="M70 1434q43 0 112 39q55 31 82 61v-602h-164v-113h430v113h-151v729h-115q0 -2 -18 -21q-10 -10 -47 -38q-80 -55 -129 -56v-112z" />
<glyph unicode="&#xba;" horiz-adv-x="917" d="M86 1079q0 -74 26.5 -142.5t75.5 -119.5q51 -53 120 -82.5t151 -29.5t150.5 29.5t119.5 82.5q49 51 75.5 120t26.5 142q0 76 -26.5 145.5t-75.5 121.5q-104 111 -270 110q-166 0 -271 -110q-49 -51 -75.5 -121t-26.5 -146zM233 1077q0 108 66 180t160 72q96 0 159 -69 q66 -72 66 -179q0 -106 -66 -178q-68 -74 -159 -74q-92 0 -160 72q-66 70 -66 176z" />
<glyph unicode="&#xbb;" horiz-adv-x="1220" d="M125 123l518 356v94l-518 371v-151l373 -263l-373 -256v-151zM621 123l518 356v94l-518 371v-151l372 -263l-372 -256v-151z" />
<glyph unicode="&#xbc;" horiz-adv-x="1757" d="M90 1270q43 0 113 39q55 31 82 61v-602h-164v-113h430v113h-152v729h-114q0 -2 -19 -20q-10 -10 -47 -39q-80 -55 -129 -56v-112zM301 68l86 -78l557 712l567 687l-88 75l-549 -706zM989 205h463v-205h113v205h121v110h-121v516h-78l-498 -518v-108zM1106 315l350 369 v-369h-350z" />
<glyph unicode="&#xbd;" horiz-adv-x="1826" d="M90 1270q43 0 113 39q55 31 82 61v-602h-164v-113h430v113h-152v729h-114q0 -2 -19 -20q-10 -10 -47 -39q-80 -55 -129 -56v-112zM225 68l86 -78l557 712l568 687l-88 75l-549 -706zM1100 0h643v111h-469q0 66 37 114q49 66 159 103q57 18 99.5 35.5t77.5 44.5 q94 70 94 180q0 115 -77 184.5t-220 69.5q-131 0 -232 -56q-68 -37 -104 -84l70 -81q41 45 94 73q68 37 155 37q92 0 141.5 -39t49.5 -102q0 -45 -25 -76q-43 -55 -149 -92l-92 -37q-133 -53 -193 -139q-59 -86 -59 -246z" />
<glyph unicode="&#xbe;" horiz-adv-x="1773" d="M82 819q20 -82 107 -129t217 -47q139 0 239 59q49 31 76 75t27 97q0 82 -57.5 140.5t-153.5 72.5q188 37 188 181q0 49 -24.5 91t-67.5 73q-94 66 -234 65q-100 0 -185 -33.5t-126 -93.5l76 -88q33 51 93 81t142 30q84 0 144.5 -36t60.5 -95q0 -127 -276 -127h-47v-105 h47q143 0 224 -36t81 -103q0 -59 -65.5 -96t-164.5 -37q-102 0 -180 49q-74 47 -76 90zM365 68l86 -78l557 712l567 687l-88 75l-549 -706zM1004 205h462v-205h113v205h121v110h-121v516h-78l-497 -518v-108zM1120 315l350 369v-369h-350z" />
<glyph unicode="&#xbf;" horiz-adv-x="968" d="M68 -43q0 -186 127 -297q55 -47 128.5 -71.5t151.5 -24.5q137 0 254 69q117 70 174 195l-121 80q-45 -86 -120 -137q-84 -57 -183 -58q-102 0 -174 62q-78 63 -78 174q0 70 31 121q53 88 164 147q72 43 84 51q92 59 132 140t40 196h-152q0 -120 -61 -188 q-25 -29 -56.5 -50.5t-82.5 -48.5q-70 -39 -110 -66.5t-71 -64.5q-78 -92 -77 -229zM522 799h152v237h-152v-237z" />
<glyph unicode="&#xc0;" horiz-adv-x="1386" d="M20 0h197l170 426h610l172 -426h197l-594 1454h-156zM424 569l270 672l262 -672h-532zM481 1878l183 -248l116 41l-121 207h-178z" />
<glyph unicode="&#xc1;" horiz-adv-x="1386" d="M20 0h197l170 426h610l172 -426h197l-594 1454h-156zM424 569l270 672l262 -672h-532zM606 1669l119 -41l180 248h-180z" />
<glyph unicode="&#xc2;" horiz-adv-x="1386" d="M20 0h197l170 426h610l172 -426h197l-594 1454h-156zM422 1692l98 -50l174 130l174 -130l99 50l-207 184h-131zM424 569l270 672l262 -672h-532z" />
<glyph unicode="&#xc3;" horiz-adv-x="1386" d="M20 0h197l170 426h610l172 -426h197l-594 1454h-156zM350 1653h107l4 18q4 16 12 35q29 45 84 45q29 0 54.5 -10t66.5 -33q37 -20 68.5 -31.5t74.5 -11.5q111 0 174 94q23 33 33 67t10 50h-106l-2 -18q-2 -14 -17 -35q-31 -47 -96 -47q-33 0 -61.5 11t-63.5 34 q-39 20 -69.5 31.5t-69.5 11.5q-104 0 -162 -92q-20 -33 -30.5 -68t-10.5 -51zM424 569l270 672l262 -672h-532z" />
<glyph unicode="&#xc4;" horiz-adv-x="1386" d="M20 0h197l170 426h610l172 -426h197l-594 1454h-156zM424 569l270 672l262 -672h-532zM453 1661h151v209h-151v-209zM784 1661h152v209h-152v-209z" />
<glyph unicode="&#xc5;" horiz-adv-x="1386" d="M20 0h197l170 426h610l172 -426h197l-594 1454h-156zM424 569l270 672l262 -672h-532zM526 1735q0 -66 46 -104t120 -38t120 38t46 104t-46 103.5t-120 37.5t-120 -38t-46 -103zM610 1735q0 35 23.5 56t58.5 21q37 0 60.5 -21.5t23.5 -55.5q0 -35 -25.5 -56.5 t-58.5 -21.5q-35 0 -58.5 22.5t-23.5 55.5z" />
<glyph unicode="&#xc6;" horiz-adv-x="1968" d="M-51 0h201l266 426h510v-426h968v164h-786v495h657v164h-657v467h768v164h-999zM498 590l415 649v-649h-415z" />
<glyph unicode="&#xc7;" horiz-adv-x="1390" d="M74 737q0 -133 47 -264t133 -235q88 -109 207 -174.5t256 -73.5l-90 -170q90 27 164 26q51 0 77.5 -16t26.5 -55q0 -72 -117 -72q-51 0 -101 12.5t-79 26.5l-41 -76q96 -39 207 -39q109 0 167 40t58 114q0 63 -44 97t-118 34q-45 0 -73 -10l55 88q170 12 309 98 q154 94 215 238l-153 84q-57 -125 -183 -195q-104 -61 -233 -61q-106 0 -198.5 46t-162.5 128q-68 82 -105.5 184t-37.5 217q0 104 33 205.5t94 181.5q66 84 160 132t211 48q125 0 225 -53q119 -63 178 -192l146 94q-70 145 -210.5 231t-330.5 86q-158 0 -288 -60.5 t-222 -168.5q-88 -102 -135 -232.5t-47 -263.5z" />
<glyph unicode="&#xc8;" horiz-adv-x="1239" d="M174 0h987v164h-803v502h682v153h-682v471h785v164h-969v-1454zM471 1878l182 -248l117 41l-121 207h-178z" />
<glyph unicode="&#xc9;" horiz-adv-x="1239" d="M174 0h987v164h-803v502h682v153h-682v471h785v164h-969v-1454zM596 1669l119 -41l180 248h-180z" />
<glyph unicode="&#xca;" horiz-adv-x="1239" d="M174 0h987v164h-803v502h682v153h-682v471h785v164h-969v-1454zM412 1692l98 -50l174 130l174 -130l98 50l-206 184h-132z" />
<glyph unicode="&#xcb;" horiz-adv-x="1239" d="M174 0h987v164h-803v502h682v153h-682v471h785v164h-969v-1454zM442 1661h152v209h-152v-209zM774 1661h152v209h-152v-209z" />
<glyph unicode="&#xcc;" horiz-adv-x="532" d="M53 1878l183 -248l116 41l-121 207h-178zM174 0h184v1454h-184v-1454z" />
<glyph unicode="&#xcd;" horiz-adv-x="532" d="M174 0h184v1454h-184v-1454zM178 1669l119 -41l180 248h-180z" />
<glyph unicode="&#xce;" horiz-adv-x="532" d="M-6 1692l98 -50l174 130l174 -130l99 50l-207 184h-131zM174 0h184v1454h-184v-1454z" />
<glyph unicode="&#xcf;" horiz-adv-x="532" d="M25 1661h151v209h-151v-209zM174 0h184v1454h-184v-1454zM356 1661h152v209h-152v-209z" />
<glyph unicode="&#xd0;" horiz-adv-x="1478" d="M70 662h116v-662h504q158 0 288 52t224 149q92 96 141.5 230t49.5 298q0 152 -45 284t-131 228q-90 100 -223.5 156.5t-303.5 56.5h-504v-653h-116v-139zM371 164v498h329v139h-329v489h319q121 0 217.5 -41t165.5 -116q66 -74 99.5 -177.5t33.5 -226.5 q0 -121 -33.5 -224.5t-97.5 -178.5q-66 -78 -164 -120t-221 -42h-319z" />
<glyph unicode="&#xd1;" horiz-adv-x="1576" d="M174 0h184v1110l889 -1110h156v1452h-184v-1130l-902 1132h-143v-1454zM449 1653h106l4 18q4 16 12 35q29 45 84 45q29 0 54.5 -10t66.5 -33q37 -20 69 -31.5t75 -11.5q111 0 174 94q23 33 33 67t10 50h-107l-2 -18q-2 -14 -16 -35q-31 -47 -97 -47q-33 0 -61.5 11 t-62.5 34q-39 20 -70 31.5t-70 11.5q-104 0 -162 -92q-20 -33 -30 -68t-10 -51z" />
<glyph unicode="&#xd2;" horiz-adv-x="1531" d="M80 727q0 -139 49 -272t139 -236q94 -109 220 -169t276 -60q143 0 270 59.5t221 163.5q92 102 143.5 235.5t51.5 276.5q0 137 -49 269t-139 237q-94 109 -220.5 171t-273.5 62q-143 0 -270 -59t-222 -164q-94 -104 -145 -237.5t-51 -276.5zM266 727q0 107 36 209t99 182 q68 84 160 131t205 47q106 0 198.5 -45t161.5 -127q66 -80 102 -183t36 -214q0 -106 -34 -208.5t-97 -180.5q-68 -86 -161 -134t-206 -48q-109 0 -202 46t-161 128q-66 80 -101.5 183t-35.5 214zM555 1878l182 -248l117 41l-121 207h-178z" />
<glyph unicode="&#xd3;" horiz-adv-x="1531" d="M80 727q0 -139 49 -272t139 -236q94 -109 220 -169t276 -60q143 0 270 59.5t221 163.5q92 102 143.5 235.5t51.5 276.5q0 137 -49 269t-139 237q-94 109 -220.5 171t-273.5 62q-143 0 -270 -59t-222 -164q-94 -104 -145 -237.5t-51 -276.5zM266 727q0 107 36 209t99 182 q68 84 160 131t205 47q106 0 198.5 -45t161.5 -127q66 -80 102 -183t36 -214q0 -106 -34 -208.5t-97 -180.5q-68 -86 -161 -134t-206 -48q-109 0 -202 46t-161 128q-66 80 -101.5 183t-35.5 214zM680 1669l119 -41l180 248h-180z" />
<glyph unicode="&#xd4;" horiz-adv-x="1531" d="M80 727q0 -139 49 -272t139 -236q94 -109 220 -169t276 -60q143 0 270 59.5t221 163.5q92 102 143.5 235.5t51.5 276.5q0 137 -49 269t-139 237q-94 109 -220.5 171t-273.5 62q-143 0 -270 -59t-222 -164q-94 -104 -145 -237.5t-51 -276.5zM266 727q0 107 36 209t99 182 q68 84 160 131t205 47q106 0 198.5 -45t161.5 -127q66 -80 102 -183t36 -214q0 -106 -34 -208.5t-97 -180.5q-68 -86 -161 -134t-206 -48q-109 0 -202 46t-161 128q-66 80 -101.5 183t-35.5 214zM496 1692l98 -50l174 130l174 -130l98 50l-206 184h-132z" />
<glyph unicode="&#xd5;" horiz-adv-x="1531" d="M80 727q0 -139 49 -272t139 -236q94 -109 220 -169t276 -60q143 0 270 59.5t221 163.5q92 102 143.5 235.5t51.5 276.5q0 137 -49 269t-139 237q-94 109 -220.5 171t-273.5 62q-143 0 -270 -59t-222 -164q-94 -104 -145 -237.5t-51 -276.5zM266 727q0 107 36 209t99 182 q68 84 160 131t205 47q106 0 198.5 -45t161.5 -127q66 -80 102 -183t36 -214q0 -106 -34 -208.5t-97 -180.5q-68 -86 -161 -134t-206 -48q-109 0 -202 46t-161 128q-66 80 -101.5 183t-35.5 214zM424 1653h106l5 18q4 16 12 35q29 45 84 45q29 0 54.5 -10t66.5 -33 q37 -20 68.5 -31.5t74.5 -11.5q111 0 174 94q23 33 33 67t10 50h-106l-2 -18q-2 -14 -17 -35q-31 -47 -96 -47q-33 0 -61.5 11t-63.5 34q-39 20 -69.5 31.5t-69.5 11.5q-104 0 -162 -92q-20 -33 -30.5 -68t-10.5 -51z" />
<glyph unicode="&#xd6;" horiz-adv-x="1531" d="M80 727q0 -139 49 -272t139 -236q94 -109 220 -169t276 -60q143 0 270 59.5t221 163.5q92 102 143.5 235.5t51.5 276.5q0 137 -49 269t-139 237q-94 109 -220.5 171t-273.5 62q-143 0 -270 -59t-222 -164q-94 -104 -145 -237.5t-51 -276.5zM266 727q0 107 36 209t99 182 q68 84 160 131t205 47q106 0 198.5 -45t161.5 -127q66 -80 102 -183t36 -214q0 -106 -34 -208.5t-97 -180.5q-68 -86 -161 -134t-206 -48q-109 0 -202 46t-161 128q-66 80 -101.5 183t-35.5 214zM526 1661h152v209h-152v-209zM858 1661h152v209h-152v-209z" />
<glyph unicode="&#xd7;" horiz-adv-x="950" d="M125 324l113 -115l237 237l238 -237l114 113l-237 237l231 234l-112 114l-234 -233l-231 231l-115 -112l231 -234z" />
<glyph unicode="&#xd8;" horiz-adv-x="1531" d="M80 727q0 -154 57.5 -295t161.5 -246l-125 -186h201l55 82q150 -92 334 -92q143 0 270 59.5t221 163.5q92 102 143.5 235.5t51.5 276.5q0 147 -57.5 289.5t-161.5 251.5l127 188h-203l-57 -84q-154 94 -330 94q-143 0 -270 -59t-222 -164q-94 -104 -145 -237.5 t-51 -276.5zM266 727q0 107 36 209t99 182q68 84 160 131t205 47q131 0 238 -67l-605 -895q-66 78 -99.5 179t-33.5 214zM524 223l606 893q63 -80 98.5 -180t35.5 -209q0 -106 -34 -208.5t-97 -180.5q-68 -86 -161 -134t-206 -48q-133 0 -242 67z" />
<glyph unicode="&#xd9;" horiz-adv-x="1546" d="M154 719q0 -315 137 -504q160 -225 483 -225q317 0 477 217q72 96 107 228t35 284v735h-185v-735q0 -242 -90 -385q-113 -178 -346 -178q-231 0 -340 174q-94 145 -94 389v735h-184v-735zM561 1878l182 -248l117 41l-121 207h-178z" />
<glyph unicode="&#xda;" horiz-adv-x="1546" d="M154 719q0 -315 137 -504q160 -225 483 -225q317 0 477 217q72 96 107 228t35 284v735h-185v-735q0 -242 -90 -385q-113 -178 -346 -178q-231 0 -340 174q-94 145 -94 389v735h-184v-735zM686 1669l119 -41l180 248h-180z" />
<glyph unicode="&#xdb;" horiz-adv-x="1546" d="M154 719q0 -315 137 -504q160 -225 483 -225q317 0 477 217q72 96 107 228t35 284v735h-185v-735q0 -242 -90 -385q-113 -178 -346 -178q-231 0 -340 174q-94 145 -94 389v735h-184v-735zM502 1692l98 -50l174 130l174 -130l99 50l-207 184h-131z" />
<glyph unicode="&#xdc;" horiz-adv-x="1546" d="M154 719q0 -315 137 -504q160 -225 483 -225q317 0 477 217q72 96 107 228t35 284v735h-185v-735q0 -242 -90 -385q-113 -178 -346 -178q-231 0 -340 174q-94 145 -94 389v735h-184v-735zM532 1661h152v209h-152v-209zM864 1661h152v209h-152v-209z" />
<glyph unicode="&#xdd;" horiz-adv-x="1341" d="M27 1454l551 -919v-535h184v530l553 924h-201l-444 -758l-441 758h-202zM582 1669l118 -41l181 248h-181z" />
<glyph unicode="&#xde;" horiz-adv-x="1236" d="M174 0h184v242h398q94 0 173 37.5t138 105.5q55 66 86 149.5t31 174.5q0 86 -32 169t-91 150q-59 68 -141 107t-177 39h-385v280h-184v-1454zM358 406v604h377q109 0 187 -88q78 -94 77 -213q0 -123 -67 -209q-33 -45 -81 -69.5t-103 -24.5h-390z" />
<glyph unicode="&#xdf;" horiz-adv-x="1132" d="M145 0h172v1030q0 119 60 193q68 84 186 84q92 0 154 -50q68 -53 67 -151q0 -96 -61 -153.5t-160 -57.5h-37v-164h39q141 0 225 -79t84 -212q0 -143 -106 -217q-94 -66 -274 -69v-166q260 9 407 118q76 55 118 136.5t42 183.5q0 154 -80 258t-229 139q90 25 145 113 q59 90 59 197q0 145 -110 239q-53 43 -124 66.5t-153 23.5q-92 0 -169.5 -29.5t-133.5 -82.5q-57 -55 -89 -130t-32 -161v-1059z" />
<glyph unicode="&#xe0;" d="M61 313q0 -143 105 -237q49 -45 114.5 -70.5t139.5 -25.5q127 0 235.5 50t180.5 146l4 -76q6 -47 38.5 -77.5t84.5 -30.5q35 0 86 8v156q-57 2 -58 65v436q0 205 -117.5 317.5t-328.5 112.5q-209 0 -416 -139l59 -117q176 125 340 125q135 0 209 -74.5t74 -205.5v-86 q-61 25 -141 39t-158 14q-96 0 -179 -24.5t-145 -67.5q-127 -88 -127 -238zM233 328q0 92 85 149.5t221 57.5q143 0 272 -52v-157q0 -41 -39 -80q-43 -59 -126 -95t-179 -36q-100 0 -166 61q-68 61 -68 152zM332 1495l182 -248l117 41l-121 207h-178z" />
<glyph unicode="&#xe1;" d="M61 313q0 -143 105 -237q49 -45 114.5 -70.5t139.5 -25.5q127 0 235.5 50t180.5 146l4 -76q6 -47 38.5 -77.5t84.5 -30.5q35 0 86 8v156q-57 2 -58 65v436q0 205 -117.5 317.5t-328.5 112.5q-209 0 -416 -139l59 -117q176 125 340 125q135 0 209 -74.5t74 -205.5v-86 q-61 25 -141 39t-158 14q-96 0 -179 -24.5t-145 -67.5q-127 -88 -127 -238zM233 328q0 92 85 149.5t221 57.5q143 0 272 -52v-157q0 -41 -39 -80q-43 -59 -126 -95t-179 -36q-100 0 -166 61q-68 61 -68 152zM457 1288l118 -41l181 248h-181z" />
<glyph unicode="&#xe2;" d="M61 313q0 -143 105 -237q49 -45 114.5 -70.5t139.5 -25.5q127 0 235.5 50t180.5 146l4 -76q6 -47 38.5 -77.5t84.5 -30.5q35 0 86 8v156q-57 2 -58 65v436q0 205 -117.5 317.5t-328.5 112.5q-209 0 -416 -139l59 -117q176 125 340 125q135 0 209 -74.5t74 -205.5v-86 q-61 25 -141 39t-158 14q-96 0 -179 -24.5t-145 -67.5q-127 -88 -127 -238zM233 328q0 92 85 149.5t221 57.5q143 0 272 -52v-157q0 -41 -39 -80q-43 -59 -126 -95t-179 -36q-100 0 -166 61q-68 61 -68 152zM272 1311l99 -49l174 129l174 -129l98 49l-207 184h-131z" />
<glyph unicode="&#xe3;" d="M61 313q0 -143 105 -237q49 -45 114.5 -70.5t139.5 -25.5q127 0 235.5 50t180.5 146l4 -76q6 -47 38.5 -77.5t84.5 -30.5q35 0 86 8v156q-57 2 -58 65v436q0 205 -117.5 317.5t-328.5 112.5q-209 0 -416 -139l59 -117q176 125 340 125q135 0 209 -74.5t74 -205.5v-86 q-61 25 -141 39t-158 14q-96 0 -179 -24.5t-145 -67.5q-127 -88 -127 -238zM201 1272h106l4 18q4 16 13 35q29 45 84 45q29 0 54 -10t66 -33q37 -20 69 -31.5t75 -11.5q111 0 174 94q23 33 33 67t10 50h-107l-2 -18q-2 -14 -16 -35q-31 -47 -96 -47q-33 0 -61.5 11t-63.5 34 q-39 20 -70 31.5t-70 11.5q-104 0 -161 -92q-20 -33 -30.5 -68t-10.5 -51zM233 328q0 92 85 149.5t221 57.5q143 0 272 -52v-157q0 -41 -39 -80q-43 -59 -126 -95t-179 -36q-100 0 -166 61q-68 61 -68 152z" />
<glyph unicode="&#xe4;" d="M61 313q0 -143 105 -237q49 -45 114.5 -70.5t139.5 -25.5q127 0 235.5 50t180.5 146l4 -76q6 -47 38.5 -77.5t84.5 -30.5q35 0 86 8v156q-57 2 -58 65v436q0 205 -117.5 317.5t-328.5 112.5q-209 0 -416 -139l59 -117q176 125 340 125q135 0 209 -74.5t74 -205.5v-86 q-61 25 -141 39t-158 14q-96 0 -179 -24.5t-145 -67.5q-127 -88 -127 -238zM233 328q0 92 85 149.5t221 57.5q143 0 272 -52v-157q0 -41 -39 -80q-43 -59 -126 -95t-179 -36q-100 0 -166 61q-68 61 -68 152zM303 1278h152v209h-152v-209zM635 1278h151v209h-151v-209z" />
<glyph unicode="&#xe5;" d="M61 313q0 -143 105 -237q49 -45 114.5 -70.5t139.5 -25.5q127 0 235.5 50t180.5 146l4 -76q6 -47 38.5 -77.5t84.5 -30.5q35 0 86 8v156q-57 2 -58 65v436q0 205 -117.5 317.5t-328.5 112.5q-209 0 -416 -139l59 -117q176 125 340 125q135 0 209 -74.5t74 -205.5v-86 q-61 25 -141 39t-158 14q-96 0 -179 -24.5t-145 -67.5q-127 -88 -127 -238zM233 328q0 92 85 149.5t221 57.5q143 0 272 -52v-157q0 -41 -39 -80q-43 -59 -126 -95t-179 -36q-100 0 -166 61q-68 61 -68 152zM377 1354q0 -66 46 -104t120 -38t120 38t46 104t-46.5 103.5 t-119.5 37.5q-74 0 -120 -38t-46 -103zM461 1354q0 35 23.5 56.5t58.5 21.5q37 0 60.5 -21.5t23.5 -56.5t-26 -56.5t-58 -21.5q-35 0 -58.5 22.5t-23.5 55.5z" />
<glyph unicode="&#xe6;" horiz-adv-x="1910" d="M61 313q0 -143 105 -237q49 -45 113.5 -70.5t138.5 -25.5q129 0 252 55q137 61 202 176q74 -109 190 -170t257 -61q160 0 289 77q127 76 178 193l-156 43q-33 -80 -121 -129t-184 -49q-74 0 -140.5 26.5t-117.5 73.5q-111 104 -123 258h907q4 29 4 62q0 111 -38.5 212 t-110.5 177q-72 78 -173 120.5t-220 42.5q-123 0 -226.5 -52t-173.5 -142q-51 94 -146 144t-224 50q-203 0 -416 -139l59 -117q180 125 340 125q117 0 188.5 -57t88.5 -162q-14 -35 -21.5 -82t-7.5 -53q-127 41 -264 41q-96 0 -179 -24.5t-145 -67.5q-61 -43 -93 -103.5 t-32 -134.5zM231 328q0 92 85 149.5t221 57.5q121 0 237 -39q2 -43 11.5 -94.5t25.5 -84.5q-2 -35 -39 -71q-45 -59 -127 -95t-180 -36q-100 0 -166 61q-68 63 -68 152zM942 590q9 158 113 262q49 47 115.5 73.5t140.5 26.5t140.5 -26.5t115.5 -73.5q104 -104 116 -262h-741 z" />
<glyph unicode="&#xe7;" d="M74 537q0 -109 35.5 -205t103.5 -172q68 -78 160 -124t200 -54l-86 -162q90 27 164 26q51 0 78 -16t27 -55q0 -72 -117 -72q-51 0 -101.5 12.5t-78.5 26.5l-41 -76q96 -39 207 -39q109 0 167 40t58 114q0 63 -44 97t-118 34q-45 0 -74 -10l52 80q145 12 254.5 83.5 t154.5 182.5l-176 53q-23 -63 -106 -117q-82 -49 -179 -49q-74 0 -138 31t-111 86q-51 55 -79 129t-28 156q0 168 102 282q47 53 113 83t139 30q90 0 164 -42t115 -118l176 55q-61 121 -178 190.5t-273 69.5q-119 0 -218 -43t-175 -118q-72 -76 -110.5 -176.5t-38.5 -212.5z " />
<glyph unicode="&#xe8;" horiz-adv-x="1210" d="M74 535q0 -113 40 -214.5t111 -177.5q74 -78 174.5 -120.5t218.5 -42.5q160 -1 289 77q127 76 178 193l-155 43q-33 -80 -121 -129t-184 -49q-68 0 -131.5 26.5t-112.5 73.5q-104 102 -117 258h887q4 29 4 70q0 106 -38 205.5t-107 175.5q-72 76 -172.5 119.5 t-216.5 43.5q-119 0 -219.5 -43t-174.5 -120q-74 -76 -113.5 -176.5t-39.5 -212.5zM260 606q6 76 36 139.5t79 110.5q100 96 246 96q141 0 247 -96q49 -45 80 -110.5t37 -139.5h-725zM399 1495l183 -248l116 41l-120 207h-179z" />
<glyph unicode="&#xe9;" horiz-adv-x="1210" d="M74 535q0 -113 40 -214.5t111 -177.5q74 -78 174.5 -120.5t218.5 -42.5q160 -1 289 77q127 76 178 193l-155 43q-33 -80 -121 -129t-184 -49q-68 0 -131.5 26.5t-112.5 73.5q-104 102 -117 258h887q4 29 4 70q0 106 -38 205.5t-107 175.5q-72 76 -172.5 119.5 t-216.5 43.5q-119 0 -219.5 -43t-174.5 -120q-74 -76 -113.5 -176.5t-39.5 -212.5zM260 606q6 76 36 139.5t79 110.5q100 96 246 96q141 0 247 -96q49 -45 80 -110.5t37 -139.5h-725zM524 1288l119 -41l180 248h-180z" />
<glyph unicode="&#xea;" horiz-adv-x="1210" d="M74 535q0 -113 40 -214.5t111 -177.5q74 -78 174.5 -120.5t218.5 -42.5q160 -1 289 77q127 76 178 193l-155 43q-33 -80 -121 -129t-184 -49q-68 0 -131.5 26.5t-112.5 73.5q-104 102 -117 258h887q4 29 4 70q0 106 -38 205.5t-107 175.5q-72 76 -172.5 119.5 t-216.5 43.5q-119 0 -219.5 -43t-174.5 -120q-74 -76 -113.5 -176.5t-39.5 -212.5zM260 606q6 76 36 139.5t79 110.5q100 96 246 96q141 0 247 -96q49 -45 80 -110.5t37 -139.5h-725zM340 1311l98 -49l174 129l174 -129l99 49l-207 184h-131z" />
<glyph unicode="&#xeb;" horiz-adv-x="1210" d="M74 535q0 -113 40 -214.5t111 -177.5q74 -78 174.5 -120.5t218.5 -42.5q160 -1 289 77q127 76 178 193l-155 43q-33 -80 -121 -129t-184 -49q-68 0 -131.5 26.5t-112.5 73.5q-104 102 -117 258h887q4 29 4 70q0 106 -38 205.5t-107 175.5q-72 76 -172.5 119.5 t-216.5 43.5q-119 0 -219.5 -43t-174.5 -120q-74 -76 -113.5 -176.5t-39.5 -212.5zM260 606q6 76 36 139.5t79 110.5q100 96 246 96q141 0 247 -96q49 -45 80 -110.5t37 -139.5h-725zM371 1278h151v209h-151v-209zM702 1278h152v209h-152v-209z" />
<glyph unicode="&#xec;" horiz-adv-x="471" d="M23 1495l182 -248l117 41l-121 207h-178zM145 0h181v1069h-181v-1069z" />
<glyph unicode="&#xed;" horiz-adv-x="471" d="M145 0h181v1069h-181v-1069zM147 1288l119 -41l180 248h-180z" />
<glyph unicode="&#xee;" horiz-adv-x="471" d="M-37 1311l98 -49l175 129l174 -129l98 49l-207 184h-131zM145 0h181v1069h-181v-1069z" />
<glyph unicode="&#xef;" horiz-adv-x="471" d="M-6 1278h151v209h-151v-209zM145 0h181v1069h-181v-1069zM326 1278h151v209h-151v-209z" />
<glyph unicode="&#xf0;" horiz-adv-x="1241" d="M80 477q0 -102 41 -193t115 -159q74 -70 170 -107.5t202 -37.5q111 0 211.5 41.5t175.5 121.5q78 82 121 197t43 254q0 176 -61 340q-74 199 -224 356l160 94l-55 76l-172 -104q-90 80 -191 139h-254q186 -104 304 -209l-203 -121l55 -75l219 131q106 -111 161.5 -223.5 t76.5 -243.5q-55 98 -160.5 156.5t-234.5 58.5q-102 0 -193.5 -38t-161.5 -108t-107.5 -159t-37.5 -187zM264 477q1 144 105 244q47 47 113.5 73.5t140.5 26.5q141 0 249 -94q49 -45 76 -107.5t27 -130.5q0 -72 -27.5 -135t-77.5 -112q-51 -51 -116.5 -79t-139.5 -28 q-72 0 -135 26.5t-112 74.5q-49 47 -76 108.5t-27 132.5z" />
<glyph unicode="&#xf1;" horiz-adv-x="1208" d="M145 0h181v645q37 123 141 201q106 80 215 80q106 0 158.5 -79t52.5 -249v-598h180v639q1 209 -67 322q-78 127 -252 126q-141 0 -261 -67.5t-184 -179.5v229h-164v-1069zM276 1272h107l4 18q4 16 12 35q29 45 84 45q29 0 54.5 -10t66.5 -33q37 -20 69 -31.5t75 -11.5 q111 0 174 94q23 33 33 67t10 50h-107l-2 -18q-2 -14 -16 -35q-31 -47 -97 -47q-33 0 -61.5 11t-63.5 34q-39 20 -69.5 31.5t-69.5 11.5q-104 0 -162 -92q-20 -33 -30.5 -68t-10.5 -51z" />
<glyph unicode="&#xf2;" horiz-adv-x="1226" d="M74 532q0 -111 39 -211t110 -176q74 -78 173.5 -121.5t215.5 -43.5q117 0 216.5 44t175.5 121q72 76 110.5 176.5t38.5 210.5q0 111 -39 212.5t-110 177.5q-72 78 -174.5 121.5t-217.5 43.5t-214 -44t-173 -121q-72 -76 -111.5 -177.5t-39.5 -212.5zM258 530 q0 168 104 285q49 55 114 86t136 31q72 0 137.5 -30t114.5 -85t77 -129t28 -153q0 -84 -28 -156t-77 -127t-113.5 -86t-138.5 -31q-72 0 -136 30t-114 85q-104 115 -104 280zM401 1495l183 -248l116 41l-120 207h-179z" />
<glyph unicode="&#xf3;" horiz-adv-x="1226" d="M74 532q0 -111 39 -211t110 -176q74 -78 173.5 -121.5t215.5 -43.5q117 0 216.5 44t175.5 121q72 76 110.5 176.5t38.5 210.5q0 111 -39 212.5t-110 177.5q-72 78 -174.5 121.5t-217.5 43.5t-214 -44t-173 -121q-72 -76 -111.5 -177.5t-39.5 -212.5zM258 530 q0 168 104 285q49 55 114 86t136 31q72 0 137.5 -30t114.5 -85t77 -129t28 -153q0 -84 -28 -156t-77 -127t-113.5 -86t-138.5 -31q-72 0 -136 30t-114 85q-104 115 -104 280zM524 1288l119 -41l180 248h-180z" />
<glyph unicode="&#xf4;" horiz-adv-x="1226" d="M74 532q0 -111 39 -211t110 -176q74 -78 173.5 -121.5t215.5 -43.5q117 0 216.5 44t175.5 121q72 76 110.5 176.5t38.5 210.5q0 111 -39 212.5t-110 177.5q-72 78 -174.5 121.5t-217.5 43.5t-214 -44t-173 -121q-72 -76 -111.5 -177.5t-39.5 -212.5zM258 530 q0 168 104 285q49 55 114 86t136 31q72 0 137.5 -30t114.5 -85t77 -129t28 -153q0 -84 -28 -156t-77 -127t-113.5 -86t-138.5 -31q-72 0 -136 30t-114 85q-104 115 -104 280zM340 1311l98 -49l174 129l174 -129l99 49l-207 184h-131z" />
<glyph unicode="&#xf5;" horiz-adv-x="1226" d="M74 532q0 -111 39 -211t110 -176q74 -78 173.5 -121.5t215.5 -43.5q117 0 216.5 44t175.5 121q72 76 110.5 176.5t38.5 210.5q0 111 -39 212.5t-110 177.5q-72 78 -174.5 121.5t-217.5 43.5t-214 -44t-173 -121q-72 -76 -111.5 -177.5t-39.5 -212.5zM258 530 q0 168 104 285q49 55 114 86t136 31q72 0 137.5 -30t114.5 -85t77 -129t28 -153q0 -84 -28 -156t-77 -127t-113.5 -86t-138.5 -31q-72 0 -136 30t-114 85q-104 115 -104 280zM270 1272h107l4 18q4 16 12 35q29 45 84 45q29 0 54.5 -10t66.5 -33q37 -20 68.5 -31.5 t74.5 -11.5q111 0 174 94q23 33 33 67t10 50h-106l-2 -18q-2 -14 -16 -35q-31 -47 -97 -47q-33 0 -61.5 11t-63.5 34q-39 20 -69.5 31.5t-69.5 11.5q-104 0 -162 -92q-20 -33 -30.5 -68t-10.5 -51z" />
<glyph unicode="&#xf6;" horiz-adv-x="1226" d="M74 532q0 -111 39 -211t110 -176q74 -78 173.5 -121.5t215.5 -43.5q117 0 216.5 44t175.5 121q72 76 110.5 176.5t38.5 210.5q0 111 -39 212.5t-110 177.5q-72 78 -174.5 121.5t-217.5 43.5t-214 -44t-173 -121q-72 -76 -111.5 -177.5t-39.5 -212.5zM258 530 q0 168 104 285q49 55 114 86t136 31q72 0 137.5 -30t114.5 -85t77 -129t28 -153q0 -84 -28 -156t-77 -127t-113.5 -86t-138.5 -31q-72 0 -136 30t-114 85q-104 115 -104 280zM371 1278h151v209h-151v-209zM702 1278h152v209h-152v-209z" />
<glyph unicode="&#xf7;" horiz-adv-x="1091" d="M133 514h825v148h-825v-148zM469 135h154v209h-154v-209zM469 829h154v209h-154v-209z" />
<glyph unicode="&#xf8;" horiz-adv-x="1226" d="M74 532q0 -123 48 -232.5t134 -188.5l-92 -115h112l50 63q125 -80 286 -79q117 0 216.5 44t175.5 121q72 76 110.5 176.5t38.5 210.5q0 123 -49 234t-137 190l92 117h-115l-49 -63q-127 78 -283 77q-115 0 -214 -44t-173 -121q-72 -76 -111.5 -177.5t-39.5 -212.5z M258 530q0 168 104 285q49 55 114 86t136 31q94 0 185 -58l-432 -628q-51 55 -79 127.5t-28 156.5zM426 193l434 626q51 -55 80 -128t29 -156q0 -84 -28 -156t-77 -127t-113.5 -86t-138.5 -31q-104 1 -186 58z" />
<glyph unicode="&#xf9;" horiz-adv-x="1230" d="M135 428q0 -223 86 -335.5t254 -112.5q141 0 257 64.5t188 184.5l4 -125q2 -47 37.5 -78.5t89.5 -31.5q41 0 82 6v156q-57 2 -58 65v848h-180v-670q-47 -121 -143.5 -192.5t-208.5 -71.5q-227 0 -228 328v606h-180v-641zM391 1495l182 -248l117 41l-121 207h-178z" />
<glyph unicode="&#xfa;" horiz-adv-x="1230" d="M135 428q0 -223 86 -335.5t254 -112.5q141 0 257 64.5t188 184.5l4 -125q2 -47 37.5 -78.5t89.5 -31.5q41 0 82 6v156q-57 2 -58 65v848h-180v-670q-47 -121 -143.5 -192.5t-208.5 -71.5q-227 0 -228 328v606h-180v-641zM514 1288l119 -41l180 248h-180z" />
<glyph unicode="&#xfb;" horiz-adv-x="1230" d="M135 428q0 -223 86 -335.5t254 -112.5q141 0 257 64.5t188 184.5l4 -125q2 -47 37.5 -78.5t89.5 -31.5q41 0 82 6v156q-57 2 -58 65v848h-180v-670q-47 -121 -143.5 -192.5t-208.5 -71.5q-227 0 -228 328v606h-180v-641zM330 1311l98 -49l174 129l174 -129l98 49 l-206 184h-131z" />
<glyph unicode="&#xfc;" horiz-adv-x="1230" d="M135 428q0 -223 86 -335.5t254 -112.5q141 0 257 64.5t188 184.5l4 -125q2 -47 37.5 -78.5t89.5 -31.5q41 0 82 6v156q-57 2 -58 65v848h-180v-670q-47 -121 -143.5 -192.5t-208.5 -71.5q-227 0 -228 328v606h-180v-641zM360 1278h152v209h-152v-209zM692 1278h152v209 h-152v-209z" />
<glyph unicode="&#xfd;" horiz-adv-x="1116" d="M25 1069l452 -1069q-78 -197 -104 -244q-18 -31 -38 -43t-46 -12q-47 0 -94 8v-160q49 -10 86 -10q109 0 177 50.5t101 129.5l520 1350h-172l-332 -907l-364 907h-186zM487 1288l119 -41l180 248h-180z" />
<glyph unicode="&#xfe;" horiz-adv-x="1234" d="M145 -436h185v559q41 -68 123 -114t182 -46q109 0 204 45t169 125q72 78 112.5 180.5t42.5 212.5q0 101 -35.5 203t-101.5 182q-70 86 -164 134.5t-209 48.5q-201 0 -323 -174v534h-185v-1890zM330 354v351q51 98 125 157q84 68 188 68q74 0 137.5 -32t108.5 -89 q43 -55 66.5 -128t23.5 -153q0 -77 -24.5 -150t-71.5 -128q-47 -57 -112.5 -90t-139.5 -33q-47 0 -100.5 19.5t-98.5 52.5q-47 33 -74.5 73.5t-27.5 81.5z" />
<glyph unicode="&#xff;" horiz-adv-x="1116" d="M25 1069l452 -1069q-78 -197 -104 -244q-18 -31 -38 -43t-46 -12q-47 0 -94 8v-160q49 -10 86 -10q109 0 177 50.5t101 129.5l520 1350h-172l-332 -907l-364 907h-186zM334 1278h151v209h-151v-209zM666 1278h151v209h-151v-209z" />
<glyph unicode="&#x152;" horiz-adv-x="2316" d="M80 727q0 -139 50 -272t140 -236q94 -109 220 -169t276 -60q158 0 301 96q129 84 203 236v-322h971v164h-787v495h657v164h-657v467h768v164h-952v-321q-76 150 -199 235q-135 96 -303 96q-143 0 -270 -59t-222 -164q-94 -104 -145 -237.5t-51 -276.5zM266 727 q0 106 36 208.5t99 184.5q68 84 160 131t205 47q109 0 200 -46t160 -128q66 -80 102 -182t36 -213q0 -109 -34 -212t-97 -181q-68 -84 -161 -132t-206 -48q-109 0 -202 46t-161 128q-66 80 -101.5 183t-35.5 214z" />
<glyph unicode="&#x153;" horiz-adv-x="2105" d="M74 530q0 -115 40 -215t113 -176q74 -76 172.5 -117.5t210.5 -41.5q146 0 260.5 78.5t190.5 226.5q76 -143 197.5 -224t267.5 -81q156 0 282 75q127 72 185 195l-152 43q-35 -84 -117 -129q-86 -51 -190 -51q-74 0 -139.5 27.5t-114.5 76.5q-51 49 -83 115.5t-38 140.5 h887q2 6 2 31v31q-12 248 -160 401q-72 74 -168 112.5t-209 38.5q-158 0 -273.5 -80.5t-178.5 -230.5q-59 147 -177 229t-270 82q-113 0 -211 -41.5t-172 -117.5t-114.5 -178.5t-40.5 -219.5zM258 528q0 84 27.5 158t76.5 129t115 86t137 31q74 0 138.5 -30t113.5 -85 q102 -119 103 -285q0 -82 -27 -154.5t-76 -127.5t-114.5 -85t-139.5 -30q-73 0 -138.5 30t-113.5 83q-102 115 -102 280zM1155 590q9 160 109 262q100 100 243 100q72 0 136.5 -26.5t113.5 -73.5q104 -104 117 -262h-719z" />
<glyph unicode="&#x178;" horiz-adv-x="1341" d="M27 1454l551 -919v-535h184v530l553 924h-201l-444 -758l-441 758h-202zM428 1661h152v209h-152v-209zM760 1661h151v209h-151v-209z" />
<glyph unicode="&#x2c6;" horiz-adv-x="700" d="M78 1311l98 -49l174 129l174 -129l99 49l-207 184h-131z" />
<glyph unicode="&#x2dc;" horiz-adv-x="849" d="M82 1272h106l5 18q4 16 12 35q29 45 84 45q29 0 54.5 -10t66.5 -33q37 -20 68.5 -31.5t74.5 -11.5q111 0 174 94q23 33 33 67t10 50h-106l-2 -18q-2 -14 -17 -35q-31 -47 -96 -47q-33 0 -61.5 11t-63.5 34q-39 20 -69.5 31.5t-69.5 11.5q-104 0 -162 -92 q-20 -33 -30.5 -68t-10.5 -51z" />
<glyph unicode="&#x2000;" horiz-adv-x="939" />
<glyph unicode="&#x2001;" horiz-adv-x="1878" />
<glyph unicode="&#x2002;" horiz-adv-x="939" />
<glyph unicode="&#x2003;" horiz-adv-x="1878" />
<glyph unicode="&#x2004;" horiz-adv-x="626" />
<glyph unicode="&#x2005;" horiz-adv-x="469" />
<glyph unicode="&#x2006;" horiz-adv-x="313" />
<glyph unicode="&#x2007;" horiz-adv-x="313" />
<glyph unicode="&#x2008;" horiz-adv-x="234" />
<glyph unicode="&#x2009;" horiz-adv-x="375" />
<glyph unicode="&#x200a;" horiz-adv-x="104" />
<glyph unicode="&#x2010;" horiz-adv-x="866" d="M131 477h604v164h-604v-164z" />
<glyph unicode="&#x2011;" horiz-adv-x="866" d="M131 477h604v164h-604v-164z" />
<glyph unicode="&#x2012;" horiz-adv-x="866" d="M131 477h604v164h-604v-164z" />
<glyph unicode="&#x2013;" horiz-adv-x="1191" d="M131 477h930v164h-930v-164z" />
<glyph unicode="&#x2014;" horiz-adv-x="1865" d="M131 477h1604v164h-1604v-164z" />
<glyph unicode="&#x2018;" horiz-adv-x="423" d="M127 1026h170v234h-61l40 235h-88l-61 -235v-234z" />
<glyph unicode="&#x2019;" horiz-adv-x="409" d="M125 1262h61l-41 -236h88l62 236v233h-170v-233z" />
<glyph unicode="&#x201a;" horiz-adv-x="432" d="M131 0h62l-41 -236h88l61 236v233h-170v-233z" />
<glyph unicode="&#x201c;" horiz-adv-x="706" d="M127 1026h170v234h-61l40 235h-88l-61 -235v-234zM410 1026h170v234h-62l41 235h-88l-61 -235v-234z" />
<glyph unicode="&#x201d;" horiz-adv-x="692" d="M125 1262h61l-41 -236h88l62 236v233h-170v-233zM408 1262h61l-41 -236h88l62 236v233h-170v-233z" />
<glyph unicode="&#x201e;" horiz-adv-x="714" d="M131 0h62l-41 -236h88l61 236v233h-170v-233zM414 0h61l-41 -236h88l62 236v233h-170v-233z" />
<glyph unicode="&#x2022;" horiz-adv-x="729" d="M172 711q0 -82 57 -136q27 -27 63 -42t73 -15q39 0 74.5 15.5t62.5 41.5q55 55 55 136q0 37 -15.5 72.5t-39.5 62.5q-27 27 -63 42t-74 15q-37 0 -73 -15.5t-63 -41.5q-27 -27 -42 -62.5t-15 -72.5z" />
<glyph unicode="&#x2026;" horiz-adv-x="1030" d="M131 0h152v229h-152v-229zM440 0h150v229h-150v-229zM748 0h151v229h-151v-229z" />
<glyph unicode="&#x202f;" horiz-adv-x="375" />
<glyph unicode="&#x2039;" horiz-adv-x="724" d="M82 479l518 -356v151l-373 256l373 263v151l-518 -371v-94z" />
<glyph unicode="&#x203a;" horiz-adv-x="724" d="M125 123l518 356v94l-518 371v-151l373 -263l-373 -256v-151z" />
<glyph unicode="&#x205f;" horiz-adv-x="469" />
<glyph unicode="&#x20ac;" horiz-adv-x="1628" d="M68 530h227q31 -111 91 -209t144 -171q186 -162 418 -162q176 0 340 88q170 92 238 250l-154 84q-57 -125 -182 -195q-104 -61 -234 -61q-164 0 -294 108q-123 98 -179 268h510l45 107h-579q-6 43 -6 92v29h612l45 106h-645q39 184 160 301q135 131 325 131 q125 0 226 -53q119 -63 178 -192l145 94q-70 145 -210 231t-331 86q-276 0 -464 -182q-86 -82 -141.5 -189.5t-76.5 -226.5h-114l-45 -106h149v-21q0 -51 6 -100h-159z" />
<glyph unicode="&#x2122;" horiz-adv-x="1556" d="M129 1335h195v-475h122v475h195v123h-512v-123zM735 860h123v426l160 -340h100l160 340v-426h123v594h-176l-158 -364l-158 364h-174v-594z" />
<glyph unicode="&#x25fc;" horiz-adv-x="1064" d="M0 0v1065h1065v-1065h-1065z" />
</font>
</defs>
</svg>
